<svg width="190" height="29" viewBox="0 0 190 29" fill="none" xmlns="http://www.w3.org/2000/svg">
<path d="M169.813 20.9519L173.126 26.4568C174.153 28.1066 175.845 28.8554 177.953 28.8554H186.476L176.498 16.7642L175.082 15.9581L171.347 17.1771L169.454 19.9162L169.813 20.9519Z" fill="url(#paint0_linear)"/>
<path d="M176.498 16.7641L174.415 14.2392L168.91 17.2004L169.494 20.1893L169.814 20.9518C169.689 18.9261 173.167 16.5741 176.498 16.7641Z" fill="url(#paint1_linear)"/>
<path d="M169.814 20.9517L166.835 16.0267C166.476 15.4681 166.378 14.9792 166.378 14.4097C166.378 13.7833 166.645 13.4398 167.671 12.8958C168.865 12.3238 171.271 12.075 173.751 12.075C177.78 12.075 178.746 13.3682 179.157 14.7636C179.157 14.7636 178.588 14.5375 177.25 14.5375C173.005 14.5375 169.612 16.598 169.612 19.718C169.612 20.3727 169.814 20.9517 169.814 20.9517Z" fill="url(#paint2_linear)"/>
<path d="M157.021 0H161.027C162.717 0 163.41 0.691196 164.093 1.36935C164.875 2.08052 167.248 5.29181 172.264 11.5595H166.835C164.615 11.5595 163.913 11.1813 163.055 9.872L157.021 0Z" fill="url(#paint3_linear)"/>
<path d="M188.972 27.5539L189.262 28.5958H189.268L189.562 27.5539H189.809L190 28.8584H189.802L189.667 27.794H189.662L189.358 28.8584H189.147L188.851 27.7984H188.848L188.712 28.8584H188.525L188.715 27.5539H188.972ZM188.358 27.5539V27.7215H187.974V28.8583H187.784V27.7215H187.399V27.5539H188.358Z" fill="#334357"/>
<path d="M94.3349 11.5701H94.2901L92.0099 18.0157H96.6205L94.3349 11.5701ZM98.416 23.0938L97.2994 19.9276H91.3299L90.2112 23.0938H87.6631L93.0102 9.00063H95.8497L101.115 23.0938H98.416ZM120.045 8.43593H122.537V10.7919H120.045V8.43593ZM120.072 12.359H122.508V23.0938H120.072V12.359ZM102.085 8.43489H104.579V10.7919H102.085V8.43489ZM102.114 12.359H104.55V23.0938H102.114V12.359ZM117.413 8.44876H114.977V23.0938H117.413V8.44876ZM109.648 17.8588V23.0938H107.205V15.1174C107.205 14.351 107.117 12.8917 107.087 12.3611H109.055C109.267 12.3611 109.328 12.4508 109.334 12.6601C109.339 12.9771 109.356 13.9901 109.356 13.9901H109.411C109.603 13.5258 110.296 12.1359 112.32 12.1359C112.998 12.1359 113.5 12.3547 113.582 12.3878C113.582 12.8501 113.534 13.8642 113.509 14.1321C113.494 14.3082 113.418 14.3659 113.33 14.3659C113.247 14.3659 113.208 14.3467 113.162 14.3285C113.011 14.2645 112.656 14.1567 112.164 14.1567C110.864 14.1567 109.648 15.095 109.648 17.8588ZM131.835 23.0938V16.1614C131.835 14.8377 131.231 14.0307 130.097 14.0307C128.598 14.0307 127.604 15.6256 127.604 17.7777V23.0938H125.166V15.2081C125.166 14.3403 125.087 13.0753 125.047 12.3611H127.005C127.226 12.3611 127.289 12.4519 127.291 12.6504C127.297 12.8799 127.316 13.9901 127.316 13.9901H127.372C127.665 13.4852 128.416 12.1348 130.662 12.1348C132.977 12.1348 134.271 13.718 134.271 15.4953V23.0938H131.835ZM138.577 16.6236H143.087C143.179 14.8932 142.271 13.9239 140.9 13.9239C139.466 13.9239 138.643 14.9615 138.577 16.6236ZM144.589 20.7367C144.724 20.7367 144.764 20.8552 144.774 20.9769C144.816 21.4349 144.855 22.4703 144.849 22.734C144.589 22.8173 143.279 23.2988 141.519 23.2988C138.102 23.2988 136.046 21.531 136.046 17.7253C136.046 14.4577 137.799 12.1359 140.951 12.1359C144.044 12.1359 145.515 14.2047 145.515 16.7731C145.515 17.0752 145.482 17.5855 145.429 18.2633H138.547C138.547 20.0962 139.714 21.4114 141.873 21.4114C143.062 21.4114 144.008 20.9855 144.384 20.804C144.458 20.7677 144.502 20.7367 144.589 20.7367ZM150.295 23.2988C153.467 23.2988 154.985 22.0017 154.985 20.0738C154.985 18.1758 153.637 17.3773 152.208 16.9055C151.798 16.7731 151.397 16.6386 151.022 16.5126C150.045 16.1892 149.538 15.7643 149.538 15.1302C149.538 14.4609 150.148 13.9923 151.416 13.9923C152.544 13.9923 153.465 14.4524 153.83 14.6285C153.891 14.6563 153.945 14.6958 154.042 14.6958C154.119 14.6958 154.214 14.6477 154.227 14.4577C154.252 14.0979 154.294 13.4457 154.294 12.8191C153.999 12.6835 152.932 12.1359 151.217 12.1359C148.596 12.1359 146.985 13.4991 146.985 15.2978C146.985 17.0421 148.177 17.8385 149.489 18.273C149.792 18.3754 150.352 18.5591 150.68 18.6701C152.049 19.1248 152.44 19.5379 152.44 20.1784C152.44 21.0143 151.55 21.4274 150.018 21.4274C148.761 21.4274 147.898 20.9662 147.551 20.804C147.48 20.773 147.439 20.7367 147.342 20.7367C147.161 20.7367 147.158 20.977 147.156 21.0165C147.148 21.1317 147.091 22.244 147.091 22.6144C147.378 22.7383 148.623 23.2988 150.295 23.2988ZM6.67187 11.5701H6.62703L4.34579 18.0157H8.95311L6.67187 11.5701ZM10.7519 23.0938L9.63418 19.9276H3.66473L2.54706 23.0938H0L5.34711 8.99958H8.18451L13.4494 23.0938H10.7519ZM50.5685 8.43489H53.0601V10.7908H50.5685V8.43489ZM50.5973 12.359H53.0312V23.0938H50.5973V12.359ZM45.3666 17.8588V23.0938H42.9274V15.1174C42.9274 14.3499 42.8398 12.8906 42.8078 12.359H44.7763C44.9887 12.359 45.0517 12.4508 45.0528 12.659C45.0592 12.9749 45.0784 13.9901 45.0784 13.9901H45.1328C45.326 13.5258 46.0167 12.1359 48.0418 12.1359C48.7175 12.1359 49.2235 12.3536 49.3067 12.3867C49.3067 12.849 49.2566 13.8631 49.2331 14.1321C49.2171 14.3072 49.1392 14.3637 49.0527 14.3637C48.9705 14.3637 48.9289 14.3467 48.884 14.3285C48.7303 14.2634 48.3769 14.1556 47.8891 14.1556C46.5878 14.1556 45.3666 15.095 45.3666 17.8588ZM27.3718 23.0938V16.2255C27.3718 14.9882 26.8487 14.0286 25.5858 14.0286C24.1639 14.0286 23.3441 15.585 23.3441 17.7648V23.0938H20.9091V16.2041C20.9091 15.079 20.4394 14.0286 19.1328 14.0286C17.6906 14.0286 16.8836 15.5818 16.8836 17.8417V23.0938H14.4433V15.2754C14.4433 14.2655 14.3536 12.8372 14.3248 12.359H16.2751C16.495 12.359 16.5676 12.4316 16.5719 12.659C16.5772 12.944 16.5943 13.9901 16.5943 13.9901H16.6498C16.7982 13.6838 17.5999 12.1348 19.8373 12.1348C21.9222 12.1348 22.7196 13.6304 22.9171 14.0916C23.1092 13.6859 24.0348 12.1348 26.1345 12.1348C28.3186 12.1348 29.8089 13.3069 29.8089 15.6618V23.0938H27.3718ZM34.112 16.6215H38.6221C38.715 14.8943 37.8098 13.9229 36.4359 13.9229C35.0012 13.9229 34.1803 14.9616 34.112 16.6215ZM40.1263 20.7367C40.2597 20.7367 40.3002 20.8552 40.3109 20.9769C40.3526 21.4349 40.3921 22.4714 40.3857 22.734C40.1262 22.8173 38.8164 23.2988 37.0572 23.2988C33.6391 23.2988 31.583 21.5288 31.583 17.7232C31.583 14.4598 33.3348 12.1359 36.4893 12.1359C39.5797 12.1359 41.0539 14.2036 41.0539 16.7731C41.0539 17.0752 41.0197 17.5854 40.9653 18.2612H34.0831C34.0831 20.0962 35.252 21.4114 37.4073 21.4114C38.5976 21.4114 39.5455 20.9854 39.9202 20.8018C39.9949 20.7655 40.0377 20.7367 40.1263 20.7367ZM70.6909 17.6474H70.2767C67.2151 17.6474 66.6131 18.7117 66.6131 19.793C66.6131 20.6769 67.1959 21.5139 68.3403 21.5139C69.8604 21.5139 70.6909 20.0461 70.6909 18.5014V17.6474ZM71.278 23.0938C71.0816 23.0938 70.9183 23.0287 70.8969 22.7436C70.8734 22.3935 70.8254 21.7156 70.8254 21.7156H70.7923C70.6482 21.9131 69.76 23.2988 67.53 23.2988C65.394 23.2988 64.1685 21.6526 64.1685 19.8454C64.1685 17.3399 66.6013 16.0813 70.2105 16.0813H70.6909V15.6875C70.6909 14.5634 69.8913 13.9613 68.3969 13.9613C67.0518 13.9613 65.9352 14.4332 65.5007 14.6541C65.4719 14.668 65.3929 14.7139 65.3203 14.7139C65.205 14.7139 65.1399 14.6424 65.1335 14.5153C65.1143 14.1118 65.0726 13.3358 65.0662 12.8437C65.5061 12.6761 66.9643 12.1348 68.5687 12.1348C71.7584 12.1348 73.128 13.6155 73.128 15.98V20.1657C73.128 21.6922 73.27 22.6913 73.3202 23.0938H71.278ZM62.8565 20.7367C62.9206 20.7367 63.0113 20.7794 63.0327 20.9673C63.0796 21.4787 63.0988 22.3155 63.101 22.5782C62.6142 22.8183 61.5595 23.2988 60.2657 23.2988C57.0141 23.2988 55.02 21.4114 55.02 17.7189C55.02 14.2591 56.7931 12.1359 60.2657 12.1359C61.4175 12.1359 62.4776 12.5373 63.101 12.8575C63.101 13.2397 63.0636 14.1054 63.0327 14.4694C63.0177 14.6221 62.9441 14.6958 62.8565 14.6958C62.7594 14.6958 62.7263 14.6701 62.6686 14.6445C61.884 14.2602 61.1464 14.0744 60.4824 14.0744C58.4125 14.0744 57.5607 15.4291 57.5607 17.7189C57.5607 19.76 58.2417 21.3601 60.4824 21.3601C61.3385 21.3601 62.1189 21.0549 62.6025 20.8222C62.7327 20.7613 62.7551 20.7367 62.8565 20.7367ZM81.9061 23.0938V16.1614C81.9061 14.8367 81.3018 14.0296 80.1703 14.0296C78.6705 14.0296 77.6734 15.6234 77.6734 17.7777V23.0938H75.2385V15.2081C75.2385 14.3403 75.1595 13.0753 75.121 12.359H77.0756C77.2987 12.359 77.3628 12.4519 77.3638 12.6504C77.3692 12.8778 77.3873 13.9901 77.3873 13.9901H77.4407C77.7375 13.4841 78.4869 12.1337 80.7329 12.1337C83.0515 12.1337 84.3453 13.7179 84.3453 15.4932V23.0938H81.9061Z" fill="#334357"/>
<defs>
<linearGradient id="paint0_linear" x1="169.447" y1="16.8699" x2="169.447" y2="28.8251" gradientUnits="userSpaceOnUse">
<stop stop-color="#EB2023"/>
<stop offset="0.0963" stop-color="#E92026"/>
<stop offset="0.2039" stop-color="#E31E27"/>
<stop offset="0.2986" stop-color="#E01E26"/>
<stop offset="0.4043" stop-color="#D81F27"/>
<stop offset="0.5" stop-color="#CF2027"/>
<stop offset="0.6" stop-color="#C62127"/>
<stop offset="0.7" stop-color="#B92025"/>
<stop offset="0.8" stop-color="#AE1F23"/>
<stop offset="0.9" stop-color="#A01D22"/>
<stop offset="1" stop-color="#901C1C"/>
</linearGradient>
<linearGradient id="paint1_linear" x1="169.779" y1="20.932" x2="176.422" y2="16.678" gradientUnits="userSpaceOnUse">
<stop stop-color="#6C221F"/>
<stop offset="0.2491" stop-color="#7F2620"/>
<stop offset="0.4983" stop-color="#982B24"/>
<stop offset="0.7491" stop-color="#B53125"/>
<stop offset="1" stop-color="#CB3327"/>
</linearGradient>
<linearGradient id="paint2_linear" x1="169.258" y1="19.786" x2="178.989" y2="14.1557" gradientUnits="userSpaceOnUse">
<stop stop-color="#E7EBEE"/>
<stop offset="0.2491" stop-color="#DFE4E8"/>
<stop offset="0.4983" stop-color="#CAD1D7"/>
<stop offset="0.7491" stop-color="#A8B5BD"/>
<stop offset="1" stop-color="#93A6AD"/>
</linearGradient>
<linearGradient id="paint3_linear" x1="163.739" y1="0.00346809" x2="163.739" y2="11.553" gradientUnits="userSpaceOnUse">
<stop stop-color="#05AEE9"/>
<stop offset="0.0963" stop-color="#00A9E0"/>
<stop offset="0.2039" stop-color="#07A3DC"/>
<stop offset="0.2986" stop-color="#089DD5"/>
<stop offset="0.4043" stop-color="#0A92CC"/>
<stop offset="0.5" stop-color="#0F87C3"/>
<stop offset="0.6" stop-color="#127CB8"/>
<stop offset="0.7" stop-color="#0E70AD"/>
<stop offset="0.8" stop-color="#0F63A3"/>
<stop offset="0.9" stop-color="#135393"/>
<stop offset="1" stop-color="#184485"/>
</linearGradient>
</defs>
</svg>
