<svg width="120" height="120" viewBox="0 0 120 120" fill="none" xmlns="http://www.w3.org/2000/svg">
<path d="M92.4653 47.6638C91.8903 46.8346 91.4325 45.9301 91.1048 44.9758C90.9029 43.9468 90.8414 42.8953 90.9218 41.8498C91.1375 40.0815 90.8532 38.2882 90.1013 36.6733C89.0687 35.2002 87.6431 34.0468 85.9868 33.3448C85.0515 32.9035 84.1814 32.3358 83.4008 31.6573C82.7216 30.8773 82.1528 30.0076 81.7103 29.0728C81.0087 27.4167 79.8552 25.9914 78.3818 24.9598C76.7679 24.2064 74.9745 23.9221 73.2068 24.1393C72.1593 24.2203 71.1057 24.1588 70.0748 23.9563C69.1205 23.628 68.216 23.1697 67.3868 22.5943C65.9292 21.5023 64.1966 20.8375 62.3828 20.6743C60.5663 20.8362 58.8309 21.501 57.3713 22.5943C56.5422 23.1697 55.6376 23.628 54.6833 23.9563C53.6526 24.1603 52.5987 24.2218 51.5513 24.1393C49.7831 23.9229 47.9895 24.2071 46.3748 24.9598C44.9036 25.9926 43.7519 27.4177 43.0508 29.0728C42.6099 30.0046 42.0437 30.8716 41.3678 31.6498C40.5878 32.329 39.7181 32.8978 38.7833 33.3403C37.127 34.0423 35.7014 35.1957 34.6688 36.6688C33.9176 38.2834 33.6335 40.0761 33.8483 41.8438C33.9308 42.8913 33.8693 43.9452 33.6653 44.9758C33.3369 45.928 32.8791 46.8304 32.3048 47.6578C31.2114 49.1175 30.5466 50.8528 30.3848 52.6693C30.5466 54.4858 31.2114 56.2212 32.3048 57.6808C32.8809 58.5093 33.3387 59.4141 33.6653 60.3688C33.8693 61.3995 33.9308 62.4534 33.8483 63.5008C33.635 65.2662 33.9191 67.056 34.6688 68.6683C35.7005 70.143 37.1262 71.2975 38.7833 71.9998C39.7173 72.4423 40.5864 73.0105 41.3663 73.6888C41.7879 74.1418 42.1512 74.6457 42.4478 75.1888L41.1248 80.0653L38.1008 91.1863H38.1098C38.0502 91.4133 38.0543 91.6521 38.1212 91.8769C38.1881 92.1018 38.3154 92.3038 38.4894 92.4612C38.6633 92.6185 38.8772 92.7252 39.1076 92.7694C39.3378 92.8135 39.576 92.7937 39.7958 92.7118L48.4148 89.5108C48.6638 89.4189 48.9353 89.4073 49.1912 89.4778C49.4471 89.5483 49.6745 89.6974 49.8413 89.9038L55.6538 97.0078C55.7724 97.1532 55.9218 97.2705 56.0912 97.3515C56.2605 97.4323 56.4456 97.4748 56.6333 97.4758C56.723 97.4766 56.8125 97.4676 56.9003 97.4488C57.1302 97.3993 57.342 97.2877 57.5129 97.126C57.6837 96.9645 57.807 96.7591 57.8693 96.5323L61.1273 84.5323C61.9382 84.7273 62.7839 84.7273 63.5948 84.5323L66.8423 96.5323C66.9039 96.7591 67.0268 96.9645 67.1973 97.126C67.368 97.2876 67.5798 97.399 67.8096 97.4482C68.0394 97.4973 68.2782 97.4821 68.5001 97.4046C68.7218 97.3269 68.9178 97.1896 69.0668 97.0078L74.8793 89.9038C75.05 89.6977 75.2804 89.5494 75.5387 89.4793C75.7971 89.4093 76.0707 89.4208 76.3223 89.5123L84.9233 92.7133C85.1439 92.7951 85.3827 92.8144 85.6136 92.7694C85.8446 92.7243 86.0586 92.6166 86.2323 92.4579C86.406 92.2992 86.5326 92.0958 86.5983 91.8699C86.664 91.644 86.6663 91.4044 86.6048 91.1773L82.2848 75.2533C82.5903 74.6884 82.9658 74.1643 83.4023 73.6933C84.1824 73.0135 85.052 72.4437 85.9868 71.9998C87.6437 71.2987 89.0696 70.1452 90.1013 68.6713C90.8532 67.057 91.1375 65.2641 90.9218 63.4963C90.8408 62.4489 90.9023 61.3953 91.1048 60.3643C91.4331 59.4103 91.8909 58.5058 92.4653 57.6763C93.5585 56.2189 94.2234 54.4855 94.3853 52.6708C94.2233 50.8557 93.5585 49.1218 92.4653 47.6638Z" fill="white"/>
<path d="M93.4367 47.0997C93.0236 46.5021 92.6717 45.8645 92.3867 45.1962C92.0867 44.4837 92.0342 43.7367 92.0192 42.9717C92.0042 42.1737 92.1302 41.3862 92.1212 40.5897C92.111 39.7449 92.0022 38.9043 91.7972 38.0847C91.6112 37.3347 91.3622 36.4752 90.8972 35.8557C90.4683 35.2701 89.9829 34.728 89.4482 34.2372C88.8932 33.7394 88.2902 33.2978 87.6482 32.9187C87.0482 32.5662 86.3882 32.3187 85.7807 31.9692C85.1732 31.6197 84.5612 31.2657 84.1127 30.7692C83.6507 30.2259 83.253 29.6309 82.9277 28.9962C82.5932 28.3677 82.3277 27.7137 81.9482 27.1107C81.5603 26.4989 81.1131 25.9266 80.6132 25.4022C80.1317 24.8982 79.5632 24.3432 78.9542 23.9967C78.2462 23.5917 77.3612 23.3457 76.5662 23.1837C75.7617 23.0127 74.9403 22.9343 74.1182 22.9497C73.3112 22.9707 72.5222 23.0787 71.7182 23.0367C70.9998 23.0174 70.2918 22.8617 69.6317 22.5777C68.9544 22.2564 68.3078 21.8744 67.6997 21.4362C66.4665 20.579 65.0658 19.9925 63.5897 19.7157C63.1949 19.6277 62.7935 19.5731 62.3897 19.5522C61.9635 19.5704 61.5401 19.6292 61.1252 19.7277C60.4275 19.8641 59.7459 20.0721 59.0912 20.3487C58.3616 20.6459 57.6674 21.0233 57.0212 21.4737C56.4119 21.9125 55.7619 22.2917 55.0802 22.6062C53.6882 23.2362 52.1072 22.9767 50.5802 22.9482C49.7585 22.9364 48.9381 23.0184 48.1352 23.1927C47.3702 23.3547 46.4927 23.5902 45.8147 23.9907C45.1848 24.3954 44.6127 24.8832 44.1137 25.4412C43.6146 25.9656 43.1685 26.5379 42.7817 27.1497C42.0317 28.3377 41.5697 29.7357 40.6592 30.7497C39.7487 31.7637 38.2712 32.2332 37.0712 32.9442C35.807 33.7026 34.7081 34.7075 33.8402 35.8992C33.3902 36.5172 33.1412 37.3992 32.9612 38.1492C32.7674 38.9475 32.6643 39.7652 32.6537 40.5867C32.6372 42.1257 32.9897 43.7367 32.3927 45.1827C32.1059 45.8561 31.751 46.4984 31.3337 47.0997L32.3042 46.5432C31.5632 46.5432 31.1642 47.2932 30.8222 47.8527C30.5036 48.3783 30.2286 48.9291 30.0002 49.4997C29.8032 49.9772 29.6438 50.469 29.5232 50.9712C29.3837 51.5532 29.2322 52.2102 29.2667 52.8072C29.3342 53.9922 29.6942 55.1622 30.1667 56.2437C30.6167 57.2667 31.2947 58.1097 31.8437 59.0697C32.0925 59.502 32.3067 59.9535 32.4842 60.4197C32.6897 60.9732 32.7242 61.5792 32.7467 62.1642C32.7917 63.3162 32.5832 64.4502 32.6972 65.6022C32.7528 66.2097 32.8577 66.8117 33.0107 67.4022C33.1727 68.0112 33.3767 68.6997 33.6947 69.2458C34.2167 70.1457 35.0732 70.9437 35.8847 71.5767C36.3732 71.9627 36.8948 72.305 37.4432 72.5997C37.9727 72.8817 38.5277 73.1052 39.0497 73.4067C39.5546 73.6866 40.0299 74.0169 40.4687 74.3923C40.88 74.7836 41.2209 75.2427 41.4767 75.7497L41.3627 74.8827C40.8797 76.6647 40.3961 78.4463 39.9122 80.2272L37.7342 88.2447L37.0187 90.8802C36.8387 91.5462 37.3637 92.3562 38.1047 92.3052H38.1137L37.0292 90.8818C36.8417 91.7712 37.0592 92.7088 37.7792 93.3133C38.0858 93.5795 38.4545 93.7646 38.8512 93.8516C39.248 93.9386 39.6602 93.9248 40.0502 93.8112C40.3172 93.7272 40.5782 93.6162 40.8407 93.5188L45.0527 91.9497L48.5477 90.6507L48.6797 90.6028L48.7112 90.5908C48.729 90.5833 48.7476 90.5771 48.7667 90.5727C48.8462 90.5532 48.8402 90.5472 48.7472 90.5563H48.8027C48.8852 90.5563 48.8777 90.5563 48.7817 90.5352C48.7472 90.5518 49.0412 90.5127 48.8297 90.5232C48.8402 90.5232 49.0247 90.6327 48.8837 90.5232C48.9428 90.5726 48.9965 90.6278 49.0442 90.6883C49.0577 90.7033 49.0697 90.7197 49.0817 90.7347C49.3352 91.0348 49.5797 91.3438 49.8317 91.6482C51.4982 93.6852 53.1137 95.7822 54.8402 97.7697C55.8722 98.9577 57.7442 98.7822 58.6262 97.5237C58.8677 97.1802 58.9637 96.7888 59.0762 96.3943L60.0467 92.8213L62.1767 84.9732L62.2187 84.8232L60.8357 85.6077C61.8435 85.841 62.891 85.844 63.9002 85.6168L62.5157 84.8307L65.4467 95.6533C65.5527 96.1193 65.6834 96.5795 65.8382 97.0318C66.063 97.6235 66.5114 98.1031 67.0866 98.3671C67.6619 98.6312 68.318 98.6585 68.9132 98.4432C69.3477 98.2731 69.7286 97.9892 70.0157 97.6212L73.9502 92.8063L75.5462 90.8563C75.5867 90.8083 75.6302 90.7603 75.6677 90.7063C75.7052 90.6523 75.7622 90.5292 75.7022 90.6357C75.7022 90.6267 75.8987 90.5158 75.7322 90.5938C75.8022 90.5676 75.8745 90.548 75.9482 90.5352C75.8357 90.5563 75.8492 90.5637 75.9857 90.5592C75.8882 90.4842 75.9512 90.5592 76.0367 90.5967C76.0577 90.606 76.0791 90.614 76.1012 90.6208L76.4102 90.7362L82.3952 92.9638C83.1077 93.2278 83.8172 93.5007 84.5327 93.7588C84.8903 93.8903 85.2741 93.9356 85.6526 93.8907C86.031 93.8459 86.3936 93.7122 86.7107 93.5008C87.1257 93.214 87.4421 92.8061 87.6165 92.3327C87.7911 91.8594 87.8153 91.3438 87.6857 90.8563C87.3737 89.5588 86.9837 88.2733 86.6357 86.9847L83.4362 75.2022L83.3687 74.9517L83.2547 75.8187C83.4848 75.3747 83.7701 74.9613 84.1037 74.5887C84.4824 74.2119 84.909 73.8867 85.3727 73.6212C86.2382 73.0767 87.2027 72.7302 88.0592 72.1722C88.9241 71.6133 89.7032 70.9316 90.3722 70.1487C90.783 69.6866 91.1145 69.1593 91.3532 68.5887C91.5825 68.0282 91.7598 67.4478 91.8827 66.8547C92.1227 65.6757 92.1197 64.5432 92.0327 63.3492C91.9562 62.2992 91.9922 61.0992 92.3702 60.1662C92.8007 59.1162 93.5117 58.2507 94.0757 57.2742C94.6226 56.3325 95.0241 55.3134 95.2667 54.2517C95.4167 53.6142 95.5457 52.9377 95.4647 52.2852C95.3943 51.6704 95.2739 51.0624 95.1047 50.4672C94.7478 49.2566 94.1834 48.1172 93.4367 47.0997C93.0752 46.6122 92.4617 46.3662 91.8962 46.6962C91.4162 46.9782 91.1297 47.7462 91.4927 48.2367C92.249 49.2239 92.7867 50.3604 93.0707 51.5712C93.1437 51.8648 93.2003 52.1622 93.2402 52.4622C93.2267 52.3557 93.2552 52.6947 93.2537 52.7442C93.2537 52.7607 93.2237 53.0232 93.2372 52.9167C93.2372 52.8762 93.2027 53.1387 93.1997 53.1522C93.0917 53.789 92.9208 54.4136 92.6897 55.0167C92.4744 55.5452 92.2103 56.0525 91.9007 56.5317C91.5347 57.1002 91.1327 57.6327 90.8147 58.2327C90.4787 58.8672 90.1037 59.5827 89.9777 60.2952C89.8346 61.0827 89.7623 61.8813 89.7617 62.6817C89.7617 63.3777 89.8727 64.0662 89.8652 64.7637C89.8646 65.4069 89.783 66.0474 89.6222 66.6702C89.4722 67.2912 89.2952 67.9182 88.9127 68.4102C88.9847 68.3172 88.7717 68.5782 88.7432 68.6097C88.6517 68.7177 88.5572 68.8242 88.4597 68.9277C88.2386 69.1653 88.0053 69.3911 87.7607 69.6042C87.3456 69.9669 86.8931 70.2842 86.4107 70.5507C85.8572 70.8657 85.2617 71.0952 84.7067 71.4087C84.0788 71.7699 83.4822 72.1829 82.9232 72.6432C82.3829 73.1084 81.9228 73.6593 81.5612 74.2737C81.3017 74.6892 81.1112 75.0867 81.2147 75.5892C81.2297 75.6582 81.2522 75.7287 81.2717 75.7977L81.5177 76.6978L82.4177 80.0337L84.6872 88.3932L85.4117 91.0602C85.4492 91.1967 85.4912 91.3332 85.5242 91.4712C85.4987 91.3647 85.5332 91.4517 85.5242 91.5237C85.5332 91.3632 85.5242 91.5238 85.5137 91.5673C85.5407 91.5027 85.6082 91.4697 85.4867 91.6152C85.5347 91.5567 85.4267 91.6542 85.4252 91.6557C85.3712 91.6812 85.3682 91.6708 85.3247 91.6633C85.1387 91.6302 85.4597 91.7097 85.2782 91.6423C85.3697 91.6768 85.2377 91.6318 85.2212 91.6243L85.2017 91.6168C85.1702 91.6033 85.1357 91.5927 85.1027 91.5807C82.7732 90.7302 80.4527 89.8512 78.1292 88.9857C77.0792 88.5927 76.0292 88.0302 74.8937 88.5252C74.0372 88.9002 73.4417 89.8903 72.8687 90.5908C71.3462 92.4507 69.8537 94.3407 68.3012 96.1737C68.2904 96.185 68.2803 96.1972 68.2712 96.2098L68.1917 96.2982C68.2787 96.2082 68.1782 96.3162 68.1422 96.3357C68.1932 96.3087 68.3042 96.3193 68.0897 96.3508C68.2157 96.3328 68.1062 96.3613 68.0432 96.3508C68.2067 96.3823 68.0237 96.3507 68.0012 96.3357C68.0747 96.3717 68.0942 96.4227 67.9757 96.3162C67.9997 96.3372 68.0912 96.3897 67.9922 96.3282C67.8527 96.2428 68.0717 96.4347 67.9652 96.3087C67.8782 96.2052 67.9967 96.4857 67.9262 96.2307V96.2158C67.8632 95.9967 67.8077 95.7762 67.7477 95.5572L66.8387 92.2002L64.8107 84.7077L64.6832 84.2353C64.5986 83.9509 64.4072 83.7101 64.149 83.5635C63.891 83.4171 63.5862 83.376 63.2987 83.4492C62.6834 83.5862 62.0453 83.5836 61.4312 83.4418C61.1435 83.3678 60.8384 83.4085 60.5801 83.5552C60.3219 83.7017 60.1305 83.9429 60.0467 84.2278L58.2872 90.7107L57.1577 94.8688L56.8442 96.0237C56.8262 96.0912 56.8082 96.1602 56.7887 96.2278C56.7801 96.2651 56.7686 96.3017 56.7542 96.3372C56.8127 96.2067 56.7542 96.3372 56.7197 96.3568L56.7392 96.3252C56.7812 96.2652 56.7617 96.2787 56.6822 96.3672L56.7092 96.3418C56.7662 96.2952 56.7437 96.3042 56.6432 96.3687C56.7677 96.3687 56.6432 96.3148 56.6582 96.3493C56.6357 96.3118 56.5787 96.3927 56.6747 96.3612C56.7962 96.3192 56.4992 96.3883 56.6627 96.3793C56.6252 96.3793 56.5037 96.2953 56.6102 96.3793C56.5547 96.3311 56.5044 96.2773 56.4602 96.2188L56.4512 96.2083C56.4287 96.1827 56.4077 96.1542 56.3867 96.1272C56.2832 96.0042 56.1827 95.8797 56.0867 95.7568L54.9572 94.3767L51.9782 90.7497C51.3167 89.9412 50.6282 88.7892 49.6007 88.4337C48.5072 88.0587 47.2667 88.7487 46.2587 89.1237L41.8637 90.7497L40.1402 91.3903C39.8691 91.5138 39.5882 91.6142 39.3002 91.6903C39.5762 91.6393 39.3002 91.6902 39.3002 91.6737L39.4022 91.6903L39.3062 91.6662C39.3587 91.5312 39.0257 91.8162 39.3062 91.6662L39.2642 91.6407C39.1982 91.5987 39.2072 91.6093 39.2942 91.6708L39.2582 91.6362C39.2042 91.5792 39.2087 91.5913 39.2717 91.6722C39.2597 91.6722 39.1907 91.5117 39.2312 91.6258C39.2822 91.7757 39.1787 91.4548 39.2027 91.5552C39.2267 91.6557 39.2372 91.3422 39.2027 91.4907C39.3422 90.8262 38.8892 90.0147 38.1167 90.0673H38.1002L39.1847 91.4907L40.6547 86.0772L42.2027 80.3772C42.4416 79.5012 42.6797 78.6248 42.9167 77.7477L43.3997 75.9642C43.4387 75.8142 43.4867 75.6763 43.5182 75.5308C43.6472 74.9397 43.3547 74.4808 43.0337 74.0083C42.6645 73.4441 42.209 72.9414 41.6837 72.5187C41.1539 72.0941 40.5911 71.7123 40.0007 71.3772C39.4802 71.0892 38.9282 70.8717 38.4092 70.5822C37.9602 70.3349 37.5345 70.0478 37.1372 69.7242C36.7184 69.3714 36.3305 68.9835 35.9777 68.5647C35.6601 68.1656 35.4266 67.7063 35.2907 67.2147C34.8992 65.9682 34.8512 64.8342 34.9637 63.5187C35.0217 62.8194 35.0127 62.1162 34.9367 61.4187C34.8977 61.0467 34.8482 60.6687 34.7867 60.3042C34.6977 59.9127 34.5644 59.5328 34.3892 59.1717C34.1496 58.5998 33.8648 58.0481 33.5372 57.5217C33.2087 56.9997 32.8307 56.5167 32.5322 55.9767C32.261 55.4999 32.0436 54.9942 31.8842 54.4692C31.7987 54.2022 31.7267 53.9322 31.6652 53.6577C31.6322 53.5077 31.6022 53.3577 31.5752 53.2077C31.5482 53.0577 31.5287 52.9077 31.5242 52.8642C31.4732 52.3707 31.6082 51.8697 31.7567 51.3117C31.8945 50.7809 32.0844 50.2649 32.3237 49.7712C32.5922 49.229 32.9094 48.7124 33.2717 48.2277L32.2997 48.7842C33.1997 48.7842 33.7247 47.5737 34.0742 46.8717C34.4658 46.1426 34.7336 45.3533 34.8662 44.5362C34.9973 43.6707 35.0334 42.7935 34.9742 41.9202C34.8912 41.1542 34.8861 40.3817 34.9592 39.6147C35.0574 38.9312 35.231 38.2607 35.4767 37.6152C35.6987 37.0317 36.0377 36.6852 36.5162 36.2037C36.7449 35.9742 36.9852 35.7564 37.2362 35.5512C37.4645 35.3723 37.703 35.2065 37.9502 35.0547C38.5337 34.6842 39.1652 34.4277 39.7757 34.1067C40.4738 33.7326 41.1351 33.2936 41.7512 32.7957C42.3512 32.3172 42.8117 31.6857 43.2347 31.0467C43.6232 30.414 43.9737 29.759 44.2847 29.0847C44.4212 28.8132 44.5712 28.5477 44.7347 28.2882C44.8217 28.1517 44.9117 28.0167 45.0032 27.8832C45.0497 27.8172 45.0977 27.7512 45.1457 27.6867C45.1937 27.6222 45.1937 27.6207 45.1532 27.6717L45.2297 27.5772C45.6531 27.0587 46.1276 26.5838 46.6457 26.1597C46.7957 26.0322 46.5482 26.2317 46.7072 26.1102C46.7717 26.0607 46.8362 26.0097 46.9052 25.9602C47.0195 25.8906 47.1413 25.8338 47.2682 25.7907C47.6369 25.6481 48.0141 25.5284 48.3977 25.4322C49.0863 25.2594 49.7954 25.1813 50.5052 25.1997C51.3077 25.2087 52.0967 25.3272 52.9052 25.2972C53.7137 25.2672 54.6002 25.1997 55.3727 24.8997C56.1279 24.6144 56.8538 24.2567 57.5402 23.8317C58.1537 23.4447 58.7207 23.0067 59.3702 22.6767C59.9561 22.3809 60.5748 22.1553 61.2137 22.0047C61.9307 21.8277 62.3627 21.7677 62.9852 21.8817C63.6638 22.001 64.3265 22.1973 64.9607 22.4667C66.1352 22.9782 67.3397 24.0087 68.6147 24.5742C68.9904 24.7586 69.3795 24.9146 69.7787 25.0407C70.2425 25.1462 70.7139 25.2144 71.1887 25.2447C72.0012 25.3085 72.8178 25.301 73.6292 25.2222C74.3408 25.1613 75.0573 25.1891 75.7622 25.3047C76.4387 25.4277 77.2427 25.6047 77.8172 25.9302C78.2552 26.1807 78.7322 26.6667 79.1462 27.1182C79.2561 27.2372 79.3626 27.3587 79.4657 27.4827C79.5362 27.5627 79.6017 27.6468 79.6622 27.7347C79.8617 28.0167 80.0522 28.3017 80.2247 28.6017C80.5757 29.2107 80.8247 29.8677 81.1802 30.4752C81.567 31.1672 82.0316 31.8129 82.5647 32.3997C83.5952 33.4902 85.0172 34.0302 86.2982 34.7352C86.5832 34.8852 86.8592 35.0622 87.1262 35.2467C87.366 35.4083 87.5936 35.5872 87.8072 35.7822C88.0487 35.9982 88.2812 36.2247 88.5017 36.4632C88.7045 36.6717 88.8905 36.896 89.0582 37.1337C89.4197 37.6767 89.5967 38.4837 89.7272 39.1527C89.8578 39.8547 89.8982 40.5705 89.8472 41.2827C89.7755 42.0656 89.7584 42.8525 89.7962 43.6377C89.8307 44.0877 89.8892 44.5377 89.9657 44.9787C90.066 45.4397 90.2217 45.887 90.4292 46.3107C90.7217 46.9832 91.0778 47.6261 91.4927 48.2307C91.8362 48.7302 92.4812 48.9552 93.0332 48.6342C93.5282 48.3447 93.7802 47.5992 93.4367 47.0997Z" fill="black"/>
<path d="M76.7749 79.2556C76.7749 79.2556 80.1754 84.0001 78.9004 85.1311C77.6254 86.2621 75.1504 84.8311 73.6504 85.7311C72.1504 86.6311 68.4004 96.1501 68.4004 96.1501L75.8254 89.1001L86.5294 92.0536L81.7669 75.7036L76.7749 79.2556Z" fill="#B2B2B2"/>
<path d="M53.7 76.6499C53.7 76.6499 55.0185 87.3839 53.3655 87.7844C51.7125 88.1849 50.187 85.7729 48.441 85.8704C46.695 85.9679 38.9385 92.6504 38.9385 92.6504L48.7935 89.8694L56.8935 97.4684L62.7659 77.5904L53.7 76.6499Z" fill="#B2B2B2"/>
<path d="M93.1126 47.2858C92.6779 46.665 92.3113 45.9991 92.0191 45.2998C91.7191 44.5618 91.6546 43.7668 91.6381 42.9748C91.6216 42.1828 91.7491 41.3893 91.7401 40.5928C91.7295 39.7836 91.6252 38.9782 91.4296 38.1928C91.2511 37.4743 91.0156 36.6523 90.5686 36.0538C89.7342 34.9105 88.6725 33.9519 87.4501 33.2383C86.8501 32.8858 86.1916 32.6383 85.5841 32.2888C84.9766 31.9393 84.3076 31.5463 83.8396 31.0243C83.3532 30.4599 82.9357 29.8395 82.5961 29.1763C82.2616 28.5493 81.9961 27.8938 81.6181 27.2908C81.2466 26.7067 80.8191 26.1601 80.3416 25.6588C79.8811 25.1773 79.3381 24.6433 78.7576 24.3088C78.0751 23.9188 77.2231 23.6893 76.4596 23.5333C75.6879 23.3728 74.9002 23.3008 74.1121 23.3188C73.3051 23.3398 72.5161 23.4478 71.7121 23.4058C70.9276 23.3863 70.1545 23.2129 69.4366 22.8958C68.758 22.5757 68.1097 22.1947 67.5001 21.7573C66.2943 20.9172 64.9234 20.3434 63.4786 20.0743C63.1176 19.993 62.7502 19.9429 62.3806 19.9243C61.9884 19.9416 61.5987 19.9959 61.2166 20.0863C60.519 20.2222 59.8372 20.4303 59.1826 20.7073C57.7801 21.2953 56.6416 22.3033 55.2601 22.9273C54.5599 23.2285 53.8081 23.392 53.0461 23.4088C52.2136 23.4523 51.3961 23.3353 50.5696 23.3203C49.7835 23.3085 48.9985 23.3854 48.2296 23.5498C47.4946 23.6998 46.6501 23.9248 45.9991 24.3103C44.8261 25.0033 43.8196 26.2018 43.1056 27.3418C42.3421 28.5583 41.8981 29.9308 40.9246 31.0213C39.9511 32.1118 38.4796 32.5543 37.2601 33.2713C36.0501 33.9951 34.9974 34.9539 34.1641 36.0913C33.7231 36.6913 33.4966 37.5343 33.3226 38.2483C33.1344 39.0139 33.0337 39.7984 33.0226 40.5868C33.0061 42.1813 33.3616 43.7983 32.7226 45.3283C32.4324 46.014 32.0715 46.6675 31.6456 47.2783L32.2921 46.9063C31.7266 46.9063 31.3921 47.6083 31.1341 48.0298C30.8331 48.5275 30.5727 49.0486 30.3556 49.5883C30.1587 50.0662 29.9992 50.5587 29.8786 51.0613C29.7466 51.6118 29.6026 52.2313 29.6356 52.7968C29.6986 53.9113 30.0406 55.0258 30.4801 56.0443C30.9196 57.0628 31.6096 57.9103 32.1586 58.8703C32.4277 59.3323 32.659 59.8155 32.8501 60.3148C33.0646 60.8923 33.1006 61.5463 33.1246 62.1583C33.1696 63.3103 32.9611 64.4443 33.0751 65.5963C33.1891 66.7483 33.4351 68.0473 34.0216 69.0538C34.5271 69.9238 35.3716 70.6963 36.1516 71.3038C36.6162 71.6703 37.1115 71.9961 37.6321 72.2773C38.1616 72.5608 38.7181 72.7828 39.2386 73.0843C39.7731 73.3824 40.2757 73.7341 40.7386 74.1343C41.1706 74.5498 41.5309 75.0339 41.8051 75.5668L41.7301 74.9878C41.2471 76.7698 40.7637 78.5518 40.2796 80.3338L38.1001 88.3498L37.3831 90.9853C37.2631 91.4278 37.6126 91.9678 38.1076 91.9348H38.1166L37.3936 90.9853C37.2331 91.7473 37.4281 92.5408 38.0401 93.0523C38.3004 93.2719 38.6112 93.4233 38.9446 93.4926C39.2779 93.562 39.6234 93.5473 39.9496 93.4498C40.2166 93.3658 40.4791 93.2548 40.7416 93.1498L44.9536 91.5853L48.4501 90.2998C48.8146 90.1648 49.0771 90.1498 49.3501 90.4828C49.6021 90.7828 49.8481 91.0918 50.1001 91.3963C51.7666 93.4333 53.3806 95.5303 55.1071 97.5178C55.3105 97.7494 55.5637 97.9318 55.8477 98.0515C56.1316 98.1711 56.4391 98.2249 56.7468 98.2087C57.0546 98.1925 57.3547 98.1069 57.6246 97.9581C57.8944 97.8094 58.1271 97.6014 58.3051 97.3498C58.5286 97.0348 58.6126 96.6733 58.7116 96.3088L59.6821 92.7358L61.8121 84.8893L61.8541 84.7303L60.9316 85.2538C61.8744 85.4718 62.854 85.4749 63.7981 85.2628L62.8741 84.7378L65.8051 95.5498C65.91 96.0162 66.0406 96.4764 66.1966 96.9283C66.3951 97.4241 66.7801 97.8222 67.2691 98.0368C67.7581 98.2515 68.3119 98.2654 68.8111 98.0758C69.1816 97.9212 69.5046 97.6713 69.7471 97.3513L73.6876 92.5498L75.2851 90.5998C75.4696 90.3748 75.6541 90.1348 75.9886 90.1963C76.1685 90.244 76.3437 90.3079 76.5121 90.3868L82.5001 92.6038C83.2126 92.8678 83.9236 93.1393 84.6376 93.3988C84.9891 93.5275 85.3689 93.5577 85.7362 93.4861C86.1036 93.4144 86.4442 93.2437 86.7216 92.9925C86.9988 92.7411 87.202 92.4187 87.3094 92.0602C87.4167 91.7017 87.4239 91.3206 87.3301 90.9583C87.0211 89.6593 86.6281 88.3738 86.2801 87.0853L83.0761 75.2998L83.0086 75.0493L82.9321 75.6268C83.1762 75.1558 83.4786 74.7174 83.8321 74.3218C84.2374 73.9243 84.691 73.5792 85.1821 73.2943C86.0476 72.7513 87.0121 72.4048 87.8671 71.8453C88.7047 71.302 89.4591 70.6401 90.1066 69.8803C90.4752 69.4665 90.7735 68.9953 90.9901 68.4853C91.2193 67.9252 91.3966 67.3453 91.5196 66.7528C91.7521 65.6083 91.7416 64.5028 91.6576 63.3463C91.5766 62.2303 91.6096 61.0168 92.0461 59.9743C92.4826 58.9318 93.1861 58.0603 93.7516 57.0823C94.2825 56.1685 94.6723 55.1799 94.9081 54.1498C95.0446 53.5498 95.1706 52.9033 95.0926 52.2823C95.023 51.7015 94.9071 51.1272 94.7461 50.5648C94.3974 49.3834 93.8445 48.2721 93.1126 47.2813C92.8711 46.9558 92.4631 46.7923 92.0866 47.0113C91.7656 47.1988 91.5751 47.7103 91.8166 48.0373C92.5822 49.0578 93.132 50.2234 93.4321 51.4633C93.5821 52.0633 93.6661 52.6288 93.5611 53.2438C93.453 53.8806 93.2821 54.5052 93.0511 55.1083C92.5861 56.3173 91.7386 57.2803 91.1386 58.4083C90.8176 59.0083 90.4606 59.7013 90.3391 60.3823C90.2028 61.1367 90.135 61.9018 90.1366 62.6683C90.1366 63.3643 90.2476 64.0528 90.2401 64.7503C90.2337 65.4265 90.1476 66.0997 89.9836 66.7558C89.8336 67.3873 89.6401 68.0653 89.2336 68.5858C88.8718 69.0471 88.4664 69.4726 88.0231 69.8563C87.5808 70.2388 87.1008 70.5756 86.5906 70.8613C86.0371 71.1763 85.4416 71.4058 84.8866 71.7193C84.2862 72.0646 83.7157 72.4594 83.1811 72.8998C82.6645 73.3426 82.2246 73.8676 81.8791 74.4538C81.6766 74.7778 81.4816 75.0868 81.5701 75.4798C81.5866 75.5503 81.6076 75.6193 81.6271 75.6883L81.8731 76.5883L82.7731 79.9258L85.0501 88.2943L85.7746 90.9613C85.8121 91.0963 85.8601 91.2343 85.8871 91.3723C85.9077 91.4544 85.9084 91.5402 85.8895 91.6227C85.8706 91.705 85.8325 91.7818 85.7782 91.8468C85.7239 91.9117 85.6551 91.9629 85.5774 91.9962C85.4995 92.0295 85.4151 92.0439 85.3306 92.0383C85.2193 92.0209 85.1109 91.9885 85.0081 91.9423C82.6786 91.0918 80.3581 90.2128 78.0361 89.3473C77.0896 88.9948 76.0546 88.4173 75.0451 88.8673C74.6296 89.0533 74.3701 89.3533 74.0941 89.6893L73.1401 90.8563C71.6176 92.7163 70.1236 94.6063 68.5726 96.4393C68.2561 96.8128 67.7416 96.8218 67.5661 96.3148C67.4926 96.1003 67.4461 95.8648 67.3876 95.6548L66.4786 92.2978L64.4506 84.7978L64.3231 84.3253C64.2666 84.136 64.1389 83.9758 63.967 83.8782C63.7951 83.7807 63.5922 83.7534 63.4006 83.8018C62.7193 83.9547 62.0124 83.9521 61.3321 83.7943C61.1406 83.7454 60.9375 83.7726 60.7654 83.8702C60.5934 83.9679 60.4659 84.1282 60.4096 84.3178L58.6501 90.8098L57.5206 94.9663L57.2071 96.1228C57.1156 96.4633 56.9146 96.8548 56.4751 96.7018C56.2156 96.6133 55.9786 96.2188 55.8106 96.0133L54.6826 94.6348L51.7156 91.0078L50.6656 89.7178C50.3386 89.3173 50.0251 88.9678 49.5076 88.7878C48.9406 88.5883 48.4051 88.7203 47.8726 88.9183L46.3651 89.4778L41.9716 91.1083L40.2466 91.7488C39.9976 91.8418 39.6796 92.0203 39.4081 92.0488C39.3241 92.0547 39.2398 92.0407 39.1621 92.0082C39.0844 91.9756 39.0153 91.9254 38.9605 91.8613C38.9058 91.7974 38.8666 91.7215 38.8464 91.6396C38.8263 91.5579 38.8254 91.4725 38.8441 91.3903C38.9386 90.9403 38.6371 90.4048 38.1211 90.4408H38.1001L38.8231 91.3888L40.2931 85.9753L41.8411 80.2753L42.5551 77.6443L43.0501 75.8563C43.0891 75.7063 43.1356 75.5683 43.1686 75.4228C43.2736 74.9518 42.9766 74.5618 42.7186 74.1898C41.9791 73.1068 40.9636 72.3283 39.8236 71.6938C38.8201 71.1358 37.7776 70.7323 36.8866 69.9823C36.4669 69.63 36.0786 69.2419 35.7256 68.8228C35.3613 68.3766 35.0946 67.8589 34.9426 67.3033C34.5481 66.0493 34.4926 64.8058 34.6021 63.5068C34.7221 62.1178 34.6216 60.6418 34.0741 59.3533C33.8353 58.7812 33.5503 58.2294 33.2221 57.7033C32.8936 57.1828 32.5171 56.6998 32.2186 56.1583C31.6525 55.1383 31.2922 54.0171 31.1581 52.8583C31.0981 52.3198 31.2661 51.7243 31.4041 51.2083C31.5501 50.6464 31.7509 50.1003 32.0041 49.5778C32.2729 49.0353 32.5903 48.5182 32.9521 48.0328L32.3041 48.4048C32.7541 48.4048 32.9686 48.0223 33.1801 47.6908C33.3898 47.364 33.5817 47.026 33.7546 46.6783C34.1283 45.9754 34.3818 45.2149 34.5046 44.4283C34.6282 43.5954 34.66 42.7512 34.5991 41.9113C34.5169 41.1453 34.5118 40.3729 34.5841 39.6058C34.6755 38.8869 34.8538 38.1817 35.1151 37.5058C35.3521 36.8818 35.7841 36.3973 36.2506 35.9278C36.7047 35.47 37.2076 35.0637 37.7506 34.7158C38.3341 34.3453 38.9656 34.0888 39.5761 33.7693C40.2463 33.4105 40.882 32.9908 41.4751 32.5153C42.0541 32.0563 42.4936 31.4578 42.9001 30.8413C43.6501 29.6953 44.0791 28.3753 44.9461 27.2968C45.3666 26.7754 45.8412 26.3002 46.3621 25.8793C46.9141 25.4293 47.6011 25.2313 48.2806 25.0603C49.0057 24.8806 49.7508 24.7944 50.4976 24.8038C51.3001 24.8128 52.0891 24.9313 52.8976 24.9013C53.7061 24.8713 54.5311 24.8083 55.2691 24.5233C55.9936 24.2473 56.6898 23.9022 57.3481 23.4928C57.9616 23.1058 58.5286 22.6678 59.1781 22.3378C59.793 22.027 60.4419 21.7884 61.1116 21.6268C61.7881 21.4618 62.3941 21.3793 63.0811 21.5053C63.7597 21.6267 64.4227 21.8229 65.0581 22.0903C66.3916 22.6603 67.4746 23.6473 68.8006 24.2368C69.1477 24.4051 69.5067 24.5481 69.8746 24.6643C70.3059 24.7623 70.7443 24.8259 71.1856 24.8548C71.9982 24.9186 72.8148 24.9111 73.6261 24.8323C74.3712 24.7689 75.1213 24.8011 75.8581 24.9283C76.5631 25.0558 77.3746 25.2283 78.0031 25.5913C78.5281 25.8913 79.0036 26.3968 79.4086 26.8378C79.8442 27.3142 80.2255 27.8374 80.5456 28.3978C80.8951 29.0068 81.1456 29.6638 81.5011 30.2713C81.8713 30.9364 82.3156 31.5573 82.8256 32.1223C83.8336 33.1858 85.2256 33.7093 86.4841 34.3993C87.5866 34.9993 88.6741 35.8738 89.3791 36.9313C89.7736 37.5238 89.9506 38.3488 90.0871 39.0388C90.2254 39.7737 90.2698 40.5232 90.2191 41.2693C90.1474 42.0522 90.1303 42.8391 90.1681 43.6243C90.2011 44.0398 90.2536 44.4553 90.3181 44.8648C90.4089 45.2952 90.552 45.7128 90.7441 46.1083C91.0365 46.7803 91.3926 47.4228 91.8076 48.0268C92.3596 48.8338 93.6601 48.0853 93.1126 47.2858Z" fill="black"/>
<path d="M89.8665 60.0345C89.187 62.5695 90.276 65.8215 88.995 68.0355C87.69 70.2855 84.324 70.9665 82.494 72.7845C81.8669 73.4661 81.3327 74.2277 80.9055 75.0495V75.063C80.0235 76.6875 79.23 78.429 77.745 79.287C75.5295 80.5665 72.279 79.479 69.744 80.157C67.9785 80.631 66.294 82.128 64.4835 82.9095C63.8235 83.2314 63.0984 83.3976 62.364 83.3954C61.6296 83.393 60.9056 83.2221 60.2475 82.896C58.455 82.1025 56.778 80.631 55.0245 80.157C52.4895 79.479 49.239 80.5665 47.025 79.287C45.525 78.4155 44.721 76.6365 43.824 74.9985C43.4102 74.1942 42.8894 73.4495 42.276 72.7845C40.446 70.9665 37.0785 70.2885 35.7735 68.0355C34.494 65.8215 35.5815 62.5695 34.9035 60.0345C34.2495 57.6031 31.665 55.3246 31.665 52.6756C31.665 50.0266 34.2495 47.7466 34.9035 45.3151C35.5815 42.7816 34.494 39.5296 35.7735 37.3156C37.0785 35.0656 40.446 34.3846 42.276 32.5666C44.106 30.7486 44.772 27.3691 47.025 26.0641C49.239 24.7846 52.4895 25.8721 55.0245 25.1941C57.456 24.5416 59.7345 21.9556 62.385 21.9556C65.0355 21.9556 67.3125 24.5416 69.75 25.2001C72.285 25.8781 75.5355 24.7906 77.751 26.0701C80.001 27.3751 80.682 30.7426 82.5 32.5726C84.318 34.4026 87.696 35.0686 89.001 37.3216C90.282 39.5356 89.193 42.7876 89.8725 45.3211C90.525 47.7526 93.111 50.0311 93.111 52.6816C93.111 55.3321 90.519 57.6001 89.8665 60.0345Z" fill="white"/>
<path d="M62.9409 31.4023C58.623 31.402 54.402 32.6821 50.8117 35.0809C47.2213 37.4796 44.4229 40.8891 42.7705 44.8783C41.118 48.8674 40.6855 53.257 41.5278 57.492C42.3702 61.727 44.4493 65.6171 47.5026 68.6702C50.5558 71.7234 54.4458 73.8027 58.6807 74.645C62.9157 75.4872 67.3053 75.0548 71.2944 73.4022C75.2836 71.7498 78.6932 68.9514 81.0918 65.361C83.4906 61.7708 84.7707 57.5497 84.7704 53.2318C84.77 47.4424 82.47 41.8902 78.3762 37.7965C74.2825 33.7027 68.7303 31.4028 62.9409 31.4023Z" fill="white"/>
<path d="M62.9412 30.6523C60.5826 30.6528 58.2386 31.0207 55.9932 31.7428C53.8268 32.4438 51.7794 33.4701 49.9212 34.7863C48.042 36.124 46.3736 37.7353 44.9712 39.5668C41.4425 44.2026 39.8439 50.0238 40.5105 55.8115C41.1771 61.5993 44.057 66.9046 48.5472 70.6168C50.3301 72.0864 52.3239 73.2792 54.4617 74.1553C57.713 75.4789 61.2285 76.0243 64.7279 75.7483C68.2272 75.4723 71.6138 74.3823 74.6172 72.5653C78.6092 70.1479 81.7556 66.5548 83.625 62.2786C85.4943 58.0026 85.9952 53.2528 85.0587 48.6808C84.1353 44.1817 81.8607 40.0716 78.5388 36.9C75.2171 33.7282 71.0063 31.6459 66.4692 30.9313C65.3019 30.75 64.1226 30.6567 62.9412 30.6523C62.7423 30.6523 62.5515 30.7314 62.411 30.8719C62.2703 31.0126 62.1912 31.2034 62.1912 31.4023C62.1912 31.6012 62.2703 31.792 62.411 31.9326C62.5515 32.0733 62.7423 32.1523 62.9412 32.1523C63.5232 32.1523 64.1042 32.1753 64.6842 32.2213C64.9652 32.2443 65.2457 32.2719 65.5257 32.3038L65.7357 32.3293C65.7507 32.3293 65.8527 32.3443 65.7552 32.3293H65.8032C65.9427 32.3488 66.0807 32.3698 66.2187 32.3923C67.3287 32.5695 68.423 32.8333 69.4917 33.1813C70.0097 33.3603 70.5207 33.5499 71.0247 33.7498C71.0847 33.7738 71.2242 33.8338 71.0877 33.7738L71.2737 33.8548C71.4072 33.9118 71.5392 33.9718 71.6712 34.0318C71.9157 34.1443 72.1587 34.2628 72.4002 34.3843C73.3674 34.8738 74.297 35.4343 75.1812 36.0613C75.4077 36.2218 75.6312 36.3868 75.8502 36.5548C75.7467 36.4768 75.8262 36.5368 75.8787 36.5788L76.0362 36.7033C76.1472 36.7918 76.2582 36.8833 76.3692 36.9748C76.7787 37.3168 77.1777 37.6723 77.5692 38.0428C77.9607 38.4133 78.3372 38.8123 78.7002 39.2173C78.8772 39.4168 79.0527 39.6193 79.2222 39.8173C79.3077 39.9193 79.3917 40.0228 79.4757 40.1278L79.6002 40.2853L79.6527 40.3528C79.7217 40.4383 79.5447 40.2103 79.6527 40.3528C80.3081 41.2144 80.9 42.1222 81.4242 43.0693C81.6897 43.5493 81.9372 44.0413 82.1652 44.5393C82.2162 44.6548 82.2687 44.7688 82.3152 44.8843L82.3962 45.0703C82.3317 44.9203 82.4082 45.1018 82.4322 45.1603C82.5342 45.4108 82.6332 45.6643 82.7322 45.9193C83.1141 46.9606 83.415 48.0297 83.6322 49.1173C83.6892 49.4004 83.7392 49.6843 83.7822 49.9693C83.8032 50.0968 83.8212 50.2258 83.8392 50.3548C83.8392 50.3788 83.8602 50.5048 83.8467 50.4028C83.8332 50.3008 83.8467 50.4028 83.8467 50.4223C83.8572 50.5018 83.8677 50.5813 83.8767 50.6623C83.9427 51.2353 83.9867 51.8098 84.0087 52.3858C84.0527 53.5377 84.006 54.6912 83.8692 55.8358C83.8617 55.9063 83.8512 55.9753 83.8437 56.0458C83.8362 56.1163 83.8437 56.0008 83.8437 55.9948C83.8437 56.0338 83.8317 56.0743 83.8272 56.1133C83.8062 56.2513 83.7867 56.3908 83.7642 56.5288C83.7192 56.8029 83.6693 57.0763 83.6142 57.3493C83.5032 57.8994 83.3712 58.4448 83.2182 58.9858C83.0682 59.5213 82.8942 60.0508 82.7007 60.5728C82.6077 60.8278 82.5078 61.0809 82.4007 61.3318L82.3557 61.4398C82.3557 61.4398 82.4097 61.3153 82.3752 61.3933L82.2942 61.5808C82.2402 61.7038 82.1847 61.8283 82.1292 61.9513C81.6755 62.9499 81.1475 63.913 80.5497 64.8328C80.2497 65.2828 79.9497 65.7133 79.6197 66.1408C79.7277 65.9908 79.6032 66.1603 79.5777 66.1918L79.4532 66.3493C79.3632 66.4603 79.2732 66.5713 79.1817 66.6808C79.0107 66.8868 78.8357 67.0869 78.6567 67.2808C77.9364 68.0832 77.1578 68.8312 76.3272 69.5188C76.2252 69.6028 76.1217 69.6883 76.0167 69.7708L75.8592 69.8953L75.7917 69.9478C75.8367 69.9133 75.8757 69.8833 75.8067 69.9358C75.5862 70.1038 75.3642 70.2673 75.1377 70.4278C74.6907 70.7428 74.2332 71.0403 73.7652 71.3203C73.2972 71.6004 72.8258 71.8593 72.3507 72.0973C72.1107 72.2188 71.8662 72.3358 71.6202 72.4483L71.2497 72.6133L71.1267 72.6658H71.1087L70.9737 72.7213C69.9512 73.1383 68.8982 73.4758 67.8237 73.7308C67.2737 73.8628 66.7193 73.9723 66.1602 74.0593C66.0327 74.0803 65.9037 74.0983 65.7747 74.1163C65.7387 74.1163 65.6247 74.1343 65.7957 74.1163L65.7072 74.1283L65.4672 74.1568C65.1863 74.1898 64.9052 74.2168 64.6242 74.2378C63.4758 74.3247 62.3223 74.3217 61.1742 74.2288C60.8832 74.2048 60.5937 74.1763 60.3027 74.1403L60.0942 74.1148C60.2292 74.1313 60.1257 74.1148 60.0567 74.1148C59.9067 74.0938 59.7567 74.0698 59.6067 74.0458C59.0487 73.9558 58.4967 73.8418 57.9477 73.7083C56.8767 73.4436 55.8269 73.0996 54.8067 72.6793L54.7272 72.6463L54.7452 72.6538L54.5862 72.5848C54.4527 72.5263 54.3207 72.4678 54.1902 72.4063C53.9372 72.2893 53.6873 72.1674 53.4402 72.0403C52.9602 71.7963 52.4903 71.5348 52.0302 71.2558C51.5702 70.9768 51.1152 70.6768 50.6652 70.3558C50.5632 70.2838 50.4627 70.2058 50.3652 70.1368L50.2047 70.0168L50.1132 69.9478L50.0757 69.9193C50.1492 69.9763 50.0757 69.9193 50.0607 69.9073L49.9707 69.8368L49.8132 69.7108C49.7022 69.6223 49.5912 69.5308 49.4817 69.4393C48.6555 68.7466 47.8811 67.9947 47.1642 67.1893C46.9872 66.9894 46.8137 66.7863 46.6437 66.5803C46.5587 66.4803 46.4747 66.3768 46.3917 66.2698L46.2852 66.1348C46.2702 66.1153 46.1937 66.0178 46.2552 66.0973L46.2267 66.0598C45.8982 65.6263 45.5832 65.1808 45.2862 64.7248C44.6934 63.8152 44.1695 62.8626 43.7187 61.8748C43.6632 61.7518 43.6077 61.6273 43.5552 61.5043C43.5372 61.4653 43.4577 61.2748 43.5282 61.4428C43.4982 61.3708 43.4682 61.3003 43.4397 61.2283C43.3397 60.9763 43.2422 60.7228 43.1472 60.4678C42.9602 59.9538 42.7932 59.4333 42.6462 58.9063C42.4952 58.3644 42.3647 57.8178 42.2547 57.2668C42.2007 56.9938 42.1527 56.7208 42.1047 56.4448C42.0822 56.3068 42.0627 56.1688 42.0432 56.0308C42.0297 55.9423 42.0432 56.0758 42.0432 56.0818C42.0432 56.0413 42.0327 56.0023 42.0282 55.9618C42.0177 55.8823 42.0087 55.8028 41.9997 55.7233C41.8686 54.5784 41.8275 53.4247 41.8767 52.2733C41.9007 51.6973 41.9477 51.1233 42.0177 50.5513C42.0177 50.4913 42.0342 50.4313 42.0402 50.3713C42.0177 50.5588 42.0402 50.3473 42.0507 50.3038C42.0717 50.1538 42.0942 50.0038 42.1182 49.8538C42.1647 49.5793 42.2142 49.3063 42.2682 49.0333C42.4958 47.9419 42.8072 46.8697 43.1997 45.8263C43.2942 45.5728 43.3947 45.3208 43.4997 45.0688C43.5507 44.9428 43.4502 45.1828 43.5252 45.0073C43.5477 44.9533 43.5717 44.9008 43.5942 44.8468C43.6527 44.7148 43.7127 44.5828 43.7727 44.4508C44.0037 43.9509 44.2538 43.4623 44.5227 42.9853C44.7917 42.5083 45.0702 42.0493 45.3582 41.6083C45.5112 41.3773 45.6683 41.1489 45.8292 40.9228C45.9012 40.8228 45.9747 40.7229 46.0497 40.6228L46.1697 40.4623C46.2057 40.4143 46.3197 40.2613 46.2267 40.3873C46.8891 39.5364 47.612 38.7343 48.3897 37.9873C48.7827 37.6113 49.1892 37.2504 49.6092 36.9043C49.7127 36.8188 49.8162 36.7348 49.9212 36.6523L50.0562 36.5458C50.0832 36.5248 50.1687 36.4603 50.0397 36.5578L50.1312 36.4888C50.3442 36.3268 50.5602 36.1689 50.7792 36.0148C51.6737 35.3848 52.6143 34.8232 53.5932 34.3348C53.8347 34.2148 54.0792 34.0978 54.3237 33.9868C54.4482 33.9313 54.5712 33.8758 54.6957 33.8233C54.7587 33.7963 54.8457 33.7573 54.7302 33.8083L54.9447 33.7198C55.4588 33.5109 55.9802 33.3223 56.5092 33.1543C57.5714 32.8153 58.6581 32.559 59.7597 32.3878C59.8977 32.3653 60.0372 32.3458 60.1752 32.3263C60.0252 32.3473 60.1752 32.3263 60.2442 32.3263L60.4527 32.3008C60.7242 32.2708 60.9942 32.2453 61.2657 32.2243C61.8257 32.1823 62.3862 32.1609 62.9472 32.1598C63.1461 32.1598 63.3369 32.0808 63.4776 31.9402C63.6182 31.7995 63.6972 31.6087 63.6972 31.4098C63.6972 31.2109 63.6182 31.0201 63.4776 30.8794C63.3369 30.7389 63.1461 30.6598 62.9472 30.6598L62.9412 30.6523Z" fill="black"/>
<path d="M93.7049 52.5252C93.7049 49.8747 91.1189 47.5962 90.4664 45.1647C89.7869 42.6312 90.8759 39.3792 89.5949 37.1652C88.2899 34.9152 84.924 34.2342 83.094 32.4162C81.264 30.5982 80.598 27.2187 78.345 25.9137C76.1295 24.6342 72.879 25.7217 70.344 25.0437C67.9125 24.3912 65.634 21.8052 62.985 21.8052C62.3242 21.817 61.6722 21.9571 61.065 22.2177C62.94 22.9677 64.6785 24.5532 66.504 25.0437C69.039 25.7217 72.2895 24.6342 74.505 25.9137C76.755 27.2187 77.436 30.5862 79.254 32.4162C81.072 34.2462 84.45 34.9122 85.755 37.1652C87.036 39.3792 85.947 42.6312 86.6265 45.1647C87.279 47.5962 89.8649 49.8747 89.8649 52.5252C89.8649 55.1757 87.279 57.4497 86.6265 59.8842C85.947 62.4192 87.036 65.6712 85.755 67.8852C84.45 70.1352 81.084 70.8162 79.254 72.6342C78.6268 73.3158 78.0927 74.0773 77.6655 74.8992V74.9127C76.7835 76.5372 75.99 78.2787 74.505 79.1367C72.2895 80.4162 69.039 79.3287 66.504 80.0067C64.7385 80.4807 63.054 81.9777 61.2435 82.7592C61.1835 82.7847 61.122 82.7967 61.0635 82.8207C61.6698 83.0878 62.3226 83.2335 62.985 83.2497C63.711 83.2344 64.426 83.0689 65.085 82.7637C66.885 81.9822 68.58 80.4852 70.3455 80.0112C72.8805 79.3332 76.131 80.4207 78.3465 79.1412C79.8315 78.2832 80.625 76.5417 81.507 74.9172V74.9037C81.9352 74.08 82.4709 73.3168 83.1 72.6342C84.93 70.8162 88.296 70.1382 89.601 67.8852C90.882 65.6712 89.793 62.4192 90.4725 59.8842C91.125 57.4527 93.7109 55.1742 93.7109 52.5252H93.7049Z" fill="#B2B2B2"/>
<path d="M62.3847 75.7157C75.1094 75.7157 85.4247 65.4004 85.4247 52.6757C85.4247 39.9511 75.1094 29.6357 62.3847 29.6357C49.6601 29.6357 39.3447 39.9511 39.3447 52.6757C39.3447 65.4004 49.6601 75.7157 62.3847 75.7157Z" fill="#E5E5E5"/>
<path d="M62.3848 29.6357C61.7368 29.6357 61.1038 29.6807 60.4648 29.7332C66.2229 30.2084 71.5919 32.8315 75.5057 37.0816C79.4195 41.3317 81.5919 46.898 81.5919 52.6757C81.5919 58.4534 79.4195 64.0198 75.5057 68.2699C71.5919 72.52 66.2229 75.143 60.4648 75.6182C61.1038 75.6707 61.7368 75.7157 62.3848 75.7157C65.4105 75.7157 68.4066 75.1198 71.2019 73.9619C73.9973 72.8041 76.5372 71.107 78.6767 68.9675C80.8161 66.8281 82.5132 64.2881 83.6711 61.4927C84.8289 58.6975 85.4249 55.7014 85.4249 52.6757C85.4249 49.6501 84.8289 46.6541 83.6711 43.8587C82.5132 41.0633 80.8161 38.5235 78.6767 36.3839C76.5372 34.2445 73.9973 32.5474 71.2019 31.3895C68.4066 30.2317 65.4105 29.6357 62.3848 29.6357Z" fill="#B2B2B2"/>
<path d="M62.9412 30.6523C60.5826 30.6528 58.2386 31.0207 55.9932 31.7428C53.8268 32.4438 51.7794 33.4701 49.9212 34.7863C48.042 36.124 46.3736 37.7353 44.9712 39.5668C41.4425 44.2026 39.8439 50.0238 40.5105 55.8115C41.1771 61.5993 44.057 66.9046 48.5472 70.6168C50.3301 72.0864 52.3239 73.2792 54.4617 74.1553C57.713 75.4789 61.2285 76.0243 64.7279 75.7483C68.2272 75.4723 71.6138 74.3823 74.6172 72.5653C78.6092 70.1479 81.7556 66.5548 83.625 62.2786C85.4943 58.0026 85.9952 53.2528 85.0587 48.6808C84.1353 44.1817 81.8607 40.0716 78.5388 36.9C75.2171 33.7282 71.0063 31.6459 66.4692 30.9313C65.3019 30.75 64.1226 30.6567 62.9412 30.6523C62.7423 30.6523 62.5515 30.7314 62.411 30.8719C62.2703 31.0126 62.1912 31.2034 62.1912 31.4023C62.1912 31.6012 62.2703 31.792 62.411 31.9326C62.5515 32.0733 62.7423 32.1523 62.9412 32.1523C63.5232 32.1523 64.1042 32.1753 64.6842 32.2213C64.9652 32.2443 65.2457 32.2719 65.5257 32.3038L65.7357 32.3293C65.7507 32.3293 65.8527 32.3443 65.7552 32.3293H65.8032C65.9427 32.3488 66.0807 32.3698 66.2187 32.3923C67.3287 32.5695 68.423 32.8333 69.4917 33.1813C70.0097 33.3603 70.5207 33.5499 71.0247 33.7498C71.0847 33.7738 71.2242 33.8338 71.0877 33.7738L71.2737 33.8548C71.4072 33.9118 71.5392 33.9718 71.6712 34.0318C71.9157 34.1443 72.1587 34.2628 72.4002 34.3843C73.3674 34.8738 74.297 35.4343 75.1812 36.0613C75.4077 36.2218 75.6312 36.3868 75.8502 36.5548C75.7467 36.4768 75.8262 36.5368 75.8787 36.5788L76.0362 36.7033C76.1472 36.7918 76.2582 36.8833 76.3692 36.9748C76.7787 37.3168 77.1777 37.6723 77.5692 38.0428C77.9607 38.4133 78.3372 38.8123 78.7002 39.2173C78.8772 39.4168 79.0527 39.6193 79.2222 39.8173C79.3077 39.9193 79.3917 40.0228 79.4757 40.1278L79.6002 40.2853L79.6527 40.3528C79.7217 40.4383 79.5447 40.2103 79.6527 40.3528C80.3081 41.2144 80.9 42.1222 81.4242 43.0693C81.6897 43.5493 81.9372 44.0413 82.1652 44.5393C82.2162 44.6548 82.2687 44.7688 82.3152 44.8843L82.3962 45.0703C82.3317 44.9203 82.4082 45.1018 82.4322 45.1603C82.5342 45.4108 82.6332 45.6643 82.7322 45.9193C83.1141 46.9606 83.415 48.0297 83.6322 49.1173C83.6892 49.4004 83.7392 49.6843 83.7822 49.9693C83.8032 50.0968 83.8212 50.2258 83.8392 50.3548C83.8392 50.3788 83.8602 50.5048 83.8467 50.4028C83.8332 50.3008 83.8467 50.4028 83.8467 50.4223C83.8572 50.5018 83.8677 50.5813 83.8767 50.6623C83.9427 51.2353 83.9867 51.8098 84.0087 52.3858C84.0527 53.5377 84.006 54.6912 83.8692 55.8358C83.8617 55.9063 83.8512 55.9753 83.8437 56.0458C83.8362 56.1163 83.8437 56.0008 83.8437 55.9948C83.8437 56.0338 83.8317 56.0743 83.8272 56.1133C83.8062 56.2513 83.7867 56.3908 83.7642 56.5288C83.7192 56.8029 83.6693 57.0763 83.6142 57.3493C83.5032 57.8994 83.3712 58.4448 83.2182 58.9858C83.0682 59.5213 82.8942 60.0508 82.7007 60.5728C82.6077 60.8278 82.5078 61.0809 82.4007 61.3318L82.3557 61.4398C82.3557 61.4398 82.4097 61.3153 82.3752 61.3933L82.2942 61.5808C82.2402 61.7038 82.1847 61.8283 82.1292 61.9513C81.6755 62.9499 81.1475 63.913 80.5497 64.8328C80.2497 65.2828 79.9497 65.7133 79.6197 66.1408C79.7277 65.9908 79.6032 66.1603 79.5777 66.1918L79.4532 66.3493C79.3632 66.4603 79.2732 66.5713 79.1817 66.6808C79.0107 66.8868 78.8357 67.0869 78.6567 67.2808C77.9364 68.0832 77.1578 68.8312 76.3272 69.5188C76.2252 69.6028 76.1217 69.6883 76.0167 69.7708L75.8592 69.8953L75.7917 69.9478C75.8367 69.9133 75.8757 69.8833 75.8067 69.9358C75.5862 70.1038 75.3642 70.2673 75.1377 70.4278C74.6907 70.7428 74.2332 71.0403 73.7652 71.3203C73.2972 71.6004 72.8258 71.8593 72.3507 72.0973C72.1107 72.2188 71.8662 72.3358 71.6202 72.4483L71.2497 72.6133L71.1267 72.6658H71.1087L70.9737 72.7213C69.9512 73.1383 68.8982 73.4758 67.8237 73.7308C67.2737 73.8628 66.7193 73.9723 66.1602 74.0593C66.0327 74.0803 65.9037 74.0983 65.7747 74.1163C65.7387 74.1163 65.6247 74.1343 65.7957 74.1163L65.7072 74.1283L65.4672 74.1568C65.1863 74.1898 64.9052 74.2168 64.6242 74.2378C63.4758 74.3247 62.3223 74.3217 61.1742 74.2288C60.8832 74.2048 60.5937 74.1763 60.3027 74.1403L60.0942 74.1148C60.2292 74.1313 60.1257 74.1148 60.0567 74.1148C59.9067 74.0938 59.7567 74.0698 59.6067 74.0458C59.0487 73.9558 58.4967 73.8418 57.9477 73.7083C56.8767 73.4436 55.8269 73.0996 54.8067 72.6793L54.7272 72.6463L54.7452 72.6538L54.5862 72.5848C54.4527 72.5263 54.3207 72.4678 54.1902 72.4063C53.9372 72.2893 53.6873 72.1674 53.4402 72.0403C52.9602 71.7963 52.4903 71.5348 52.0302 71.2558C51.5702 70.9768 51.1152 70.6768 50.6652 70.3558C50.5632 70.2838 50.4627 70.2058 50.3652 70.1368L50.2047 70.0168L50.1132 69.9478L50.0757 69.9193C50.1492 69.9763 50.0757 69.9193 50.0607 69.9073L49.9707 69.8368L49.8132 69.7108C49.7022 69.6223 49.5912 69.5308 49.4817 69.4393C48.6555 68.7466 47.8811 67.9947 47.1642 67.1893C46.9872 66.9894 46.8137 66.7863 46.6437 66.5803C46.5587 66.4803 46.4747 66.3768 46.3917 66.2698L46.2852 66.1348C46.2702 66.1153 46.1937 66.0178 46.2552 66.0973L46.2267 66.0598C45.8982 65.6263 45.5832 65.1808 45.2862 64.7248C44.6934 63.8152 44.1695 62.8626 43.7187 61.8748C43.6632 61.7518 43.6077 61.6273 43.5552 61.5043C43.5372 61.4653 43.4577 61.2748 43.5282 61.4428C43.4982 61.3708 43.4682 61.3003 43.4397 61.2283C43.3397 60.9763 43.2422 60.7228 43.1472 60.4678C42.9602 59.9538 42.7932 59.4333 42.6462 58.9063C42.4952 58.3644 42.3647 57.8178 42.2547 57.2668C42.2007 56.9938 42.1527 56.7208 42.1047 56.4448C42.0822 56.3068 42.0627 56.1688 42.0432 56.0308C42.0297 55.9423 42.0432 56.0758 42.0432 56.0818C42.0432 56.0413 42.0327 56.0023 42.0282 55.9618C42.0177 55.8823 42.0087 55.8028 41.9997 55.7233C41.8686 54.5784 41.8275 53.4247 41.8767 52.2733C41.9007 51.6973 41.9477 51.1233 42.0177 50.5513C42.0177 50.4913 42.0342 50.4313 42.0402 50.3713C42.0177 50.5588 42.0402 50.3473 42.0507 50.3038C42.0717 50.1538 42.0942 50.0038 42.1182 49.8538C42.1647 49.5793 42.2142 49.3063 42.2682 49.0333C42.4958 47.9419 42.8072 46.8697 43.1997 45.8263C43.2942 45.5728 43.3947 45.3208 43.4997 45.0688C43.5507 44.9428 43.4502 45.1828 43.5252 45.0073C43.5477 44.9533 43.5717 44.9008 43.5942 44.8468C43.6527 44.7148 43.7127 44.5828 43.7727 44.4508C44.0037 43.9509 44.2538 43.4623 44.5227 42.9853C44.7917 42.5083 45.0702 42.0493 45.3582 41.6083C45.5112 41.3773 45.6683 41.1489 45.8292 40.9228C45.9012 40.8228 45.9747 40.7229 46.0497 40.6228L46.1697 40.4623C46.2057 40.4143 46.3197 40.2613 46.2267 40.3873C46.8891 39.5364 47.612 38.7343 48.3897 37.9873C48.7827 37.6113 49.1892 37.2504 49.6092 36.9043C49.7127 36.8188 49.8162 36.7348 49.9212 36.6523L50.0562 36.5458C50.0832 36.5248 50.1687 36.4603 50.0397 36.5578L50.1312 36.4888C50.3442 36.3268 50.5602 36.1689 50.7792 36.0148C51.6737 35.3848 52.6143 34.8232 53.5932 34.3348C53.8347 34.2148 54.0792 34.0978 54.3237 33.9868C54.4482 33.9313 54.5712 33.8758 54.6957 33.8233C54.7587 33.7963 54.8457 33.7573 54.7302 33.8083L54.9447 33.7198C55.4588 33.5109 55.9802 33.3223 56.5092 33.1543C57.5714 32.8153 58.6581 32.559 59.7597 32.3878C59.8977 32.3653 60.0372 32.3458 60.1752 32.3263C60.0252 32.3473 60.1752 32.3263 60.2442 32.3263L60.4527 32.3008C60.7242 32.2708 60.9942 32.2453 61.2657 32.2243C61.8257 32.1823 62.3862 32.1609 62.9472 32.1598C63.1461 32.1598 63.3369 32.0808 63.4776 31.9402C63.6182 31.7995 63.6972 31.6087 63.6972 31.4098C63.6972 31.2109 63.6182 31.0201 63.4776 30.8794C63.3369 30.7389 63.1461 30.6598 62.9472 30.6598L62.9412 30.6523Z" fill="black"/>
<path d="M40.7181 73.6198C41.2505 74.4028 41.8278 75.1542 42.4476 75.8698C43.5576 77.1703 44.8131 78.4289 46.2951 79.3034C47.177 79.8288 48.1562 80.1696 49.1736 80.3054C49.9416 80.4029 50.6931 80.2949 51.4521 80.1674C51.6096 80.1404 51.7701 80.1209 51.9261 80.0924C51.6756 80.1389 51.9261 80.0924 51.9921 80.0924C52.0971 80.0819 52.2021 80.0729 52.3071 80.0684C52.4741 80.0594 52.6413 80.0594 52.8081 80.0684C52.9014 80.0609 52.9953 80.0694 53.0856 80.0939L52.9896 80.0804L53.0961 80.0969C53.1516 80.1074 53.2056 80.1164 53.2596 80.1284C53.4657 80.1714 53.6691 80.2265 53.8686 80.2934C53.9721 80.3264 54.0726 80.3624 54.1686 80.4014L54.2721 80.4404C54.3066 80.4539 54.5391 80.5514 54.3531 80.4719C54.7761 80.6519 55.1886 80.8574 55.5951 81.0719C57.3036 81.9719 58.9911 83.0804 60.8901 83.5289C61.8087 83.7542 62.7686 83.7491 63.6846 83.5139C64.6134 83.2425 65.5029 82.8512 66.3306 82.3499C67.0806 81.9269 67.7961 81.4499 68.5416 81.0254C68.6916 80.9354 68.8551 80.8469 69.0141 80.7644C69.0816 80.7284 69.1506 80.6939 69.2196 80.6609L69.3381 80.6054L69.4161 80.5709L69.3321 80.6054C69.4581 80.5589 69.5826 80.5094 69.7116 80.4734C69.7791 80.4569 69.8451 80.4449 69.9126 80.4299C70.0401 80.4014 69.7281 80.4494 69.8211 80.4419L69.9351 80.4299C70.5951 80.3624 71.2626 80.3729 71.9241 80.3699C72.7701 80.3699 73.6161 80.3699 74.4591 80.3219C75.2678 80.2983 76.0719 80.1927 76.8591 80.0069C77.5446 79.8038 78.1857 79.4735 78.7491 79.0334C80.316 77.8839 81.7277 76.5367 82.9491 75.0253C83.2491 74.6638 83.5281 74.2933 83.7906 73.9093C83.8911 73.7377 83.9192 73.5331 83.8689 73.3407C83.8185 73.1484 83.6937 72.9838 83.5221 72.8833C83.3493 72.7879 83.1465 72.7626 82.9556 72.8127C82.7646 72.8626 82.6001 72.984 82.4961 73.1518C82.3806 73.3213 82.2606 73.4863 82.1376 73.6498L82.1121 73.6828L82.0401 73.7773C81.9516 73.8883 81.8631 73.9978 81.7716 74.1073C81.4716 74.4663 81.1622 74.8164 80.8431 75.1573C80.1974 75.8464 79.5122 76.4974 78.7911 77.1073C78.6246 77.2483 78.4551 77.3849 78.2841 77.5214C78.1131 77.6579 78.4086 77.4269 78.2556 77.5439L78.1656 77.6113C78.0651 77.6863 77.9631 77.7614 77.8656 77.8349C77.5893 78.0372 77.2985 78.2193 76.9956 78.3794C76.9686 78.3944 76.9401 78.4064 76.9131 78.4199C76.7886 78.4814 76.9611 78.3809 76.9716 78.3974C76.9821 78.4139 76.7841 78.4664 76.7676 78.4724C76.611 78.5249 76.4519 78.5694 76.2906 78.6059C76.1211 78.6449 75.9516 78.6764 75.7806 78.7034L75.6831 78.7184L75.6336 78.7259C75.5511 78.7364 75.5676 78.7349 75.6831 78.7184C75.6411 78.7604 75.4401 78.7484 75.3831 78.7544C73.8201 78.9179 72.2466 78.8414 70.6791 78.8894C70.0641 78.9089 69.4581 78.9479 68.8791 79.1894C68.1581 79.5138 67.4639 79.895 66.8031 80.3294C66.0435 80.8154 65.2556 81.2556 64.4436 81.6479C64.4091 81.6629 64.1211 81.7889 64.2936 81.7169C64.1931 81.7589 64.0911 81.7994 63.9936 81.8369C63.7836 81.9164 63.5721 81.9869 63.3561 82.0439C63.1602 82.1172 62.9544 82.1612 62.7456 82.1744C62.8956 82.1834 62.8326 82.1639 62.7786 82.1744C62.7246 82.1849 62.6676 82.1864 62.6121 82.1894C62.5026 82.1984 62.3931 82.2029 62.2821 82.2029C62.1711 82.2029 62.0601 82.2029 61.9491 82.1879C61.8921 82.1879 61.6041 82.1729 61.8126 82.1774C61.5909 82.157 61.3721 82.1121 61.1601 82.0439C60.9561 81.9914 60.7551 81.9299 60.5601 81.8609C60.4536 81.8249 60.3486 81.7859 60.2421 81.7454L60.0921 81.6884C60.0621 81.6764 59.8146 81.5729 59.9811 81.6449C59.1051 81.2684 58.2681 80.8094 57.4311 80.3519C55.8861 79.5059 54.2256 78.5084 52.4031 78.5609C52.0163 78.5783 51.6309 78.6215 51.2496 78.6899C51.0996 78.7139 50.9496 78.7409 50.7996 78.7664L50.5596 78.8024C50.5026 78.8114 50.3931 78.8099 50.6031 78.8024C50.5431 78.8024 50.4831 78.8174 50.4231 78.8234C50.0643 78.8627 49.7025 78.8651 49.3431 78.8309C49.2981 78.8309 49.1226 78.8309 49.3236 78.8309C49.2858 78.8271 49.2482 78.8211 49.2111 78.8129C49.0926 78.7934 48.9756 78.7694 48.8601 78.7424C48.621 78.6854 48.3851 78.6153 48.1536 78.5324C48.0561 78.4979 47.8536 78.4214 47.8206 78.4049L47.7411 78.3703L47.6001 78.3044C47.4231 78.2189 47.2506 78.1259 47.0811 78.0269C46.9116 77.9279 46.7361 77.8169 46.5696 77.7029C46.4841 77.6444 46.4001 77.5859 46.3176 77.5259L46.2036 77.4419C46.1751 77.4194 45.9756 77.2633 46.1301 77.3863C45.4781 76.8631 44.864 76.2942 44.2926 75.6838C43.7811 75.1408 43.2966 74.5723 42.8346 73.9858C42.7926 73.9333 42.7476 73.8808 42.7086 73.8238C42.8496 74.0278 42.7206 73.8403 42.6846 73.7923L42.4386 73.4638C42.3387 73.3209 42.2352 73.1769 42.1281 73.0318L42.0201 72.8728C41.8026 72.5473 41.3481 72.3763 40.9941 72.6043C40.6686 72.8128 40.4916 73.2808 40.7241 73.6303L40.7181 73.6198Z" fill="black"/>
<path d="M71.6265 68.2395C71.2443 68.2396 70.8679 68.1465 70.53 67.968L63.426 64.233C63.2767 64.1547 63.1108 64.1137 62.9422 64.1137C62.7738 64.1137 62.6077 64.1547 62.4585 64.233L55.35 67.968C54.9613 68.1721 54.5233 68.2635 54.0855 68.2317C53.6475 68.1999 53.2273 68.0463 52.8721 67.7883C52.5169 67.5301 52.2411 67.1778 52.0756 66.7711C51.9103 66.3645 51.8619 65.9197 51.936 65.487L53.2935 57.5775C53.3211 57.4111 53.3083 57.2406 53.256 57.0804C53.2038 56.92 53.1138 56.7747 52.9935 56.6565L47.25 51.054C46.9356 50.7477 46.713 50.3595 46.6077 49.9333C46.5024 49.507 46.5186 49.06 46.6542 48.6424C46.7898 48.225 47.0395 47.8537 47.3752 47.5708C47.7109 47.2878 48.1191 47.1045 48.5535 47.0415L56.496 45.888C56.6625 45.8629 56.8206 45.7983 56.9569 45.6993C57.0931 45.6004 57.2037 45.4701 57.279 45.3195L60.831 38.1195C61.0255 37.726 61.3261 37.3948 61.6989 37.1632C62.0718 36.9318 62.5018 36.8091 62.9407 36.8091C63.3796 36.8091 63.8097 36.9318 64.1826 37.1632C64.5553 37.3948 64.8559 37.726 65.0505 38.1195L68.6025 45.3195C68.6778 45.4699 68.788 45.6 68.9239 45.699C69.06 45.798 69.2178 45.8628 69.384 45.888L77.334 47.0415C77.7684 47.1045 78.1765 47.2878 78.5122 47.5708C78.8479 47.8537 79.0977 48.225 79.2333 48.6424C79.369 49.06 79.3851 49.507 79.2798 49.9333C79.1745 50.3595 78.952 50.7477 78.6375 51.054L72.891 56.6565C72.7701 56.7742 72.6796 56.9196 72.6274 57.0799C72.5751 57.2404 72.5626 57.4111 72.591 57.5775L73.941 65.487C73.9989 65.8245 73.9822 66.1707 73.8927 66.5011C73.803 66.8317 73.6423 67.1386 73.4218 67.4007C73.2013 67.6627 72.9262 67.8735 72.616 68.0184C72.3057 68.1633 71.9674 68.2387 71.625 68.2395H71.6265Z" fill="white"/>
<path d="M71.6269 67.8644C70.9279 67.8539 70.2964 67.4219 69.6949 67.1054L66.9199 65.646L64.3039 64.2704C64.0909 64.1594 63.8794 64.0454 63.6664 63.9359C63.4503 63.8152 63.2074 63.7505 62.9598 63.7477C62.7123 63.7447 62.4679 63.8038 62.2489 63.9194C60.7159 64.7054 59.1979 65.5229 57.6724 66.3194L55.4389 67.4999C55.2225 67.6264 54.9919 67.727 54.7519 67.7999C54.3451 67.9027 53.9163 67.874 53.5267 67.7183C53.1372 67.5626 52.8069 67.2877 52.5829 66.9329C52.3224 66.5066 52.2273 65.9996 52.3159 65.5079L52.4419 64.7729L52.9504 61.8164L53.4754 58.7505C53.5924 58.0679 53.8699 57.2204 53.4394 56.6024C53.3046 56.4311 53.154 56.273 52.9894 56.1299L52.2049 55.3649L49.9039 53.1149L47.8969 51.1649L47.5159 50.7929C47.253 50.5397 47.0652 50.2187 46.9734 49.8655C46.8814 49.5122 46.8892 49.1404 46.9956 48.7912C47.1019 48.442 47.3028 48.1291 47.5759 47.887C47.8492 47.6449 48.184 47.483 48.5434 47.4194C48.7114 47.3879 48.8839 47.3684 49.0534 47.3429L51.6664 46.9634C53.3059 46.7249 54.9544 46.5134 56.5894 46.2479C57.4054 46.1114 57.6679 45.3674 57.9844 44.7239L59.3254 42.0089L60.6859 39.2519C60.9664 38.6834 61.2139 37.9859 61.7359 37.5899C62.0362 37.3625 62.3949 37.2247 62.7702 37.1926C63.1456 37.1605 63.5223 37.2353 63.8569 37.4084C64.2579 37.6288 64.5768 37.9729 64.7659 38.3894L65.7169 40.3154L68.2084 45.3644C68.2938 45.5623 68.4198 45.7399 68.5782 45.8858C68.7366 46.0319 68.9239 46.1429 69.1279 46.2119C69.3039 46.2559 69.4828 46.2865 69.6634 46.3034L72.2674 46.6814C73.9174 46.9214 75.5674 47.1464 77.2174 47.4014C77.5515 47.4457 77.8692 47.5724 78.142 47.7701C78.4149 47.9678 78.6343 48.2303 78.7804 48.5339C78.9471 48.8978 79.0003 49.3036 78.9331 49.6982C78.8659 50.0927 78.6816 50.4581 78.4039 50.7464C78.0349 51.1259 77.6449 51.4874 77.2669 51.8564L72.9739 56.0399C72.8554 56.1569 72.7324 56.2694 72.6169 56.3879C72.2374 56.7764 72.1489 57.2639 72.2374 57.7799L72.6064 59.9309L73.5529 65.4494C73.6303 65.8436 73.5955 66.2516 73.4524 66.6269C73.3026 66.9902 73.0489 67.3013 72.7231 67.5211C72.3973 67.741 72.0139 67.86 71.6209 67.863C71.1379 67.863 71.1379 68.6129 71.6209 68.6129C72.1002 68.6095 72.5701 68.4811 72.9844 68.2403C73.3987 67.9996 73.7431 67.6549 73.9834 67.2404C74.3046 66.6584 74.4108 65.9819 74.2834 65.3294C74.1679 64.6454 74.0494 63.9629 73.9324 63.2804L72.9649 57.6449C72.9184 57.3749 72.9334 57.1259 73.1449 56.9144C73.2754 56.7854 73.4089 56.6579 73.5409 56.5289L75.6004 54.5369L77.9224 52.2749C78.3589 51.8489 78.8659 51.4364 79.2244 50.9384C79.4821 50.5715 79.6453 50.1467 79.6998 49.7017C79.7541 49.2566 79.698 48.8051 79.5364 48.3869C79.3747 47.9687 79.1125 47.5967 78.7729 47.3039C78.4333 47.0113 78.0268 46.8067 77.5894 46.7084C77.0419 46.5899 76.4719 46.5404 75.9169 46.4594L69.9439 45.5999C69.7939 45.5774 69.6439 45.5594 69.4864 45.5339C69.1324 45.4739 68.9839 45.2504 68.8414 44.9624L67.7689 42.7889C66.978 41.1889 66.1869 39.586 65.3959 37.9799C65.227 37.6421 64.9905 37.3426 64.7011 37.0999C64.4116 36.8572 64.0755 36.6764 63.7132 36.569C63.3511 36.4616 62.9709 36.4297 62.5959 36.4751C62.2209 36.5207 61.8592 36.6428 61.5334 36.8339C61.075 37.1176 60.7072 37.526 60.4729 38.0114L60.1279 38.7119L57.3994 44.2349L57.0184 44.9999C56.8819 45.2759 56.7184 45.4679 56.3899 45.5219C55.8094 45.6179 55.2229 45.6914 54.6394 45.7754L48.7609 46.6304C48.5179 46.6553 48.2779 46.703 48.0439 46.7729C47.6127 46.9141 47.2234 47.1607 46.9116 47.4904C46.5996 47.8201 46.375 48.2224 46.258 48.6608C46.1412 49.0993 46.1355 49.5601 46.2417 50.0014C46.348 50.4425 46.5627 50.8502 46.8664 51.1874C46.9909 51.3284 47.1319 51.4559 47.2669 51.5864L51.5719 55.7864C51.9589 56.1644 52.3504 56.5364 52.7329 56.9189C52.9699 57.1559 52.9459 57.4169 52.8964 57.7064L52.7314 58.6694L51.6919 64.7279L51.5839 65.3579C51.4507 66.0671 51.5986 66.8004 51.9964 67.4024C52.2697 67.807 52.6459 68.1313 53.0862 68.3422C53.5264 68.5531 54.015 68.6429 54.5014 68.6025C54.9232 68.551 55.3309 68.4175 55.7014 68.2094L60.8119 65.5229C61.4119 65.209 62.0074 64.8955 62.5984 64.5824C62.7088 64.5244 62.8323 64.4954 62.9571 64.4986C63.0817 64.5017 63.2037 64.5368 63.3109 64.6005L64.0054 64.9649L69.4639 67.8359C70.1569 68.1989 70.8139 68.6054 71.6224 68.6175C72.1099 68.622 72.1099 67.8719 71.6269 67.8644Z" fill="#222221"/>
<path opacity="0.26" d="M47.0668 50.586C46.8334 50.3565 46.6686 50.0665 46.5907 49.7487C46.5127 49.4307 46.525 49.0974 46.6258 48.786C46.7242 48.4744 46.9081 48.1968 47.1567 47.9845C47.4051 47.7724 47.7082 47.6343 48.0313 47.586L56.1793 46.3335C56.4561 46.3038 56.7213 46.2061 56.9511 46.0491C57.1809 45.892 57.3682 45.6805 57.4963 45.4335L61.1443 37.9815C61.3234 37.6083 61.6308 37.3119 62.0103 37.1467C62.3898 36.9814 62.8162 36.9583 63.2113 37.0815C62.9965 37.3558 62.8207 37.6587 62.6893 37.9815L60.1498 45.435C60.0258 45.6897 59.8416 45.9103 59.6131 46.0777C59.3848 46.2453 59.119 46.3546 58.8388 46.3965L50.6848 47.5965C50.3616 47.6446 50.0584 47.7826 49.81 47.9949C49.5615 48.207 49.3776 48.4848 49.2793 48.7965C49.1787 49.1077 49.1664 49.4409 49.2439 49.7587C49.3216 50.0766 49.486 50.3667 49.7188 50.5965L55.6198 56.3985C55.8226 56.5978 55.9741 56.8432 56.0613 57.114C56.1486 57.3846 56.169 57.6723 56.1208 57.9525L54.7273 66.144C54.5488 67.194 54.9598 67.4025 55.6918 67.1745C55.7506 67.2915 55.8183 67.4038 55.8943 67.5105L54.6718 68.151C54.0853 68.4615 53.2993 68.2545 52.7623 67.8615C52.4991 67.6675 52.2951 67.4041 52.173 67.1008C52.0507 66.7975 52.0155 66.4662 52.0708 66.144L53.4628 57.9525C53.511 57.6724 53.4906 57.3847 53.4036 57.1143C53.3167 56.8437 53.1657 56.5981 52.9633 56.3985L47.0668 50.586Z" fill="#222221"/>
</svg>
