<svg width="120" height="120" viewBox="0 0 120 120" fill="none" xmlns="http://www.w3.org/2000/svg">
<path d="M103.911 39.3002C103.39 39.2072 102.861 38.6492 102.603 38.1272C102.091 37.0622 102.063 35.9238 102.516 35.1768C103.962 35.5383 104.683 35.8863 104.83 36.4352C104.935 36.8252 105.046 38.0687 103.911 39.3002Z" fill="#121516"/>
<path d="M79.1211 61.2541C79.1211 61.2541 71.7591 59.4361 71.5206 64.8541C71.2821 70.2721 73.6701 74.8906 74.2206 78.1531C74.7711 81.4156 75.1206 84.5776 75.3066 86.0896C75.4926 87.6016 78.4386 97.8151 80.4276 97.9741C82.4166 98.1331 86.9481 98.6311 86.9541 97.1776C86.9631 94.7506 84.5661 94.7116 82.9746 94.7911C81.3831 94.8706 79.5441 87.7621 79.2246 84.8911C78.9051 82.0201 79.4676 73.3726 80.1831 69.1546C80.8986 64.9366 80.8506 61.5106 79.1211 61.2541Z" fill="#DED7D2"/>
<path d="M27.2998 78.6001C31.2568 76.2436 33.7693 72.7321 33.9613 64.5481L33.9943 64.5151H47.9098V67.4656C47.4358 67.5646 48.5098 67.6516 48.5098 67.6516C41.8258 81.9766 33.0253 81.2431 31.3888 82.7581C29.2348 84.7396 26.8498 90.0706 26.8498 91.5001C26.8498 92.9296 27.8653 93.0526 27.8653 93.0526C29.5153 93.1066 30.0958 93.7336 30.2428 94.4026C30.4318 95.2711 29.7418 96.0901 28.8553 96.1606C27.0733 96.3016 24.1588 96.5416 23.2093 95.4961C22.3813 94.5856 24.1093 86.5906 25.2463 82.2826C25.7023 80.5501 25.7488 79.5151 27.2998 78.6001Z" fill="#8F8F8F"/>
<path d="M27.6764 79.2405C29.3099 78.264 30.7574 77.0325 31.8644 75.477C33.1169 73.7145 33.8369 71.6085 34.2284 69.4965C34.5191 67.8618 34.6796 66.2065 34.7084 64.5465L34.4894 65.0775L34.5224 65.0445L33.9914 65.2635H46.1999C46.7609 65.2635 47.3264 65.289 47.8859 65.2635H47.9114L47.1614 64.5135V67.464L47.7119 66.741C47.2694 66.8415 46.9394 67.251 47.0669 67.7175C47.1117 67.8633 47.1954 67.9942 47.3091 68.0959C47.4227 68.1976 47.562 68.2665 47.7119 68.295C47.9736 68.3509 48.2396 68.386 48.5069 68.4L47.8604 67.272C47.142 68.8251 46.3206 70.3284 45.4019 71.772C45.0018 72.396 44.5794 73.0045 44.1344 73.5975L43.9844 73.7865C43.9559 73.824 43.8734 73.92 43.9844 73.7865C43.9619 73.812 43.9409 73.8405 43.9199 73.8675C43.8044 74.0175 43.6874 74.1675 43.5689 74.307C43.3664 74.556 43.1579 74.8005 42.9464 75.042C42.1716 75.9235 41.3291 76.743 40.4264 77.493L40.1144 77.745L39.9734 77.8545C39.8969 77.916 40.1309 77.7345 40.0169 77.82L39.9254 77.892C39.7229 78.042 39.5189 78.192 39.3104 78.342C38.9219 78.6135 38.5214 78.8715 38.1104 79.113C37.3931 79.534 36.6501 79.9098 35.8859 80.238C35.7134 80.3115 36.0194 80.1825 35.9204 80.223L35.7914 80.277L35.5214 80.385C35.3609 80.4495 35.1989 80.511 35.0354 80.571C34.7354 80.685 34.4159 80.793 34.1039 80.895C33.5834 81.0675 33.0539 81.2235 32.5394 81.396C32.1059 81.525 31.6863 81.6967 31.2869 81.909C31.0724 82.0371 30.8753 82.1925 30.7004 82.371C30.2606 82.819 29.8592 83.3032 29.5004 83.8185C28.7301 84.9142 28.059 86.0763 27.4949 87.291C26.9969 88.341 26.5169 89.4239 26.2334 90.5489C26.0973 91.0393 26.0621 91.5522 26.1299 92.0565C26.1686 92.3706 26.2776 92.6717 26.4491 92.9378C26.6205 93.2038 26.8497 93.4276 27.1199 93.5925C27.2708 93.6804 27.4334 93.7465 27.6029 93.7889C27.6834 93.8062 27.7652 93.8176 27.8474 93.8234C27.9344 93.8234 28.0229 93.8235 28.1114 93.8385L28.2974 93.8549C28.4609 93.87 28.1609 93.8295 28.3304 93.8549C28.4927 93.8815 28.653 93.9185 28.8104 93.966C28.8728 93.9955 28.938 94.0182 29.0054 94.0335C28.8674 94.0335 28.8899 93.981 28.9814 94.0335L29.0894 94.089C29.1389 94.1175 29.1869 94.1489 29.2394 94.1789C29.3729 94.2614 29.1134 94.0589 29.2394 94.1789C29.2799 94.2164 29.3204 94.254 29.3579 94.2959L29.4104 94.3559C29.4479 94.3964 29.2949 94.1789 29.3759 94.3184C29.3999 94.3574 29.4239 94.3949 29.4449 94.4354C29.5379 94.6005 29.4059 94.3079 29.4449 94.4039C29.4584 94.4504 29.4764 94.4955 29.4899 94.542C29.4899 94.5645 29.5004 94.5884 29.5064 94.6109C29.5604 94.7924 29.5139 94.4745 29.5064 94.6335C29.5064 94.668 29.5064 94.7009 29.5064 94.7354V94.7864C29.5064 94.8524 29.5064 94.8539 29.5064 94.7864L29.5139 94.737C29.5139 94.7685 29.5019 94.8014 29.4944 94.8344C29.4869 94.8674 29.4779 94.8974 29.4674 94.9289L29.4509 94.9769C29.4284 95.0369 29.4284 95.0384 29.4509 94.9769L29.4689 94.9319L29.4224 95.0204C29.4074 95.0489 29.3879 95.076 29.3714 95.1045C29.3039 95.2275 29.4824 94.9995 29.3534 95.1299C29.3324 95.1495 29.2214 95.2934 29.1929 95.2799L29.2649 95.2245C29.2379 95.2455 29.2109 95.2634 29.1824 95.2829L29.0954 95.3339C29.0759 95.3459 28.9574 95.4359 29.0489 95.3639C29.1404 95.292 29.0294 95.3639 28.9949 95.3819L28.8944 95.4104C28.8614 95.4194 28.8269 95.4269 28.7924 95.4329C28.8959 95.4209 28.9199 95.4179 28.8614 95.4239C28.5614 95.4344 28.2509 95.4734 27.9464 95.4929C27.2508 95.5469 26.5529 95.5649 25.8554 95.5469C25.6829 95.5469 25.5119 95.5305 25.3409 95.5155L25.1174 95.4944C25.0772 95.4844 25.0358 95.4793 24.9944 95.4795L25.0739 95.4899L25.0019 95.478C24.7109 95.4313 24.4253 95.3549 24.1499 95.2499C23.9549 95.1764 24.2894 95.3189 24.1079 95.2319C24.0558 95.2069 24.0059 95.1799 23.9579 95.151C23.9099 95.1225 23.8664 95.0894 23.8184 95.0609C23.7014 94.9904 23.9519 95.1884 23.8589 95.0909C23.8349 95.0654 23.8064 95.0444 23.7809 95.0204C23.6849 94.9244 23.7539 94.9169 23.8214 95.0864C23.813 95.069 23.8029 95.0524 23.7914 95.037C23.7809 95.0205 23.7764 94.9995 23.7644 94.9815C23.8979 95.187 23.8319 95.1509 23.8034 95.0579C23.7867 95.0032 23.7732 94.9477 23.7629 94.8914C23.7629 94.8614 23.7539 94.8314 23.7479 94.8015C23.7284 94.6964 23.7719 95.0129 23.7644 94.9274C23.7644 94.9004 23.7644 94.8749 23.7644 94.8479C23.7479 94.6754 23.7434 94.5014 23.7434 94.3274C23.7434 93.8774 23.7824 93.4274 23.8289 92.9774C23.8424 92.8514 23.8574 92.7255 23.8724 92.5995C23.8724 92.5305 23.8889 92.4615 23.8979 92.3925C23.8979 92.3655 23.8979 92.337 23.9084 92.31C23.9189 92.283 23.9354 92.0954 23.9174 92.2394C23.8994 92.3834 23.9279 92.1599 23.9339 92.1239C23.9429 92.0504 23.9549 91.9739 23.9654 91.9035C23.9864 91.7535 24.0104 91.6035 24.0329 91.4535C24.2414 90.1305 24.4994 88.815 24.7829 87.5055C25.0664 86.196 25.3604 84.909 25.6829 83.619C25.8329 83.019 25.9934 82.419 26.1404 81.819C26.2139 81.519 26.2904 81.219 26.3759 80.919C26.4164 80.7825 26.4614 80.646 26.5139 80.5125C26.5874 80.322 26.4479 80.649 26.5334 80.4615C26.5619 80.4 26.5934 80.3385 26.6249 80.277C26.6907 80.157 26.7633 80.0407 26.8424 79.929C26.9084 79.8285 26.8094 79.9725 26.8004 79.98C26.8304 79.953 26.8559 79.911 26.8829 79.881C26.9099 79.851 26.9609 79.794 27.0014 79.752C27.0419 79.71 27.1094 79.644 27.1649 79.602C27.2204 79.56 27.4169 79.4175 27.2384 79.5345C27.3884 79.437 27.5294 79.3275 27.6884 79.2345C27.848 79.129 27.9612 78.9667 28.005 78.7806C28.0488 78.5944 28.0199 78.3985 27.924 78.2331C27.8283 78.0675 27.6729 77.9449 27.4898 77.8902C27.3065 77.8354 27.1092 77.8527 26.9384 77.9385C26.2974 78.3015 25.7612 78.8238 25.3814 79.455C25.089 80.0232 24.876 80.6289 24.7484 81.255C24.4394 82.503 24.1109 83.745 23.8184 84.9975C23.2094 87.6075 22.6364 90.2475 22.3499 92.919C22.2644 93.72 22.1489 94.6319 22.3694 95.4239C22.7069 96.6329 24.2654 96.9015 25.3289 96.9975C26.0432 97.053 26.7605 97.0574 27.4754 97.0109C27.8073 96.9929 28.1379 96.9709 28.4669 96.9449C28.8765 96.9376 29.2821 96.8621 29.6669 96.7214C30.4829 96.3779 31.0994 95.5214 31.0409 94.6124C31.0205 94.291 30.9303 93.9779 30.7764 93.695C30.6225 93.4121 30.4086 93.1662 30.1499 92.9745C29.5274 92.4945 28.6964 92.3265 27.9239 92.3085C27.6839 92.3085 28.1744 92.3729 28.0004 92.3219C27.9539 92.3084 27.9059 92.2874 27.8594 92.2769C28.1009 92.3309 28.0094 92.3445 27.9269 92.301C27.8909 92.283 27.8579 92.2605 27.8234 92.2409C27.6869 92.1614 27.9734 92.3774 27.8474 92.2589C27.8084 92.2199 27.7709 92.178 27.7304 92.1405C27.6899 92.103 27.8414 92.3129 27.7784 92.2019C27.7664 92.1824 27.7514 92.1644 27.7394 92.1449C27.7064 92.0924 27.6854 92.031 27.6524 91.9815C27.7559 92.1315 27.6944 92.0879 27.6674 92.007C27.6584 91.9799 27.6494 91.9515 27.6419 91.9245C27.6344 91.8975 27.6224 91.8495 27.6149 91.812C27.6074 91.7745 27.6044 91.7639 27.5999 91.7399C27.5879 91.6589 27.5894 91.6739 27.5999 91.7864C27.5654 91.7489 27.5864 91.5824 27.5864 91.5329C27.5864 91.4834 27.5864 91.455 27.5864 91.416C27.5864 91.377 27.5864 91.3529 27.5939 91.3214C27.6059 91.1714 27.5549 91.5569 27.5939 91.3574C27.6761 90.9248 27.7923 90.4996 27.9419 90.0855C28.0364 89.814 28.1369 89.547 28.2419 89.28L28.3184 89.094C28.3319 89.058 28.3469 89.0235 28.3619 88.9875C28.4219 88.8375 28.3064 89.1165 28.3484 89.019C28.4159 88.869 28.4804 88.719 28.5479 88.569C28.8258 87.951 29.1258 87.3439 29.4479 86.748C29.7719 86.148 30.1199 85.563 30.4979 84.9975C30.5864 84.864 30.6779 84.732 30.7709 84.6015C30.8639 84.471 30.9719 84.3585 31.0469 84.228C30.9374 84.4215 31.0559 84.2175 31.0964 84.1665C31.1369 84.1155 31.1879 84.0525 31.2344 83.997C31.3284 83.883 31.4283 83.772 31.5344 83.664C31.6709 83.514 31.8149 83.3775 31.9619 83.241C32.0519 83.1555 31.7549 83.391 31.8989 83.2905C31.9319 83.268 31.9634 83.2455 31.9964 83.226C32.0669 83.1825 32.1464 83.1435 32.2124 83.1075L32.3339 83.052L32.3969 83.0235C32.4359 83.0055 32.1659 83.118 32.3039 83.0625C32.7434 82.8885 33.1949 82.749 33.6464 82.6125C35.0417 82.1961 36.4016 81.669 37.7129 81.036C39.5607 80.0977 41.2551 78.8839 42.7379 77.436C44.8499 75.393 46.5614 72.948 47.9654 70.3755C48.3854 69.6075 48.7769 68.826 49.1474 68.034C49.2105 67.9194 49.2431 67.7905 49.242 67.6597C49.2408 67.5288 49.206 67.4005 49.1409 67.287C49.0758 67.1736 48.9827 67.0788 48.8703 67.0117C48.7578 66.9448 48.6302 66.9078 48.4994 66.9045C48.4019 66.9045 48.3029 66.885 48.1994 66.8745C48.0494 66.858 48.3899 66.906 48.2624 66.882C48.2234 66.882 48.1859 66.8715 48.1484 66.864C48.1109 66.8565 48.0854 66.8475 48.0539 66.8415L48.0179 66.8295C48.1281 66.8595 48.2285 66.9178 48.3089 66.999L48.5024 67.329V67.728C48.4214 68.256 47.7704 68.2725 48.0989 68.199C48.2567 68.1538 48.3956 68.0589 48.495 67.9282C48.5945 67.7977 48.6492 67.6386 48.6509 67.4745V64.5075C48.6477 64.3095 48.5678 64.1206 48.4278 63.9805C48.2877 63.8406 48.0989 63.7606 47.9009 63.7575H35.3009C34.8734 63.7575 34.4429 63.744 34.0154 63.7575C33.8045 63.7576 33.6018 63.8392 33.4496 63.985C33.2973 64.1308 33.2072 64.3299 33.1979 64.5405C33.1649 65.0175 33.1679 65.4975 33.1379 65.9745C33.1079 66.4515 33.0719 66.9045 33.0224 67.368C32.9999 67.5795 32.9744 67.7895 32.9474 67.9995C32.9309 68.139 32.9474 67.9905 32.9474 67.968C32.9474 68.0235 32.9324 68.079 32.9249 68.1345L32.8754 68.4615C32.7606 69.2295 32.6018 69.9901 32.3999 70.74C32.3069 71.0779 32.2029 71.4115 32.0879 71.7405C32.0339 71.8905 31.9784 72.0495 31.9184 72.2025C31.8929 72.27 31.8659 72.3375 31.8389 72.405L31.7894 72.525C31.7384 72.6495 31.8644 72.354 31.7804 72.5445C31.5378 73.1077 31.253 73.6518 30.9284 74.172C30.7784 74.412 30.6194 74.646 30.4514 74.874C30.4064 74.9355 30.3584 74.9955 30.3134 75.057C30.3134 75.057 30.4349 74.907 30.3614 74.994C30.3374 75.024 30.3149 75.054 30.2909 75.0825C30.1964 75.1995 30.1004 75.315 30.0014 75.4275C29.6372 75.846 29.2425 76.237 28.8209 76.5975C28.7189 76.686 28.6154 76.7715 28.5104 76.857C28.4624 76.8945 28.4129 76.932 28.3604 76.971C28.2479 77.061 28.5104 76.8585 28.3949 76.944L28.3064 77.0115C28.0784 77.1825 27.8454 77.3464 27.6074 77.5035C27.3693 77.6605 27.1359 77.8075 26.9069 77.9445C26.7473 78.0499 26.634 78.2122 26.5902 78.3984C26.5464 78.5845 26.5754 78.7804 26.6712 78.9459C26.7669 79.1115 26.9223 79.234 27.1056 79.2888C27.2888 79.3435 27.486 79.3263 27.6569 79.2405H27.6764Z" fill="black"/>
<path d="M80.7119 59.2633C80.7119 59.2633 73.3499 57.4498 73.1114 62.8678C72.8729 68.2858 75.2609 72.9043 75.8114 76.1668C76.3619 79.4293 76.7114 82.5913 76.8974 84.1033C77.0834 85.6153 80.0294 95.8273 82.0184 95.9878C84.0074 96.1483 88.5389 96.6433 88.5449 95.1913C88.5539 92.8033 86.1569 92.7238 84.5654 92.8033C82.9739 92.8828 81.1349 85.7743 80.8154 82.9033C80.4959 80.0323 81.0584 71.3863 81.7739 67.1683C82.4894 62.9503 82.4354 59.5198 80.7119 59.2633Z" fill="#8C8C8C"/>
<path d="M80.8114 58.902C80.2267 58.7666 79.6324 58.6773 79.0339 58.635C77.8894 58.542 76.6834 58.5855 75.5839 58.9605C74.3194 59.3925 73.3249 60.294 72.9349 61.593C72.6424 62.5695 72.6889 63.6495 72.7444 64.6545C72.8197 65.8859 72.9932 67.1093 73.2634 68.313C73.7239 70.413 74.4499 72.435 75.0349 74.502C75.3019 75.4911 75.5089 76.4953 75.6544 77.5095C75.8524 78.774 76.0264 80.043 76.1869 81.312C76.3474 82.581 76.4329 83.916 76.7404 85.1835C77.0479 86.451 77.4244 87.702 77.8309 88.9335C78.3032 90.4197 78.8606 91.8777 79.5004 93.3C79.7603 93.8868 80.0611 94.4547 80.4004 94.9995C80.6533 95.4323 80.9849 95.8139 81.3784 96.1245C81.8044 96.4335 82.3564 96.396 82.8589 96.438C83.6929 96.507 84.5269 96.567 85.3639 96.579C86.1379 96.588 86.9479 96.579 87.7024 96.3795C88.2724 96.2295 88.8709 95.9055 88.9204 95.253C88.9528 94.8291 88.8763 94.404 88.6979 94.0181C88.5197 93.632 88.2457 93.2981 87.9019 93.048C87.2734 92.598 86.4589 92.469 85.7059 92.4285C85.3444 92.409 84.9829 92.418 84.6229 92.4285C84.578 92.4233 84.5327 92.4233 84.4879 92.4285C84.5509 92.403 84.5734 92.4495 84.5134 92.4285C84.4922 92.4207 84.4708 92.4141 84.4489 92.409C84.3784 92.3955 84.5059 92.4465 84.4639 92.4165C84.4459 92.4045 84.4249 92.397 84.4054 92.3865C84.3619 92.3625 84.3229 92.3325 84.2824 92.3055C84.3739 92.3685 84.2644 92.2875 84.2329 92.2575C84.2014 92.2275 84.1489 92.175 84.1084 92.13C84.0679 92.085 84.0304 92.0385 83.9929 91.9905C84.0394 92.049 83.9929 91.998 83.9764 91.968C83.9599 91.938 83.9329 91.9065 83.9104 91.875C83.7359 91.6151 83.5805 91.3428 83.4454 91.0605C82.7329 89.6205 82.2604 87.9525 81.8644 86.3505C81.6679 85.5585 81.4939 84.7605 81.3544 83.9505C81.3229 83.7765 81.2944 83.601 81.2689 83.427C81.2569 83.3535 81.2464 83.277 81.2374 83.208C81.2359 83.193 81.2359 83.178 81.2374 83.163C81.2374 83.121 81.2269 83.079 81.2209 83.0385C81.1894 82.77 81.1684 82.5015 81.1534 82.2315C81.0878 80.6138 81.1034 78.9937 81.1999 77.3775C81.2899 75.3915 81.4318 73.4096 81.6259 71.4315C81.7144 70.5315 81.8149 69.6195 81.9334 68.7165C81.9769 68.394 82.0384 67.9665 82.0969 67.6035C82.1854 67.047 82.2799 66.4905 82.3549 65.9325C82.5239 64.8015 82.6027 63.659 82.5904 62.5155C82.5694 61.6665 82.4839 60.7815 82.1269 60.0015C81.8794 59.46 81.4234 58.9935 80.8144 58.896C80.7185 58.8726 80.6174 58.8867 80.5318 58.9356C80.4461 58.9844 80.3825 59.0642 80.3539 59.1585C80.3276 59.2544 80.3405 59.3568 80.3897 59.4431C80.4389 59.5295 80.5205 59.5928 80.6164 59.619C80.6807 59.6291 80.7445 59.6436 80.8069 59.6625C80.8324 59.6625 80.8579 59.6805 80.8834 59.6895C80.8054 59.661 80.8834 59.6895 80.9164 59.7075C80.9726 59.7363 81.0263 59.7699 81.0769 59.808C81.0259 59.7705 81.0589 59.793 81.0874 59.8185L81.1684 59.895L81.2359 59.9685C81.2839 60.021 81.2359 59.9685 81.2494 59.985C81.2954 60.0462 81.3376 60.1103 81.3754 60.177C81.4471 60.2942 81.5045 60.4196 81.5464 60.5505C81.8254 61.347 81.8464 62.175 81.8464 63.0225C81.8224 65.0475 81.3964 67.026 81.1459 69.0225C80.9074 70.8975 80.7394 72.783 80.6089 74.6685C80.4814 76.5 80.3869 78.336 80.3704 80.1735C80.3392 81.4785 80.425 82.7838 80.6269 84.0735C80.9108 85.7165 81.3118 87.3372 81.8269 88.923C82.0688 89.6898 82.3574 90.4413 82.6909 91.173C82.9414 91.716 83.2309 92.2755 83.6509 92.709C83.8166 92.8884 84.0221 93.0266 84.2509 93.1125C84.5014 93.204 84.7834 93.1545 85.0444 93.15C85.4093 93.1412 85.7746 93.1557 86.1379 93.1935H86.1979H86.2159C86.2549 93.1935 86.2939 93.1995 86.3329 93.2115C86.4289 93.228 86.5249 93.2475 86.6194 93.27C86.7835 93.3092 86.9449 93.3592 87.1024 93.42C87.3964 93.5328 87.6553 93.7218 87.8524 93.9675C87.8779 94.0005 87.8524 93.9675 87.8524 93.9675L87.8854 94.0125C87.9094 94.05 87.9334 94.086 87.9559 94.125C87.9967 94.1933 88.0313 94.2651 88.0594 94.3395C88.1224 94.5092 88.1642 94.686 88.1839 94.866C88.1929 94.9755 88.1839 95.0835 88.1959 95.1915C88.1959 95.265 88.1959 95.1915 88.1959 95.1915C88.1861 95.2145 88.1801 95.2388 88.1779 95.2635C88.1779 95.307 88.2184 95.205 88.1779 95.2635C88.1639 95.2842 88.1513 95.3057 88.1404 95.328C88.1119 95.376 88.2004 95.2725 88.1404 95.328C88.1209 95.3445 88.1029 95.3655 88.0849 95.3835C88.0309 95.442 88.0849 95.3835 88.0849 95.3835L88.0129 95.4315C87.9605 95.4635 87.9064 95.4924 87.8509 95.5185C87.7939 95.547 87.9064 95.502 87.8224 95.5305L87.7249 95.5665C87.6544 95.5905 87.5839 95.61 87.5119 95.628C87.1943 95.7096 86.869 95.7573 86.5414 95.7705C86.1364 95.799 85.7284 95.802 85.3204 95.796C84.5014 95.7825 83.6824 95.7225 82.8649 95.655L82.3459 95.6115L82.1269 95.5935C82.0963 95.5873 82.0651 95.5848 82.0339 95.586C82.0774 95.586 82.1329 95.6085 82.0624 95.586L81.9709 95.559C81.9064 95.5425 81.9619 95.55 81.9949 95.571C81.9769 95.559 81.9544 95.553 81.9364 95.5425L81.8404 95.4855L81.7894 95.4495C81.7159 95.4015 81.8314 95.49 81.7894 95.4495C81.6377 95.309 81.4954 95.1587 81.3634 94.9995C81.3364 94.965 81.3244 94.947 81.3634 94.9995L81.3094 94.9275L81.1924 94.7625C81.1174 94.65 81.0424 94.5375 80.9734 94.422C80.2474 93.231 79.7614 91.9965 79.2829 90.714C78.7684 89.334 78.3139 87.9285 77.9089 86.514C77.7589 85.9815 77.6089 85.446 77.4814 84.9075C77.4349 84.7155 77.3914 84.522 77.3524 84.327C77.3374 84.255 77.3239 84.177 77.3104 84.1095C77.3104 84.0795 77.3029 84.0495 77.2969 84.0195C77.2864 83.967 77.3089 84.126 77.3044 84.075C77.2999 84.024 77.2924 83.9805 77.2864 83.934C77.0194 81.738 76.7599 79.5405 76.4194 77.3535C76.2781 76.3472 76.0777 75.35 75.8194 74.367C75.5569 73.431 75.2554 72.507 74.9689 71.5785C74.2969 69.3975 73.7059 67.176 73.5454 64.89C73.5016 64.2645 73.49 63.6372 73.5109 63.0105C73.5124 62.6262 73.5628 62.2436 73.6609 61.872C73.8001 61.3109 74.0986 60.8019 74.5204 60.4065C74.5729 60.357 74.6269 60.309 74.6824 60.264L74.7409 60.2175L74.8009 60.174C74.9165 60.0906 75.0373 60.0146 75.1624 59.946C75.2869 59.8755 75.4159 59.814 75.5464 59.7555C75.4684 59.79 75.5659 59.748 75.5839 59.7405L75.6844 59.7015L75.8884 59.631C76.1641 59.5419 76.4458 59.4728 76.7314 59.424L76.9459 59.3895H76.9684L77.0914 59.376C77.2414 59.3595 77.3764 59.3475 77.5189 59.3385C78.0502 59.3081 78.5831 59.3165 79.1134 59.364L79.4599 59.3985L79.6099 59.4165L79.6879 59.427C79.7419 59.427 79.6009 59.4135 79.6954 59.427C79.8664 59.451 80.0374 59.478 80.2069 59.508C80.3569 59.535 80.4979 59.5635 80.6419 59.598C81.0814 59.7405 81.2809 59.0175 80.8114 58.902Z" fill="black"/>
<path d="M79.1211 61.2541C79.1211 61.2541 71.7591 59.4361 71.5206 64.8541C71.2821 70.2721 73.6701 74.8906 74.2206 78.1531C74.7711 81.4156 75.1206 84.5776 75.3066 86.0896C75.4926 87.6016 78.4386 97.8151 80.4276 97.9741C82.4166 98.1331 86.9481 98.6311 86.9541 97.1776C86.9631 94.7506 84.5661 94.7116 82.9746 94.7911C81.3831 94.8706 79.5441 87.7621 79.2246 84.8911C78.9051 82.0201 79.4676 73.3726 80.1831 69.1546C80.8986 64.9366 80.8506 61.5106 79.1211 61.2541Z" fill="white"/>
<path d="M79.3198 60.5298C78.7023 60.3874 78.0742 60.2941 77.4418 60.2508C76.2658 60.1548 75.0193 60.2043 73.8958 60.5883C73.2364 60.8026 72.6297 61.1538 72.1153 61.6188C71.5803 62.1292 71.1904 62.7726 70.9858 63.4833C70.6858 64.4913 70.7248 65.6073 70.7818 66.6453C70.8607 67.92 71.0407 69.1866 71.3203 70.4328C71.7808 72.5223 72.5038 74.5353 73.0858 76.5903C73.353 77.5798 73.5598 78.5847 73.7053 79.5993C73.8054 80.2672 73.9054 80.9368 74.0053 81.6078C74.0158 81.6858 74.0278 81.7653 74.0383 81.8433L74.0563 81.9783V82.0113C74.0443 81.9213 74.0563 82.0323 74.0563 82.0428L74.0743 82.1748C74.0848 82.2603 74.0968 82.3473 74.1073 82.4328C74.1463 82.7223 74.1823 83.0118 74.2198 83.3028C74.3863 84.6303 74.4718 85.9818 74.7898 87.2853C75.0988 88.5543 75.4768 89.8083 75.8833 91.0488C76.366 92.5602 76.935 94.0426 77.5873 95.4888C77.8467 96.0744 78.1474 96.6409 78.4873 97.1838C78.7743 97.669 79.1515 98.0947 79.5988 98.4378C80.0863 98.7843 80.7118 98.7513 81.2818 98.7993C82.1158 98.8683 82.9513 98.9283 83.7898 98.9373C84.5953 98.9478 85.4398 98.9298 86.2213 98.7198C86.9638 98.5218 87.6493 98.0568 87.7003 97.2198C87.7312 96.7288 87.6364 96.2382 87.4248 95.794C87.2133 95.35 86.892 94.9672 86.4913 94.6818C85.8148 94.2033 84.9268 94.0668 84.1198 94.0278C83.7613 94.0098 83.4013 94.0188 83.0428 94.0278H82.8928C82.8928 94.0083 83.1298 94.0833 83.0263 94.0443C83.0049 94.0366 82.9828 94.0306 82.9603 94.0263C82.8538 94.0038 83.0818 94.0863 83.0653 94.0728C83.047 94.0621 83.028 94.0525 83.0083 94.0443C82.9678 94.0188 82.9258 93.9843 82.8838 93.9633C82.8418 93.9423 83.0533 94.1133 82.9618 94.0218L82.9033 93.9693C82.8598 93.9288 82.8193 93.8853 82.7788 93.8418C82.7383 93.7983 82.7083 93.7548 82.6708 93.7128C82.8208 93.8898 82.7083 93.7608 82.6483 93.6738C82.4736 93.4153 82.3177 93.1447 82.1818 92.8638C82.1008 92.7003 82.0228 92.5338 81.9493 92.3658L81.8998 92.2503C81.8668 92.1768 81.9403 92.3478 81.9358 92.3373L81.9043 92.2623C81.8668 92.1723 81.8308 92.0838 81.7963 91.9938C81.6463 91.6053 81.4963 91.2108 81.3718 90.8148C81.0913 89.9673 80.8498 89.1063 80.6353 88.2393C80.4388 87.4473 80.2648 86.6493 80.1253 85.8393C80.0953 85.6713 80.0668 85.5018 80.0413 85.3323C80.0293 85.2543 80.0188 85.1823 80.0083 85.0968C79.9903 84.9768 80.0353 85.3113 80.0083 85.1508C80.0083 85.1088 79.9978 85.0683 79.9933 85.0263C79.9618 84.7593 79.9393 84.4893 79.9258 84.2208C79.8373 82.6143 79.8988 80.9958 79.9708 79.3908C80.0608 77.3968 80.2033 75.4063 80.3983 73.4193C80.4868 72.5193 80.5873 71.6088 80.7058 70.7058C80.7283 70.5333 80.6878 70.8378 80.7058 70.7058L80.7238 70.5783C80.7373 70.4733 80.7523 70.3698 80.7673 70.2648C80.7958 70.0728 80.8243 69.8808 80.8543 69.6888C80.9458 69.1158 81.0433 68.5428 81.1198 67.9668C81.2922 66.8194 81.3735 65.6604 81.3628 64.5003C81.3388 63.5853 81.2353 62.6538 80.8558 61.8138C80.5723 61.1868 80.0128 60.6318 79.3123 60.5193C78.9268 60.4578 78.4858 60.6183 78.3898 61.0443C78.3073 61.4043 78.4993 61.9008 78.9133 61.9668C78.9777 61.977 79.0413 61.9911 79.1038 62.0088C79.1287 62.0206 79.155 62.0298 79.1818 62.0358C79.1818 62.0358 78.9913 61.9443 79.0768 61.9923L79.1248 62.0163C79.1803 62.0448 79.2298 62.0913 79.2853 62.1168C79.2463 62.0988 79.1353 61.9863 79.2193 62.0688C79.2463 62.0943 79.2748 62.1183 79.3003 62.1453L79.3678 62.2188C79.4638 62.3193 79.2748 62.0823 79.3318 62.1708C79.3723 62.2308 79.4128 62.2893 79.4488 62.3523C79.4848 62.4153 79.5148 62.4768 79.5463 62.5398C79.6183 62.6898 79.4908 62.3898 79.5313 62.5023C79.5478 62.5473 79.5658 62.5908 79.5808 62.6358C79.642 62.8053 79.6921 62.9787 79.7308 63.1548C79.7503 63.2433 79.7668 63.3333 79.7833 63.4233L79.8058 63.5733C79.8058 63.5988 79.8208 63.6798 79.8058 63.5628C79.7908 63.4458 79.8058 63.5628 79.8058 63.5973C79.8553 64.0656 79.8765 64.5364 79.8688 65.0073C79.8688 65.5548 79.8283 66.1023 79.7773 66.6483C79.7494 66.9483 79.7169 67.2453 79.6798 67.5393C79.6708 67.6053 79.6633 67.6698 79.6543 67.7358C79.6348 67.8858 79.6543 67.7628 79.6543 67.7358L79.6408 67.8348C79.6168 68.0028 79.5928 68.1708 79.5673 68.3388C79.4278 69.2388 79.2808 70.1388 79.1653 71.0388C78.9283 72.9078 78.7618 74.7888 78.6313 76.6623C78.5038 78.5013 78.4093 80.3448 78.3928 82.1883C78.3642 83.5192 78.4545 84.85 78.6628 86.1648C78.9471 87.8077 79.348 89.4283 79.8628 91.0143C80.1177 91.8199 80.4213 92.6094 80.7718 93.3783C81.0189 93.9657 81.3633 94.5073 81.7903 94.9803C82.0021 95.2027 82.2631 95.3722 82.5523 95.4753C82.8418 95.5728 83.1523 95.5263 83.4523 95.5203C83.8153 95.5101 84.1786 95.523 84.5398 95.5593C84.5788 95.5593 84.6163 95.5698 84.6568 95.5728C84.6568 95.5728 84.4528 95.5428 84.5728 95.5623L84.6313 95.5728C84.7273 95.5878 84.8218 95.6058 84.9163 95.6283C85.0828 95.6673 85.2568 95.7603 85.4218 95.7858C85.4308 95.7858 85.2628 95.7108 85.3288 95.7453L85.3783 95.7678C85.4173 95.7873 85.4563 95.8053 85.4938 95.8263C85.5741 95.8686 85.6518 95.9157 85.7263 95.9673C85.8283 96.0333 85.7263 95.9913 85.6903 95.9358C85.7199 95.9659 85.752 95.9935 85.7863 96.0183C85.8463 96.0738 85.9048 96.1758 85.9723 96.2163C85.9168 96.1818 85.8748 96.0798 85.9438 96.1833C85.9678 96.2208 85.9918 96.2568 86.0143 96.2958C86.0368 96.3348 86.0593 96.3738 86.0788 96.4143C86.0859 96.433 86.0944 96.451 86.1043 96.4683C86.1478 96.5403 86.0503 96.3183 86.0743 96.3993C86.0983 96.4803 86.1388 96.5853 86.1613 96.6813C86.1733 96.7323 86.1823 96.7833 86.1928 96.8313C86.2183 96.9513 86.1808 96.6663 86.1928 96.8418C86.2018 96.9558 86.2048 97.0683 86.2078 97.1823C86.2108 97.2963 86.1463 97.2438 86.2243 97.0818C86.2138 97.1028 86.2168 97.1313 86.2078 97.1538C86.1568 97.2663 86.3053 96.9903 86.2483 97.0623C86.2335 97.0821 86.2213 97.1037 86.2123 97.1268C86.1673 97.2243 86.3293 97.0038 86.2708 97.0518C86.2518 97.0692 86.2338 97.0876 86.2168 97.1073C86.1298 97.2018 86.2468 97.0788 86.2888 97.0578C86.2645 97.0725 86.241 97.0885 86.2183 97.1058C86.1658 97.1403 86.1118 97.1643 86.0578 97.1943C85.9318 97.2633 86.2228 97.1343 86.1208 97.1688C86.0878 97.1793 86.0563 97.1928 86.0233 97.2048C85.9543 97.2288 85.8838 97.2498 85.8118 97.2678C85.6543 97.3098 85.4938 97.3368 85.3318 97.3638C85.1698 97.3908 85.4923 97.3458 85.3633 97.3638L85.2268 97.3788C85.1338 97.3893 85.0408 97.3968 84.9463 97.4028C84.5413 97.4328 84.1333 97.4373 83.7268 97.4313C82.9063 97.4178 82.0873 97.3593 81.2683 97.2918L80.7463 97.2468L80.5273 97.2288C80.4937 97.2226 80.4595 97.2201 80.4253 97.2213C80.4103 97.2213 80.6593 97.2723 80.5543 97.2363L80.4613 97.2108C80.3188 97.1748 80.6623 97.3173 80.5168 97.2333C80.4853 97.2138 80.4523 97.1973 80.4208 97.1763C80.3263 97.1148 80.2933 97.0593 80.4463 97.2018C80.295 97.0647 80.1528 96.9178 80.0203 96.7623C79.9993 96.7353 79.9363 96.6528 80.0203 96.7623C80.1043 96.8718 80.0368 96.7848 80.0203 96.7623L79.9033 96.5973C79.8313 96.4908 79.7533 96.3828 79.6933 96.2718C79.3644 95.7247 79.0707 95.157 78.8143 94.5723C78.7408 94.4103 78.6643 94.2453 78.5983 94.0803C78.5878 94.0563 78.5203 93.8973 78.5743 94.0263C78.6283 94.1553 78.5653 94.0023 78.5518 93.9708C78.5158 93.8838 78.4798 93.7983 78.4453 93.7113C78.2953 93.3588 78.1648 93.0048 78.0313 92.6478C77.5153 91.2663 77.0608 89.8608 76.6558 88.4478C76.5058 87.9093 76.3558 87.3693 76.2223 86.8248C76.1758 86.6328 76.1323 86.4393 76.0933 86.2443C76.0783 86.1723 76.0648 86.0943 76.0513 86.0268C76.0513 85.9983 76.0513 85.9713 76.0393 85.9428C76.0228 85.8453 76.0693 86.1798 76.0588 86.0928L76.0498 85.9503C75.7798 83.7333 75.5188 81.5148 75.1753 79.3068C75.034 78.2959 74.8338 77.2942 74.5753 76.3068C74.3128 75.3633 74.0083 74.4318 73.7188 73.4958C73.3948 72.4458 73.0858 71.3793 72.8383 70.3038C72.7078 69.7323 72.5923 69.1578 72.4993 68.5788C72.4783 68.4408 72.4573 68.3043 72.4378 68.1663C72.4378 68.1348 72.4183 68.0163 72.4378 68.1738C72.4378 68.1423 72.4303 68.1093 72.4258 68.0778L72.3943 67.8198C72.3594 67.5198 72.3309 67.2157 72.3088 66.9078C72.2668 66.2928 72.2533 65.6763 72.2728 65.0613C72.2728 64.9338 72.2818 64.8078 72.2908 64.6803C72.2908 64.6312 72.2953 64.5813 72.3043 64.5303C72.3043 64.5093 72.3043 64.4883 72.3043 64.4673C72.3148 64.3623 72.3043 64.5228 72.2938 64.5438C72.3283 64.3638 72.3538 64.1823 72.4018 64.0053C72.4498 63.8283 72.5128 63.6858 72.5623 63.5238C72.4933 63.7473 72.5218 63.6213 72.5488 63.5598C72.5653 63.5238 72.5833 63.4893 72.6013 63.4533C72.6358 63.3843 72.6733 63.3153 72.7138 63.2493C72.7543 63.1833 72.7933 63.1203 72.8368 63.0573C72.8548 63.0303 72.8743 63.0048 72.8923 62.9793C72.9538 62.8893 72.8308 63.0558 72.8323 63.0543C72.8338 63.0528 72.8593 63.0213 72.8728 63.0048C72.9661 62.8926 73.0663 62.7864 73.1728 62.6868C73.2253 62.6373 73.2793 62.5908 73.3348 62.5443L73.4053 62.4873C73.2118 62.6538 73.3243 62.5503 73.3768 62.5128C73.4929 62.43 73.6137 62.3538 73.7383 62.2848C73.8628 62.2143 73.9948 62.1603 74.1223 62.0958C74.1223 62.0958 73.9258 62.1738 74.0278 62.1348L74.0713 62.1183L74.1718 62.0793C74.2393 62.0538 74.3068 62.0298 74.3758 62.0073C74.6517 61.9191 74.9334 61.8504 75.2188 61.8018C75.2893 61.7883 75.3613 61.7778 75.4318 61.7673C75.5518 61.7478 75.2368 61.7913 75.3553 61.7778L75.4783 61.7628C75.6208 61.7463 75.7633 61.7343 75.9058 61.7253C76.4373 61.6953 76.9702 61.7043 77.5003 61.7523C77.6158 61.7613 77.7313 61.7733 77.8453 61.7868C77.8963 61.7868 77.9458 61.7973 77.9953 61.8048L78.0733 61.8138C78.1618 61.8258 77.8363 61.7808 77.9818 61.8018C78.1513 61.8273 78.3223 61.8528 78.4918 61.8843C78.6418 61.9113 78.7828 61.9383 78.9268 61.9743C79.1188 62.0272 79.3239 62.0017 79.4971 61.9033C79.6702 61.8051 79.7973 61.642 79.8501 61.45C79.903 61.258 79.8775 61.053 79.7793 60.8799C79.6809 60.7066 79.5178 60.5797 79.3258 60.5268L79.3198 60.5298Z" fill="black"/>
<path d="M41.4406 53.6416C41.4406 53.6416 35.4406 53.9206 32.8681 55.1746C30.2956 56.4286 25.5751 59.4871 23.5201 64.1311C20.6326 70.6561 16.9321 72.8641 13.887 73.9981C10.842 75.1321 16.9321 77.0431 21.6466 72.0286C26.3611 67.0141 25.5271 60.3286 35.0176 58.6591C35.0176 58.6591 42.3946 54.1201 41.4406 53.6416Z" fill="white"/>
<path d="M41.44 52.8918C40.711 52.9263 39.9835 52.9893 39.2575 53.0613C37.7579 53.193 36.2687 53.4231 34.7995 53.7498C34.0981 53.9075 33.4123 54.1278 32.7505 54.4083C32.2186 54.6471 31.7007 54.9161 31.1995 55.2138C29.8483 55.9926 28.5732 56.8967 27.391 57.9138C26.0328 59.0675 24.8472 60.4101 23.8705 61.9008C23.347 62.7123 22.963 63.5748 22.5505 64.4508C22.119 65.3687 21.631 66.2588 21.0895 67.1163C20.8474 67.4973 20.5935 67.8698 20.3275 68.2338L20.134 68.4918C20.023 68.6418 20.2345 68.3643 20.122 68.5083L20.0245 68.6313C19.897 68.7918 19.7665 68.9508 19.633 69.1068C19.1442 69.6819 18.6142 70.2209 18.0475 70.7193C17.917 70.8333 17.7835 70.9458 17.6485 71.0553L17.482 71.1888L17.3815 71.2668C17.569 71.1168 17.4085 71.2458 17.368 71.2773C17.1085 71.4708 16.8445 71.6568 16.573 71.8323C16.0701 72.1586 15.547 72.4527 15.007 72.7128C14.8915 72.7698 14.7745 72.8238 14.656 72.8778L14.467 72.9633C14.404 72.9903 14.1295 73.0983 14.395 72.9948C14.149 73.0908 13.9045 73.1913 13.657 73.2858C13.1965 73.4643 12.712 73.6908 12.457 74.1408C12.335 74.3625 12.2948 74.6201 12.3433 74.8685C12.3918 75.1169 12.526 75.3404 12.7225 75.4998C13.0787 75.776 13.5044 75.9483 13.9525 75.9978C15.247 76.1898 16.5955 75.9543 17.812 75.4968C19.5541 74.8293 21.1119 73.7555 22.3555 72.3648C23.277 71.3262 24.0799 70.1882 24.7495 68.9718C25.366 67.8783 25.909 66.7443 26.512 65.6433C26.8045 65.1063 27.112 64.5783 27.4525 64.0683C27.622 63.8133 27.8065 63.5718 27.9835 63.3183L27.937 63.3783L28.009 63.2883C28.0555 63.2283 28.105 63.1683 28.159 63.1098C28.2625 62.9853 28.3675 62.8638 28.4755 62.7438C28.6815 62.5158 28.8975 62.2973 29.1235 62.0883C29.2405 61.9803 29.362 61.8738 29.485 61.7703C29.5465 61.7178 29.6095 61.6668 29.674 61.6203C29.7055 61.5948 29.7385 61.5708 29.77 61.5438C29.593 61.6938 29.7115 61.5903 29.749 61.5618C30.3109 61.1409 30.9139 60.7781 31.549 60.4788C31.636 60.4383 31.7215 60.3978 31.8085 60.3603L31.9405 60.3018C32.098 60.2328 31.78 60.3663 31.9405 60.3018C32.1265 60.2268 32.3125 60.1518 32.5 60.0873C32.9035 59.9373 33.3115 59.8173 33.7255 59.7078C34.1755 59.5878 34.639 59.4888 35.101 59.4078C35.236 59.3831 35.365 59.3322 35.4805 59.2578C36.0964 58.8768 36.7084 58.4868 37.3165 58.0878C38.263 57.4698 39.202 56.8383 40.1095 56.1648C40.54 55.8453 40.969 55.5183 41.3725 55.1628C41.6606 54.929 41.9107 54.6516 42.1135 54.3408C42.376 53.8908 42.3325 53.2608 41.8255 52.9908C41.479 52.8078 40.9945 52.8903 40.7995 53.2593C40.6045 53.6283 40.6975 54.0903 41.068 54.2853C41.1715 54.3393 40.8955 54.1353 40.9645 54.2013C40.8841 54.1271 40.8268 54.0312 40.7995 53.9253C40.822 54.0153 40.7755 53.6763 40.78 53.7753C40.7845 53.8743 40.8325 53.5128 40.795 53.6463C40.7575 53.7798 40.8985 53.4483 40.8445 53.5323C40.8325 53.5503 40.8235 53.5728 40.8115 53.5923C40.7995 53.6118 40.78 53.6388 40.765 53.6628C40.681 53.7933 40.9015 53.5008 40.813 53.6013C40.5671 53.8713 40.3007 54.1221 40.0165 54.3513L39.763 54.5568L39.613 54.6708C39.8335 54.4938 39.6265 54.6603 39.574 54.7008C39.361 54.8628 39.145 55.0203 38.929 55.1778C38.47 55.5068 38.0059 55.8284 37.537 56.1423C36.7619 56.6663 35.9785 57.1763 35.1865 57.6723C35.0125 57.7818 34.834 57.8853 34.663 57.9993C34.5775 58.0563 34.8415 57.9543 34.729 57.9528C34.6174 57.9641 34.5068 57.9852 34.399 58.0158C34.2625 58.0428 34.126 58.0713 33.991 58.1013C33.571 58.1943 33.154 58.3023 32.743 58.4283C31.2541 58.8674 29.8609 59.5823 28.636 60.5358C27.6585 61.334 26.814 62.2823 26.134 63.3453C24.7705 65.4033 23.884 67.7343 22.492 69.7788C22.3105 70.0458 22.1155 70.3008 21.928 70.5618C22.078 70.3593 21.898 70.5978 21.8605 70.6443L21.7255 70.8108C21.61 70.9503 21.493 71.0883 21.373 71.2233C21.078 71.5538 20.7667 71.8692 20.44 72.1683C20.275 72.3183 20.1055 72.4683 19.933 72.6018L19.795 72.7113C19.945 72.5973 19.7845 72.7113 19.7605 72.7353C19.6695 72.8043 19.5765 72.8718 19.4815 72.9378C19.1253 73.1868 18.754 73.4138 18.37 73.6173C18.205 73.7043 18.037 73.7868 17.8675 73.8648L17.731 73.9263C17.5675 73.9983 17.731 73.9263 17.731 73.9263C17.731 73.9263 17.4775 74.0268 17.4625 74.0328C17.1247 74.1618 16.7796 74.271 16.429 74.3598C16.279 74.3973 16.129 74.4303 15.979 74.4603L15.781 74.4948C15.712 74.5068 15.391 74.5413 15.673 74.5143C15.4015 74.5398 15.133 74.5683 14.86 74.5698C14.734 74.5698 14.608 74.5698 14.4835 74.5578L14.3335 74.5458L14.2495 74.5368C14.0785 74.5188 14.431 74.5668 14.3125 74.5458C14.133 74.5187 13.9563 74.4755 13.7845 74.4168L13.7275 74.3958C13.6285 74.3613 13.9255 74.4918 13.8355 74.4408C13.807 74.4243 13.777 74.4123 13.747 74.3958C13.717 74.3793 13.696 74.3628 13.6705 74.3493C13.564 74.2893 13.846 74.5113 13.729 74.3928C13.612 74.2743 13.834 74.5803 13.7515 74.4243C13.7155 74.3568 13.8355 74.6658 13.801 74.5353C13.7665 74.4048 13.8175 74.7873 13.819 74.6538C13.819 74.6013 13.759 74.9103 13.8055 74.7753C13.843 74.6673 13.711 74.9943 13.759 74.8863C13.7965 74.8023 13.888 74.8008 13.6975 74.9583C13.723 74.9348 13.747 74.9097 13.7695 74.8833C13.882 74.7648 13.6495 74.9643 13.7095 74.9253L13.813 74.8578C13.8983 74.8077 13.9865 74.7627 14.077 74.7228C14.188 74.6703 13.8835 74.7978 14.002 74.7543L14.0725 74.7273L14.239 74.6643C14.362 74.6178 14.485 74.5683 14.608 74.5143C15.7317 74.0702 16.8007 73.4984 17.794 72.8103C19.0059 71.9516 20.0923 70.9283 21.022 69.7698C22.2109 68.2733 23.211 66.6359 23.9995 64.8948C24.3675 64.0553 24.8013 63.2463 25.297 62.4753C25.411 62.3043 25.528 62.1363 25.648 61.9698C25.714 61.8783 25.7815 61.7898 25.849 61.6998C25.8685 61.6728 25.978 61.5183 25.867 61.6758C25.9045 61.6218 25.948 61.5723 25.9885 61.5258C26.2585 61.1888 26.5405 60.8613 26.8345 60.5433C27.4039 59.9297 28.0099 59.3511 28.6495 58.8108C28.7995 58.6893 28.9405 58.5693 29.0875 58.4523L29.326 58.2633C29.4295 58.1823 29.308 58.2753 29.2945 58.2888C29.3452 58.2453 29.3983 58.2048 29.4535 58.1673C29.7625 57.9333 30.0775 57.7083 30.397 57.4893C30.949 57.1143 31.5154 56.7614 32.0965 56.4303C32.3554 56.2814 32.6179 56.1389 32.884 56.0028C32.995 55.9473 33.1045 55.8903 33.2155 55.8363L33.406 55.7478L33.4885 55.7103C33.535 55.6893 33.2995 55.7883 33.4645 55.7208C34.7575 55.2003 36.1645 54.9618 37.543 54.7653L37.795 54.7293C37.8475 54.7218 37.969 54.7098 37.756 54.7293L37.891 54.7113C38.068 54.6873 38.245 54.6663 38.422 54.6453C38.752 54.6063 39.082 54.5714 39.412 54.5403C39.9059 54.4923 40.3994 54.4518 40.8925 54.4188C41.074 54.4068 41.257 54.3948 41.4385 54.3858C41.83 54.3678 42.2065 54.0543 42.1885 53.6358C42.172 53.2503 41.86 52.8723 41.44 52.8918Z" fill="black"/>
<path d="M23.0516 82.2673C23.1921 81.7861 23.4338 81.3404 23.7602 80.9599C24.0866 80.5793 24.4904 80.2729 24.9446 80.0608C29.1731 77.9758 30.9941 75.0358 31.3166 66.6568C31.6736 57.3448 39.5531 51.8548 45.4016 51.3763C49.8191 51.0163 51.1961 52.7863 56.7866 53.4538C58.6001 53.6698 65.0006 52.4653 67.2716 51.0913C69.7721 49.5793 72.3146 47.6128 74.0726 45.7663C74.2443 45.4799 74.4363 45.2062 74.6471 44.9473C74.6471 44.9473 78.5621 39.2578 81.7136 35.0563C84.8651 30.8548 84.6071 29.1553 92.9786 30.3868C92.9786 30.3868 95.8181 31.5523 96.1136 32.2408C96.4091 32.9293 97.0001 34.0138 98.5751 34.3408C100.15 34.6678 104.83 35.5633 104.83 36.4318C104.83 37.3003 104.518 42.0883 94.9301 42.0223C94.9301 42.0223 92.3696 41.2348 91.3856 42.2848C90.9836 42.7138 89.8571 44.4553 88.5356 46.5838C86.7855 49.3763 85.7001 52.5335 85.3631 55.8118V55.8718C84.7256 62.6353 82.4186 65.8198 77.4836 69.4003C72.5486 72.9808 74.3651 73.0618 61.3136 70.3558C48.2621 67.6498 44.6021 69.2413 44.6021 69.2413C37.9166 83.5663 29.8661 81.3913 28.5146 83.1703C27.1631 84.9493 24.2171 91.6678 24.2171 93.1003C24.2171 94.5328 25.2356 94.6498 25.2356 94.6498C26.7086 94.6978 27.3356 95.2048 27.5516 95.7928C27.8936 96.7063 27.1856 97.6843 26.2121 97.7608C24.4286 97.9108 21.5276 98.1388 20.5796 97.0963C19.6316 96.0538 22.0166 86.0578 23.0516 82.2673Z" fill="white"/>
<path d="M23.7746 82.4668C23.9696 81.8089 24.4036 81.2476 24.9911 80.8933C25.4216 80.6263 25.8911 80.4253 26.3306 80.1673C27.1331 79.704 27.8728 79.1394 28.5311 78.4873C29.9636 77.0458 30.8036 75.1618 31.2821 73.2103C31.5929 71.8806 31.8026 70.5292 31.9091 69.1678C32.0456 67.6573 32.0111 66.1258 32.2766 64.6288C32.7206 62.0796 33.8183 59.6892 35.4626 57.6913C38.3276 54.2413 42.7301 51.8548 47.1821 52.0963C49.5086 52.2223 51.7151 53.2378 53.9861 53.7388C55.2011 54.0073 56.4776 54.2773 57.7286 54.2173C58.8581 54.1482 59.9818 54.0028 61.0916 53.7823C63.3656 53.3638 65.8481 52.8448 67.8416 51.6208C69.3823 50.6748 70.8548 49.6222 72.2486 48.4708C72.8981 47.9338 73.5281 47.3728 74.1281 46.7818C74.5625 46.3249 74.957 45.8316 75.3071 45.3073C76.4141 43.7758 77.4671 42.2038 78.5621 40.6573C80.1641 38.4073 81.8501 36.2053 83.4326 33.9358C83.6726 33.5908 83.9126 33.2428 84.1616 32.9038L84.3206 32.6923C84.4076 32.5783 84.3386 32.6683 84.3206 32.6923L84.4196 32.5693C84.5351 32.4283 84.6521 32.2888 84.7751 32.1538C84.8981 32.0188 85.0031 31.9153 85.1231 31.8043C85.1786 31.7518 85.2371 31.7038 85.2941 31.6543C85.4531 31.5148 85.2341 31.6843 85.4081 31.5643C85.5401 31.4728 85.6736 31.3843 85.8146 31.3048C85.8821 31.2673 85.9496 31.2313 86.0186 31.1968L86.1521 31.1353C86.2826 31.0753 86.0801 31.1623 86.1671 31.1353C87.0326 30.8053 87.6866 30.7573 88.5971 30.7528C89.9786 30.7438 91.3346 30.9448 92.7011 31.1068C92.7401 31.1184 92.7797 31.1278 92.8196 31.1353C92.8841 31.1353 92.6291 31.0528 92.8016 31.1278C92.9741 31.2028 93.1481 31.2778 93.3206 31.3588C93.7886 31.5733 94.2521 31.7998 94.6976 32.0563C94.9063 32.1699 95.1067 32.2977 95.2976 32.4388C95.2091 32.3713 95.3711 32.5108 95.4041 32.5393C95.432 32.565 95.4581 32.5926 95.4821 32.6218C95.3606 32.4718 95.4521 32.5798 95.4671 32.6218C95.6491 33.0939 95.9228 33.5253 96.2726 33.8908C97.1081 34.8178 98.2556 35.0383 99.4226 35.2813C100.542 35.5153 101.664 35.7613 102.757 36.0988C103.172 36.2124 103.574 36.3676 103.957 36.5623C104.026 36.5998 104.091 36.6433 104.157 36.6838C104.293 36.7708 104.092 36.5998 104.14 36.6733C104.155 36.6973 104.226 36.7768 104.154 36.6733C104.082 36.5698 104.142 36.6493 104.154 36.6733C104.166 36.6973 104.061 36.4648 104.089 36.4333C104.089 36.4423 104.089 36.4888 104.089 36.5008C104.074 36.6253 104.065 36.7504 104.064 36.8758C104.053 37.0408 104.104 36.6808 104.064 36.8263C104.055 36.8653 104.052 36.9058 104.044 36.9448C104.025 37.0468 104.004 37.1473 103.978 37.2448C103.924 37.4547 103.855 37.6606 103.773 37.8613C103.869 37.6213 103.71 37.9858 103.674 38.0548C103.603 38.1853 103.524 38.3143 103.446 38.4388C103.41 38.4943 103.371 38.5483 103.333 38.6023C103.23 38.7523 103.368 38.5693 103.296 38.6563C103.191 38.7838 103.083 38.9083 102.969 39.0253C102.855 39.1423 102.729 39.2608 102.601 39.3688C102.57 39.3958 102.361 39.5638 102.484 39.4693C102.397 39.5353 102.307 39.5998 102.216 39.6613C100.362 40.9198 97.9286 41.2213 95.6681 41.2663C95.4761 41.2663 95.2766 41.2843 95.0846 41.2663C95.1296 41.2663 95.1431 41.2873 95.0846 41.2783C94.9511 41.2573 94.8176 41.2078 94.6841 41.1778C94.1513 41.0539 93.6067 40.9881 93.0596 40.9813C92.4652 40.9656 91.8766 41.1018 91.3496 41.3773C90.8996 41.6293 90.6161 42.0373 90.3251 42.4438C89.4251 43.6963 88.6211 45.0193 87.8216 46.3333C85.9909 49.3042 84.8851 52.6644 84.5936 56.1418C84.4642 57.5128 84.2071 58.8687 83.8256 60.1918C83.1724 62.3901 81.9839 64.3918 80.3666 66.0178C78.8921 67.5178 77.1656 68.7028 75.4976 69.9658C75.0605 70.3098 74.6054 70.6302 74.1341 70.9258C73.9337 71.0431 73.7275 71.1504 73.5161 71.2468C73.7171 71.1523 73.4546 71.2693 73.3526 71.3038C73.2506 71.3383 73.1291 71.3728 73.0151 71.3998C72.9011 71.4268 72.8051 71.4418 72.6986 71.4643C72.4916 71.5063 72.8411 71.4568 72.6686 71.4643C72.5966 71.4643 72.5186 71.4793 72.4511 71.4838C72.1666 71.5029 71.8811 71.5053 71.5961 71.4913C71.2511 71.4763 70.9076 71.4403 70.5641 71.3998L70.4321 71.3833C70.3151 71.3683 70.5491 71.3998 70.4321 71.3833L70.1141 71.3368C69.8846 71.3023 69.6551 71.2648 69.4271 71.2258C66.6146 70.7473 63.8306 70.0978 61.0346 69.5308C58.0193 68.8956 54.9689 68.4397 51.8996 68.1658C50.1944 68.0025 48.4786 67.9804 46.7696 68.0998C46.0346 68.1613 45.2621 68.2348 44.5571 68.4643C44.5121 68.4778 44.4686 68.4928 44.4251 68.5093C43.9511 68.6863 43.8251 69.1558 43.6151 69.5803C42.8996 71.0619 42.0812 72.4914 41.1656 73.8583C39.8681 75.7723 38.2466 77.6083 36.4136 78.9298C35.7004 79.4439 34.9441 79.8957 34.1531 80.2798C33.9821 80.3623 33.8096 80.4403 33.6356 80.5183L33.5171 80.5708C33.3986 80.6203 33.6791 80.5033 33.4886 80.5813L33.2261 80.6878C32.9036 80.8138 32.5766 80.9293 32.2481 81.0343C31.2536 81.3568 30.2111 81.5368 29.2271 81.8878C28.8097 82.0159 28.4242 82.2312 28.0961 82.5193C27.5696 83.0233 27.2111 83.7958 26.8706 84.4288C25.7669 86.4829 24.8212 88.6182 24.0416 90.8158C23.7881 91.5298 23.5001 92.3008 23.4716 93.0658C23.4341 94.0603 23.9786 95.1373 25.0106 95.3698C25.5551 95.4928 26.1146 95.4118 26.5931 95.7343C26.6924 95.797 26.7721 95.8864 26.8226 95.9923C26.8811 96.1273 26.8376 96.0193 26.8226 95.9923C26.8516 96.0633 26.8721 96.1372 26.8841 96.2128C26.8931 96.3324 26.8709 96.4524 26.8196 96.5608C26.5736 97.0783 25.9586 97.0348 25.4696 97.0678C24.8081 97.1158 24.1436 97.1503 23.4806 97.1383C22.8607 97.1511 22.2422 97.0707 21.6461 96.8998C21.4984 96.8421 21.3563 96.7708 21.2216 96.6868C21.2096 96.6868 21.1316 96.5818 21.1106 96.5788C21.1436 96.5788 21.2336 96.7468 21.1841 96.6718C21.0821 96.5218 21.1961 96.7678 21.1841 96.6943C21.1729 96.6436 21.1588 96.5935 21.1421 96.5443C21.1421 96.5173 21.1091 96.3223 21.1256 96.4633C21.1421 96.6043 21.1256 96.3688 21.1181 96.3313C21.1181 96.2443 21.1181 96.1558 21.1091 96.0688C21.1079 95.6997 21.1255 95.3307 21.1616 94.9633C21.3491 92.8453 21.8321 90.6133 22.3061 88.4593C22.7486 86.4553 23.2301 84.4573 23.7701 82.4773C24.0251 81.5443 22.5776 81.1468 22.3241 82.0783C21.7241 84.2788 21.1931 86.5018 20.7146 88.7308C20.2361 90.9598 19.7276 93.2623 19.6196 95.5528C19.5911 96.1663 19.5551 96.9268 19.9061 97.4623C20.6306 98.5738 22.4366 98.6428 23.6081 98.6533C24.3041 98.6533 25.0016 98.6188 25.6961 98.5663C26.4956 98.5063 27.2366 98.3968 27.7961 97.7638C28.0234 97.5105 28.1885 97.2078 28.2784 96.8796C28.3684 96.5514 28.3807 96.2068 28.3142 95.8731C28.2479 95.5393 28.1047 95.2255 27.896 94.9567C27.6874 94.6879 27.419 94.4715 27.1121 94.3243C26.7962 94.1704 26.4598 94.0629 26.1131 94.0048C25.9166 93.9718 25.7171 93.9478 25.5131 93.9313C25.4936 93.9313 25.0316 93.8728 25.3151 93.9313C25.5611 93.9778 25.3946 93.9313 25.3766 93.9313C25.3586 93.9313 25.2551 93.8953 25.2266 93.8848C25.3916 93.9418 25.2641 93.9043 25.1876 93.8473C25.3721 93.9853 25.0376 93.6778 25.1321 93.7933C25.0601 93.7078 25.0133 93.6039 24.9971 93.4933C24.9583 93.3069 24.9491 93.1156 24.9701 92.9263C24.9581 93.0943 24.9581 92.9983 24.9806 92.8963C25.0031 92.7943 25.0226 92.6968 25.0466 92.5963C25.1561 92.1598 25.2971 91.7293 25.4471 91.3048C26.2292 89.0647 27.2027 86.8962 28.3571 84.8233C28.5746 84.4333 28.8071 84.0568 29.0576 83.6878C29.1746 83.5138 28.9826 83.7778 29.1356 83.5978C29.2886 83.4178 28.9856 83.6638 29.1851 83.5543C29.2556 83.5153 29.3246 83.4733 29.3966 83.4343C29.4341 83.4133 29.4761 83.3998 29.5151 83.3788C29.3966 83.4418 29.3921 83.4238 29.5151 83.3788C29.7131 83.3098 29.9126 83.2438 30.1151 83.1868C31.3271 82.8418 32.5481 82.5673 33.7151 82.0978C38.3396 80.2468 41.6246 76.3663 43.9826 72.0883C44.4326 71.2843 44.8376 70.4623 45.2276 69.6298L44.9591 69.8998C44.6711 70.0243 44.8091 69.9583 44.9351 69.9208C45.0851 69.8758 45.2441 69.8353 45.4001 69.8008C45.5261 69.7738 45.6521 69.7498 45.7781 69.7288L45.9791 69.6958L46.1051 69.6778C46.2641 69.6523 45.9551 69.6943 46.0781 69.6778C46.5026 69.6313 46.9241 69.5893 47.3501 69.5668C50.7131 69.3898 54.1166 69.8323 57.4256 70.3933C61.6451 71.1073 65.7956 72.2593 70.0361 72.8428C71.0591 72.9838 72.0851 73.0873 73.1096 72.9073C73.849 72.7594 74.5499 72.4614 75.1691 72.0313C75.9986 71.4808 76.7711 70.8418 77.5691 70.2523C79.0961 69.1288 80.6051 67.9753 81.8846 66.5668C83.0954 65.2369 84.0604 63.7026 84.7346 62.0353C85.5206 60.0973 85.8761 58.0183 86.0846 55.9468C86.3375 53.4082 87.0604 50.9386 88.2161 48.6643C88.8266 47.4643 89.5661 46.3213 90.2831 45.1843C90.5831 44.7208 90.8831 44.2588 91.1831 43.8013C91.3016 43.6258 91.4201 43.4503 91.5431 43.2763L91.6856 43.0783C91.7066 43.0498 91.7276 43.0198 91.7501 42.9913C91.8251 42.8893 91.6481 43.1128 91.7681 42.9673C92.1761 42.4738 92.8061 42.4588 93.5036 42.5173C93.9776 42.5578 94.5731 42.7813 95.1296 42.7813C97.1411 42.7813 99.2411 42.5953 101.13 41.8738C103.116 41.1238 104.952 39.6763 105.426 37.5058C105.595 36.7243 105.669 35.9653 104.94 35.4388C104.385 35.0383 103.675 34.8253 103.026 34.6303C102.181 34.3738 101.319 34.1728 100.456 33.9838C99.7181 33.8218 98.8856 33.7483 98.1836 33.4633C97.4816 33.1783 97.0856 32.6263 96.7691 31.9633C96.4526 31.3003 95.7536 30.9343 95.1491 30.6133C94.5446 30.2923 93.9491 30.0133 93.3296 29.7538C92.9606 29.6038 92.5421 29.5903 92.1476 29.5378C91.5881 29.4643 91.0286 29.3983 90.4661 29.3488C89.5888 29.2584 88.7056 29.2368 87.8246 29.2843C86.5286 29.3743 85.3136 29.7088 84.2921 30.5353C83.3786 31.2733 82.7276 32.3053 82.0631 33.2578C80.9111 34.9078 79.6811 36.5098 78.5021 38.1463C77.3021 39.8103 76.1186 41.4834 74.9516 43.1653C74.2016 44.2423 73.6331 45.1738 72.6896 46.0678C71.7401 46.9645 70.7351 47.8006 69.6806 48.5713C68.7071 49.3174 67.6826 49.9947 66.6146 50.5978C65.1551 51.3793 63.3461 51.7978 61.6811 52.1473C60.1661 52.4698 58.5971 52.8013 57.0416 52.7383C56.0021 52.6963 54.9416 52.4488 53.9291 52.2088C53.0051 51.9883 52.0976 51.7093 51.1901 51.4318C49.4846 50.9083 47.7776 50.5318 45.9821 50.6023C44.354 50.6719 42.7507 51.0247 41.2436 51.6448C37.8044 53.0386 34.8952 55.4862 32.9336 58.6363C31.8689 60.3885 31.148 62.3277 30.8096 64.3498C30.4331 66.5758 30.5336 68.8498 30.1796 71.0833C29.9231 72.6943 29.5256 74.3158 28.7591 75.6973C28.46 76.2585 28.0873 76.777 27.6506 77.2393C27.2267 77.6971 26.7517 78.1048 26.2346 78.4543C25.658 78.8247 25.0622 79.1641 24.4496 79.4713C23.9408 79.7412 23.4908 80.1097 23.1262 80.5557C22.7614 81.0015 22.4893 81.5155 22.3256 82.0678C22.0496 82.9963 23.5016 83.3998 23.7746 82.4668Z" fill="black"/>
<g opacity="0.18">
<path opacity="0.18" d="M24.4307 85.0503C24.5713 84.5691 24.8128 84.1235 25.1393 83.7429C25.4657 83.3625 25.8695 83.0559 26.3237 82.8438C30.5537 80.7588 32.3732 77.8203 32.6957 69.4398C33.0527 60.1278 40.9322 54.6378 46.7807 54.1593C51.1982 53.7993 52.5752 55.5693 58.1657 56.2368C59.9807 56.4528 66.3797 55.2483 68.6507 53.8743C71.1512 52.3503 73.6937 50.3898 75.4502 48.5448C75.6218 48.258 75.8138 47.9838 76.0247 47.7243C76.0247 47.7243 79.9502 42.0348 83.1002 37.8333C83.1002 37.8333 83.8637 42.2658 84.2327 42.5748C85.1897 43.3788 87.6677 43.6383 87.9092 43.3023C88.1072 43.0293 83.8352 39.6843 85.8407 34.8768C86.7992 32.5788 88.5407 32.3073 94.3637 33.1638C94.3637 33.1638 96.9692 34.1088 97.6367 34.6473C98.2202 35.1183 99.8867 34.8468 101.466 35.1753C102.366 35.3628 102.768 37.6788 104.241 38.1243C104.625 37.4711 104.831 36.7292 104.841 35.9718C104.841 35.1033 100.163 34.2093 98.5862 33.8808C97.0097 33.5523 96.4202 32.4693 96.1247 31.7808C95.8292 31.0923 92.9897 29.9268 92.9897 29.9268C84.6182 28.6953 84.8762 30.3948 81.7247 34.5963C78.5732 38.7978 74.6582 44.4873 74.6582 44.4873C74.4473 44.7467 74.2553 45.021 74.0837 45.3078C72.3257 47.1528 69.7832 49.1193 67.2827 50.6313C65.0117 52.0053 58.6112 53.2098 56.7977 52.9938C51.2072 52.3263 49.8302 50.5563 45.4127 50.9163C39.5627 51.3948 31.6847 56.8848 31.3277 66.1968C31.0052 74.5773 29.1842 77.5158 24.9557 79.6008C24.5015 79.8129 24.0977 80.1195 23.7713 80.4999C23.4448 80.8805 23.2033 81.3261 23.0627 81.8073C22.0277 85.5978 19.6472 95.6073 20.5907 96.6408C20.8697 96.9408 21.3167 97.1418 21.8522 97.2618C22.2347 93.7593 23.6837 87.7818 24.4307 85.0503Z" fill="black"/>
<path opacity="0.18" d="M26.2606 97.2976C27.2086 97.1926 27.8881 96.2341 27.5521 95.3356C27.3736 94.8586 26.9296 94.4356 25.9816 94.2661C25.7446 94.9876 25.6006 95.5636 25.6006 95.8786C25.6006 96.7411 25.9681 97.1266 26.2606 97.2976Z" fill="black"/>
</g>
<path d="M89.0145 29.25C86.9145 29.43 84.825 30.3675 83.376 31.92C82.7786 32.5643 82.3458 33.3433 82.1145 34.191C81.8604 35.1195 81.7333 36.0783 81.7365 37.041C81.7312 37.9848 81.8466 38.9255 82.08 39.84C82.3185 40.779 82.6095 41.7285 83.079 42.5805C83.4855 43.3185 84.06 44.007 84.822 44.394C85.2909 44.6458 85.8111 44.7867 86.3429 44.806C86.8748 44.8252 87.4038 44.7222 87.8895 44.505C89.424 43.7895 89.8951 41.967 89.9296 40.4205C89.9296 40.143 89.9295 39.864 89.9145 39.5865C89.8935 39.195 89.583 38.817 89.1645 38.8365C88.7745 38.8545 88.392 39.1665 88.4145 39.5865C88.4454 40.0864 88.4364 40.588 88.3875 41.0865V41.139C88.377 41.2245 88.38 41.2095 88.3875 41.0955C88.3866 41.1289 88.3815 41.1622 88.3725 41.1945C88.3575 41.2905 88.341 41.385 88.32 41.4795C88.2846 41.6496 88.239 41.8174 88.1835 41.982C88.1595 42.057 88.1265 42.132 88.1025 42.2025C88.1835 41.9625 88.1145 42.1695 88.0875 42.225C88.0283 42.3466 87.9611 42.4644 87.8865 42.5775C87.843 42.642 87.6915 42.7965 87.876 42.6015C87.8355 42.6435 87.801 42.693 87.762 42.738C87.6876 42.8205 87.6084 42.8987 87.525 42.972L87.4815 43.0095C87.417 43.062 87.4245 43.0575 87.501 42.9945C87.4722 43.0171 87.4422 43.0381 87.411 43.0575C87.3525 43.095 87.201 43.218 87.1305 43.2075L87.213 43.1745C87.18 43.1865 87.1485 43.2 87.1155 43.2105C87.0825 43.221 87.0165 43.2435 86.9655 43.2585L86.8665 43.284L86.7645 43.3035C86.682 43.3185 86.697 43.317 86.811 43.3035C86.7765 43.3425 86.556 43.3215 86.511 43.3215C86.424 43.3215 86.34 43.314 86.2545 43.308C86.076 43.2945 86.4255 43.344 86.2545 43.308C86.2035 43.2975 86.154 43.29 86.1045 43.278C85.9965 43.2534 85.8899 43.2229 85.785 43.1865C85.758 43.176 85.6815 43.1625 85.665 43.1415L85.7505 43.1775L85.6575 43.1355C85.566 43.092 85.4775 43.044 85.3905 42.9855C85.3035 42.927 85.251 42.894 85.1835 42.846C85.0335 42.7485 85.305 42.9585 85.1835 42.846C85.137 42.8025 85.086 42.7605 85.0335 42.7155C84.9248 42.6057 84.8222 42.49 84.726 42.369C84.6285 42.2505 84.831 42.519 84.7425 42.39L84.669 42.288C84.6195 42.2175 84.573 42.1455 84.528 42.0735C84.441 41.934 84.3615 41.79 84.2865 41.643C84.243 41.5575 84.2025 41.472 84.1635 41.3865C84.1371 41.3447 84.1169 41.2992 84.1035 41.2515C84.1466 41.3516 84.1526 41.365 84.1215 41.292L84.0915 41.22C83.9294 40.804 83.7887 40.38 83.67 39.9495C83.5433 39.517 83.4387 39.0786 83.3565 38.6355C83.3475 38.586 83.34 38.5365 83.3325 38.4855V38.436C83.3205 38.3535 83.322 38.3685 83.3325 38.484C83.3123 38.3995 83.3028 38.3128 83.304 38.226C83.28 37.9965 83.2635 37.7655 83.256 37.5345C83.2409 37.1119 83.2488 36.6888 83.28 36.267C83.295 36.0675 83.307 35.862 83.3415 35.667C83.3055 35.8755 83.3415 35.6895 83.3415 35.6505C83.3415 35.6115 83.358 35.544 83.367 35.49C83.385 35.385 83.4045 35.28 83.4255 35.175C83.5086 34.7803 83.6219 34.3928 83.7645 34.0155C83.7855 33.957 83.826 33.9375 83.742 34.0635C83.7641 34.023 83.7831 33.9808 83.799 33.9375C83.8365 33.855 83.877 33.7755 83.919 33.696C84 33.546 84.1095 33.417 84.192 33.2715C84.096 33.4395 84.1605 33.3135 84.192 33.2715C84.2235 33.2295 84.255 33.195 84.288 33.1575C84.366 33.069 84.4455 32.9805 84.5295 32.895C84.6906 32.73 84.8595 32.5725 85.0365 32.4225L85.164 32.3175L85.251 32.2485C85.173 32.3085 85.167 32.313 85.233 32.2635C85.3245 32.196 85.416 32.1285 85.5105 32.064C85.719 31.914 85.935 31.7865 86.1555 31.6635C86.376 31.5405 86.619 31.4235 86.856 31.3125C87.042 31.227 86.706 31.368 86.901 31.293L87.1305 31.203C87.2475 31.1595 87.3645 31.119 87.483 31.0815C87.7418 30.9975 88.0046 30.9269 88.2705 30.87C88.4205 30.84 88.5615 30.8145 88.7085 30.7905C88.9185 30.7545 88.5495 30.804 88.7625 30.783L89.0175 30.7575C89.4075 30.7245 89.787 30.4365 89.7675 30.0075C89.751 29.6295 89.436 29.2215 89.0175 29.2575L89.0145 29.25Z" fill="black"/>
<path d="M59.6763 85.3183C59.6763 91.2283 64.3473 92.8378 66.8853 93.2683C67.0787 93.3023 67.277 93.2971 67.4684 93.2527C67.6596 93.2081 67.8399 93.1256 67.9986 93.0097C68.1572 92.8939 68.2907 92.7472 68.3912 92.5784C68.4917 92.4097 68.5571 92.2223 68.5833 92.0278C69.3513 86.0278 74.5533 77.0278 76.6053 74.9818C77.4795 74.0059 78.5901 73.2713 79.8303 72.8488C79.9692 72.8129 80.0945 72.7369 80.1903 72.6302C80.2862 72.5234 80.3483 72.3907 80.3688 72.2488L80.7453 69.6133C79.6308 69.1048 78.8193 68.0203 78.8193 66.1303C78.8193 61.7038 81.0333 57.2803 83.9838 57.2803C86.1368 57.4015 88.2662 57.7904 90.3228 58.4383C90.989 58.6342 91.5644 59.0591 91.9473 59.6383L93.6813 62.2363C94.0892 62.8484 94.7099 63.2872 95.4228 63.4678L97.2393 63.9178V63.8068H100.319L100.152 66.8728C100.034 67.8796 99.63 68.8315 98.9882 69.6161C98.3463 70.4008 97.4933 70.9853 96.5298 71.3008C94.2585 71.323 92.0057 71.711 89.8578 72.4498C89.7654 72.4846 89.6813 72.538 89.6105 72.6068C89.5397 72.6757 89.4839 72.7583 89.4467 72.8498C89.4093 72.9412 89.3912 73.0393 89.3936 73.138C89.396 73.2367 89.4186 73.3337 89.4603 73.4233C90.7002 75.7175 91.3691 78.2767 91.4103 80.8843C91.3529 83.6203 90.3039 86.2423 88.4583 88.2628V97.1128C88.4583 97.1128 91.3653 97.8508 91.3653 100.065H70.7448C69.2703 100.065 67.7943 98.9953 67.7943 98.5888C61.1523 98.5888 58.1943 94.1608 58.1943 91.2088C58.2888 89.1658 58.7928 87.1627 59.6763 85.3183Z" fill="white"/>
<path d="M57.4262 85.3187C57.4337 88.0037 58.3262 90.6947 60.3107 92.5682C61.7522 93.9272 63.5987 94.8287 65.5187 95.2862C65.6957 95.3282 65.8727 95.3657 66.0527 95.4002L66.3227 95.4482C66.8674 95.5557 67.4279 95.5557 67.9727 95.4482C68.3443 95.3738 68.6998 95.2341 69.0227 95.0357C69.3341 94.856 69.6151 94.6283 69.8552 94.3607C70.2038 93.965 70.4746 93.5069 70.6532 93.0107C70.762 92.6615 70.8286 92.3003 70.8512 91.9352L70.7702 92.5352C71.0852 90.2327 71.8802 88.0007 72.7772 85.8677L72.5462 86.4002C73.7003 83.6442 75.1025 80.9988 76.7357 78.4967C77.0717 77.9867 77.4197 77.4857 77.7857 76.9967L77.4332 77.4467C77.9479 76.7646 78.5455 76.1495 79.2122 75.6152L78.7622 75.9677C79.2797 75.5724 79.8439 75.2424 80.4422 74.9852L79.9052 75.2117C80.0777 75.1397 80.2517 75.0737 80.4272 75.0122C80.8883 74.8665 81.3142 74.627 81.6782 74.3087C82.1138 73.9175 82.415 73.3989 82.5392 72.8267C82.5827 72.5762 82.6112 72.3212 82.6472 72.0767L82.9142 70.2077L82.9952 69.6077C83.008 69.3071 82.9406 69.0083 82.8002 68.7422C82.6262 68.3267 82.3037 67.8632 81.8807 67.6652C81.6497 67.5588 81.4315 67.427 81.2297 67.2722L81.6797 67.6232C81.4895 67.4708 81.317 67.2977 81.1652 67.1072L81.5177 67.5572C81.3484 67.3358 81.2069 67.0944 81.0962 66.8387L81.3227 67.3772C81.179 67.0262 81.0812 66.6582 81.0317 66.2822L81.1127 66.8822C81.0271 66.017 81.0529 65.1444 81.1892 64.2857L81.1082 64.8857C81.2578 63.7637 81.5512 62.6657 81.9812 61.6187L81.7547 62.1572C82.0478 61.4475 82.4294 60.7778 82.8902 60.1637L82.5392 60.6137C82.8317 60.2319 83.1709 59.8883 83.5487 59.5907L83.0987 59.9432C83.3575 59.7456 83.6389 59.58 83.9372 59.4497L83.4002 59.6897C83.6594 59.5826 83.9311 59.5085 84.2087 59.4692L83.6087 59.5502C83.951 59.522 84.2953 59.529 84.6362 59.5712C85.0712 59.6072 85.5047 59.6537 85.9367 59.7107L85.3367 59.6297C86.1482 59.7392 86.9522 59.8832 87.7487 60.0677C88.5271 60.2229 89.2921 60.4395 90.0362 60.7157L89.4992 60.4892C89.7419 60.5945 89.9707 60.7296 90.1802 60.8912L89.7302 60.5402C89.9197 60.6924 90.0908 60.866 90.2402 61.0577L89.8892 60.6077C90.4442 61.3487 90.9272 62.1527 91.4417 62.9222C91.7927 63.4487 92.1347 64.0037 92.6147 64.4222C93.215 64.9617 93.9254 65.3646 94.6967 65.6027C94.8602 65.6522 95.0267 65.6882 95.1902 65.7302L96.6422 66.0932C98.0552 66.4457 99.4922 65.4122 99.4922 63.9227V63.8117L97.2422 66.0617H100.322L98.0717 63.8117L97.9877 65.3657C97.9592 65.8877 97.9622 66.4157 97.8977 66.9392L97.9787 66.3392C97.9133 66.8231 97.7843 67.2962 97.5947 67.7462L97.8212 67.2077C97.6387 67.6293 97.4038 68.0265 97.1222 68.3897L97.4747 67.9397C97.2022 68.2836 96.8906 68.5947 96.5462 68.8667L96.9962 68.5142C96.6274 68.7974 96.2242 69.0327 95.7962 69.2147L96.3332 68.9882C96.1997 69.0437 96.0647 69.0932 95.9282 69.1382L96.5282 69.0572C94.9903 69.0783 93.4576 69.243 91.9502 69.5492C91.2752 69.6872 90.6086 69.8571 89.9507 70.0592C89.7956 70.1072 89.6413 70.1571 89.4872 70.2092C89.1731 70.2962 88.871 70.4211 88.5872 70.5812C88.1396 70.8492 87.7709 71.2308 87.5186 71.6874C87.2662 72.1439 87.1391 72.6591 87.1502 73.1807C87.1541 73.4565 87.1976 73.7303 87.2792 73.9937C87.4036 74.318 87.5494 74.6337 87.7157 74.9387C87.8818 75.2687 88.0376 75.6036 88.1837 75.9437L87.9557 75.4067C88.5193 76.7423 88.904 78.1464 89.1002 79.5827L89.0192 78.9827C89.1728 80.0322 89.188 81.0972 89.0642 82.1507L89.1437 81.5507C89.0059 82.5474 88.7392 83.5221 88.3502 84.4502L88.5767 83.9117C88.1936 84.8135 87.6971 85.6629 87.0992 86.4392L87.4517 85.9892C87.3362 86.1392 87.2177 86.2892 87.0947 86.4257L86.9327 86.6117C86.8427 86.7122 86.7707 86.8067 86.6852 86.9117C86.3813 87.3017 86.212 87.7794 86.2022 88.2737C86.2022 88.2962 86.2022 88.3202 86.2022 88.3427C86.2022 88.5092 86.2022 88.6757 86.2022 88.8422V97.1252C86.2082 97.6158 86.3719 98.0916 86.6689 98.4822C86.966 98.8728 87.3809 99.1576 87.8522 99.2942C88.0798 99.356 88.3024 99.4348 88.5182 99.5297L87.9857 99.3002C88.3792 99.4652 88.7509 99.6777 89.0927 99.9332L88.6427 99.5807C88.8686 99.7559 89.0731 99.9573 89.2517 100.181L88.8992 99.7307C89.0344 99.905 89.1481 100.095 89.2382 100.296L89.0057 99.7502C89.0903 99.9506 89.1473 100.161 89.1752 100.377L89.0957 99.7772C89.1062 99.8777 89.1122 99.9767 89.1137 100.077L91.3637 97.8272H73.1537C72.3557 97.8272 71.5577 97.8272 70.7612 97.8272C70.6178 97.8257 70.4746 97.8167 70.3322 97.8002L70.9322 97.8812C70.5514 97.8294 70.1788 97.7285 69.8237 97.5812L70.3607 97.8077C70.0174 97.6623 69.6934 97.4748 69.3962 97.2497L69.8462 97.6007C69.7213 97.5053 69.6071 97.3967 69.5057 97.2767L69.8582 97.7267C69.8206 97.6802 69.7879 97.63 69.7607 97.5767L69.9887 98.1137C69.9764 98.086 69.9679 98.0567 69.9632 98.0267L70.0427 98.6267V98.6072C70.0112 98.0372 69.8192 97.4162 69.3827 97.0157C68.9552 96.6029 68.3869 96.3675 67.7927 96.3572C67.1843 96.3568 66.5765 96.3172 65.9732 96.2387L66.5732 96.3197C65.6153 96.1908 64.678 95.9389 63.7847 95.5697L64.3217 95.7962C63.5822 95.4874 62.8859 95.084 62.2502 94.5962L62.7002 94.9472C62.1481 94.518 61.6517 94.0219 61.2227 93.4697L61.5752 93.9197C61.1914 93.4229 60.8719 92.8796 60.6242 92.3027L60.8507 92.8397C60.6362 92.3385 60.4879 91.8116 60.4097 91.2722L60.4892 91.8722C60.3992 91.1912 60.4787 90.5042 60.5702 89.8277L60.4892 90.4277C60.6766 89.0943 61.036 87.791 61.5587 86.5502L61.3322 87.0872C61.4242 86.8723 61.5197 86.6597 61.6187 86.4497C61.8827 85.8932 62.0147 85.3277 61.8452 84.7157C61.6867 84.1498 61.3166 83.6665 60.8117 83.3657C60.2897 83.0897 59.6567 82.9517 59.0777 83.1392C58.5482 83.3117 57.9812 83.6507 57.7277 84.1727C56.743 86.1541 56.153 88.308 55.9907 90.5147C55.8793 91.6604 56.0375 92.8161 56.4527 93.8897C56.6839 94.5092 56.9753 95.1046 57.3227 95.6672C57.7004 96.2573 58.1339 96.8099 58.6172 97.3172C59.5568 98.294 60.6778 99.0786 61.9172 99.6272C62.7748 100.019 63.6719 100.319 64.5932 100.52C65.6488 100.735 66.7229 100.846 67.8002 100.851L65.5502 98.6012C65.5856 99.3733 65.9248 100.1 66.4937 100.623C66.8689 100.978 67.2902 101.281 67.7462 101.523C68.672 102.028 69.7054 102.304 70.7597 102.329C71.0192 102.329 71.2787 102.329 71.5397 102.329H88.3502C89.3387 102.329 90.3272 102.341 91.3157 102.329H91.3577C91.952 102.321 92.5198 102.081 92.9401 101.661C93.3604 101.241 93.5999 100.673 93.6077 100.079C93.5993 99.3024 93.4033 98.5397 93.0362 97.8557C92.8537 97.5348 92.639 97.2333 92.3957 96.9557C92.278 96.8117 92.1485 96.6777 92.0087 96.5552C91.2523 95.903 90.3788 95.4007 89.4347 95.0747C89.308 95.0263 89.1788 94.9847 89.0477 94.9502L90.6977 97.1192V88.2692L90.0377 89.8607C91.6277 88.1102 92.8112 85.9607 93.3137 83.6492C93.5849 82.4564 93.6859 81.2314 93.6137 80.0102C93.535 78.731 93.3295 77.4627 93.0002 76.2242C92.6153 74.8608 92.0794 73.5447 91.4027 72.3002L91.6292 72.8372C91.6018 72.7691 91.5817 72.6981 91.5692 72.6257L91.6487 73.2257C91.6412 73.153 91.6412 73.0794 91.6487 73.0067L91.5677 73.6067C91.5764 73.5578 91.5905 73.5099 91.6097 73.4642L91.3832 74.0027C91.4074 73.95 91.4365 73.8998 91.4702 73.8527L91.1177 74.3027C91.1542 74.2569 91.1942 74.2143 91.2377 74.1752L90.7877 74.5277C90.8503 74.4794 90.9188 74.4396 90.9917 74.4092L90.4502 74.6252C91.7803 74.1678 93.1517 73.8413 94.5452 73.6502L93.9452 73.7312C94.5872 73.6461 95.2322 73.5897 95.8802 73.5617C96.3557 73.5407 96.8477 73.5692 97.3022 73.4027C97.6966 73.2606 98.0818 73.0943 98.4557 72.9047C99.6088 72.2819 100.582 71.372 101.28 70.2632C101.93 69.2315 102.316 68.0552 102.402 66.8387C102.443 66.3377 102.458 65.8337 102.485 65.3387L102.567 63.8057C102.567 63.5102 102.509 63.2175 102.396 62.9444C102.283 62.6714 102.118 62.4233 101.909 62.2142C101.481 61.8005 100.912 61.565 100.317 61.5557H97.2392C96.6451 61.5642 96.0778 61.8039 95.6576 62.2241C95.2375 62.6442 94.9978 63.2115 94.9892 63.8057V63.9167L97.8392 61.7477L96.7892 61.4837C96.3815 61.4001 95.9804 61.2867 95.5892 61.1447L96.1277 61.3712C95.9062 61.2737 95.6963 61.1513 95.5022 61.0067L95.9522 61.3592C95.7434 61.197 95.5552 61.0101 95.3912 60.8027L95.7437 61.2527C95.4677 60.8852 95.2262 60.4892 94.9712 60.1082L93.9812 58.6247C93.7441 58.2477 93.4693 57.8958 93.1607 57.5747C92.5315 56.9642 91.7642 56.5145 90.9242 56.2637C89.6495 55.8629 88.3456 55.562 87.0242 55.3637C86.2052 55.2392 85.3832 55.1327 84.5582 55.0637C83.9044 55.0001 83.2445 55.0508 82.6082 55.2137C81.4987 55.5401 80.501 56.1666 79.7252 57.0242C78.9518 57.8693 78.3284 58.8402 77.8817 59.8952C77.3626 61.0641 76.999 62.2962 76.8002 63.5597C76.6718 64.3638 76.5971 65.1756 76.5767 65.9897C76.5524 66.7796 76.6604 67.568 76.8962 68.3222C77.3612 69.6902 78.2792 70.9352 79.6172 71.5577L78.5822 69.0167L78.3857 70.3967L78.2567 71.2967C78.2411 71.4722 78.2095 71.6459 78.1622 71.8157L78.3887 71.2787C78.358 71.3477 78.3199 71.4131 78.2747 71.4737L78.6257 71.0237C78.5885 71.0661 78.5479 71.1051 78.5042 71.1407L78.9542 70.7897C78.9062 70.8219 78.8561 70.851 78.8042 70.8767L79.3412 70.6487C78.7267 70.8687 78.1256 71.1246 77.5412 71.4152C76.9705 71.7386 76.4302 72.1131 75.9272 72.5342C75.4315 72.9384 74.9767 73.3907 74.5697 73.8842C73.7252 74.9157 72.9544 76.0055 72.2627 77.1452C70.4488 80.0795 68.9333 83.1879 67.7387 86.4242C67.4222 87.2837 67.1387 88.1552 66.9002 89.0402C66.6454 90.0236 66.4559 91.0227 66.3332 92.0312L66.4142 91.4312C66.3935 91.5602 66.3583 91.6865 66.3092 91.8077L66.5357 91.2707C66.4823 91.3887 66.4159 91.5003 66.3377 91.6037L66.6902 91.1537C66.6209 91.238 66.5435 91.3154 66.4592 91.3847L66.9092 91.0337C66.8 91.1171 66.6811 91.1872 66.5552 91.2422L67.0937 91.0157C66.9655 91.0661 66.8314 91.1004 66.6947 91.1177L67.2947 91.0382C67.1804 91.0487 67.0655 91.0487 66.9512 91.0382L67.5512 91.1192C66.664 90.9809 65.7971 90.7346 64.9697 90.3857L65.5067 90.6122C64.8206 90.326 64.174 89.9535 63.5822 89.5037L64.0322 89.8562C63.5645 89.4939 63.1429 89.0759 62.7767 88.6112L63.1292 89.0612C62.7646 88.5899 62.462 88.0737 62.2292 87.5252L62.4557 88.0622C62.1913 87.4161 62.0117 86.7385 61.9217 86.0462L62.0012 86.6462C61.9454 86.2069 61.9174 85.7645 61.9172 85.3217C61.9093 84.7265 61.6736 84.1569 61.2587 83.7302C60.8342 83.3117 60.2632 83.0754 59.6672 83.0717C59.0852 83.0972 58.4822 83.2877 58.0757 83.7302C57.6653 84.158 57.4331 84.7259 57.4262 85.3187Z" fill="white"/>
<path d="M85.47 57.3784C84.977 57.3151 84.4806 57.281 83.9835 57.2764C81.033 57.2764 78.819 61.7044 78.819 66.1264C78.819 68.0164 79.6305 69.1009 80.745 69.6094L80.3685 72.2449C80.3478 72.3868 80.2857 72.5195 80.19 72.6263C80.0942 72.733 79.9689 72.809 79.83 72.8449C78.5898 73.2674 77.4792 74.002 76.605 74.9779C74.553 77.0224 68.3865 87.3979 67.6185 93.4039C67.5675 93.8059 60.8535 89.7004 60.5205 89.9314C60.8115 90.0094 63.8595 94.2169 64.9305 94.9144C68.7525 97.4074 70.995 94.1644 71.514 92.3644C71.5472 92.2533 71.5728 92.14 71.5905 92.0254C72.357 86.0254 76.428 80.4319 78.4785 78.3874C81.1695 75.9874 83.1525 75.4714 83.9445 72.1099L84.8745 69.0994C83.76 68.5909 81.8205 67.9954 81.033 66.1234C79.458 62.4004 82.89 58.0339 85.47 57.3784Z" fill="#E5E5E5"/>
<path d="M57.5371 90.4608C57.5371 93.4173 60.4936 97.8543 67.1491 97.8543C67.1491 98.2608 68.6266 99.3333 70.1056 99.3333H72.3241C71.4603 99.3039 70.6246 99.0177 69.9241 98.5113C69.3723 98.1108 68.7234 97.8652 68.0446 97.8003C62.3191 97.2573 59.7541 93.2223 59.7541 90.4683C59.7595 89.8138 59.8237 89.1612 59.9461 88.5183C59.3046 87.2961 58.984 85.9308 59.0146 84.5508C58.1311 86.4019 57.6288 88.4116 57.5371 90.4608Z" fill="#E5E5E5"/>
<path d="M94.7761 70.7327C94.7761 70.7327 91.9456 70.6772 89.5261 70.7522C89.209 70.7627 88.8993 70.8501 88.6234 71.0067C88.3476 71.1633 88.1137 71.3846 87.9421 71.6514C87.7707 71.9183 87.6664 72.2228 87.6383 72.5388C87.6104 72.8547 87.6595 73.1729 87.7816 73.4657C88.6486 75.5552 89.6311 78.5281 89.2816 80.6041C88.6816 84.1246 86.1856 85.2541 85.9591 86.9941C85.7326 88.7341 86.3356 100.077 86.3356 100.077H91.3666C91.3666 100.077 91.1866 97.2871 88.4596 97.1251V88.2751C88.4596 88.2751 92.1571 84.3946 91.3666 79.2227C90.5761 74.0507 88.8856 74.0942 89.4496 72.8612C90.0136 71.6282 94.7761 70.7327 94.7761 70.7327Z" fill="#B2B2B2"/>
<path d="M96.7609 72C100.859 70.635 101.039 66.4395 100.997 65.187C100.985 64.8672 100.87 64.5599 100.668 64.3113C100.467 64.0628 100.19 63.8862 99.8794 63.8085L95.5999 62.739C95.0662 62.6069 94.601 62.2806 94.2949 61.824L92.5594 59.22C92.0809 58.4991 91.3631 57.9705 90.5329 57.7275C88.4072 57.0612 86.2067 56.6627 83.9824 56.541C80.4514 56.541 78.0784 61.5015 78.0784 66.1335C78.0218 66.8681 78.1544 67.6049 78.4639 68.2734C78.7732 68.9421 79.2488 69.5202 79.8454 69.9525C79.8769 69.9735 79.9114 69.987 79.9429 70.0065L79.6429 72.147C78.2762 72.5984 77.051 73.3982 76.0879 74.4675C73.7959 76.7505 68.6269 85.911 67.8559 91.9425C67.844 92.0361 67.8133 92.1264 67.7653 92.2076C67.7173 92.2889 67.6531 92.3595 67.5769 92.415C67.4974 92.4743 67.4066 92.5167 67.3102 92.5397C67.2137 92.5626 67.1135 92.5656 67.0159 92.5485C64.5514 92.1255 60.4159 90.6255 60.4159 85.3215C60.418 85.1537 60.3626 84.99 60.2593 84.8579C60.1558 84.7256 60.0104 84.6326 59.8469 84.594C59.6836 84.5556 59.5118 84.5741 59.3603 84.6464C59.2088 84.7185 59.0864 84.8403 59.0134 84.9915C58.0783 86.942 57.551 89.0627 57.4639 91.224C57.4639 94.524 60.5404 99.1485 67.3639 99.3345C67.8022 99.7925 68.3269 100.159 68.9077 100.413C69.4886 100.667 70.114 100.804 70.7479 100.815H91.3624C91.5581 100.815 91.7458 100.737 91.8842 100.599C92.0225 100.46 92.1004 100.273 92.1004 100.077C92.1004 97.977 90.1759 96.972 89.1949 96.594V88.5465C89.6504 88.0254 90.0586 87.4647 90.4144 86.871C91.3789 85.263 91.8664 83.289 92.0299 82.2315C92.2549 81.042 90.6454 80.1315 90.6484 81.51C90.5149 83.28 90.3874 84.201 89.1484 86.109C88.8005 86.6957 88.3933 87.245 87.9334 87.7485C87.7952 87.8865 87.7175 88.0737 87.7174 88.269V97.119C87.7175 97.2831 87.7724 97.4424 87.8731 97.572C87.9739 97.7016 88.1149 97.7939 88.2739 97.8345C88.2919 97.8345 89.8969 98.2695 90.4429 99.3345H85.9669C85.6336 98.6528 85.15 98.0555 84.5524 97.5878C83.9546 97.1201 83.2588 96.7941 82.5169 96.6345C83.0198 96.1136 83.4128 95.4968 83.6726 94.8209C83.9323 94.145 84.0535 93.4238 84.0289 92.7C84.0454 91.5621 83.7964 90.4361 83.3015 89.4111C82.8068 88.3863 82.0801 87.491 81.1789 86.796C80.3872 86.2427 79.4728 85.8903 78.5146 85.769C77.5562 85.6478 76.5829 85.7613 75.6784 86.1C75.5864 86.1306 75.5014 86.1791 75.428 86.2427C75.3548 86.3061 75.2947 86.3834 75.2513 86.4701C75.208 86.5568 75.182 86.6513 75.1751 86.7479C75.1682 86.8446 75.1805 86.9418 75.2111 87.0338C75.2417 87.1257 75.2902 87.2108 75.3536 87.2841C75.4172 87.3573 75.4945 87.4173 75.5812 87.4608C75.6679 87.5042 75.7624 87.5301 75.859 87.537C75.9557 87.5439 76.0529 87.5316 76.1449 87.501C76.8286 87.2351 77.5672 87.1413 78.2956 87.2279C79.024 87.3144 79.72 87.5787 80.3224 87.9975C81.0334 88.5546 81.6052 89.2695 81.9922 90.0857C82.3793 90.9018 82.5713 91.7969 82.5529 92.7C82.5529 95.778 80.1844 96.4065 80.1529 96.4125C79.9786 96.4566 79.8263 96.5627 79.7248 96.711C79.6232 96.8592 79.5793 97.0395 79.6012 97.218C79.6231 97.3964 79.7093 97.5606 79.8439 97.68C79.9783 97.7993 80.1515 97.8654 80.3314 97.866C82.5454 97.866 83.6704 98.667 84.2314 99.342H74.4349C74.0435 99.3416 73.6684 99.186 73.3916 98.9093C73.1149 98.6325 72.9593 98.2574 72.9589 97.866C72.9589 97.7691 72.9398 97.6731 72.9026 97.5836C72.8656 97.494 72.8113 97.4127 72.7427 97.3442C72.6742 97.2756 72.5929 97.2213 72.5033 97.1841C72.4138 97.1471 72.3178 97.128 72.2209 97.128C72.124 97.128 72.028 97.1471 71.9384 97.1841C71.8489 97.2213 71.7676 97.2756 71.699 97.3442C71.6305 97.4127 71.5762 97.494 71.539 97.5836C71.5019 97.6731 71.4829 97.7691 71.4829 97.866C71.4871 98.3856 71.6288 98.895 71.8939 99.342H70.7449C69.9148 99.3095 69.1231 98.9843 68.5099 98.424C68.4698 98.2646 68.3776 98.1231 68.248 98.022C68.1184 97.9209 67.9588 97.866 67.7944 97.866C61.7524 97.866 58.9444 93.903 58.9444 91.224C58.9603 90.2304 59.1055 89.2431 59.3764 88.287C60.7159 92.472 64.8154 93.669 66.7669 94.0035C67.0601 94.0529 67.3603 94.0427 67.6495 93.9732C67.9387 93.9039 68.2109 93.777 68.4499 93.6C68.687 93.4266 68.8862 93.2064 69.035 92.9531C69.1838 92.6997 69.2792 92.4186 69.3154 92.127C70.0654 86.277 75.1819 77.448 77.1259 75.51C77.9105 74.6262 78.9082 73.9575 80.0239 73.5675C80.3018 73.4942 80.552 73.3406 80.743 73.1258C80.9341 72.911 81.0575 72.6446 81.0979 72.36L81.3529 70.5795C82.5251 70.808 83.7383 70.6944 84.8479 70.2525C85.261 70.0892 85.6151 69.8048 85.8641 69.4368C86.113 69.0689 86.245 68.6343 86.2429 68.19V63.18C86.2429 62.9843 86.165 62.7966 86.0267 62.6582C85.8883 62.5197 85.7006 62.442 85.5049 62.442C85.3091 62.442 85.1215 62.5197 84.983 62.6582C84.8446 62.7966 84.7669 62.9843 84.7669 63.18V68.19C84.7663 68.3379 84.7219 68.4824 84.6394 68.6051C84.557 68.7279 84.44 68.8235 84.3034 68.88C83.729 69.1397 83.1019 69.2615 82.472 69.2354C81.8423 69.2093 81.2273 69.0363 80.6764 68.73C80.2844 68.4269 79.9759 68.0292 79.7797 67.5743C79.5835 67.1193 79.5059 66.6221 79.5544 66.129C79.5544 61.881 81.6649 58.0125 83.9824 58.0125C86.0678 58.1346 88.1303 58.5131 90.1234 59.139C90.6205 59.2866 91.0493 59.6055 91.3339 60.039L93.0709 62.6445C93.5807 63.4088 94.3583 63.9546 95.2504 64.1745L96.5779 64.5075V66.1305C96.5779 66.522 96.7334 66.8975 97.0102 67.1742C97.2869 67.451 97.6624 67.6065 98.0539 67.6065H99.2164C99.019 68.288 98.6605 68.912 98.1713 69.4257C97.682 69.9395 97.0763 70.3281 96.4054 70.5585C94.0813 70.5903 91.7777 70.9997 89.5849 71.7705C89.3995 71.8449 89.231 71.9559 89.0894 72.0968C88.948 72.2378 88.8364 72.4059 88.7614 72.591C88.6871 72.774 88.6514 72.9704 88.6564 73.1678C88.6612 73.3652 88.7066 73.5594 88.7899 73.7385L88.9774 74.1465C90.0748 76.2285 90.6569 78.5432 90.6754 80.8965C90.6754 81.303 90.4534 83.7615 91.2274 83.853C91.9489 83.937 92.1514 81.303 92.1514 80.8965C92.1305 78.3315 91.5034 75.8079 90.3214 73.5315L90.1354 73.131C92.1968 72.434 94.3553 72.0659 96.5314 72.0405C96.6109 72.0408 96.6899 72.0282 96.7654 72.003L96.7609 72ZM99.4984 66.1335H98.0494V64.8795L99.5209 65.2485C99.5312 65.5427 99.5237 65.8373 99.4984 66.1305V66.1335Z" fill="black"/>
</svg>
