<svg width="120" height="120" viewBox="0 0 120 120" fill="none" xmlns="http://www.w3.org/2000/svg">
<path d="M82.1222 27.6841H35.4002C35.1698 27.6841 34.9418 27.7307 34.7298 27.8215C34.518 27.9121 34.3268 28.0448 34.1678 28.2116C34.0088 28.3783 33.8852 28.5757 33.8046 28.7915C33.7241 29.0074 33.6882 29.2375 33.6992 29.4676L36.8312 94.3501C36.852 94.7869 37.0401 95.1989 37.3565 95.5009C37.673 95.8027 38.0934 95.9713 38.5307 95.9716H85.2587C85.4891 95.9714 85.7171 95.9245 85.9289 95.8337C86.1407 95.7428 86.3318 95.6099 86.4908 95.443C86.6497 95.2762 86.773 95.0788 86.8534 94.8628C86.9338 94.6468 86.9693 94.4167 86.9582 94.1866L83.8217 29.3116C83.8028 28.8736 83.6155 28.4597 83.2988 28.1566C82.9822 27.8533 82.5606 27.6841 82.1222 27.6841Z" fill="#7C7C7C"/>
<path d="M82.1223 26.934H35.6028C34.7493 26.934 33.9663 27.222 33.4338 27.924C33.0712 28.4288 32.901 29.0463 32.9538 29.6655L33.0663 31.9965L33.2868 36.528L33.5868 42.7935L33.9498 50.2755L34.3503 58.434L34.7568 66.834L35.1483 74.934L35.5008 82.209L35.7903 88.209L35.9868 92.4C36.0168 93.0315 36.0423 93.6615 36.0783 94.293C36.1533 95.6355 37.1643 96.693 38.5323 96.72C38.7048 96.72 38.8788 96.72 39.0528 96.72H85.0713C85.9923 96.72 86.8488 96.354 87.3498 95.5455C87.8238 94.7835 87.6963 93.9285 87.6498 93.087L87.4848 89.55L87.2193 84.051L86.8833 77.1L86.5023 69.2205L86.1003 60.855L85.6983 52.5465L85.3263 44.8245L85.0023 38.1315L84.7503 33L84.6003 29.949C84.5913 29.7525 84.5838 29.556 84.5718 29.3595C84.4968 28.0095 83.4888 26.967 82.1193 26.931C81.1533 26.904 81.1548 28.404 82.1193 28.431C82.6863 28.446 83.0463 28.857 83.0763 29.436L83.1123 30.1935L83.2728 33.504L83.5278 38.7675L83.8548 45.537L84.2283 53.268L84.6288 61.5L85.0278 69.75L85.4043 77.55L85.7343 84.3585L85.9923 89.7195L86.1588 93.156L86.1993 93.9885C86.2218 94.4385 86.1648 94.791 85.8123 95.0385C85.5243 95.238 85.2768 95.214 84.9123 95.214H38.9763C38.8143 95.214 38.5623 95.2275 38.4543 95.214C37.8798 95.16 37.5993 94.7265 37.5738 94.1865L37.4673 92.0085L37.2558 87.633L36.9558 81.519L36.6033 74.2035L36.2133 66.1545L35.8128 57.855L35.4213 49.755L35.0673 42.42L34.7673 36.27L34.5528 31.854L34.4463 29.6265C34.4208 29.121 34.5108 28.7265 34.9848 28.506C35.1978 28.4025 35.4603 28.419 35.7618 28.419H82.1118C83.0868 28.434 83.0883 26.934 82.1223 26.934Z" fill="#222221"/>
<path opacity="0.2" d="M81.0964 29.9805H35.9014L39.0589 92.877L78.3589 92.8245L84.8899 87.0345L81.0964 29.9805Z" fill="black"/>
<path d="M81.4499 29.979C81.928 48.8148 83.4448 67.6098 85.9934 86.2785L87.0434 93.2895C75.7784 93.2895 52.7684 93.6675 41.5049 93.6675C38.3143 72.5753 36.4421 51.3044 35.8994 29.979H81.4499Z" fill="white"/>
<path d="M76.3903 38.3281H55.4998C55.4808 37.8072 55.4623 37.2867 55.4443 36.7666H76.3348C76.3528 37.2876 76.3713 37.8081 76.3903 38.3281Z" fill="#E0E0E0"/>
<path d="M71.976 41.6113H55.626C55.604 41.0904 55.5825 40.5699 55.5615 40.0498H71.9115C71.9325 40.5708 71.954 41.0913 71.976 41.6113Z" fill="#E0E0E0"/>
<path d="M55.4386 51.8672H41.9716C41.9161 51.3467 41.8621 50.8247 41.8096 50.3042H55.2766C55.3291 50.8247 55.3831 51.3467 55.4386 51.8672Z" fill="#E0E0E0"/>
<path d="M77.1978 51.8672H58.4328C58.3328 51.3472 58.2329 50.8262 58.1328 50.3042H76.8903C76.9913 50.8242 77.0939 51.3452 77.1978 51.8672Z" fill="#E0E0E0"/>
<path d="M77.3569 55.1533H42.0544C41.9884 54.6313 41.9224 54.1108 41.8594 53.5903H77.1619C77.2249 54.1108 77.2909 54.6313 77.3569 55.1533Z" fill="#E0E0E0"/>
<path d="M77.8502 58.8106H42.5417C42.4746 58.2905 42.4097 57.7696 42.3467 57.2476H77.6492C77.7122 57.7696 77.7782 58.2901 77.8502 58.8106Z" fill="#E0E0E0"/>
<path d="M78.3004 62.4688H42.9919C42.9248 61.9468 42.8599 61.4258 42.7969 60.9058H78.0994C78.1624 61.4263 78.2284 61.9498 78.3004 62.4688Z" fill="#E0E0E0"/>
<path d="M78.5434 66.126H43.2409C43.1749 65.6055 43.1089 65.085 43.0459 64.563H78.3484C78.4164 65.085 78.4815 65.6059 78.5434 66.126Z" fill="#E0E0E0"/>
<path d="M78.9936 69.7847H43.6911C43.6251 69.2642 43.5591 68.7347 43.4961 68.2217H78.7986C78.8631 68.7422 78.9276 69.2642 78.9936 69.7847Z" fill="#E0E0E0"/>
<path d="M79.7071 73.4414H44.4001C44.3341 72.9209 44.2681 72.4004 44.2051 71.8799H79.5121C79.5761 72.4008 79.6411 72.9213 79.7071 73.4414Z" fill="#E0E0E0"/>
<path d="M80.3067 77.1001H44.9997C44.9337 76.5796 44.8677 76.0576 44.8047 75.5371H80.1117C80.1762 76.0576 80.2407 76.5796 80.3067 77.1001Z" fill="#E0E0E0"/>
<path d="M80.5922 80.7588H45.2897C45.2237 80.2368 45.1577 79.7163 45.0947 79.1958H80.4002C80.4602 79.7163 80.5262 80.2368 80.5922 80.7588Z" fill="#E0E0E0"/>
<path d="M70.9025 29.0734C70.169 27.1234 68.471 25.8319 66.6425 25.8319H62.9195C62.6435 25.8304 62.3738 25.7483 62.1439 25.5955C61.9139 25.4428 61.7335 25.2262 61.625 24.9724C61.3627 24.3469 60.9229 23.8118 60.3598 23.4337C59.7968 23.0554 59.1353 22.8503 58.457 22.8439C57.802 22.8383 57.1621 23.0416 56.6305 23.4244C56.0989 23.8072 55.703 24.3494 55.5005 24.9724C55.4162 25.226 55.2533 25.4461 55.0354 25.6007C54.8173 25.7552 54.5557 25.8362 54.2885 25.8319H50.561C48.7325 25.8319 47.159 27.1249 46.613 29.0734L46.3955 29.8504H71.1965L70.9025 29.0734Z" fill="#050505"/>
<path d="M71.0368 30.6164H46.6273C46.4219 30.6134 46.2253 30.5329 46.0768 30.391C45.9281 30.2492 45.8387 30.0565 45.8263 29.8514C45.8209 29.7527 45.8359 29.6542 45.8701 29.5615C45.9043 29.4688 45.9571 29.3842 46.0252 29.3126C46.0933 29.2411 46.1753 29.1844 46.2662 29.1457C46.3571 29.107 46.4549 29.0873 46.5538 29.0879H70.9618C71.1673 29.0902 71.3642 29.1703 71.5132 29.3119C71.662 29.4535 71.7518 29.6462 71.7643 29.8514C71.7698 29.9501 71.755 30.049 71.7209 30.1418C71.6869 30.2347 71.6341 30.3196 71.566 30.3913C71.4977 30.4628 71.4157 30.5198 71.3246 30.5585C71.2336 30.5972 71.1356 30.617 71.0368 30.6164Z" fill="#606060"/>
<path d="M47.5961 47.2143C51.0697 47.2143 53.8856 44.3983 53.8856 40.9248C53.8856 37.4512 51.0697 34.6353 47.5961 34.6353C44.1226 34.6353 41.3066 37.4512 41.3066 40.9248C41.3066 44.3983 44.1226 47.2143 47.5961 47.2143Z" fill="white"/>
<path d="M53.5107 40.9244C53.5053 42.4475 52.9102 43.9093 51.8505 45.0032C50.7906 46.0972 49.3483 46.7381 47.8261 46.7918C46.3041 46.8455 44.8203 46.3076 43.6861 45.2909C42.5518 44.2744 41.8554 42.8581 41.7429 41.339C41.6302 39.8201 42.1102 38.3167 43.0821 37.1438C44.0539 35.9711 45.4422 35.2204 46.9557 35.0489C48.469 34.8775 49.99 35.2988 51.1996 36.2245C52.4091 37.1501 53.2132 38.5082 53.4432 40.0139C53.4895 40.3151 53.5122 40.6196 53.5107 40.9244C53.5107 41.4074 54.2607 41.4089 54.2607 40.9244C54.2698 39.1961 53.6073 37.5319 52.4127 36.2828C51.2182 35.0339 49.5852 34.2977 47.8582 34.2298C46.1313 34.1618 44.4454 34.7675 43.1565 35.9189C41.8675 37.0702 41.0763 38.6773 40.9497 40.4009C40.8412 41.7649 41.1556 43.1291 41.8498 44.3081C42.5442 45.4871 43.5847 46.4237 44.8302 46.9904C46.1151 47.5678 47.548 47.7304 48.9297 47.4554C50.2533 47.1785 51.4621 46.508 52.3977 45.5317C53.3334 44.5555 53.9518 43.319 54.1722 41.9849C54.2268 41.6341 54.2554 41.2796 54.2577 40.9244C54.2637 40.4429 53.5137 40.4414 53.5107 40.9244Z" fill="#222221"/>
<path d="M44.1313 42.0315L46.5223 41.9925L46.5628 44.3835C46.5767 44.6637 46.6991 44.9276 46.904 45.1193C47.1089 45.311 47.3804 45.4155 47.6609 45.4109C47.9414 45.4062 48.2092 45.2926 48.4076 45.0942C48.6061 44.8957 48.7196 44.628 48.7243 44.3475L48.6088 37.4025C48.5948 37.1223 48.4724 36.8584 48.2675 36.6667C48.0626 36.475 47.7911 36.3705 47.5106 36.3751C47.2301 36.3798 46.9624 36.4933 46.7639 36.6918C46.5655 36.8902 46.4519 37.158 46.4473 37.4385L46.4863 39.8295L44.0998 39.87C43.8196 39.8839 43.5557 40.0063 43.364 40.2112C43.1723 40.4161 43.0678 40.6876 43.0724 40.9681C43.0771 41.2486 43.1906 41.5164 43.3891 41.7148C43.5875 41.9133 43.8553 42.0268 44.1358 42.0315H44.1313Z" fill="white"/>
<path d="M51.0403 39.7496L48.6493 39.7886L48.6088 37.3976C48.5948 37.1174 48.4724 36.8536 48.2675 36.6619C48.0626 36.4702 47.7911 36.3656 47.5106 36.3703C47.2301 36.3749 46.9624 36.4885 46.7639 36.6869C46.5655 36.8854 46.4519 37.1531 46.4473 37.4336L46.5628 44.3786C46.5767 44.6588 46.6991 44.9227 46.904 45.1144C47.1089 45.3061 47.3804 45.4106 47.6609 45.406C47.9414 45.4013 48.2092 45.2877 48.4076 45.0893C48.6061 44.8909 48.7196 44.6231 48.7243 44.3426L48.6853 41.9516L51.0763 41.9111C51.3565 41.8972 51.6203 41.7748 51.812 41.5699C52.0037 41.365 52.1083 41.0935 52.1036 40.813C52.099 40.5325 51.9854 40.2646 51.787 40.0663C51.5885 39.8678 51.3208 39.7543 51.0403 39.7496Z" fill="#B2B2B2"/>
<path d="M50.4003 39.7653L48.0078 39.8043L47.9688 37.4133C47.9583 36.8253 47.8893 36.3453 47.3028 36.3633C47.0183 36.3681 46.7472 36.4846 46.5482 36.6879C46.349 36.8913 46.2381 37.1647 46.2393 37.4493L46.2783 39.8418L44.7648 39.8658C44.478 39.8706 44.2049 39.9891 44.0054 40.1953C43.8059 40.4014 43.6965 40.6785 43.7013 40.9653C43.7061 41.2521 43.8246 41.5252 44.0309 41.7247C44.237 41.9242 44.514 42.0336 44.8008 42.0288L46.3143 42.0033L46.3533 44.3958C46.362 44.6802 46.4822 44.9497 46.6878 45.1461C46.8936 45.3426 47.1684 45.4503 47.4528 45.4458C48.0408 45.4353 48.0933 44.9538 48.0843 44.3658L48.0438 41.9748L50.4363 41.9358C50.7242 41.931 50.9982 41.812 51.1985 41.6052C51.3986 41.3983 51.5084 41.1204 51.5036 40.8325C51.4988 40.5447 51.3798 40.2706 51.173 40.0704C50.9661 39.8703 50.6882 39.7605 50.4003 39.7653Z" fill="#EFEFEF"/>
<path d="M47.6661 45.6512C47.3235 45.6581 46.9921 45.5288 46.7448 45.2918C46.4973 45.0547 46.3539 44.7293 46.3461 44.3867L46.3101 42.2117L44.1351 42.2477C43.791 42.2533 43.4587 42.1219 43.2114 41.8825C42.9642 41.6431 42.8221 41.3153 42.8166 40.9712C42.811 40.6271 42.9424 40.2949 43.1818 40.0475C43.4211 39.8003 43.749 39.6583 44.0931 39.6527L46.2681 39.6167L46.2321 37.4417C46.2265 37.0976 46.3579 36.7654 46.5973 36.518C46.8366 36.2708 47.1645 36.1288 47.5086 36.1232C47.8527 36.1177 48.1849 36.2491 48.4321 36.4885C48.6795 36.7277 48.8215 37.0556 48.8271 37.3997L48.8631 39.5747L51.0381 39.5387C51.3822 39.5332 51.7144 39.6646 51.9617 39.904C52.209 40.1432 52.3511 40.4711 52.3566 40.8152C52.3622 41.1593 52.2308 41.4916 51.9914 41.7388C51.7521 41.9861 51.4242 42.1282 51.0801 42.1337L48.9051 42.1697L48.9411 44.3447C48.9447 44.6869 48.8125 45.0166 48.5736 45.2614C48.3345 45.5063 48.0082 45.6464 47.6661 45.6512ZM44.1006 40.0862C43.8771 40.0985 43.6671 40.1968 43.5145 40.3606C43.362 40.5244 43.2789 40.741 43.2825 40.9646C43.2862 41.1884 43.3764 41.4022 43.5343 41.5609C43.6921 41.7194 43.9053 41.8108 44.1291 41.8157L46.5216 41.7767C46.5775 41.7764 46.6314 41.7979 46.6716 41.8367C46.6921 41.8561 46.7085 41.8792 46.7199 41.905C46.7311 41.9308 46.7371 41.9585 46.7376 41.9867L46.7781 44.3792C46.7904 44.6027 46.8886 44.8127 47.0524 44.9653C47.2162 45.1178 47.4327 45.2009 47.6565 45.1973C47.8803 45.1936 48.094 45.1033 48.2527 44.9455C48.4113 44.7877 48.5028 44.5745 48.5076 44.3507L48.4686 41.9582C48.4683 41.9023 48.4897 41.8484 48.5286 41.8082C48.5479 41.7877 48.571 41.7713 48.5968 41.7599C48.6226 41.7487 48.6504 41.7427 48.6786 41.7422L51.0711 41.7017C51.2946 41.6894 51.5047 41.5909 51.6572 41.4269C51.8096 41.263 51.8926 41.0464 51.8887 40.8226C51.8848 40.5986 51.7944 40.385 51.6363 40.2265C51.4782 40.0679 51.2649 39.9769 51.0411 39.9722L48.6501 40.0112C48.6223 40.0117 48.5947 40.0066 48.5691 39.9964C48.5433 39.986 48.5199 39.9707 48.5001 39.9512C48.4795 39.9319 48.4632 39.9086 48.4518 39.883C48.4405 39.8572 48.4345 39.8294 48.4341 39.8012L48.3936 37.4087C48.3813 37.1852 48.2827 36.9751 48.1188 36.8227C47.9548 36.6703 47.7382 36.5872 47.5144 36.5911C47.2905 36.595 47.0769 36.6854 46.9183 36.8435C46.7598 37.0016 46.6687 37.2149 46.6641 37.4387L46.7031 39.8297C46.7034 39.8857 46.6819 39.9395 46.6431 39.9797C46.6237 40.0003 46.6005 40.0166 46.5748 40.028C46.549 40.0393 46.5213 40.0453 46.4931 40.0457L44.1006 40.0862Z" fill="white"/>
<path d="M47.6638 45.5652C47.464 45.5685 47.2664 45.5226 47.0885 45.4317C46.9106 45.3407 46.7579 45.2072 46.6438 45.0432C46.5302 44.877 46.4591 44.6853 46.4368 44.4852C46.4368 44.4237 46.4368 44.3622 46.4293 44.2992L46.4038 42.7302L46.3948 42.2097C46.394 42.1872 46.3844 42.1658 46.3682 42.1502C46.352 42.1344 46.3303 42.1257 46.3078 42.1257L45.0073 42.1482L44.2678 42.1602H44.1343C43.8872 42.162 43.6454 42.0881 43.4414 41.9486C43.2374 41.8091 43.081 41.6106 42.9931 41.3796C42.9052 41.1488 42.8899 40.8965 42.9493 40.6566C43.0088 40.4168 43.1401 40.2008 43.3258 40.0377C43.5512 39.843 43.8394 39.7364 44.1373 39.7377L44.7583 39.7272L46.2373 39.7032H46.2688C46.2913 39.7025 46.3127 39.6929 46.3283 39.6767C46.3441 39.6605 46.3528 39.6387 46.3528 39.6162L46.3303 38.3172L46.3183 37.5762C46.3183 37.5312 46.3183 37.4877 46.3183 37.4427C46.3165 37.1954 46.3904 36.9534 46.5301 36.7494C46.6697 36.5453 46.8686 36.3888 47.0998 36.3009C47.3309 36.2132 47.5835 36.1982 47.8235 36.258C48.0635 36.3177 48.2794 36.4496 48.4423 36.6357C48.6367 36.8607 48.7432 37.1484 48.7423 37.4457L48.7528 38.0667L48.7768 39.5457V39.5772C48.7775 39.5997 48.7871 39.6212 48.8033 39.6368C48.8195 39.6525 48.8413 39.6612 48.8638 39.6612L50.1628 39.6387L50.9038 39.6267H51.0373C51.3295 39.624 51.6127 39.7272 51.8347 39.9171C52.0567 40.1072 52.2023 40.3712 52.2448 40.6602C52.2734 40.8608 52.2521 41.0654 52.1824 41.2557C52.1128 41.4459 51.9971 41.616 51.8458 41.7507C51.6202 41.945 51.332 42.0515 51.0343 42.0507L50.4133 42.0612L48.9343 42.0852H48.8998C48.8773 42.086 48.8558 42.0956 48.8402 42.1118C48.8245 42.128 48.8158 42.1497 48.8158 42.1722L48.8383 43.4727L48.8503 44.2122C48.8503 44.2572 48.8503 44.3007 48.8503 44.3457C48.8537 44.5304 48.8137 44.7134 48.7333 44.8797C48.6349 45.0821 48.4826 45.2534 48.293 45.3746C48.1036 45.4958 47.8843 45.5622 47.6593 45.5667C47.6366 45.5667 47.6149 45.5757 47.5988 45.5918C47.5828 45.6078 47.5738 45.6296 47.5738 45.6522C47.5738 45.6749 47.5828 45.6966 47.5988 45.7127C47.6149 45.7287 47.6366 45.7377 47.6593 45.7377C47.879 45.7346 48.095 45.6795 48.2897 45.5774C48.4843 45.4752 48.6523 45.3288 48.7798 45.1497C48.9512 44.8956 49.0373 44.5935 49.0258 44.2872L48.9988 42.7077L48.9898 42.1722L48.9058 42.2592L50.2558 42.2367L50.9818 42.2247H51.1318C51.4946 42.2036 51.8345 42.0404 52.0781 41.7705C52.3216 41.5005 52.4489 41.1456 52.4329 40.7826C52.4167 40.4195 52.2581 40.0773 51.9917 39.8301C51.7252 39.5829 51.3721 39.4506 51.0088 39.4617L50.4193 39.4707L48.8878 39.4962H48.8578L48.9448 39.5802L48.9223 38.2302L48.9103 37.5042C48.9103 37.4517 48.9103 37.4007 48.9103 37.3542C48.8891 36.9914 48.7259 36.6515 48.4561 36.4079C48.1861 36.1644 47.8312 36.0371 47.4682 36.0531C47.105 36.0693 46.7629 36.2279 46.5157 36.4943C46.2685 36.7608 46.1362 37.1139 46.1473 37.4772L46.1563 38.0667L46.1818 39.5982V39.6282L46.2658 39.5412L44.9158 39.5637L44.1898 39.5757H44.0398C43.6769 39.5969 43.337 39.7601 43.0934 40.0299C42.85 40.2999 42.7225 40.6548 42.7387 41.0178C42.7549 41.381 42.9134 41.7231 43.1798 41.9703C43.4464 42.2175 43.7995 42.3498 44.1628 42.3387L44.7508 42.3297L46.2838 42.3042H46.3138L46.2268 42.2202L46.2493 43.5702L46.2613 44.2962C46.2613 44.3487 46.2613 44.4012 46.2613 44.4462C46.2821 44.8017 46.4402 45.1353 46.702 45.3768C46.9639 45.6183 47.3092 45.7487 47.6653 45.7407C47.6885 45.7406 47.7107 45.7311 47.7271 45.7145C47.7434 45.698 47.7524 45.6755 47.7523 45.6522C47.7521 45.629 47.7427 45.6068 47.726 45.5904C47.7094 45.5741 47.687 45.5651 47.6638 45.5652Z" fill="white"/>
<path d="M44.0999 40.0005C43.8827 40.0065 43.6742 40.0869 43.5092 40.2281C43.344 40.3692 43.2324 40.5627 43.1927 40.7763C43.1531 40.9899 43.1879 41.2106 43.2912 41.4015C43.3946 41.5926 43.5603 41.7425 43.7609 41.826C43.8852 41.8779 44.019 41.9034 44.1539 41.901H44.3459L45.1214 41.8875L46.0034 41.8725L46.5104 41.865C46.5296 41.8629 46.5491 41.8649 46.5674 41.8709C46.5857 41.8769 46.6026 41.8868 46.6169 41.8998C46.631 41.9129 46.6422 41.9289 46.6499 41.9466C46.6574 41.9645 46.661 41.9837 46.6604 42.003C46.6604 42.0585 46.6604 42.114 46.6604 42.1695L46.6724 42.9195L46.6874 43.8195L46.6964 44.3685C46.6929 44.6207 46.79 44.864 46.9659 45.0447C47.1419 45.2255 47.3823 45.3288 47.6346 45.3323C47.8868 45.3357 48.1301 45.2387 48.3108 45.0627C48.4916 44.8868 48.5949 44.6462 48.5984 44.394C48.5984 44.3505 48.5984 44.3085 48.5984 44.2665L48.5864 43.5915L48.5714 42.6915L48.5609 42.051C48.5505 41.9949 48.5618 41.937 48.5924 41.889C48.6374 41.8365 48.7004 41.844 48.7604 41.8425L49.4009 41.832L50.3009 41.817L50.9789 41.805H51.1049C51.3569 41.7942 51.5943 41.6838 51.7649 41.4981C51.9356 41.3123 52.0254 41.0663 52.0146 40.8143C52.0038 40.5623 51.8934 40.3248 51.7077 40.1543C51.5219 39.9836 51.2759 39.8937 51.0239 39.9045L50.4764 39.9135L49.5869 39.9285L48.8369 39.942H48.6689C48.6495 39.9444 48.6299 39.9426 48.6113 39.9366C48.5927 39.9306 48.5756 39.9206 48.5613 39.9074C48.5469 39.894 48.5358 39.8777 48.5285 39.8597C48.5211 39.8415 48.5178 39.822 48.5189 39.8025C48.5189 39.636 48.5189 39.468 48.5099 39.3015L48.4949 38.4165L48.4829 37.6425C48.4935 37.4478 48.4649 37.253 48.3989 37.0695C48.3113 36.8709 48.1583 36.7082 47.9654 36.6086C47.7725 36.5088 47.5512 36.4782 47.3385 36.5217C47.1257 36.5651 46.9343 36.6801 46.7958 36.8474C46.6575 37.0148 46.5806 37.2245 46.5779 37.4415C46.5779 37.575 46.5779 37.7085 46.5779 37.842L46.5929 38.697L46.6064 39.5235V39.777C46.6064 39.84 46.6139 39.9045 46.5599 39.9495C46.5113 39.9774 46.4547 39.9879 46.3994 39.9795H46.1384L45.3044 39.993L44.4554 40.008H44.0864L44.1734 40.092C44.1734 40.0694 44.1644 40.0476 44.1483 40.0316C44.1323 40.0155 44.1105 40.0065 44.0879 40.0065C44.0652 40.0065 44.0435 40.0155 44.0274 40.0316C44.0114 40.0476 44.0024 40.0694 44.0024 40.092C44.0031 40.1145 44.0127 40.136 44.0289 40.1516C44.0451 40.1673 44.0669 40.176 44.0894 40.176H44.4749L45.3194 40.161L46.1444 40.1475H46.4024C46.4648 40.1522 46.5275 40.1445 46.5869 40.125C46.6439 40.1027 46.6928 40.0634 46.7268 40.0124C46.7609 39.9615 46.7786 39.9012 46.7774 39.84V39.807V39.6L46.7639 38.82L46.7489 37.95C46.7489 37.7865 46.7489 37.623 46.7489 37.4595C46.7442 37.2774 46.8033 37.0995 46.9161 36.9566C47.0288 36.8135 47.1881 36.7145 47.3661 36.6765C47.5442 36.6386 47.73 36.6642 47.8913 36.7488C48.0524 36.8334 48.179 36.9719 48.2489 37.14C48.3044 37.3055 48.3269 37.4804 48.3149 37.6545L48.3269 38.433L48.3419 39.3045C48.3419 39.4695 48.3419 39.636 48.3509 39.801C48.3497 39.8412 48.3566 39.8811 48.3711 39.9186C48.3857 39.956 48.4076 39.9902 48.4355 40.019C48.4635 40.0478 48.497 40.0707 48.5339 40.0863C48.5709 40.1019 48.6107 40.11 48.6509 40.11C48.6914 40.11 48.7304 40.11 48.7694 40.11L49.4564 40.0995L50.3474 40.0845L50.9744 40.074C51.0353 40.0688 51.0965 40.0688 51.1574 40.074C51.3024 40.0956 51.4385 40.1576 51.5499 40.253C51.6614 40.3484 51.7437 40.4732 51.7874 40.6133C51.8312 40.7532 51.8345 40.9028 51.797 41.0445C51.7596 41.1864 51.683 41.3148 51.5759 41.415C51.4382 41.5446 51.2579 41.6193 51.0689 41.625H50.9549L50.2724 41.6355L49.3799 41.6505L48.7499 41.661C48.6779 41.6565 48.6059 41.6694 48.5399 41.6985C48.4866 41.7291 48.4433 41.7743 48.4151 41.8289C48.3869 41.8835 48.375 41.945 48.3809 42.006L48.3899 42.5715L48.4049 43.4565L48.4169 44.1885C48.4169 44.2425 48.4169 44.2965 48.4169 44.3505C48.4184 44.484 48.3857 44.6157 48.3218 44.733C48.2579 44.8502 48.165 44.949 48.0519 45.0201C47.939 45.0912 47.8095 45.132 47.6762 45.1388C47.5428 45.1455 47.4099 45.1178 47.2904 45.0585C47.16 44.9922 47.0505 44.8911 46.974 44.7663C46.8975 44.6417 46.857 44.4983 46.8569 44.352L46.8479 43.791L46.8329 42.9075L46.8209 42.171C46.8209 42.1155 46.8209 42.06 46.8209 42.0045C46.8209 41.9645 46.8129 41.9249 46.7973 41.888C46.7817 41.8511 46.7591 41.8176 46.7304 41.7897C46.7018 41.7617 46.6677 41.7398 46.6305 41.7252C46.5932 41.7105 46.5534 41.7035 46.5134 41.7045C46.3739 41.7045 46.2359 41.7045 46.0964 41.7045L45.2459 41.7195L44.4299 41.733C44.28 41.745 44.1293 41.7426 43.9799 41.7255C43.791 41.6907 43.6217 41.5874 43.5042 41.4354C43.3868 41.2833 43.3296 41.0934 43.3436 40.9019C43.3574 40.7103 43.4415 40.5306 43.5797 40.3973C43.718 40.2639 43.9005 40.1862 44.0924 40.179C44.1161 40.1801 44.1392 40.1715 44.1566 40.1555C44.174 40.1394 44.1843 40.1172 44.1854 40.0935C44.1864 40.0698 44.1779 40.0467 44.1618 40.0293C44.1458 40.0119 44.1236 40.0016 44.0999 40.0005Z" fill="white"/>
<path d="M44.1002 39.9153C43.8655 39.9247 43.6406 40.0125 43.4617 40.1649C43.2827 40.3171 43.16 40.525 43.1132 40.7553C43.0685 40.9977 43.1099 41.2482 43.2302 41.4633C43.3408 41.6595 43.5133 41.8135 43.7207 41.9013C43.858 41.9604 44.0063 41.9896 44.1557 41.9868H44.3492L45.1247 41.9733L46.0067 41.9583L46.5137 41.9508H46.5257C46.5542 41.9508 46.5257 41.9508 46.5257 41.9508C46.5257 41.9508 46.5632 41.9508 46.5647 41.9613C46.5662 41.9718 46.5362 41.9433 46.5527 41.9613C46.5692 41.9793 46.5797 41.9808 46.5617 41.9613C46.5437 41.9418 46.5617 41.9613 46.5692 41.9688C46.5767 41.9763 46.5602 41.9598 46.5692 41.9598C46.5782 41.9598 46.5782 41.9748 46.5797 41.9763C46.5812 41.9778 46.5722 41.9643 46.5797 41.9658C46.5872 41.9673 46.5902 42.0213 46.5887 41.9928C46.5872 41.9643 46.5887 41.9928 46.5887 41.9928V42.0003C46.5887 42.0558 46.5887 42.1113 46.5887 42.1668L46.6007 42.9168L46.6157 43.8168L46.6247 44.3658C46.6268 44.5489 46.6768 44.7283 46.7696 44.8863C46.8626 45.0441 46.9951 45.175 47.1542 45.2658C47.362 45.3793 47.602 45.4194 47.8354 45.3793C48.0688 45.3393 48.2816 45.2215 48.4397 45.0453C48.5981 44.8621 48.6892 44.6302 48.6977 44.3883C48.6977 44.3463 48.6977 44.3028 48.6977 44.2608L48.6857 43.5858L48.6707 42.6858L48.6602 42.0453V41.9718C48.6602 41.9403 48.6602 41.9853 48.6602 41.9718C48.6602 41.9583 48.6602 41.9553 48.6602 41.9478C48.6602 41.9403 48.6602 41.9598 48.6602 41.9583L48.6707 41.9418C48.6782 41.9238 48.6527 41.9568 48.6707 41.9418C48.6887 41.9268 48.6827 41.9268 48.6842 41.9283C48.6857 41.9298 48.6662 41.9478 48.6842 41.9283C48.7022 41.9088 48.7082 41.9118 48.6842 41.9283C48.6602 41.9448 48.6842 41.9283 48.6842 41.9283H48.7022C48.7217 41.9283 48.6902 41.9283 48.6887 41.9283C48.6872 41.9283 48.6992 41.9283 48.7022 41.9283H48.7502L49.3907 41.9178L50.2907 41.9028L50.9702 41.8908H51.0962C51.3419 41.8714 51.5732 41.7669 51.7502 41.5953C51.9062 41.4522 52.0147 41.2648 52.0612 41.0584C52.1075 40.8519 52.0895 40.6362 52.0097 40.4401C51.9298 40.2441 51.7918 40.0773 51.6143 39.9619C51.4369 39.8467 51.2282 39.7885 51.0167 39.7953L50.4692 39.8043L49.5797 39.8193L48.8297 39.8328H48.6512H48.6647H48.6452H48.6257C48.6257 39.8253 48.6542 39.8523 48.6257 39.8328C48.5972 39.8133 48.6047 39.8163 48.6257 39.8328C48.6467 39.8493 48.6257 39.8328 48.6182 39.8328C48.6107 39.8328 48.6182 39.8418 48.6182 39.8418C48.613 39.8347 48.6085 39.8272 48.6047 39.8193C48.6047 39.8193 48.6137 39.8508 48.6047 39.8313C48.5957 39.8118 48.6047 39.8178 48.6047 39.8118C48.6047 39.8058 48.6047 39.8373 48.6047 39.8118V39.8013C48.6047 39.6348 48.6047 39.4668 48.5957 39.3003L48.5807 38.4153L48.5687 37.6413V37.4448C48.5648 37.2598 48.5122 37.0792 48.416 36.9211C48.3199 36.7632 48.1837 36.6333 48.0212 36.5448C47.8027 36.4308 47.5514 36.3963 47.3102 36.4473C47.0869 36.4995 46.8869 36.6234 46.7407 36.7999C46.5944 36.9766 46.51 37.1962 46.5002 37.4253C46.5002 37.5588 46.5002 37.6923 46.5002 37.8258L46.5152 38.6808L46.5287 39.5073V39.7608V39.8298C46.5287 39.8298 46.5287 39.8613 46.5287 39.8298C46.5287 39.7983 46.5287 39.8433 46.5287 39.8523C46.5287 39.8613 46.5287 39.8403 46.5287 39.8403C46.5287 39.8403 46.5137 39.8628 46.5152 39.8628C46.5167 39.8628 46.5377 39.8403 46.5152 39.8538C46.4927 39.8673 46.4912 39.8763 46.5077 39.8628C46.5242 39.8493 46.4762 39.8838 46.5077 39.8628C46.5392 39.8418 46.4792 39.8763 46.4792 39.8703C46.4792 39.8643 46.5137 39.8703 46.4792 39.8703H46.4027H46.1402L45.3062 39.8838L44.4572 39.8988H44.0882L44.2622 40.0668C44.2573 40.0266 44.2384 39.9892 44.2088 39.9615C44.1791 39.9339 44.1407 39.9175 44.1002 39.9153C44.0552 39.9172 44.0128 39.9363 43.9814 39.9687C43.9502 40.0011 43.9325 40.0443 43.9322 40.0893C43.9337 40.1344 43.9528 40.1772 43.9853 40.2085C44.0177 40.2397 44.0611 40.2573 44.1062 40.2573H44.4917L45.3362 40.2423L46.1612 40.2288H46.4192C46.4893 40.2331 46.5595 40.2246 46.6262 40.2033C46.7006 40.1745 46.7645 40.1238 46.8095 40.0579C46.8545 39.9921 46.8785 39.9141 46.8782 39.8343V39.8013V39.5943L46.8647 38.8158L46.8497 37.9443C46.8497 37.7808 46.8497 37.6173 46.8497 37.4538V37.4058C46.8497 37.3938 46.8497 37.3818 46.8497 37.3698C46.8497 37.3578 46.8497 37.3578 46.8497 37.3518C46.8497 37.3458 46.8497 37.3863 46.8497 37.3623C46.8584 37.3114 46.871 37.2613 46.8872 37.2123C46.8919 37.2015 46.8959 37.1905 46.8992 37.1793C46.8992 37.1793 46.8842 37.2108 46.8992 37.1928C46.8998 37.1878 46.8998 37.1827 46.8992 37.1778C46.9112 37.1538 46.9232 37.1298 46.9367 37.1058C46.9486 37.0842 46.9616 37.063 46.9757 37.0428C46.9757 37.0428 47.0027 37.0113 46.9847 37.0278L47.0042 37.0053C47.0374 36.969 47.0723 36.9343 47.1092 36.9018C47.1227 36.8883 47.0957 36.9123 47.0972 36.9108C47.1011 36.9069 47.1056 36.9039 47.1107 36.9018L47.1422 36.8778L47.2052 36.8388C47.2256 36.8239 47.2484 36.8127 47.2727 36.8058H47.2577H47.2742L47.3177 36.7893L47.3852 36.7698L47.4257 36.7608C47.4311 36.7621 47.4368 36.7621 47.4422 36.7608C47.4347 36.7608 47.4092 36.7608 47.4332 36.7608C47.4871 36.7563 47.5414 36.7563 47.5952 36.7608H47.6312C47.6507 36.7608 47.6162 36.7608 47.6162 36.7608C47.6216 36.7621 47.6273 36.7621 47.6327 36.7608L47.7137 36.7773L47.7857 36.7998H47.8022C47.8202 36.7998 47.7872 36.7998 47.7887 36.7998C47.8015 36.8034 47.8136 36.8089 47.8247 36.8163C47.8711 36.8383 47.9158 36.8638 47.9582 36.8928C47.9837 36.9108 47.9342 36.8748 47.9582 36.8928L47.9852 36.9153C48.0043 36.9322 48.0238 36.9502 48.0437 36.9693L48.0707 36.9978C48.0707 36.9978 48.0992 37.0293 48.0827 37.0113C48.0662 36.9933 48.0827 37.0203 48.0932 37.0263L48.1187 37.0638C48.1307 37.0833 48.1427 37.1028 48.1532 37.1223C48.1637 37.1418 48.1667 37.1463 48.1727 37.1583C48.1747 37.1635 48.1771 37.1686 48.1802 37.1733C48.1907 37.1943 48.1682 37.1433 48.1802 37.1643C48.2 37.2129 48.2156 37.263 48.2267 37.3143C48.2285 37.3264 48.2309 37.3384 48.2342 37.3503C48.2342 37.3503 48.2342 37.3143 48.2342 37.3338C48.2342 37.3533 48.2342 37.3458 48.2342 37.3518C48.2357 37.3758 48.2357 37.3998 48.2342 37.4238C48.2335 37.4338 48.2335 37.4437 48.2342 37.4538V37.6563L48.2462 38.4348L48.2612 39.3063C48.2612 39.4713 48.2612 39.6378 48.2702 39.8028C48.2702 39.8544 48.2804 39.9055 48.3001 39.9532C48.3199 40.0009 48.3488 40.0441 48.3853 40.0807C48.4219 40.1172 48.4652 40.1461 48.5128 40.1659C48.5605 40.1856 48.6116 40.1958 48.6632 40.1958C48.7037 40.1958 48.7427 40.1958 48.7817 40.1958L49.4687 40.1853L50.3597 40.1703L50.9867 40.1598H51.0977H51.1397C51.1397 40.1598 51.1622 40.1598 51.1397 40.1598C51.1172 40.1598 51.1397 40.1598 51.1472 40.1598C51.1982 40.1679 51.2485 40.1803 51.2972 40.1973H51.3137H51.2987C51.3101 40.2001 51.3209 40.2052 51.3302 40.2123C51.3542 40.2232 51.3782 40.2352 51.4022 40.2483L51.4637 40.2888C51.4637 40.2888 51.4757 40.2888 51.4772 40.2993C51.4787 40.3098 51.4502 40.2768 51.4652 40.2903L51.4952 40.3158C51.5146 40.3306 51.5327 40.3473 51.5492 40.3653L51.5732 40.3908C51.5732 40.3908 51.6092 40.4313 51.5927 40.4118C51.5762 40.3923 51.5927 40.4208 51.6032 40.4268L51.6257 40.4598C51.6392 40.4793 51.6527 40.5018 51.6647 40.5228L51.6827 40.5588C51.6827 40.5588 51.6827 40.5693 51.6902 40.5738C51.6977 40.5783 51.6902 40.5603 51.6902 40.5603C51.6973 40.5859 51.7063 40.611 51.7172 40.6353C51.7247 40.6578 51.7307 40.6803 51.7367 40.7043C51.7427 40.7283 51.7367 40.7313 51.7442 40.7448C51.7517 40.7583 51.7442 40.7283 51.7442 40.7283C51.7435 40.7362 51.7435 40.7443 51.7442 40.7523C51.7483 40.8022 51.7483 40.8523 51.7442 40.9023C51.7442 40.9023 51.7367 40.9518 51.7442 40.9263C51.7517 40.9008 51.7442 40.9383 51.7442 40.9443C51.7397 40.9716 51.7337 40.9986 51.7262 41.0253L51.7037 41.0973C51.6917 41.1273 51.7157 41.0688 51.7037 41.0973C51.6989 41.1096 51.6934 41.1216 51.6872 41.1333C51.6764 41.1559 51.6644 41.178 51.6512 41.1993C51.6422 41.2158 51.6257 41.2548 51.6077 41.2653C51.5897 41.2758 51.6302 41.2383 51.6167 41.2533L51.6062 41.2653L51.5837 41.2923C51.5672 41.3118 51.5477 41.3313 51.5297 41.3493L51.5042 41.3718C51.5042 41.3718 51.4892 41.3868 51.4862 41.3868L51.4982 41.3778L51.4382 41.4198L51.3737 41.4573L51.3377 41.4753C51.3377 41.4753 51.3152 41.4843 51.3377 41.4753C51.3602 41.4663 51.3377 41.4753 51.3377 41.4753C51.2891 41.4943 51.239 41.5089 51.1877 41.5188H51.1697C51.1397 41.5188 51.1697 41.5188 51.1802 41.5188H51.1442H51.0842H50.9702L50.2877 41.5293L49.3877 41.5443L48.7577 41.5548C48.6704 41.5503 48.5834 41.5674 48.5042 41.6043C48.4427 41.6385 48.3916 41.6889 48.3565 41.7499C48.3214 41.811 48.3035 41.8804 48.3047 41.9508V42.0003L48.3137 42.5658L48.3287 43.4493L48.3407 44.1828C48.3407 44.2368 48.3407 44.2908 48.3407 44.3448V44.3538C48.3407 44.3733 48.3407 44.3913 48.3407 44.4093C48.3422 44.4232 48.3422 44.4373 48.3407 44.4513C48.3407 44.4513 48.3407 44.4153 48.3407 44.4348V44.4588C48.3326 44.5099 48.3196 44.5602 48.3017 44.6088C48.2882 44.6493 48.3122 44.5893 48.3017 44.6163C48.2962 44.6265 48.2911 44.637 48.2867 44.6478C48.2747 44.6718 48.2627 44.6958 48.2492 44.7183L48.2117 44.7753C48.1952 44.7993 48.2312 44.7513 48.2117 44.7753L48.1862 44.8053C48.1697 44.8248 48.1517 44.8413 48.1337 44.8593L48.1097 44.8818L48.0962 44.8923C48.0677 44.9178 48.1172 44.8773 48.0962 44.8923C48.0568 44.9218 48.0152 44.9485 47.9717 44.9718L47.9417 44.9883C47.9027 45.0063 47.9627 44.9793 47.9417 44.9883L47.8652 45.0153L47.7977 45.0318C47.7857 45.0309 47.7737 45.0309 47.7617 45.0318C47.7917 45.0198 47.7872 45.0318 47.7722 45.0318H47.7482C47.6957 45.0355 47.6432 45.0355 47.5907 45.0318H47.5742C47.5502 45.0318 47.6072 45.0318 47.5832 45.0318H47.5487C47.5219 45.0274 47.4953 45.0214 47.4692 45.0138C47.4467 45.0138 47.4257 44.9988 47.4032 44.9913C47.3807 44.9838 47.4332 45.0048 47.4122 44.9913L47.3957 44.9838L47.3597 44.9673L47.2952 44.9313L47.2667 44.9118L47.2517 44.9028L47.2427 44.8953C47.2322 44.8953 47.2427 44.8953 47.2547 44.9058C47.2412 44.9058 47.2142 44.8713 47.2037 44.8608C47.1836 44.8434 47.1646 44.8249 47.1467 44.8053L47.1242 44.7798C47.1047 44.7573 47.1452 44.8083 47.1242 44.7798C47.1032 44.7513 47.0957 44.7408 47.0822 44.7198C47.0687 44.6988 47.0567 44.6763 47.0447 44.6553C47.0404 44.6445 47.0353 44.634 47.0297 44.6238C47.0192 44.6028 47.0417 44.6538 47.0297 44.6328L47.0207 44.6118C47.0029 44.5629 46.9889 44.5128 46.9787 44.4618C46.9712 44.4213 46.9787 44.4858 46.9787 44.4618C46.978 44.4498 46.978 44.4378 46.9787 44.4258C46.9787 44.4093 46.9787 44.3928 46.9787 44.3778C46.978 44.3668 46.978 44.3557 46.9787 44.3448L46.9697 43.7823L46.9547 42.8988L46.9427 42.1623C46.9427 42.1068 46.9427 42.0513 46.9427 41.9958C46.942 41.8918 46.9 41.7924 46.826 41.7193C46.7521 41.6461 46.6522 41.6053 46.5482 41.6058C46.4087 41.6058 46.2707 41.6058 46.1312 41.6058L45.2807 41.6208L44.4647 41.6343H44.2217H44.0912C44.0837 41.6343 44.0477 41.6253 44.0732 41.6343H44.0432C43.9922 41.6248 43.9421 41.6113 43.8932 41.5938H43.9082C43.901 41.5914 43.894 41.5884 43.8872 41.5848L43.8557 41.5698L43.7852 41.5308C43.7702 41.5203 43.7402 41.5083 43.7297 41.4918C43.7192 41.4753 43.7612 41.5173 43.7372 41.4918L43.7237 41.4813L43.6937 41.4558L43.6412 41.4033L43.6187 41.3778C43.6187 41.3778 43.6082 41.3673 43.6082 41.3643C43.6082 41.3613 43.6292 41.3928 43.6082 41.3643C43.5689 41.3295 43.5328 41.2914 43.5002 41.2503C43.4959 41.2395 43.4908 41.229 43.4852 41.2188C43.4762 41.2023 43.4852 41.2323 43.4852 41.2323C43.4836 41.2248 43.4804 41.2177 43.4762 41.2113C43.4672 41.1873 43.4597 41.1648 43.4522 41.1393C43.4446 41.1151 43.4386 41.0907 43.4342 41.0658C43.4342 41.0658 43.4342 41.0538 43.4342 41.0478C43.4342 41.0418 43.4342 41.0658 43.4342 41.0643C43.432 41.0484 43.432 41.0322 43.4342 41.0163C43.43 40.9663 43.43 40.9162 43.4342 40.8663C43.4342 40.8318 43.4342 40.8963 43.4342 40.8663C43.4342 40.8363 43.4342 40.8393 43.4417 40.8258L43.4597 40.7523C43.4687 40.7308 43.4764 40.7088 43.4822 40.6863C43.4822 40.6863 43.4687 40.7178 43.4822 40.7013C43.4825 40.6957 43.4825 40.6903 43.4822 40.6848C43.4876 40.6729 43.4936 40.6615 43.5002 40.6503L43.5362 40.5858C43.5457 40.5646 43.5589 40.5453 43.5752 40.5288C43.5752 40.5288 43.5527 40.5558 43.5662 40.5423L43.5797 40.5243L43.6022 40.4988C43.6187 40.4793 43.6352 40.4628 43.6532 40.4448L43.6787 40.4223L43.6922 40.4118C43.7057 40.3983 43.6787 40.4208 43.6802 40.4208C43.6817 40.4208 43.7222 40.3893 43.7402 40.3773L43.8032 40.3398L43.8347 40.3233L43.8497 40.3158C43.8662 40.3068 43.8362 40.3158 43.8362 40.3158C43.8604 40.309 43.8839 40.3005 43.9067 40.2903L43.9802 40.2693H44.0147C44.0462 40.2618 43.9832 40.2693 44.0147 40.2693C44.0428 40.2678 44.0707 40.2678 44.0987 40.2693C44.1439 40.2678 44.1866 40.2487 44.218 40.2162C44.2493 40.1838 44.2667 40.1404 44.2667 40.0953C44.2678 40.0725 44.2642 40.0497 44.2564 40.0284C44.2486 40.0069 44.2366 39.9873 44.221 39.9705C44.2055 39.9538 44.1869 39.9403 44.1662 39.9309C44.1454 39.9213 44.123 39.916 44.1002 39.9153Z" fill="black"/>
<path d="M82.6007 63.9778C82.6133 63.8808 82.6198 63.7831 82.6202 63.6853C82.6279 63.3966 82.5775 63.1092 82.4723 62.8402C82.367 62.5713 82.2089 62.326 82.0075 62.1192C81.8059 61.9123 81.565 61.7478 81.2989 61.6356C81.0328 61.5232 80.7468 61.4653 80.4579 61.4653C80.169 61.4653 79.8831 61.5232 79.617 61.6356C79.3509 61.7478 79.11 61.9123 78.9084 62.1192C78.7068 62.326 78.5489 62.5713 78.4436 62.8402C78.3384 63.1092 78.288 63.3966 78.2957 63.6853C78.2954 63.7831 78.3018 63.8809 78.3152 63.9778L80.0672 104.778C80.0672 104.874 80.1053 104.966 80.1731 105.033C80.2409 105.101 80.3328 105.139 80.4287 105.139C80.5245 105.139 80.6165 105.101 80.6843 105.033C80.7521 104.966 80.7902 104.874 80.7902 104.778L82.6007 63.9778Z" fill="white"/>
<path d="M82.9751 63.978C83.039 63.41 82.9092 62.8368 82.6067 62.3517C82.3041 61.8668 81.8465 61.4981 81.3083 61.3056C80.7699 61.1133 80.1824 61.1084 79.6409 61.2917C79.0994 61.4751 78.6357 61.836 78.3251 62.316C78.017 62.814 77.8831 63.4001 77.9441 63.9825C77.9741 64.4415 77.9831 64.902 78.0041 65.361L78.1541 68.79L78.3656 73.7265L78.6116 79.65L78.8831 85.95L79.1471 92.1225L79.3841 97.614L79.5671 101.876L79.6736 104.361C79.6736 104.496 79.6811 104.633 79.6901 104.768C79.6916 104.864 79.7121 104.96 79.7505 105.049C79.7891 105.138 79.8446 105.219 79.9142 105.286C79.9838 105.354 80.066 105.407 80.156 105.442C80.2461 105.478 80.3424 105.496 80.4393 105.494C80.5362 105.493 80.6319 105.472 80.7209 105.434C80.8098 105.395 80.8904 105.34 80.9579 105.27C81.0254 105.201 81.0785 105.118 81.1142 105.028C81.1499 104.938 81.1676 104.842 81.1661 104.745C81.2006 104.222 81.2126 103.695 81.2351 103.172L81.3941 99.6L81.6191 94.542L81.8831 88.5885L82.1636 82.2705L82.4366 76.1205L82.6766 70.7205L82.8596 66.594L82.9616 64.2915L82.9751 63.9915C82.9961 63.5085 82.2461 63.51 82.2251 63.9915L82.1711 65.1915L82.0286 68.4L81.8186 73.128L81.5651 78.8415L81.2891 85.05L81.0176 91.1925L80.7716 96.7425L80.5736 101.193L80.4476 104.034L80.4191 104.678C80.4191 104.712 80.4191 104.747 80.4191 104.781C80.4279 104.77 80.4359 104.759 80.4431 104.747C80.4431 104.784 80.3966 104.777 80.4341 104.759C80.4716 104.741 80.4341 104.759 80.4341 104.759H80.4251C80.4251 104.769 80.3921 104.727 80.4356 104.759C80.3936 104.721 80.4356 104.789 80.4356 104.759C80.4086 104.291 80.3951 103.821 80.3756 103.353L80.2256 99.9705L80.0171 95.1135L79.7696 89.3355L79.5041 83.1405L79.2416 77.028L79.0151 71.55L78.8291 67.23L78.7151 64.572C78.7151 64.3905 78.7031 64.209 78.6911 64.0275C78.6701 63.8352 78.6671 63.6414 78.6821 63.4485C78.7244 63.1358 78.8484 62.8397 79.0419 62.5902C79.2354 62.3409 79.4915 62.1471 79.784 62.0285C80.0763 61.91 80.3951 61.8707 80.7075 61.9149C81.0201 61.959 81.3153 62.085 81.5636 62.28C81.8118 62.4818 82.0034 62.7447 82.1193 63.0429C82.2353 63.3413 82.2717 63.6645 82.2251 63.981C82.2255 64.0803 82.2651 64.1756 82.3353 64.2458C82.4055 64.316 82.5008 64.3556 82.6001 64.356C82.6992 64.3533 82.7934 64.3125 82.8633 64.2422C82.9332 64.1718 82.9731 64.0772 82.9751 63.978Z" fill="#222221"/>
<path d="M79.6504 100.557L80.0629 104.952C80.0629 105.048 80.101 105.14 80.1688 105.208C80.2366 105.276 80.3285 105.314 80.4244 105.314C80.5202 105.314 80.6122 105.276 80.68 105.208C80.7478 105.14 80.7859 105.048 80.7859 104.952L81.2569 100.557H79.6504Z" fill="white"/>
<path d="M79.2793 100.557L79.6753 104.781C79.6753 104.838 79.6858 104.895 79.6903 104.952C79.6946 105.106 79.7465 105.255 79.8389 105.379C79.9312 105.503 80.0596 105.595 80.2063 105.643C80.3603 105.69 80.5256 105.687 80.6774 105.633C80.8292 105.579 80.9596 105.477 81.0493 105.343C81.1255 105.208 81.1667 105.057 81.1693 104.902C81.2428 104.179 81.3193 103.456 81.4018 102.735L81.6358 100.555C81.635 100.456 81.5953 100.361 81.5251 100.291C81.4549 100.221 81.3599 100.181 81.2608 100.18H79.6498C79.1668 100.18 79.1668 100.93 79.6498 100.93H81.2563L80.8813 100.555L80.4463 104.614C80.4358 104.707 80.4253 104.8 80.4163 104.893C80.4163 104.911 80.4163 104.929 80.4163 104.947C80.4163 104.965 80.4163 104.926 80.4163 104.928C80.4358 104.997 80.3833 104.944 80.4283 104.928C80.4013 104.947 80.4913 104.928 80.4178 104.928C80.4313 104.928 80.4973 104.928 80.4253 104.928C80.4058 104.928 80.3548 104.919 80.4253 104.928C80.3518 104.916 80.4253 104.928 80.4253 104.928C80.3743 104.928 80.4253 104.928 80.4148 104.928C80.3983 104.881 80.4313 104.965 80.4343 104.967C80.4373 104.968 80.4343 104.92 80.4343 104.95C80.4343 104.895 80.4238 104.839 80.4193 104.782L80.2078 102.532L80.0233 100.558C80.0206 100.46 79.9802 100.366 79.9105 100.296C79.8407 100.226 79.7468 100.186 79.6483 100.183C79.5502 100.185 79.4569 100.225 79.3879 100.295C79.319 100.365 79.28 100.459 79.2793 100.557Z" fill="#222221"/>
<path d="M80.4575 60.6509C79.9979 60.6516 79.5438 60.5517 79.127 60.3584C79.2905 60.5519 79.4941 60.7076 79.7239 60.8142C79.9537 60.9209 80.2041 60.9762 80.4575 60.9762C80.7108 60.9762 80.9612 60.9209 81.191 60.8142C81.4208 60.7076 81.6244 60.5519 81.7879 60.3584C81.3711 60.5517 80.9171 60.6516 80.4575 60.6509Z" fill="white"/>
<path d="M80.4572 60.2762C80.0646 60.2754 79.6764 60.1933 79.3172 60.0347C79.2387 59.9926 79.1478 59.9797 79.0607 59.9984C78.9735 60.0172 78.896 60.0663 78.8418 60.137C78.7877 60.2078 78.7605 60.2956 78.7652 60.3845C78.7698 60.4736 78.806 60.5579 78.8672 60.6227C79.0674 60.848 79.3131 61.0283 79.5881 61.1517C79.863 61.2752 80.1611 61.3389 80.4624 61.3389C80.7638 61.3389 81.0618 61.2752 81.3368 61.1517C81.6117 61.0283 81.8574 60.848 82.0577 60.6227C82.1205 60.5576 82.1579 60.4723 82.1631 60.382C82.1684 60.2917 82.1411 60.2025 82.0862 60.1307C82.0299 60.0603 81.9506 60.0122 81.8622 59.9947C81.7739 59.9771 81.6821 59.9912 81.6032 60.0347C81.2435 60.1931 80.8548 60.2753 80.4617 60.2762C80.3628 60.2781 80.2686 60.3182 80.1986 60.3881C80.1287 60.458 80.0886 60.5523 80.0867 60.6512C80.0879 60.7503 80.1278 60.845 80.1978 60.915C80.2679 60.9851 80.3625 61.025 80.4617 61.0262C80.9868 61.0212 81.5049 60.9041 81.9812 60.6827L81.5312 60.0932C81.4028 60.252 81.2405 60.38 81.0563 60.468C80.8721 60.5561 80.6703 60.6017 80.4662 60.6017C80.262 60.6017 80.0604 60.5561 79.8761 60.468C79.6919 60.38 79.5296 60.252 79.4012 60.0932L78.9512 60.6827C79.4276 60.9038 79.9455 61.0209 80.4707 61.0262C80.5701 61.0262 80.6655 60.9867 80.7359 60.9164C80.8062 60.846 80.8457 60.7506 80.8457 60.6512C80.8457 60.5517 80.8062 60.4563 80.7359 60.386C80.6655 60.3156 80.5701 60.2762 80.4707 60.2762H80.4572Z" fill="#222221"/>
<path d="M83.2161 57.36C83.2744 57.9294 83.155 58.5029 82.8744 59.0018C82.5937 59.5007 82.1656 59.9004 81.6486 60.1461C81.1317 60.3918 80.5513 60.4715 79.9873 60.3743C79.4232 60.2769 78.9031 60.0074 78.4984 59.6027C78.0937 59.198 77.8242 58.6779 77.7268 58.1138C77.6296 57.5498 77.7093 56.9694 77.955 56.4525C78.2007 55.9355 78.6004 55.5074 79.0993 55.2267C79.5982 54.9461 80.1717 54.8267 80.7411 54.885C81.3753 54.95 81.9678 55.2317 82.4187 55.6824C82.8694 56.1333 83.1511 56.7258 83.2161 57.36Z" fill="white"/>
<path d="M82.8408 57.36C82.8912 57.8401 82.7982 58.3243 82.5733 58.7515C82.3485 59.1787 82.0021 59.5297 81.5778 59.76C81.1246 59.9994 80.6067 60.0873 80.0998 60.0111C79.593 59.9349 79.1238 59.6983 78.7611 59.3361C78.3984 58.974 78.1612 58.5052 78.0841 57.9985C78.0072 57.4918 78.0943 56.9737 78.3331 56.5201C78.5718 56.0665 78.9493 55.7013 79.4107 55.4779C79.872 55.2544 80.3926 55.1845 80.8965 55.2784C81.4003 55.3723 81.861 55.6251 82.2108 55.9996C82.5607 56.3742 82.7814 56.8509 82.8408 57.36C82.843 57.4587 82.8834 57.5527 82.9531 57.6226C83.023 57.6924 83.1171 57.7327 83.2158 57.735C83.3151 57.7345 83.4103 57.6949 83.4805 57.6247C83.5507 57.5545 83.5903 57.4593 83.5908 57.36C83.5299 56.713 83.2702 56.1007 82.8477 55.6069C82.4251 55.1133 81.8601 54.7624 81.2302 54.6024C80.6004 54.4423 79.9365 54.481 79.3294 54.7132C78.7225 54.9453 78.2022 55.3596 77.8398 55.899C77.5584 56.3179 77.3817 56.7984 77.3248 57.2998C77.2678 57.8013 77.3322 58.3092 77.5125 58.7806C77.6928 59.2519 77.9836 59.6731 78.3607 60.0087C78.7378 60.3441 79.1899 60.5841 79.6791 60.7084C80.1682 60.8326 80.68 60.8376 81.1716 60.7227C81.663 60.6078 82.1197 60.3766 82.5031 60.0484C82.8865 59.7202 83.1855 59.3047 83.3748 58.8367C83.5641 58.3689 83.6382 57.8625 83.5908 57.36C83.5881 57.2614 83.5477 57.1675 83.478 57.0978C83.4082 57.028 83.3143 56.9877 83.2158 56.985C83.1166 56.9857 83.0217 57.0255 82.9515 57.0957C82.8813 57.1659 82.8415 57.2608 82.8408 57.36Z" fill="#222221"/>
<path d="M77.8294 70.4116C77.4739 70.5061 77.1154 70.5961 76.7569 70.6741C74.5984 71.2051 72.2569 71.5306 69.8689 71.3506C68.9971 71.2867 68.1307 71.1639 67.2754 70.9831C67.9039 71.8216 69.0964 72.4726 70.3999 72.8791C72.0094 73.4221 73.7116 73.6358 75.4054 73.5076C76.2601 73.4374 77.1064 73.2867 77.9329 73.0576L77.8294 70.4116Z" fill="white"/>
<path d="M77.7301 70.0502C75.0961 70.7417 72.4156 71.1827 69.6871 70.9607C68.9096 70.896 68.1371 70.7823 67.3741 70.6202C67.0921 70.5617 66.7351 70.8887 66.9511 71.1722C67.8136 72.3032 69.1741 72.8896 70.4956 73.3036C72.0352 73.7973 73.6537 73.9977 75.2671 73.8946C76.2016 73.8213 77.1272 73.6602 78.0316 73.4131C78.1105 73.3908 78.1799 73.3435 78.2297 73.2783C78.2795 73.2132 78.3068 73.1337 78.3076 73.0516L78.2041 70.4117C78.1861 69.9302 77.4361 69.9287 77.4541 70.4117L77.5576 73.0516L77.8321 72.6901C75.6431 73.3288 73.318 73.3351 71.1256 72.7081C70.4533 72.5328 69.8 72.2911 69.1756 71.9867C68.5936 71.6867 68.0026 71.3192 67.6021 70.7867L67.1776 71.3387C68.5882 71.6373 70.0273 71.7812 71.4691 71.7677C72.8627 71.7404 74.251 71.5863 75.6166 71.3072C76.3936 71.1572 77.1661 70.9682 77.9326 70.7672C78.3961 70.6502 78.1981 69.9272 77.7301 70.0502Z" fill="#222221"/>
<path d="M77.6995 67.026C76.537 67.1835 75.376 67.3635 74.1985 67.5105C71.6905 67.8345 69.085 68.0235 66.457 67.7715C64.2367 67.5747 62.0669 66.9967 60.043 66.063C60.0985 66.5715 60.4435 67.0845 60.9685 67.5255C61.63 68.1255 62.6185 68.556 63.601 69.0105C65.5988 69.9312 67.7351 70.5156 69.9235 70.74C72.1525 70.956 74.3965 70.7055 76.54 70.2315C76.966 70.14 77.389 70.041 77.812 69.9405L77.6995 67.026Z" fill="white"/>
<path d="M77.5985 66.6646C75.2675 66.9811 72.9485 67.3546 70.592 67.4716C68.2985 67.5856 65.9854 67.4791 63.7444 66.9496C62.5347 66.6688 61.3573 66.263 60.2314 65.7391C60.0079 65.6341 59.6314 65.7526 59.6674 66.0631C59.8174 67.2706 60.9184 68.0776 61.9174 68.6131C63.0502 69.217 64.2301 69.7282 65.4454 70.1416C67.9778 71.0149 70.6655 71.3456 73.334 71.1121C74.8769 70.9513 76.4063 70.6801 77.9105 70.3006C77.9892 70.2782 78.0585 70.2308 78.108 70.1656C78.1575 70.1005 78.1845 70.021 78.185 69.9391L78.0725 67.0246C78.053 66.5431 77.303 66.5401 77.3225 67.0246L77.435 69.9391L77.711 69.5776C76.4594 69.8939 75.1902 70.1357 73.91 70.3021C72.6228 70.4587 71.3231 70.4828 70.031 70.3741C67.5815 70.1521 65.2549 69.3841 63.0409 68.3386C62.4564 68.0869 61.9027 67.7687 61.3909 67.3906C60.9844 67.0651 60.4909 66.6121 60.4219 66.0616L59.8504 66.3871C61.9327 67.3493 64.1655 67.9445 66.4505 68.1466C68.864 68.3761 71.2925 68.2381 73.694 67.9486C75.0635 67.7836 76.4255 67.5736 77.792 67.3876C77.8875 67.3603 77.9685 67.2965 78.0176 67.2101C78.0666 67.1237 78.0798 67.0216 78.0545 66.9256C78.0258 66.8323 77.9628 66.7534 77.8781 66.7049C77.7933 66.6563 77.6934 66.6419 77.5985 66.6646Z" fill="#222221"/>
<path d="M77.5895 64.2121C75.8315 64.2121 74.0465 64.3051 72.278 64.2691C69.455 64.2496 66.5975 64.1191 63.7775 63.6226C61.2755 63.1876 58.754 62.4226 56.6915 61.1641C56.6164 61.8221 56.7962 62.4839 57.194 63.0136C57.734 63.7846 58.6325 64.3891 59.687 64.9636C61.658 66.1321 64.0505 66.8761 66.536 67.1596C69.0215 67.4431 71.5715 67.3201 74.066 67.0486C75.266 66.9226 76.466 66.7606 77.6825 66.6211L77.5895 64.2121Z" fill="white"/>
<path d="M77.5887 63.8374C76.1502 63.8374 74.7117 63.9004 73.2732 63.9034C71.8347 63.9064 70.4232 63.8794 69.0087 63.8074C66.2592 63.6664 63.4887 63.3469 60.8428 62.5563C59.4538 62.1563 58.1219 61.5795 56.8798 60.8403C56.8226 60.8085 56.7581 60.792 56.6926 60.7925C56.6272 60.7929 56.563 60.8102 56.5061 60.8429C56.4494 60.8754 56.402 60.9222 56.3687 60.9785C56.3353 61.0349 56.3171 61.0989 56.3158 61.1643C56.1658 62.7033 57.2443 63.8554 58.4323 64.6534C59.6683 65.4793 61.0058 66.1418 62.4117 66.6244C65.4807 67.6849 68.7702 67.8334 71.9862 67.6159C73.8927 67.4854 75.7842 67.2184 77.6862 67.0009C77.7852 66.9994 77.8797 66.9593 77.9496 66.8893C78.0197 66.8194 78.0597 66.7249 78.0612 66.6259L77.9682 64.2124C77.9502 63.7309 77.1987 63.7279 77.2182 64.2124L77.3112 66.6259L77.6862 66.2509C74.4402 66.6229 71.2017 67.0969 67.9242 66.9079C66.4152 66.8305 64.9199 66.5834 63.4662 66.1714C62.1095 65.7658 60.8066 65.1982 59.5858 64.4809C58.9217 64.1308 58.3148 63.6815 57.7858 63.1488C57.5281 62.8908 57.3302 62.5793 57.2063 62.2364C57.0824 61.8935 57.0355 61.5275 57.0688 61.1643L56.5048 61.4883C58.7773 62.8729 61.3978 63.6109 64.0048 64.0384C66.8637 64.5094 69.7542 64.6159 72.6477 64.6489C74.2977 64.6669 75.9477 64.5919 77.5902 64.5859C78.0717 64.5844 78.0717 63.8344 77.5887 63.8374Z" fill="#222221"/>
<path d="M77.4887 61.6368C75.4802 61.3833 73.4297 61.2243 71.4077 60.9618C68.4812 60.6093 65.5472 60.1743 62.6852 59.4618C59.8516 58.7433 56.9851 57.7413 54.8206 56.0298C54.6286 55.8798 54.4441 55.7163 54.2701 55.5513C53.9101 56.1903 53.9956 57.0243 54.3781 57.7008C54.9924 58.6593 55.7799 59.4951 56.7001 60.1653C58.6366 61.6128 61.2542 62.5098 63.9452 63.0288C66.6362 63.5478 69.4622 63.7383 72.2597 63.8058C74.0327 63.8763 75.7937 63.8163 77.5757 63.8433L77.4887 61.6368Z" fill="white"/>
<path d="M77.4886 61.2616C75.8386 61.0561 74.1886 60.9121 72.5386 60.7246C70.8886 60.5371 69.2806 60.3301 67.6606 60.0721C64.5871 59.5861 61.4836 58.9456 58.5976 57.7546C57.1366 57.1546 55.6921 56.3686 54.5296 55.2841C54.4887 55.2445 54.4393 55.2148 54.3852 55.1969C54.3312 55.1791 54.2737 55.1735 54.2172 55.1809C54.1608 55.1882 54.1066 55.2082 54.0589 55.2394C54.0112 55.2704 53.9712 55.3118 53.9416 55.3606C53.0491 57.0106 54.4546 58.6921 55.6186 59.7616C56.8696 60.9121 58.3831 61.7116 59.9686 62.3116C61.6486 62.9242 63.388 63.359 65.1586 63.6091C67.0776 63.8945 69.0112 64.0712 70.9501 64.1386C72.0511 64.1821 73.1536 64.2136 74.2501 64.2151C75.3466 64.2166 76.4671 64.2016 77.5741 64.2151C77.6734 64.2146 77.7686 64.175 77.8388 64.1048C77.909 64.0346 77.9486 63.9394 77.9491 63.8401L77.8636 61.6336C77.8456 61.1521 77.0956 61.1506 77.1136 61.6336L77.1991 63.8401L77.5741 63.4651C75.6796 63.4381 73.7866 63.4651 71.8921 63.4171C70.0351 63.3661 68.1781 63.2581 66.3331 63.0271C64.5967 62.825 62.8822 62.4659 61.2106 61.9546C59.6956 61.4746 58.2196 60.8206 56.9341 59.8741C56.2218 59.3546 55.59 58.733 55.0591 58.0291C54.7854 57.6983 54.5836 57.3142 54.4666 56.9011C54.3652 56.5102 54.4101 56.0957 54.5926 55.7356L54.0046 55.8121C56.1841 57.8446 59.1556 58.9021 61.9831 59.6611C65.2006 60.5251 68.5096 60.9781 71.8096 61.3846C73.7011 61.6171 75.6001 61.7716 77.4886 62.0086C77.5879 62.0081 77.6831 61.9685 77.7533 61.8983C77.8235 61.8281 77.8632 61.7329 77.8636 61.6336C77.8606 61.5353 77.8199 61.442 77.7502 61.3729C77.6804 61.3037 77.5869 61.2638 77.4886 61.2616Z" fill="#222221"/>
<path d="M74.9996 59.3146C70.5086 58.4491 66.1001 57.2956 61.9091 55.7071C59.0996 54.5836 56.2496 53.2396 54.3731 51.1501C54.2741 51.0316 54.1781 50.9101 54.0866 50.7856C53.4476 51.3616 53.1866 52.0591 53.5871 52.8436C53.9516 53.8306 54.6461 54.7531 55.5851 55.5436C57.4901 57.1261 60.1886 58.1491 62.9351 58.8916C65.7026 59.6341 68.5916 60.1141 71.4851 60.5146C73.1351 60.7591 75.7646 61.1026 77.4326 61.3186C76.1036 60.6676 75.3701 60.0151 74.9996 59.3146Z" fill="white"/>
<path d="M75.1037 58.9499C72.0272 58.3656 68.9847 57.6144 65.9897 56.6999C63.2042 55.8404 60.4037 54.8579 57.8702 53.3999C56.5997 52.6679 55.2992 51.7739 54.4112 50.5874C54.3812 50.5391 54.3407 50.4981 54.2928 50.4672C54.245 50.4365 54.191 50.4168 54.1346 50.4095C54.0782 50.4021 54.0209 50.4074 53.9667 50.4249C53.9126 50.4425 53.8631 50.4719 53.8217 50.5109C53.4669 50.8112 53.2064 51.2075 53.0717 51.6524C52.9704 52.0947 53.0234 52.5582 53.2217 52.9664C53.5565 53.828 54.0674 54.6101 54.7217 55.2629C56.0402 56.6054 57.7862 57.4859 59.5217 58.1684C63.4187 59.6999 67.5962 60.3194 71.7002 60.9134C73.6082 61.1894 75.5192 61.4369 77.4317 61.6844C77.8007 61.7324 77.9417 61.1414 77.6207 60.9854C76.7297 60.5519 75.7907 60.0014 75.3257 59.1254C75.0977 58.6979 74.4512 59.0774 74.6777 59.5034C75.2132 60.5099 76.2482 61.1534 77.2412 61.6334L77.4317 60.9344C73.8677 60.4739 70.2857 60.0434 66.7562 59.3669C64.7741 59.0073 62.8194 58.5105 60.9062 57.8804C59.2172 57.3059 57.5372 56.5754 56.1062 55.4804C55.3215 54.8997 54.6699 54.1583 54.1952 53.3054C54.0872 53.1044 54.0047 52.8974 53.9147 52.6889C53.8197 52.5024 53.7656 52.2978 53.7557 52.0889C53.7557 51.6614 54.0377 51.3164 54.3377 51.0389L53.7482 50.9624C54.5822 52.0769 55.7132 52.9544 56.8847 53.6894C58.1022 54.431 59.3772 55.0736 60.6977 55.6109C63.5747 56.8259 66.5882 57.7334 69.6107 58.4999C71.3582 58.9424 73.1192 59.3279 74.8892 59.6699C74.9852 59.6937 75.0866 59.6798 75.1727 59.6309C75.2586 59.5821 75.3225 59.502 75.3512 59.4074C75.3759 59.3139 75.3641 59.2146 75.3182 59.1296C75.2721 59.0445 75.1955 58.9803 75.1037 58.9499Z" fill="#222221"/>
<path d="M83.0854 70.4116C83.4424 70.5061 83.7994 70.5961 84.1594 70.6741C86.3179 71.2051 88.6594 71.5306 91.0459 71.3506C91.9181 71.2867 92.7852 71.164 93.6409 70.9831C93.0124 71.8216 91.8199 72.4726 90.5164 72.8791C88.9064 73.4221 87.2036 73.6358 85.5094 73.5076C84.6552 73.4374 83.8093 73.2867 82.9834 73.0576L83.0854 70.4116Z" fill="white"/>
<path d="M82.9859 70.7731C85.7009 71.4871 88.4879 71.9446 91.3019 71.7046C92.1209 71.6335 92.9348 71.5133 93.7394 71.3446L93.3164 70.8001C92.9498 71.2421 92.4971 71.605 91.9859 71.8666C91.3817 72.1873 90.7452 72.4427 90.0869 72.6286C88.6518 73.0703 87.1479 73.2452 85.6499 73.1446C84.7821 73.0759 83.9228 72.9251 83.0834 72.6946L83.3594 73.0561L83.4614 70.4161C83.4809 69.9331 82.7309 69.9346 82.7114 70.4161L82.6094 73.0561C82.6098 73.138 82.6368 73.2175 82.6863 73.2826C82.7358 73.3478 82.8051 73.3952 82.8839 73.4176C84.4619 73.8629 86.1084 74.0129 87.7409 73.8601C89.2769 73.6981 90.8594 73.3066 92.2319 72.5836C92.9051 72.2458 93.4967 71.7658 93.9659 71.1766C94.1819 70.8931 93.8264 70.5661 93.5414 70.6246C90.8549 71.1856 88.1174 71.1211 85.4339 70.5811C84.6839 70.4311 83.9339 70.2496 83.1839 70.0546C82.7174 69.9271 82.5179 70.6501 82.9859 70.7731Z" fill="#222221"/>
<path d="M83.2175 67.026C84.3785 67.1835 85.541 67.3635 86.717 67.5105C89.2265 67.8345 91.832 68.0235 94.46 67.7715C96.6803 67.5747 98.8501 66.9967 100.874 66.063C100.817 66.5715 100.472 67.0845 99.9485 67.5255C99.2855 68.1255 98.2985 68.556 97.316 69.0105C95.318 69.9311 93.1819 70.5155 90.9935 70.74C88.763 70.956 86.5205 70.7055 84.3755 70.2315C83.951 70.14 83.528 70.041 83.1035 69.9405L83.2175 67.026Z" fill="white"/>
<path d="M83.1165 67.3875C85.5165 67.713 87.9045 68.1015 90.3165 68.2215C92.6985 68.34 95.106 68.214 97.4295 67.656C98.678 67.3572 99.8928 66.932 101.055 66.387L100.5 66.063C100.437 66.552 100.035 66.954 99.684 67.263C99.2606 67.6112 98.7948 67.9044 98.298 68.136C97.2278 68.6781 96.1188 69.14 94.98 69.5175C92.5734 70.3068 90.0303 70.5927 87.5085 70.3575C86.0575 70.2 84.6195 69.9404 83.205 69.5805L83.4795 69.942L83.5935 67.0275C83.6115 66.5445 82.8615 66.5445 82.8435 67.0275L82.7295 69.942C82.7302 70.0241 82.7575 70.1036 82.8073 70.1687C82.8571 70.2339 82.9266 70.2812 83.0055 70.3035C85.6785 70.9365 88.38 71.379 91.1325 71.103C93.7395 70.8405 96.2145 69.993 98.5575 68.8425C99.699 68.2815 101.072 67.449 101.258 66.0645C101.297 65.754 100.917 65.6355 100.694 65.7405C96.498 67.7085 91.8 67.7445 87.2865 67.2C85.9605 67.0425 84.6405 66.8385 83.316 66.6585C83.2204 66.6354 83.1196 66.6495 83.0341 66.698C82.9486 66.7464 82.8847 66.8256 82.8555 66.9195C82.8075 67.101 82.9155 67.359 83.1165 67.3875Z" fill="#222221"/>
<path d="M83.3269 64.2121C85.0849 64.2121 86.8684 64.3051 88.6384 64.2691C91.4599 64.2496 94.3189 64.1191 97.1389 63.6226C99.6409 63.1876 102.161 62.4226 104.223 61.1641C104.299 61.822 104.12 62.4838 103.722 63.0136C103.181 63.7846 102.282 64.3891 101.229 64.9636C99.2584 66.1321 96.8659 66.8761 94.3789 67.1596C91.8919 67.4431 89.3434 67.3201 86.8489 67.0486C85.6489 66.9226 84.4489 66.7606 83.2324 66.6211L83.3269 64.2121Z" fill="white"/>
<path d="M83.3269 64.5873C84.7894 64.5873 86.2519 64.6533 87.7159 64.6533C89.1484 64.6533 90.5839 64.6263 92.0149 64.5513C94.8154 64.4013 97.6445 64.0728 100.335 63.2598C101.764 62.8438 103.135 62.2486 104.414 61.4883L103.848 61.1643C103.882 61.4862 103.851 61.8115 103.756 62.1208C103.661 62.4301 103.504 62.7171 103.295 62.9643C102.872 63.4543 102.371 63.8709 101.811 64.1973C100.608 64.9606 99.3146 65.5722 97.961 66.0183C94.9879 66.9753 91.8394 67.0773 88.7464 66.8538C86.9014 66.7203 85.0699 66.4623 83.2324 66.2538L83.6074 66.6288L83.7019 64.2153C83.7199 63.7323 82.9699 63.7338 82.9519 64.2153L82.8574 66.6288C82.8597 66.7275 82.8999 66.8215 82.9698 66.8914C83.0397 66.9612 83.1337 67.0015 83.2324 67.0038C86.5879 67.3878 89.9374 67.8798 93.3244 67.6398C94.9014 67.5397 96.4615 67.2589 97.9744 66.8028C99.3948 66.3511 100.755 65.728 102.024 64.9473C103.382 64.1268 104.771 62.9133 104.598 61.1673C104.597 61.1019 104.579 61.0378 104.546 60.9814C104.512 60.9252 104.465 60.8784 104.408 60.8458C104.351 60.8131 104.287 60.7959 104.222 60.7954C104.156 60.795 104.092 60.8115 104.034 60.8433C101.805 62.2023 99.2345 62.9073 96.6844 63.3258C93.8794 63.7833 91.0399 63.8763 88.2034 63.9033C86.5789 63.9198 84.9574 63.8463 83.3344 63.8403C82.8439 63.8343 82.8424 64.5843 83.3269 64.5873Z" fill="#222221"/>
<path d="M83.4253 61.6368C85.4353 61.3833 87.4858 61.2243 89.5063 60.9618C92.4343 60.6093 95.3668 60.1743 98.2288 59.4618C101.064 58.7433 103.929 57.7413 106.095 56.0298C106.285 55.8798 106.47 55.7163 106.645 55.5513C107.005 56.1903 106.92 57.0243 106.537 57.7008C105.924 58.6597 105.137 59.496 104.217 60.1668C102.28 61.6143 99.6628 62.5113 96.9718 63.0303C94.2808 63.5493 91.4548 63.7398 88.6573 63.8073C86.8828 63.8778 85.1233 63.8178 83.3398 63.8448L83.4253 61.6368Z" fill="white"/>
<path d="M83.4253 62.0115C85.1083 61.8015 86.7974 61.656 88.4819 61.4625C90.1664 61.269 91.8239 61.0545 93.4859 60.7905C96.5999 60.3 99.7499 59.6385 102.678 58.4085C104.203 57.7665 105.691 56.952 106.911 55.815L106.321 55.7385C106.687 56.418 106.44 57.1905 106.032 57.786C105.576 58.4384 105.034 59.0258 104.419 59.532C103.219 60.54 101.767 61.2435 100.291 61.761C96.9014 62.949 93.2414 63.2715 89.6788 63.399C87.5653 63.4755 85.4548 63.4365 83.3398 63.468L83.7148 63.843L83.8003 61.6365C83.8198 61.1535 83.0698 61.155 83.0503 61.6365L82.9648 63.843C82.966 63.9422 83.0059 64.0368 83.076 64.1069C83.146 64.1769 83.2407 64.2168 83.3398 64.218C85.3078 64.1895 87.2729 64.218 89.2409 64.164C91.1928 64.1154 93.141 63.9653 95.0774 63.714C98.4809 63.2535 102.066 62.382 104.797 60.1875C105.544 59.589 106.196 58.881 106.731 58.0875C107.268 57.285 107.44 56.2335 106.969 55.359C106.94 55.3101 106.9 55.2684 106.852 55.2371C106.804 55.2059 106.75 55.1858 106.693 55.1784C106.636 55.1711 106.579 55.1766 106.525 55.1946C106.47 55.2126 106.421 55.2428 106.38 55.2825C105.342 56.2515 104.079 56.9685 102.789 57.5475C101.446 58.1319 100.057 58.6059 98.6369 58.965C95.4794 59.805 92.2334 60.2565 88.9948 60.6495C87.1408 60.876 85.2793 61.0275 83.4253 61.26C83.3268 61.263 83.2332 61.3035 83.1636 61.3731C83.0938 61.4429 83.0533 61.5365 83.0503 61.635C83.0503 61.7346 83.0898 61.8302 83.1601 61.9007C83.2303 61.9713 83.3257 62.0111 83.4253 62.0115Z" fill="#222221"/>
<path d="M85.9114 59.3148C90.4024 58.4493 94.8094 57.2958 99.0019 55.7073C101.819 54.5838 104.669 53.2398 106.541 51.1443C106.641 51.0262 106.737 50.9047 106.829 50.7798C107.468 51.3558 107.729 52.0533 107.328 52.8378C106.962 53.8248 106.268 54.7473 105.33 55.5378C103.425 57.1203 100.725 58.1433 97.9804 58.8858C95.2144 59.6283 92.3254 60.1083 89.4304 60.5088C87.7804 60.7533 85.1509 61.0968 83.4844 61.3128C84.8119 60.6678 85.5439 60.0153 85.9114 59.3148Z" fill="white"/>
<path d="M86.0104 59.6763C89.1452 59.0836 92.2445 58.3164 95.2939 57.3783C98.1289 56.4963 100.994 55.4823 103.56 53.9718C104.901 53.1843 106.212 52.2243 107.151 50.9718L106.563 51.0483C106.829 51.2913 107.087 51.5928 107.138 51.9648C107.189 52.3368 107 52.6983 106.848 53.0253C106.468 53.8173 105.93 54.5227 105.266 55.0983C103.947 56.2788 102.266 57.0588 100.625 57.6633C96.8614 59.0448 92.8639 59.6388 88.9129 60.2133C87.1039 60.4743 85.2934 60.7098 83.4814 60.9438L83.6704 61.6428C84.6649 61.1583 85.6999 60.5193 86.2354 59.5128C86.4619 59.0868 85.8139 58.7073 85.5874 59.1348C85.1209 60.0108 84.1834 60.5613 83.2924 60.9948C82.9714 61.1448 83.1109 61.7448 83.4814 61.6938C85.2094 61.4703 86.9389 61.2438 88.6639 61.0008C90.6859 60.7158 92.7139 60.4263 94.7119 60.0303C96.746 59.6523 98.7482 59.1198 100.701 58.4373C102.47 57.7983 104.234 56.9808 105.671 55.7448C106.475 55.071 107.118 54.2245 107.55 53.2683C107.76 52.7808 107.949 52.3263 107.858 51.7833C107.774 51.2823 107.454 50.8503 107.087 50.5143C107.046 50.4753 106.996 50.4459 106.942 50.4283C106.888 50.4109 106.831 50.4055 106.775 50.4129C106.718 50.4202 106.664 50.44 106.617 50.4708C106.569 50.5015 106.529 50.5425 106.499 50.5908C105.71 51.6408 104.585 52.4643 103.472 53.1408C102.284 53.851 101.042 54.4689 99.7594 54.9888C96.9259 56.1708 93.9544 57.0528 90.9799 57.8028C89.2669 58.2348 87.5404 58.6113 85.8049 58.9473C85.7095 58.9743 85.6286 59.0377 85.5797 59.124C85.531 59.2101 85.5181 59.3121 85.5439 59.4078C85.5703 59.5051 85.6342 59.5882 85.7216 59.6385C85.8091 59.6889 85.9129 59.7024 86.0104 59.6763Z" fill="#222221"/>
<path d="M87.9093 69.0737C87.4472 68.4536 86.7587 68.0411 85.9938 67.9262C84.0318 67.6262 82.6263 68.5832 81.9273 68.8517C81.2283 69.1202 81.9393 69.9452 82.2123 70.0517C82.4853 70.1582 84.3798 71.1437 85.3938 71.5517C86.1048 71.8322 87.1623 71.8637 87.8583 71.2922C89.7753 72.3422 91.9653 74.0627 91.3848 76.3127C91.2933 76.7069 91.1181 77.0768 90.8709 77.3974C90.6237 77.7178 90.3104 77.9812 89.9523 78.1697C88.1658 79.1522 84.8838 78.7442 82.7268 78.2747L81.3768 77.9252L81.0873 77.8457C79.5123 77.4287 76.0548 76.7732 73.4763 78.1457C72.0528 78.9062 71.1108 80.1482 70.6743 81.8387C70.2378 83.5292 70.4598 85.0337 71.3598 86.3387C72.4653 87.9377 75.0573 89.0387 77.0928 89.6822C75.7788 90.4693 74.7818 91.6915 74.2746 93.1367C73.7673 94.582 73.7822 96.1592 74.3162 97.5947C74.8502 99.0304 75.8699 100.234 77.1984 100.996C78.5268 101.759 80.0802 102.032 81.5892 101.769C83.0981 101.506 84.4673 100.723 85.4594 99.5555C86.4513 98.3885 87.0036 96.911 87.0203 95.3795C87.0369 93.8479 86.5169 92.3588 85.5504 91.1705C84.5841 89.9821 83.2322 89.1695 81.7293 88.8737C81.2373 88.7027 80.7663 88.5737 80.3703 88.4777L77.9523 87.8537C76.1433 87.3032 73.8453 86.4047 73.0023 85.2197C72.4278 84.4052 72.3123 83.4512 72.5988 82.3397C72.8988 81.1952 73.4883 80.3987 74.4123 79.9052C75.9123 79.1072 77.8503 79.2482 79.6128 79.5467C81.3753 79.8452 87.1218 82.1507 90.9138 79.9157C92.1303 79.1987 92.9583 78.1907 93.3138 76.8122C94.3323 72.8447 90.4503 70.2887 87.9093 69.0737ZM80.4288 90.9737C80.5173 90.9737 80.6058 90.9737 80.6928 90.9827H80.7888L80.9058 90.9932C80.9628 90.9932 81.0183 91.0067 81.0738 91.0157H81.1068C81.2268 91.0337 81.3468 91.0547 81.4623 91.0832H81.4758C82.1511 91.2506 82.7768 91.577 83.3004 92.0353C83.8241 92.4934 84.2307 93.0701 84.4863 93.7172C84.4863 93.7352 84.4998 93.7547 84.5073 93.7727C84.5148 93.7907 84.5328 93.8417 84.5448 93.8777C84.5568 93.9137 84.5553 93.9077 84.5598 93.9227C84.8552 94.7975 84.8652 95.7434 84.5886 96.6244C84.312 97.5053 83.763 98.2757 83.0207 98.8247C82.2785 99.3737 81.381 99.6731 80.4578 99.6796C79.5345 99.6862 78.6329 99.3995 77.8829 98.861C77.1329 98.3225 76.5731 97.5599 76.2842 96.683C75.9951 95.8061 75.9918 94.8602 76.2747 93.9812C76.5576 93.1024 77.112 92.3359 77.8583 91.7923C78.6045 91.2485 79.5041 90.9556 80.4273 90.9557L80.4288 90.9737Z" fill="white"/>
<path d="M88.174 68.808C87.8345 68.3685 87.3905 68.0209 86.8825 67.797C86.2414 67.5402 85.5478 67.4413 84.8605 67.509C84.2777 67.5561 83.7049 67.6869 83.1595 67.8975C82.744 68.0565 82.3495 68.256 81.9445 68.439L81.8365 68.487C81.925 68.4495 81.802 68.502 81.781 68.5095C81.6451 68.5608 81.5236 68.6442 81.427 68.7525C81.3434 68.8563 81.2879 68.9796 81.2656 69.1108C81.2432 69.2422 81.2549 69.3769 81.2995 69.5025C81.3809 69.7329 81.5138 69.9417 81.688 70.113C81.7604 70.1871 81.8404 70.2534 81.9265 70.311C81.965 70.3356 82.0057 70.3566 82.048 70.374C82.075 70.386 82.2115 70.452 82.072 70.383C82.867 70.779 83.6665 71.1705 84.472 71.541C85.024 71.7945 85.561 72.0345 86.173 72.0915C86.8702 72.1693 87.5701 71.9712 88.123 71.5395L87.673 71.598C88.738 72.18 89.8405 72.8985 90.541 73.914C90.8689 74.3629 91.0634 74.8954 91.102 75.45C91.1219 76.0456 90.9454 76.6312 90.5995 77.1165C89.9245 78.066 88.6285 78.3015 87.5395 78.366C86.2402 78.42 84.9391 78.3193 83.6635 78.066C82.8223 77.9178 81.9913 77.7174 81.175 77.466C81.1193 77.4514 81.0613 77.4496 81.0049 77.4609C80.9485 77.4721 80.8954 77.4961 80.8498 77.5311C80.804 77.5659 80.7668 77.6107 80.7412 77.662C80.7154 77.7135 80.7016 77.77 80.701 77.8275L81.175 77.466C78.277 76.7025 74.674 76.4655 72.2335 78.516C70.9315 79.6125 70.2235 81.2985 70.0915 82.971C70.0195 83.8227 70.1506 84.6795 70.4741 85.4706C70.7978 86.2618 71.3047 86.9649 71.953 87.522C73.384 88.737 75.2125 89.4585 76.9825 90.024L76.8925 89.3385C75.7102 90.0456 74.7655 91.0891 74.1793 92.3359C73.5931 93.5826 73.3919 94.9758 73.6015 96.3375C73.9735 98.865 75.8215 101.017 78.2215 101.848C79.8883 102.417 81.7091 102.329 83.3137 101.604C84.9184 100.878 86.1865 99.5685 86.8604 97.9416C87.5345 96.3145 87.5638 94.4919 86.9423 92.8441C86.3209 91.1962 85.0955 89.8468 83.515 89.07C83.2097 88.9209 82.8944 88.7931 82.5715 88.6875C82.2535 88.584 81.925 88.5255 81.6085 88.422C81.229 88.2975 80.845 88.191 80.458 88.0965L80.7205 88.557C80.7455 88.4611 80.732 88.3593 80.683 88.2733C80.6339 88.1872 80.5532 88.1238 80.458 88.0965C80.113 88.029 79.7695 87.918 79.429 87.831C78.979 87.7155 78.538 87.6045 78.094 87.486C77.384 87.289 76.688 87.045 76.0105 86.7555C75.2605 86.445 74.4835 86.076 73.852 85.5555C73.5518 85.3239 73.3045 85.0309 73.1263 84.6963C72.9481 84.3616 72.8431 83.9928 72.8185 83.6145C72.7783 82.741 73.0207 81.8778 73.51 81.153C74.542 79.653 76.636 79.566 78.2725 79.722C78.9163 79.7787 79.5548 79.8855 80.182 80.0415C80.7565 80.1915 81.3265 80.3505 81.901 80.4915C83.422 80.88 84.9805 81.1905 86.551 81.228C88.201 81.2685 89.9215 80.982 91.33 80.0655C92.062 79.6116 92.6725 78.9861 93.1087 78.2434C93.5447 77.5006 93.7936 76.6629 93.8335 75.8025C94.021 72.723 91.3675 70.494 88.912 69.159C88.64 69.012 88.3649 68.872 88.087 68.739C88.0006 68.6908 87.8989 68.6779 87.8033 68.7031C87.7076 68.7283 87.6254 68.7895 87.574 68.874C87.5246 68.9601 87.5111 69.0622 87.5363 69.1581C87.5617 69.2541 87.6236 69.3363 87.709 69.387C88.9285 69.972 90.109 70.68 91.1065 71.5965C92.104 72.513 92.959 73.734 93.076 75.117C93.1432 75.9031 93.0085 76.6933 92.6848 77.4127C92.3611 78.1323 91.8592 78.7572 91.2265 79.2285C89.902 80.199 88.2715 80.5065 86.659 80.481C85.1125 80.4555 83.5885 80.1495 82.096 79.7685C81.5155 79.6185 80.941 79.458 80.362 79.3095C79.6949 79.1467 79.0165 79.0344 78.3325 78.9735C76.558 78.7965 74.4325 78.9405 73.1665 80.3715C72.004 81.687 71.6125 83.943 72.6895 85.4175C73.1605 86.064 73.8535 86.52 74.551 86.892C75.3649 87.3105 76.2118 87.6616 77.083 87.942C78.0235 88.26 78.9925 88.482 79.954 88.7295C80.053 88.755 80.1535 88.788 80.254 88.8075L79.993 88.347C79.9684 88.4425 79.9817 88.5441 80.0305 88.63C80.0792 88.7158 80.1593 88.7794 80.254 88.8075C80.629 88.899 81.004 89.0025 81.37 89.121C81.682 89.223 82.0045 89.2845 82.318 89.3835C82.8607 89.5576 83.3762 89.8071 83.8495 90.1245C84.9391 90.84 85.7744 91.8816 86.2363 93.1005C86.6981 94.3194 86.7628 95.653 86.4209 96.9108C86.0792 98.1687 85.3484 99.2862 84.3332 100.104C83.318 100.921 82.0703 101.397 80.7685 101.462C79.4668 101.528 78.1775 101.18 77.0852 100.469C75.9929 99.7581 75.1534 98.7196 74.6869 97.5027C74.2202 96.2856 74.1503 94.9521 74.4872 93.693C74.8241 92.4339 75.5504 91.3134 76.5625 90.492C76.7882 90.3079 77.0275 90.141 77.278 89.9925C77.3399 89.9541 77.3896 89.8987 77.4209 89.8329C77.4523 89.767 77.464 89.6935 77.4547 89.6212C77.4452 89.5489 77.4152 89.4808 77.3683 89.425C77.3213 89.3694 77.2592 89.3284 77.1895 89.307C75.7105 88.8345 74.2255 88.257 72.949 87.357C72.3581 86.9586 71.8582 86.4397 71.482 85.8345C71.0792 85.1562 70.8557 84.3865 70.8325 83.598C70.789 82.0815 71.347 80.46 72.427 79.3755C73.507 78.291 75.04 77.808 76.549 77.709C78.0437 77.6331 79.541 77.7987 80.983 78.1995C81.0386 78.2137 81.0968 78.2152 81.1531 78.2038C81.2095 78.1924 81.2624 78.1684 81.3082 78.1336C81.3539 78.099 81.3911 78.0543 81.4172 78.0031C81.4432 77.9518 81.4573 77.8954 81.4585 77.838L80.983 78.1995C81.7322 78.427 82.4939 78.6109 83.2645 78.75C84.6356 79.0368 86.0359 79.1605 87.436 79.119C88.72 79.056 90.172 78.783 91.051 77.7525C91.4875 77.2294 91.757 76.5876 91.825 75.9097C91.8928 75.2319 91.756 74.5492 91.432 73.95C90.7225 72.6 89.3485 71.6655 88.0465 70.95C87.9745 70.9122 87.8926 70.8976 87.8119 70.9084C87.7313 70.9192 87.656 70.9546 87.5965 71.01C87.226 71.31 86.719 71.379 86.26 71.3475C85.8469 71.3007 85.4456 71.1802 85.075 70.992C84.277 70.635 83.4985 70.2345 82.711 69.855C82.5925 69.798 82.4725 69.744 82.351 69.6915C82.3345 69.6915 82.2955 69.66 82.342 69.6915C82.3885 69.723 82.3135 69.669 82.2985 69.6585C82.3585 69.699 82.282 69.642 82.2625 69.624C82.2266 69.5904 82.1926 69.5548 82.1605 69.5175C82.1179 69.4672 82.0813 69.4125 82.051 69.354C82.0225 69.3136 82.0073 69.2653 82.0075 69.216C82.0165 69.162 82.0075 69.2715 82.0075 69.216C82.0075 69.1605 82.0075 69.216 82.0075 69.2295C82.0075 69.243 82.0075 69.2295 82.0195 69.2205C82.0939 69.1809 82.1711 69.1468 82.2505 69.1185C83.023 68.7795 83.716 68.4195 84.568 68.2875C85.1836 68.1804 85.8158 68.2204 86.413 68.4045C86.9084 68.5852 87.3394 68.9083 87.652 69.333C87.7229 69.4024 87.8182 69.4413 87.9175 69.4413C88.0168 69.4413 88.112 69.4024 88.183 69.333C88.2481 69.2605 88.2833 69.1662 88.2817 69.0687C88.28 68.9713 88.2415 68.8782 88.174 68.808Z" fill="#222221"/>
<path d="M80.4292 91.3502C81.2229 91.3496 81.9987 91.586 82.6572 92.0291C83.3157 92.4722 83.8269 93.1018 84.1252 93.8372C84.142 93.8917 84.1707 93.9418 84.2092 93.9838C84.2478 94.0259 84.2953 94.0588 84.3481 94.0802C84.4009 94.1015 84.4579 94.111 84.5149 94.1075C84.5718 94.1042 84.6273 94.0882 84.6772 94.0607L84.1252 93.8357C84.4189 94.5901 84.4867 95.4136 84.3202 96.2057C84.1569 96.9395 83.7894 97.6121 83.2602 98.1461C82.7311 98.6801 82.0618 99.0538 81.3295 99.2239C80.5972 99.3938 79.8318 99.3536 79.1215 99.1075C78.4111 98.8613 77.7847 98.4196 77.3146 97.8329C76.8445 97.2463 76.5498 96.5387 76.4644 95.7919C76.3791 95.0449 76.5064 94.289 76.8321 93.6115C77.1576 92.9339 77.668 92.3621 78.3045 91.9619C78.9409 91.5619 79.6774 91.3498 80.4292 91.3502C80.9107 91.3502 80.9122 90.6002 80.4292 90.6002C79.6599 90.6055 78.903 90.7955 78.2224 91.1545C77.5419 91.5134 76.9575 92.0306 76.5187 92.6627C76.1331 93.2285 75.8748 93.8713 75.7615 94.5464C75.6483 95.2217 75.6828 95.9135 75.8628 96.5743C76.0428 97.2349 76.3638 97.8487 76.8039 98.3732C77.244 98.8978 77.7925 99.3208 78.4117 99.6128C79.0311 99.9049 79.7064 100.059 80.391 100.065C81.0757 100.071 81.7536 99.9283 82.3777 99.6469C83.002 99.3655 83.5578 98.9522 84.0069 98.4352C84.4558 97.9183 84.7875 97.3102 84.9787 96.6527C85.2594 95.6593 85.2141 94.6021 84.8497 93.6362C84.8334 93.5816 84.805 93.5314 84.7666 93.4892C84.7282 93.4469 84.681 93.4139 84.628 93.3925C84.5752 93.371 84.5182 93.3617 84.4614 93.3652C84.4045 93.3688 84.349 93.385 84.2992 93.4127L84.8512 93.6362C84.5031 92.756 83.907 91.9958 83.1352 91.4477C82.3461 90.8896 81.4018 90.5926 80.4352 90.5987C79.9507 90.5897 79.9507 91.3397 80.4292 91.3502Z" fill="#222221"/>
<path d="M78.9887 69.3C78.2897 69.0315 76.8887 68.0775 74.9222 68.3745C74.1572 68.4891 73.4687 68.9016 73.0067 69.522C70.4687 70.737 66.5822 73.293 67.6067 77.247C67.9622 78.6255 68.7917 79.6335 70.0067 80.3505C70.1777 80.451 70.3532 80.538 70.5317 80.6205C70.823 79.9602 71.2804 79.3866 71.8592 78.9555C71.5466 78.8745 71.2445 78.7572 70.9592 78.606C70.6013 78.4172 70.2881 78.1538 70.0411 77.8334C69.7938 77.513 69.6185 77.1431 69.5267 76.749C68.9462 74.499 71.1362 72.774 73.0547 71.7285C73.7492 72.3 74.8067 72.2685 75.5177 71.988C76.5332 71.586 78.4262 70.5945 78.6992 70.488C78.9722 70.3815 79.6862 69.5715 78.9887 69.3Z" fill="white"/>
<path d="M79.0873 68.9403C79.0708 68.9403 78.9868 68.8998 79.0768 68.9403L78.9973 68.9058L78.8473 68.8383L78.4828 68.6643C78.1698 68.5159 77.8494 68.3838 77.5228 68.2683C76.7196 67.9854 75.8622 67.89 75.0163 67.9893C74.178 68.0823 73.4052 68.4864 72.8503 69.1218C72.7701 69.216 72.6667 69.2878 72.5503 69.3303C72.4108 69.3993 72.2728 69.4713 72.1348 69.5448C71.8539 69.6937 71.5779 69.8497 71.3068 70.0128C70.1293 70.7283 69.0253 71.6013 68.1973 72.7128C67.3191 73.8529 66.9291 75.2949 67.1129 76.7222C67.2326 77.6213 67.5813 78.4745 68.1254 79.2002C68.7098 79.9553 69.4698 80.5564 70.3393 80.9507C70.4257 80.9989 70.5274 81.0118 70.623 80.9866C70.7187 80.9614 70.8009 80.9002 70.8523 80.8157C71.0116 80.4598 71.2197 80.1275 71.4703 79.8287C71.5677 79.7146 71.6719 79.6064 71.7823 79.5047C71.8318 79.4582 71.8843 79.4132 71.9323 79.3697L72.0058 79.3097C71.9578 79.3472 72.0283 79.2932 72.0403 79.2842C72.1018 79.2455 72.151 79.19 72.1819 79.1243C72.2128 79.0586 72.2242 78.9854 72.2148 78.9134C72.2053 78.8413 72.1753 78.7735 72.1284 78.718C72.0816 78.6625 72.0198 78.6217 71.9503 78.6002C71.3383 78.4277 70.7578 78.1427 70.3528 77.6372C69.9972 77.1749 69.8047 76.6079 69.8053 76.0247C69.8053 74.8547 70.6483 73.9008 71.5063 73.1958C72.0486 72.7642 72.6295 72.3835 73.2418 72.0588L72.7918 72.0003C73.08 72.223 73.41 72.3856 73.7623 72.4783C74.1145 72.5712 74.4819 72.5922 74.8423 72.5403C75.4603 72.4653 76.0153 72.1998 76.5733 71.9403C77.1313 71.6808 77.6803 71.4078 78.2323 71.1363C78.4123 71.0478 78.5923 70.9593 78.7753 70.8738C78.7978 70.8633 78.8203 70.8558 78.8428 70.8438C78.6748 70.9308 78.9178 70.8123 78.9103 70.8168C79.0114 70.7614 79.1044 70.6923 79.1863 70.6113C79.4251 70.4025 79.5876 70.1202 79.6483 69.8088C79.7098 69.3858 79.4578 69.1023 79.0873 68.9448C78.9915 68.9194 78.8895 68.9326 78.8034 68.9818C78.7173 69.0309 78.6538 69.1119 78.6268 69.2073C78.603 69.3031 78.6166 69.4044 78.6652 69.4903C78.7138 69.5763 78.7935 69.6403 78.8878 69.6693C78.9328 69.6873 78.8983 69.6813 78.9343 69.7098C78.9163 69.6948 78.9163 69.6828 78.9058 69.6618C78.9208 69.6918 78.9058 69.7113 78.9058 69.6618C78.9058 69.6843 78.9058 69.7068 78.9058 69.7293C78.9058 69.7158 78.9208 69.6588 78.9058 69.7293C78.9058 69.7458 78.8953 69.7638 78.8878 69.7803C78.8803 69.7968 78.9013 69.7593 78.8713 69.8118C78.8326 69.8878 78.7819 69.9573 78.7213 70.0173C78.6883 70.0522 78.6538 70.0852 78.6178 70.1163C78.6178 70.1163 78.5698 70.1538 78.6073 70.1268C78.6448 70.0998 78.5818 70.1463 78.5743 70.1463C78.5188 70.1463 78.6298 70.1253 78.5743 70.1463L78.4498 70.2003L78.2878 70.2753C78.1108 70.3593 77.9368 70.4463 77.7613 70.5318C77.2948 70.7613 76.8268 70.9923 76.3558 71.2143C75.8848 71.4363 75.5068 71.6418 75.0253 71.7513C74.4673 71.8773 73.7863 71.8353 73.3243 71.4678C73.2648 71.4124 73.1895 71.377 73.1089 71.3662C73.0282 71.3554 72.9463 71.37 72.8743 71.4078C71.6743 72.0678 70.4653 72.8958 69.6943 74.0568C68.9233 75.2177 68.8378 76.7567 69.6523 77.9267C70.1593 78.6527 70.9213 79.0847 71.7613 79.3202L71.6713 78.6347C71.04 79.1015 70.5372 79.7207 70.2103 80.4347L70.7233 80.2997C70.0033 79.9771 69.3634 79.4992 68.8498 78.9002C68.3949 78.3436 68.0791 77.6863 67.9288 76.9832C67.6288 75.6917 67.9378 74.4333 68.6653 73.3473C69.3628 72.3078 70.3753 71.4858 71.4268 70.8183C71.9202 70.5052 72.4299 70.2189 72.9538 69.9603C73.0959 69.9069 73.224 69.8224 73.3288 69.7128C73.4377 69.5781 73.5577 69.4527 73.6873 69.3378C73.95 69.1033 74.2608 68.9292 74.5978 68.8278C75.4348 68.5728 76.3678 68.6778 77.1883 68.9358C77.7883 69.1248 78.3028 69.4278 78.8908 69.6588C78.9868 69.6843 79.0891 69.6709 79.1754 69.6219C79.2618 69.5728 79.3255 69.4918 79.3528 69.3963C79.3749 69.3007 79.3597 69.2004 79.3104 69.1158C79.261 69.031 79.1812 68.9683 79.0873 68.9403Z" fill="#222221"/>
</svg>
