<svg width="169" height="26" viewBox="0 0 169 26" fill="none" xmlns="http://www.w3.org/2000/svg">
<g clip-path="url(#clip0)">
<path d="M31.352 23.2312L16.2754 15.9714V0L31.352 23.2312ZM32.5507 26L16.2754 19.1286V26H32.5507Z" fill="#98002E"/>
<path d="M1.19922 23.2312L16.2758 0V15.9714L1.19922 23.2312Z" fill="#E31837"/>
<path d="M0 26H16.2753V19.1285L0 26Z" fill="#E31837"/>
<path d="M33.8673 21.2389C34.4583 21.2389 34.9479 21.7116 34.9479 22.3026C34.9479 22.8935 34.4751 23.3831 33.8842 23.3831C33.2933 23.3831 32.8037 22.9103 32.8037 22.3194C32.8037 21.7116 33.2764 21.2389 33.8673 21.2389ZM33.8673 23.2142C34.3738 23.2142 34.779 22.8091 34.779 22.3026C34.779 21.7961 34.3738 21.3909 33.8673 21.3909C33.3609 21.3909 32.9557 21.7961 32.9557 22.3026C32.9557 22.8091 33.3609 23.2142 33.8673 23.2142ZM33.631 22.9272H33.479V21.6948H33.9518C34.2388 21.6948 34.3401 21.8129 34.3401 22.0324C34.357 22.2181 34.205 22.3701 34.0362 22.387L34.4076 22.9272H34.2388L33.8673 22.387H33.6479L33.631 22.9272ZM33.631 22.235H33.8336C34.0024 22.235 34.1881 22.2181 34.1881 22.0155C34.1881 21.8636 34.0362 21.8129 33.918 21.8129H33.6479V22.235H33.631Z" fill="#98002E"/>
<path d="M45.2637 23.2311H52.5741C60.1039 23.2311 64.578 19.3312 64.578 12.8649C64.578 6.39869 60.1039 2.51557 52.5741 2.51557H45.2637V23.2311ZM49.8896 6.11167H52.5741C57.4533 6.11167 59.9013 8.52596 59.9013 12.8649C59.9013 17.2039 57.4533 19.6182 52.5741 19.6182H49.8896V6.11167Z" fill="#003D79"/>
<path d="M80.3138 14.2493H89.1099V10.6532H80.3138V6.11167H90.2579V2.51557H75.6709V23.2311H90.5787V19.635H80.3138V14.2493Z" fill="#003D79"/>
<path d="M116.949 19.635H108.018V2.51557H103.375V23.2311H116.949V19.635Z" fill="#003D79"/>
<path d="M141.936 2.51557H123.348V6.11167H130.304V23.2311H134.963V6.11167H141.936V2.51557Z" fill="#003D79"/>
<path d="M168.831 23.2311H163.986L161.96 18.048H153.535L151.509 23.2311H146.984L155.645 2.43115H160.322L168.831 23.2311ZM160.643 14.5701L157.756 7.20907L154.852 14.5701H160.643Z" fill="#003D79"/>
</g>
<defs>
<clipPath id="clip0">
<rect width="168.831" height="26" fill="white"/>
</clipPath>
</defs>
</svg>
