<svg width="200" height="200" viewBox="0 0 200 200" fill="none" xmlns="http://www.w3.org/2000/svg">
<path d="M120.895 47.4797C116.32 43.9797 113.145 39.4547 109.253 36.4097C105.895 33.7147 102.033 32.0997 96.2779 33.2122C92.5104 33.9422 89.0529 36.3922 86.9029 40.2297C82.3779 41.6872 78.6879 44.0247 76.1679 46.8647C69.5004 48.9797 65.3704 57.7322 67.6929 66.2422L72.7129 76.9797L72.6254 86.3047C72.5579 93.2822 78.0529 98.9997 84.8979 99.0722L110.12 99.3397C116.965 99.4122 122.565 93.8147 122.62 86.8397L122.713 76.8847C126.75 72.7797 133.405 57.0622 120.895 47.4797Z" fill="white"/>
<path d="M121.531 46.4027C121.729 46.5552 121.421 46.3152 121.411 46.3077L121.226 46.1602C121.074 46.0377 120.921 45.9102 120.771 45.7902C120.444 45.5152 120.121 45.2377 119.804 44.9527C119.231 44.4527 118.676 43.9177 118.131 43.3802C117.044 42.3102 115.999 41.1977 114.946 40.0927C112.984 38.0302 110.969 35.9977 108.611 34.3802C106.476 32.9037 104.007 31.981 101.426 31.6952C99.9119 31.5522 98.3854 31.6035 96.8839 31.8477C95.4617 32.0527 94.0759 32.4602 92.7689 33.0577C89.8214 34.3977 87.4114 36.8077 85.8264 39.5977L86.5764 39.0227C82.3489 40.3952 78.2739 42.6327 75.2889 45.9827L75.8414 45.6602C72.7864 46.6427 70.2988 48.7977 68.5913 51.4801C66.3301 55.1609 65.4008 59.5064 65.9588 63.7901C66.0263 64.3126 66.1038 64.8326 66.2088 65.3476C66.2818 65.8166 66.4006 66.2771 66.5638 66.7226C66.7288 67.1151 66.9188 67.4976 67.0988 67.8851L69.6638 73.3725C70.3139 74.76 70.9363 76.1625 71.6139 77.5375C71.6139 77.5625 71.6364 77.585 71.6464 77.61L71.4764 76.98L71.4088 84.015C71.4088 84.8725 71.3789 85.73 71.3889 86.5875C71.4179 88.9062 72.0146 91.1825 73.1264 93.2175C74.2201 95.1957 75.7836 96.8744 77.6794 98.1054C79.5751 99.3367 81.7444 100.083 83.9964 100.277C85.4389 100.402 86.9114 100.342 88.3564 100.357L96.8289 100.447L105.674 100.542C107.151 100.557 108.631 100.577 110.109 100.59C112.186 100.603 114.239 100.14 116.11 99.2367C117.98 98.3337 119.619 97.0144 120.901 95.3799C122.3 93.6042 123.244 91.5137 123.651 89.29C123.836 88.0967 123.919 86.89 123.901 85.6825L123.979 77.525V76.8825L123.614 77.765C124.703 76.6018 125.619 75.2873 126.334 73.8625C127.302 72.0298 128.057 70.0921 128.584 68.0876C129.811 63.3701 129.706 58.3376 127.681 53.8526C126.331 50.8526 124.121 48.3902 121.539 46.4027C121.016 46.0027 120.116 46.3052 119.826 46.8502C119.476 47.5127 119.721 48.1327 120.276 48.5602C120.046 48.3852 120.424 48.6802 120.466 48.7152C120.586 48.8102 120.701 48.9077 120.819 49.0052C121.046 49.1952 121.269 49.3926 121.489 49.5926C121.909 49.9801 122.316 50.3851 122.701 50.8101C122.886 51.0126 123.069 51.2226 123.246 51.4351L123.476 51.7151C123.511 51.7601 123.556 51.8076 123.586 51.8551C123.414 51.5876 123.574 51.8376 123.609 51.8876C123.924 52.3076 124.221 52.7401 124.496 53.1851C124.771 53.6301 125.011 54.0626 125.246 54.5151C125.351 54.7251 125.451 54.9376 125.546 55.1526C125.576 55.2151 125.604 55.2776 125.631 55.3401C125.699 55.4951 125.664 55.3051 125.601 55.2676C125.669 55.3101 125.721 55.5626 125.754 55.6451C126.098 56.5381 126.369 57.4579 126.564 58.3951C126.609 58.6126 126.649 58.8326 126.686 59.0501C126.706 59.1651 126.724 59.2801 126.741 59.3976C126.746 59.4489 126.754 59.4996 126.764 59.5501C126.721 59.3976 126.734 59.3201 126.764 59.5251C126.819 59.9851 126.859 60.4476 126.884 60.9076C126.928 61.8051 126.915 62.7043 126.844 63.6001C126.826 63.8126 126.806 64.0226 126.784 64.2351C126.784 64.3451 126.761 64.4576 126.746 64.5676C126.746 64.6276 126.729 64.6901 126.724 64.7526C126.724 64.6551 126.764 64.4726 126.724 64.6776C126.659 65.1126 126.589 65.5476 126.501 65.9801C126.338 66.8101 126.132 67.6313 125.884 68.4401C125.647 69.2201 125.374 69.9868 125.064 70.7401L125.001 70.8901C124.944 71.0351 125.114 70.6401 125.051 70.7726C125.011 70.8601 124.974 70.9501 124.936 71.0376C124.859 71.2126 124.781 71.3851 124.701 71.5576C124.544 71.8926 124.381 72.2201 124.201 72.5576C123.889 73.1525 123.551 73.735 123.184 74.3075C123.019 74.5575 122.846 74.8075 122.669 75.0575L122.556 75.21C122.384 75.4425 122.741 74.9775 122.596 75.1575C122.509 75.2675 122.421 75.3775 122.331 75.485C122.176 75.67 122.001 75.84 121.844 76.0225C121.605 76.3008 121.475 76.6558 121.476 77.0225C121.476 77.4125 121.476 77.8 121.476 78.19L121.426 82.5L121.391 86.3075C121.391 86.615 121.391 86.92 121.376 87.225C121.361 87.53 121.346 87.7825 121.319 88.06C121.319 88.1225 121.304 88.1825 121.299 88.245C121.274 88.475 121.299 88.22 121.299 88.185C121.261 88.33 121.254 88.49 121.229 88.6375C121.136 89.1712 121.009 89.6982 120.846 90.215C120.769 90.465 120.681 90.715 120.596 90.965C120.547 91.0725 120.504 91.1827 120.466 91.295C120.529 91.045 120.524 91.1625 120.489 91.24C120.454 91.3175 120.416 91.4025 120.379 91.49C120.158 91.9675 119.907 92.4307 119.629 92.8775C119.496 93.0875 119.358 93.2925 119.216 93.4925C119.152 93.6055 119.074 93.7112 118.986 93.8075C119.009 93.79 119.161 93.5875 119.021 93.7625L118.859 93.965C118.527 94.3649 118.171 94.7447 117.794 95.1025C117.616 95.27 117.434 95.4349 117.246 95.6024C117.154 95.6954 117.053 95.7792 116.944 95.8524C116.971 95.8374 117.171 95.6824 116.994 95.8149L116.784 95.9699C116.362 96.2737 115.922 96.5507 115.466 96.7999C115.264 96.9099 115.056 97.0174 114.849 97.1149C114.722 97.1867 114.589 97.2469 114.451 97.2949C114.481 97.2949 114.719 97.1874 114.509 97.2699L114.259 97.3674C113.78 97.5502 113.29 97.7022 112.791 97.8224C112.541 97.8824 112.291 97.9324 112.041 97.9774L111.641 98.0399C111.451 98.0699 111.961 98.0074 111.661 98.0399L111.439 98.0624C110.998 98.1039 110.555 98.1232 110.111 98.1199H109.771L107.641 98.0974L99.5739 98.0124L90.5114 97.9174L85.1039 97.8599C84.8814 97.8599 84.6564 97.8599 84.4314 97.8424C84.2064 97.8249 83.9164 97.8099 83.6589 97.7824L83.4789 97.7599C83.2864 97.7374 83.7939 97.8124 83.4989 97.7599L83.0564 97.6824C82.5334 97.5827 82.0171 97.4492 81.5114 97.2824C81.2914 97.2074 81.0714 97.1274 80.8539 97.0324C80.8339 97.0324 80.5664 96.9149 80.7589 96.9974C80.9514 97.0799 80.7589 96.9974 80.7089 96.9724L80.3139 96.7899C79.8451 96.5604 79.3911 96.3024 78.9539 96.0174C78.7489 95.8824 78.5489 95.7424 78.3514 95.5949C78.3036 95.5637 78.2576 95.5294 78.2139 95.4924C78.4389 95.6924 78.2864 95.5499 78.2264 95.4924C78.1164 95.3999 78.0039 95.3099 77.8964 95.2149C77.5024 94.8762 77.1299 94.513 76.7814 94.1275C76.6164 93.945 76.4564 93.7575 76.3039 93.565C76.2689 93.5225 76.2264 93.475 76.1964 93.43C76.3614 93.68 76.2539 93.505 76.1964 93.43L75.9464 93.0775C75.6484 92.6452 75.3771 92.1952 75.1339 91.73C75.0189 91.51 74.9089 91.285 74.8089 91.0575C74.7806 91.0052 74.7566 90.951 74.7364 90.895C74.8039 91.145 74.7889 91.025 74.7589 90.95L74.5989 90.5375C74.4144 90.0335 74.2616 89.5182 74.1414 88.995C74.0814 88.73 74.0289 88.4625 73.9839 88.195C73.9839 88.135 73.9664 88.075 73.9564 88.015C73.9189 87.785 73.9564 88.0425 73.9564 88.075C73.9509 87.9215 73.9341 87.7685 73.9064 87.6175C73.8664 87.18 73.8514 86.7425 73.8539 86.305V85.4425L73.9289 77.4425C73.9666 77.0655 73.9071 76.685 73.7564 76.3375C73.6539 76.1125 73.5464 75.8875 73.4414 75.6625L71.8814 72.25C70.8563 70.0576 69.8088 67.8726 68.8038 65.6676C68.8038 65.6501 68.7863 65.6301 68.7788 65.6101C68.8038 65.6751 68.8838 65.9551 68.8463 65.7001C68.8213 65.5301 68.7588 65.3576 68.7213 65.2001C68.6588 64.9276 68.6013 64.6551 68.5513 64.3826C68.5238 64.2276 68.4988 64.0751 68.4738 63.9226C68.4613 63.8376 68.4488 63.7526 68.4338 63.6726C68.3988 63.4226 68.4488 63.8051 68.4338 63.6476C68.2973 62.4468 68.2681 61.2361 68.3463 60.0301C68.3688 59.7526 68.3988 59.4751 68.4288 59.1976C68.4563 58.9626 68.4288 59.1976 68.4288 59.2376C68.4288 59.1576 68.4513 59.0776 68.4638 58.9876C68.4888 58.8276 68.5163 58.6676 68.5438 58.5076C68.6463 57.9401 68.7738 57.3776 68.9313 56.8226C69.0843 56.2781 69.2646 55.7416 69.4713 55.2151C69.4963 55.1551 69.6563 54.7151 69.5388 55.0401C69.5813 54.9251 69.6388 54.8126 69.6888 54.7026C69.8038 54.4526 69.9238 54.2026 70.0513 53.9526C70.3013 53.4706 70.5758 53.0016 70.8739 52.5476C71.0214 52.3251 71.1739 52.1076 71.3339 51.8926C71.3736 51.8486 71.4086 51.8009 71.4388 51.7501C71.3563 51.9401 71.3413 51.8751 71.4063 51.7926C71.4713 51.7101 71.5888 51.5651 71.6838 51.4526C72.0179 51.0559 72.3754 50.6794 72.7539 50.3251C72.9424 50.1484 73.1349 49.9819 73.3314 49.8251C73.4134 49.7459 73.5019 49.6739 73.5964 49.6101C73.3664 49.7401 73.4814 49.7001 73.5464 49.6501L73.7514 49.5001C74.1621 49.2069 74.5914 48.9404 75.0364 48.7027C75.2589 48.5852 75.4864 48.4777 75.7139 48.3727C75.7939 48.3352 75.8689 48.2552 75.6464 48.3977C75.6966 48.3732 75.7484 48.3524 75.8014 48.3352C75.9314 48.2827 76.0514 48.2352 76.1939 48.1877C76.3364 48.1402 76.4064 48.1202 76.5114 48.0827C76.7869 47.9807 77.0309 47.8082 77.2189 47.5827C77.4214 47.3627 77.6289 47.1452 77.8389 46.9352C78.2514 46.5227 78.6839 46.1327 79.1289 45.7577L79.4339 45.5077L79.5914 45.3827C79.8414 45.1802 79.4539 45.4852 79.6139 45.3652C79.8639 45.1727 80.1289 44.9802 80.3914 44.7977C80.9014 44.4394 81.4256 44.1059 81.9639 43.7977C82.5214 43.4702 83.0889 43.1677 83.6689 42.8827C83.9324 42.7527 84.1974 42.6277 84.4639 42.5077L84.9639 42.2827C84.9189 42.3027 84.7514 42.3727 84.9639 42.2827L85.2764 42.1527C85.9014 41.9027 86.5264 41.6927 87.1689 41.4702C87.5306 41.3572 87.8359 41.1117 88.0239 40.7827C88.0989 40.6627 88.1664 40.5327 88.2414 40.4127C88.4164 40.1252 88.5989 39.8452 88.7914 39.5702C88.8814 39.4402 88.9739 39.3202 89.0664 39.1877C89.0964 39.1477 89.2114 39.0002 89.0664 39.1877L89.1939 39.0252C89.3964 38.7752 89.6089 38.5252 89.8264 38.2752C90.2344 37.833 90.6684 37.4155 91.1264 37.0252L91.4714 36.7427C91.5139 36.7077 91.6614 36.6027 91.4514 36.7577L91.6089 36.6402C91.8589 36.4577 92.1089 36.2827 92.3714 36.1152C92.8456 35.813 93.3381 35.5407 93.8464 35.3002C93.9889 35.2327 94.1339 35.1602 94.2814 35.1052C94.2464 35.1052 94.0314 35.2052 94.2464 35.1202L94.4239 35.0502C94.6889 34.9477 94.9589 34.8552 95.2314 34.7702C95.7977 34.5952 96.3747 34.4572 96.9589 34.3577C97.1339 34.3277 97.3064 34.2977 97.4814 34.2727C97.5439 34.2727 97.7989 34.2277 97.5489 34.2727L97.7739 34.2452C98.1039 34.2077 98.4339 34.1777 98.7739 34.1577C99.3952 34.1202 100.018 34.1202 100.639 34.1577C100.934 34.1752 101.226 34.2027 101.519 34.2327C101.581 34.2327 101.769 34.2577 101.471 34.2327L101.661 34.2602C101.816 34.2827 101.971 34.3102 102.126 34.3377C102.666 34.4402 103.198 34.5747 103.721 34.7402C103.971 34.8177 104.201 34.9027 104.439 34.9902C104.559 35.0352 104.689 35.1002 104.809 35.1377C104.546 35.0602 104.681 35.0827 104.751 35.1152L105.001 35.2227C105.478 35.4432 105.943 35.6887 106.394 35.9577C106.849 36.2277 107.29 36.517 107.716 36.8252L108.004 37.0002L108.144 37.1077C108.379 37.2827 107.989 36.9852 108.144 37.1077C108.394 37.2977 108.626 37.4877 108.864 37.6827C110.826 39.3002 112.544 41.1827 114.294 43.0227C116.148 45.0217 118.154 46.8747 120.294 48.5652C120.814 48.9651 121.716 48.6627 122.004 48.1177C122.329 47.4502 122.086 46.8302 121.531 46.4027Z" fill="#222221"/>
<g opacity="0.28">
<path opacity="0.28" d="M74.9913 50.0723C77.5114 47.2323 81.2014 44.8948 85.7264 43.4373C87.8764 39.5998 91.3339 37.1498 95.1014 36.4198C100.851 35.3073 104.719 36.9198 108.076 39.6173C111.964 42.6623 115.144 47.1848 119.719 50.6873C127.271 56.4723 127.839 64.4923 126.219 70.8448C129.051 64.2173 130.159 53.9173 121.001 46.9023C116.426 43.4023 113.251 38.8773 109.361 35.8323C106.001 33.1373 102.139 31.5223 96.3839 32.6348C92.6164 33.3623 89.1589 35.8148 87.0089 39.6498C82.4839 41.1098 78.7939 43.4473 76.2738 46.2873C71.9213 47.6673 68.6513 51.8773 67.5488 56.9998C69.1463 53.6598 71.7713 51.0948 74.9913 50.0723Z" fill="#222221"/>
<path opacity="0.28" d="M121.549 80.0904L121.455 90.0454C121.449 90.7367 121.387 91.4267 121.27 92.1079C122.222 90.3014 122.727 88.2927 122.742 86.2505L122.814 78.5229C122.437 79.0797 122.014 79.6039 121.549 80.0904Z" fill="#222221"/>
</g>
<path d="M121.623 71.9994L118.678 71.9694L118.731 66.3719C118.731 66.0544 118.731 65.7394 118.716 65.4244V65.2494C118.716 65.0144 118.716 64.7819 118.716 64.5494C92.8907 66.2494 79.7708 56.2319 79.7708 56.2319C79.7708 56.2319 79.7708 56.1094 79.7483 55.9119C79.7483 55.9544 79.7483 55.9894 79.7483 56.0294C79.7608 56.2319 79.7708 56.4344 79.7733 56.6369C79.8495 61.6761 78.8975 66.6779 76.9758 71.3369V71.5194H76.8983C76.7908 71.7694 76.7283 71.8894 76.7283 71.8894L76.6133 71.5169L74.0283 71.4994C70.1058 71.4569 66.8958 74.7969 66.8558 78.962V79.5745C66.8158 83.7395 69.9633 87.147 73.8858 87.1895L76.8408 87.2195L76.7908 92.332C76.7908 92.6653 76.7958 92.9903 76.8058 93.307V93.3245C76.7678 96.2958 77.3685 99.2405 78.5673 101.96C79.7658 104.678 81.5343 107.108 83.7533 109.085V123.597C83.7533 131.48 89.7732 137.87 97.2007 137.87H98.2957C105.721 137.87 111.741 131.48 111.741 123.597V108.917C113.848 106.99 115.534 104.648 116.693 102.037C117.852 99.427 118.458 96.6053 118.473 93.7495L118.531 87.647L121.476 87.677C125.398 87.7195 128.611 84.3795 128.651 80.2145V79.602C128.696 75.4444 125.546 72.0369 121.623 71.9994Z" fill="white"/>
<path d="M121.623 70.7502L118.678 70.7202L119.928 71.9702C119.95 69.4977 120.018 67.0202 119.958 64.5477C119.943 63.9052 119.398 63.2527 118.708 63.2977C114.154 63.607 109.583 63.546 105.04 63.1153C104.553 63.0685 104.067 63.016 103.58 62.9577L102.868 62.8702L102.515 62.8227L102.265 62.7877C101.367 62.6627 100.471 62.5195 99.5777 62.3577C97.911 62.0578 96.261 61.6945 94.6278 61.2678C93.1745 60.8895 91.7378 60.4578 90.3178 59.9728C89.7128 59.7645 89.1128 59.547 88.5178 59.3203C88.2378 59.2128 87.9578 59.1053 87.6803 58.9928L87.2803 58.8303C87.1778 58.7878 86.6528 58.5978 87.0603 58.7403C86.1176 58.3748 85.1991 57.9498 84.3103 57.4678C83.6253 57.1203 82.9478 56.7578 82.2853 56.3703C81.6343 56.0045 81.0058 55.6005 80.4028 55.1603L81.0228 56.2378L81.0003 55.9178C80.9553 55.2678 80.4578 54.6378 79.7503 54.6678C79.1128 54.6978 78.4528 55.2203 78.5003 55.9178C78.5808 57.357 78.5523 58.8003 78.4153 60.2353C78.3878 60.5628 78.3553 60.8928 78.3203 61.2203C78.3028 61.3803 78.2828 61.5403 78.2628 61.7003C78.2628 61.7678 78.2453 61.8353 78.2378 61.9028C78.1828 62.3353 78.2528 61.7953 78.2178 62.0403C78.1303 62.6578 78.0278 63.2752 77.9103 63.8877C77.5451 65.7962 77.0293 67.673 76.3678 69.5002C76.2503 69.8227 76.1178 70.1452 76.0003 70.4652C75.9378 70.6177 75.7753 71.0202 75.9453 70.6002C75.8146 70.8865 75.7423 71.1957 75.7329 71.5102L76.9828 70.2602H76.9053C76.6866 70.2572 76.4711 70.313 76.2811 70.4217C76.0911 70.5302 75.9338 70.6877 75.8253 70.8777C75.7703 71.0027 75.7153 71.1277 75.6553 71.2477L77.9403 71.5477L77.8278 71.1752C77.7498 70.914 77.5908 70.6842 77.3738 70.5195C77.1568 70.3545 76.8928 70.2627 76.6203 70.2577C75.0454 70.2402 73.3954 70.0902 71.8579 70.5077C69.2529 71.2252 67.2529 73.2077 66.2529 75.6652C65.8156 76.799 65.5974 78.0052 65.6104 79.2202C65.5729 80.4047 65.7499 81.5862 66.1329 82.7077C66.5736 83.9639 67.2974 85.1022 68.2486 86.0337C69.1999 86.9654 70.3526 87.6657 71.6179 88.0802C73.2754 88.5977 75.1178 88.4427 76.8428 88.4602L75.5928 87.2102C75.5753 88.9602 75.5453 90.7277 75.5428 92.4876C75.5028 94.6746 75.7346 96.8579 76.2328 98.9876C77.3018 103.232 79.6181 107.058 82.8828 109.973L82.5028 109.085V120.653C82.5028 122.288 82.4253 123.958 82.6328 125.583C83.0681 129.256 84.7731 132.662 87.4528 135.212C90.096 137.694 93.577 139.089 97.2027 139.12C98.6285 139.162 100.054 139.041 101.453 138.757C103.153 138.366 104.764 137.659 106.203 136.672C109.201 134.598 111.382 131.543 112.37 128.033C112.94 126.013 112.978 123.973 112.978 121.9V108.918L112.613 109.803C115.718 106.948 117.936 103.259 119.003 99.1776C119.733 96.3576 119.718 93.5076 119.753 90.6252L119.78 87.6552L118.53 88.9052C119.585 88.9052 120.645 88.9577 121.7 88.9352C122.823 88.9062 123.927 88.6472 124.945 88.1742C125.964 87.7012 126.874 87.0242 127.62 86.1852C130.44 82.9852 130.755 77.6652 128.185 74.2102C127.431 73.1672 126.447 72.3122 125.309 71.7122C124.171 71.112 122.909 70.7827 121.623 70.7502C121.291 70.7502 120.973 70.882 120.739 71.1162C120.504 71.3507 120.373 71.6687 120.373 72.0002C120.373 72.3317 120.504 72.6497 120.739 72.8842C120.973 73.1185 121.291 73.2502 121.623 73.2502C121.845 73.2502 122.068 73.2677 122.288 73.2902C122.31 73.2902 122.488 73.3202 122.34 73.2902C122.193 73.2602 122.405 73.3052 122.443 73.3127C122.568 73.3377 122.693 73.3602 122.813 73.3902C123.023 73.4427 123.228 73.5027 123.433 73.5727L123.733 73.6852C123.483 73.5952 123.855 73.7452 123.92 73.7777C124.11 73.8702 124.298 73.9752 124.478 74.0852C124.568 74.1402 124.658 74.2002 124.745 74.2577C124.833 74.3152 125.05 74.4777 124.963 74.4102C124.875 74.3427 125.09 74.5152 125.125 74.5477C125.22 74.6277 125.313 74.7127 125.403 74.7977C125.573 74.9577 125.733 75.1252 125.885 75.2977L126.09 75.5477C126.18 75.6577 126.07 75.5227 126.06 75.5077C126.093 75.5527 126.125 75.5952 126.155 75.6402C126.298 75.8502 126.438 76.0602 126.563 76.2827C126.688 76.5052 126.77 76.6677 126.863 76.8677L126.93 77.0177C126.93 77.0002 126.858 76.8402 126.908 76.9752C126.958 77.1102 127 77.2252 127.043 77.3427C127.12 77.5727 127.185 77.8077 127.24 78.0452C127.268 78.1552 127.29 78.2677 127.313 78.3777C127.335 78.4877 127.375 78.7902 127.345 78.5577C127.392 78.9592 127.411 79.3634 127.403 79.7677C127.403 80.1177 127.403 80.4652 127.373 80.8127C127.373 80.9277 127.35 81.0452 127.335 81.1602C127.365 80.9427 127.323 81.2052 127.31 81.2827C127.265 81.5327 127.208 81.7652 127.14 82.0002C127.073 82.2352 126.993 82.4627 126.91 82.6902C126.828 82.9177 126.965 82.5852 126.863 82.8002C126.808 82.9152 126.753 83.0327 126.695 83.1452C126.593 83.3402 126.485 83.5302 126.368 83.7152C126.301 83.8202 126.231 83.9252 126.158 84.0302L126.063 84.1602C125.953 84.3152 126.18 84.0177 126.063 84.1602C125.769 84.5214 125.445 84.8559 125.093 85.1602C125.055 85.1927 124.828 85.3702 124.928 85.2952L124.755 85.4177C124.565 85.5452 124.368 85.6677 124.165 85.7777C124.073 85.8277 123.978 85.8777 123.883 85.9227C123.788 85.9677 123.535 86.0777 123.645 86.0352C123.755 85.9927 123.49 86.0902 123.445 86.1052C123.328 86.1452 123.208 86.1852 123.088 86.2202C122.881 86.2802 122.672 86.3294 122.46 86.3677C122.405 86.3677 122.35 86.3852 122.298 86.3977C122.113 86.4427 122.5 86.3802 122.298 86.3977C122.17 86.4102 122.048 86.4252 121.913 86.4302C120.788 86.4927 119.648 86.4302 118.523 86.4102C118.192 86.4147 117.877 86.5479 117.644 86.7812C117.41 87.0147 117.277 87.3302 117.273 87.6602L117.253 91.8276C117.253 92.4476 117.253 93.0776 117.235 93.6901C117.235 94.1601 117.215 94.6301 117.18 95.1001C117.135 95.8216 117.041 96.5391 116.898 97.2476C116.371 100.087 115.211 102.771 113.503 105.1C113.405 105.233 113.308 105.368 113.208 105.5C113.065 105.688 113.385 105.28 113.138 105.59L112.983 105.785C112.748 106.075 112.508 106.358 112.258 106.633C112.008 106.908 111.81 107.118 111.575 107.35C111.285 107.645 110.878 107.928 110.668 108.288C110.458 108.648 110.495 109.113 110.495 109.538V123.208C110.495 123.655 110.495 124.103 110.468 124.55C110.455 124.725 110.443 124.9 110.425 125.075L110.403 125.305C110.403 125.34 110.37 125.583 110.388 125.425C110.405 125.268 110.36 125.613 110.363 125.603L110.325 125.828C110.295 126.015 110.258 126.203 110.22 126.39C110.088 127.014 109.917 127.63 109.708 128.233C109.658 128.373 109.608 128.51 109.555 128.65C109.52 128.735 109.488 128.823 109.453 128.9C109.38 129.08 109.528 128.73 109.453 128.9C109.323 129.203 109.18 129.503 109.03 129.795C108.74 130.36 108.413 130.904 108.05 131.425C107.968 131.545 107.883 131.663 107.8 131.778L107.67 131.95C107.82 131.755 107.67 131.95 107.633 131.993C107.428 132.243 107.22 132.493 107.003 132.723C106.578 133.178 106.125 133.604 105.645 134C105.58 134.055 105.28 134.285 105.48 134.135L105.138 134.385C104.888 134.567 104.613 134.743 104.34 134.908C104.068 135.073 103.79 135.23 103.505 135.375L103.125 135.56L102.933 135.65C102.878 135.675 102.583 135.798 102.84 135.693C102.279 135.923 101.703 136.114 101.115 136.265C100.818 136.34 100.518 136.405 100.218 136.457C100.058 136.487 99.8952 136.512 99.7327 136.535C99.7827 136.535 99.9827 136.507 99.7327 136.535L99.4602 136.562C98.5795 136.631 97.6952 136.646 96.8127 136.607C96.4977 136.607 96.1877 136.577 95.8752 136.545L95.6578 136.522C95.7053 136.522 95.9078 136.56 95.6578 136.522C95.4778 136.495 95.3003 136.465 95.1228 136.432C94.5065 136.31 93.8998 136.143 93.3078 135.932L92.9078 135.785L92.7078 135.705C92.5128 135.632 92.9753 135.827 92.6653 135.685C92.3553 135.542 92.0878 135.418 91.8053 135.268C91.2743 134.985 90.763 134.667 90.2753 134.315L90.1053 134.19C89.8278 133.99 90.2253 134.288 90.0628 134.158C89.9503 134.07 89.8403 133.98 89.7328 133.89C89.4828 133.673 89.2328 133.445 88.9828 133.21C88.5498 132.785 88.143 132.333 87.7653 131.858C87.9203 132.05 87.6803 131.743 87.6353 131.68C87.5403 131.55 87.4453 131.43 87.3553 131.283C87.1728 131.013 86.9978 130.738 86.8353 130.455C86.6728 130.173 86.5303 129.915 86.3928 129.638C86.3253 129.508 86.2628 129.375 86.2003 129.243L86.1103 129.043C86.1103 129.018 85.9628 128.683 86.0628 128.935C85.8188 128.33 85.6118 127.71 85.4428 127.08C85.3628 126.77 85.2903 126.455 85.2303 126.14C85.2003 125.99 85.1753 125.84 85.1503 125.69C85.1378 125.615 85.1253 125.538 85.1153 125.463C85.0578 125.088 85.1403 125.713 85.1003 125.338C85.0073 124.229 84.9731 123.117 84.9978 122.005V111.7C84.9978 110.835 85.0553 109.95 84.9978 109.088C84.9403 108.225 84.1028 107.738 83.5603 107.18C83.0418 106.65 82.5526 106.092 82.0953 105.508C82.2178 105.665 81.9353 105.295 81.9153 105.258C81.8153 105.123 81.7203 104.99 81.6253 104.853C81.4103 104.548 81.2053 104.235 81.0078 103.92C80.6208 103.301 80.2678 102.66 79.9503 102.003C79.8678 101.833 79.7878 101.663 79.7003 101.49L79.5978 101.26C79.5978 101.235 79.5053 101.04 79.5753 101.21C79.4303 100.86 79.2953 100.503 79.1678 100.145C78.9198 99.4411 78.7103 98.7244 78.5403 97.9976C78.4578 97.6401 78.3828 97.2826 78.3178 96.9201C78.2853 96.7501 78.2578 96.5776 78.2303 96.4076L78.1928 96.1576C78.2228 96.3726 78.1703 95.9701 78.1703 95.9701C78.0836 95.2231 78.0368 94.4721 78.0303 93.7201C78.0153 92.0576 78.0303 90.3952 78.0503 88.7352L78.0653 87.2102C78.0601 86.8802 77.9268 86.5654 77.6936 86.3319C77.4601 86.0987 77.1453 85.9654 76.8153 85.9602C75.6153 85.9602 74.3904 86.0077 73.1954 85.8902C72.9454 85.8652 73.1554 85.8902 73.1954 85.8902L72.9804 85.8527C72.8579 85.8302 72.7304 85.8027 72.6104 85.7702C72.3329 85.7002 72.0679 85.5927 71.7954 85.5202C71.6604 85.4777 71.8279 85.5352 71.8454 85.5427L71.6529 85.4552C71.5254 85.3952 71.4029 85.3302 71.2754 85.2602C71.0434 85.1299 70.8181 84.9882 70.6004 84.8352C70.5704 84.8152 70.3929 84.6802 70.5129 84.7752C70.6329 84.8702 70.4879 84.7527 70.4729 84.7402C70.3654 84.6477 70.2554 84.5577 70.1529 84.4602C69.9426 84.2669 69.7439 84.0617 69.5579 83.8452L69.4204 83.6802C69.4204 83.6652 69.3004 83.5227 69.3854 83.6352C69.4704 83.7477 69.2629 83.4602 69.2304 83.4127C69.0679 83.1709 68.9184 82.9204 68.7829 82.6627C68.7154 82.5327 68.6529 82.4002 68.5929 82.2677C68.5929 82.2527 68.5154 82.0852 68.5679 82.2152C68.6204 82.3452 68.5404 82.1377 68.5279 82.1052C68.4234 81.8254 68.3349 81.5399 68.2629 81.2502C68.2304 81.1227 68.2004 81.0002 68.1754 80.8627C68.1604 80.7852 68.1004 80.3827 68.1304 80.6277C68.0949 80.3374 68.0756 80.0452 68.0729 79.7527C68.0729 79.4127 68.0729 79.0677 68.0729 78.7252C68.0729 78.5877 68.0879 78.4527 68.1004 78.3152C68.1004 78.2402 68.1579 77.8977 68.1179 78.1302C68.1704 77.8302 68.2304 77.5327 68.3104 77.2377C68.3859 76.9685 68.4754 76.7029 68.5779 76.4427C68.6304 76.3102 68.5779 76.4677 68.5579 76.4852C68.5879 76.4202 68.6179 76.3527 68.6504 76.2852C68.7204 76.1377 68.7954 75.9902 68.8754 75.8452C69.0079 75.6077 69.1531 75.3772 69.3104 75.1552C69.3404 75.1102 69.3729 75.0677 69.4054 75.0252C69.5154 74.8702 69.2854 75.1677 69.4054 75.0252C69.5254 74.8827 69.5879 74.8052 69.6829 74.7002C69.8629 74.502 70.0531 74.3135 70.2529 74.1352C70.3454 74.0527 70.4429 73.9752 70.5379 73.8852C70.6854 73.7677 70.3829 73.9952 70.5379 73.8852C70.6104 73.8352 70.6804 73.7827 70.7554 73.7327C70.9609 73.5945 71.1736 73.4677 71.3929 73.3527C71.5179 73.2877 71.6429 73.2277 71.7729 73.1677C71.8229 73.1427 71.9929 73.0902 71.7729 73.1677C71.8404 73.1452 71.9054 73.1177 71.9729 73.0927C72.2759 72.9882 72.5859 72.9047 72.9004 72.8427C72.9854 72.8252 73.3704 72.7677 73.1054 72.8002C73.2504 72.7827 73.3979 72.7702 73.5429 72.7627C73.8579 72.7452 74.1729 72.7627 74.4879 72.7627L76.5803 72.7852L75.3753 71.8677L75.4904 72.2377C75.7828 73.1952 77.2828 73.5502 77.7753 72.5377C77.8328 72.4152 77.8878 72.2877 77.9453 72.1677L76.8653 72.7877H76.9428C77.2728 72.7832 77.5883 72.65 77.8216 72.4167C78.0551 72.1832 78.1883 71.8677 78.1928 71.5377V71.3552L78.0203 71.9852C79.5311 68.4027 80.4773 64.6077 80.8253 60.7353C80.9998 59.1373 81.0433 57.5278 80.9553 55.9228H78.5028C78.5428 56.5053 78.6478 56.9528 79.1478 57.3253L79.1878 57.3553C79.2646 57.4135 79.3421 57.4685 79.4203 57.5203C79.7628 57.7703 80.1128 57.9828 80.4653 58.2003C81.8858 59.0598 83.3598 59.8278 84.8778 60.5003C87.3638 61.6133 89.9263 62.5472 92.5453 63.2952C96.0633 64.2847 99.6532 64.996 103.283 65.4227C107.775 65.9595 112.304 66.121 116.823 65.9052C117.45 65.8777 118.073 65.8402 118.708 65.8002L117.458 64.5502C117.518 67.0227 117.458 69.5002 117.428 71.9727C117.433 72.3027 117.566 72.6175 117.799 72.851C118.033 73.0842 118.348 73.2175 118.678 73.2227L121.623 73.2527C121.954 73.2527 122.272 73.121 122.506 72.8867C122.741 72.6522 122.873 72.3342 122.873 72.0027C122.873 71.6712 122.741 71.3532 122.506 71.1187C122.272 70.8845 121.954 70.7527 121.623 70.7527V70.7502Z" fill="#222221"/>
<path d="M72.1227 82.2498C72.0809 82.2495 72.0397 82.24 72.0019 82.222C71.9644 82.2038 71.9312 82.1773 71.9052 82.1448C71.8562 82.0823 71.8324 82.0038 71.8384 81.9248C71.8444 81.8455 71.8797 81.7715 71.9377 81.7172L73.5102 80.2747L71.2301 77.4497C71.1814 77.3874 71.1574 77.3092 71.1629 77.2302C71.1686 77.1512 71.2031 77.0772 71.2601 77.0222C71.2881 76.9969 71.3211 76.9774 71.3569 76.9654C71.3926 76.9532 71.4306 76.9484 71.4684 76.9517C71.5061 76.9547 71.5426 76.9654 71.5761 76.9832C71.6096 77.0007 71.6389 77.0252 71.6626 77.0547L74.3152 80.3397L72.3152 82.1773C72.2627 82.2255 72.1937 82.2515 72.1227 82.2498Z" fill="#222221"/>
<path d="M122.15 82.2304C122.078 82.2306 122.009 82.2029 121.957 82.1529L120 80.2728L122.712 77.0453C122.737 77.016 122.766 76.9923 122.8 76.9753C122.834 76.9583 122.871 76.9483 122.909 76.9463C122.946 76.944 122.984 76.9498 123.02 76.963C123.055 76.9763 123.088 76.9965 123.115 77.0228C123.172 77.078 123.206 77.1528 123.21 77.232C123.214 77.3113 123.188 77.3893 123.137 77.4503L120.805 80.2253L122.352 81.7029C122.409 81.7581 122.443 81.8329 122.447 81.9121C122.452 81.9914 122.426 82.0694 122.375 82.1304C122.348 82.1631 122.313 82.1894 122.274 82.2066C122.235 82.2241 122.193 82.2321 122.15 82.2304Z" fill="#222221"/>
<path d="M84.6744 76.4555C85.2744 76.683 86.0219 76.548 86.7519 76.4555C87.4819 76.363 88.2244 76.2705 88.8694 76.2205C89.5144 76.1705 90.2594 76.1455 90.9969 76.138C91.7344 76.1305 92.4969 76.138 93.0519 75.8205C93.6069 75.503 93.7719 74.7855 93.0519 73.9455C92.3844 73.1254 90.7169 72.3029 88.5794 72.4579C86.4419 72.6129 84.9169 73.683 84.3769 74.5955C83.8369 75.508 84.0994 76.2505 84.6744 76.4555Z" fill="black"/>
<path d="M111.702 76.572C111.107 76.8095 110.357 76.6895 109.625 76.6195C108.892 76.5495 108.152 76.462 107.508 76.427C106.863 76.392 106.118 76.377 105.378 76.382C104.638 76.387 103.878 76.407 103.323 76.1045C102.768 75.802 102.59 75.0844 103.288 74.2294C103.948 73.3969 105.605 72.5419 107.743 72.6569C109.88 72.7719 111.417 73.8119 111.967 74.7119C112.555 75.6394 112.275 76.3495 111.702 76.572Z" fill="black"/>
<path d="M90.7327 79.6881C90.9144 80.0948 90.9342 80.5558 90.7879 80.9765C90.6417 81.3975 90.3402 81.7468 89.9452 81.953C89.7512 82.0448 89.5405 82.096 89.326 82.1033C89.1115 82.1105 88.8978 82.0738 88.698 81.9953C88.4983 81.9168 88.3168 81.7983 88.1646 81.647C88.0123 81.4958 87.8926 81.3148 87.8128 81.1155C87.6356 80.7103 87.6181 80.253 87.7643 79.8358C87.9103 79.4183 88.2091 79.0718 88.6003 78.8656C88.7935 78.7733 89.0033 78.7216 89.217 78.7133C89.4308 78.7051 89.644 78.7406 89.8437 78.8176C90.0432 78.8946 90.2252 79.0113 90.378 79.1611C90.531 79.3108 90.6517 79.4901 90.7327 79.6881Z" fill="black"/>
<path d="M108.233 79.8747C108.414 80.2812 108.433 80.7415 108.287 81.1618C108.14 81.5823 107.84 81.9311 107.445 82.1373C107.252 82.2296 107.041 82.2811 106.826 82.2886C106.612 82.2963 106.398 82.2598 106.198 82.1816C105.999 82.1033 105.817 81.9848 105.665 81.8336C105.512 81.6825 105.393 81.5015 105.313 81.3023C105.136 80.897 105.118 80.4397 105.264 80.0225C105.41 79.6049 105.709 79.2582 106.1 79.0521C106.293 78.9596 106.503 78.9074 106.717 78.8989C106.931 78.8906 107.145 78.9259 107.344 79.0029C107.544 79.0799 107.726 79.1972 107.878 79.3469C108.031 79.4969 108.152 79.6764 108.233 79.8747Z" fill="black"/>
<path opacity="0.26" d="M84.0682 111.234C84.0682 111.234 89.0457 117.052 92.6957 118.257C96.6457 119.562 101.978 119.562 105.273 122.539C108.438 125.399 108.378 130.204 108.378 130.204L111.751 118.772V107.442C111.751 107.442 97.5982 118.477 82.9857 106.822C82.2282 106.224 84.0682 111.234 84.0682 111.234Z" fill="#222221"/>
<path d="M113.867 116.515L114.22 116.682L114.353 116.555L113.867 116.515Z" fill="white"/>
<path d="M158.953 175.335L158.558 166.387C156.483 142.047 151.558 134.022 138.71 126.852L114.225 116.682C105.225 125.41 91.2853 124.895 82.8853 115.485L82.5903 115.157L59.7503 122.792C50.6103 125.31 44.7829 131.465 42.5679 139.235L32.2754 175.335H158.953Z" fill="white"/>
<path d="M160.205 175.335L159.903 168.47C159.748 164.97 159.365 161.47 158.89 157.992C157.913 150.855 156.39 143.407 152.428 137.242C150.862 134.815 148.945 132.634 146.738 130.77C145.547 129.776 144.3 128.851 143.003 128C141.753 127.167 140.425 126.232 139.035 125.652C135.27 124.077 131.5 122.522 127.733 120.957C123.423 119.167 119.14 117.262 114.788 115.58L114.555 115.482C114.153 115.315 113.63 115.525 113.338 115.805C110.14 118.882 106.003 121 101.56 121.512C97.1961 122.022 92.7846 121.103 88.9876 118.892C86.9214 117.653 85.0651 116.094 83.4876 114.272C83.3314 114.11 83.1334 113.994 82.9154 113.938C82.6976 113.881 82.4681 113.885 82.2526 113.95L67.4101 118.915L60.0751 121.367C58.9926 121.73 57.8951 122.027 56.8251 122.43C54.3491 123.347 52.0224 124.625 49.9201 126.222C45.9686 129.281 43.0521 133.479 41.5651 138.25C41.1701 139.5 40.8326 140.785 40.4726 142.05L35.1726 160.635C33.8326 165.342 32.4226 170.037 31.1451 174.762C31.1251 174.842 31.1026 174.92 31.0801 174.997C31.0289 175.183 31.0214 175.378 31.0579 175.567C31.0944 175.756 31.1739 175.934 31.2906 176.087C31.4071 176.24 31.5576 176.364 31.7301 176.45C31.9026 176.535 32.0926 176.58 32.2851 176.58H153.813C155.455 176.58 157.098 176.607 158.74 176.58H158.955C160.563 176.58 160.565 174.08 158.955 174.08H37.4276C35.7901 174.08 34.1351 174.012 32.5001 174.08H32.2851L33.4901 175.662L36.8476 163.882L42.3326 144.632C42.7944 143.009 43.2576 141.387 43.7226 139.765C44.6739 136.285 46.4586 133.09 48.9226 130.455C50.5736 128.731 52.4884 127.28 54.5951 126.157C56.3851 125.192 58.2526 124.565 60.1826 123.952C62.1126 123.34 64.0451 122.66 65.9776 122.015L82.5751 116.465L82.9251 116.347L81.7101 116.025C84.9326 119.637 89.0551 122.342 93.7901 123.49C98.5301 124.639 103.514 124.228 108.003 122.32C110.645 121.183 113.058 119.573 115.123 117.57L113.905 117.892L124.748 122.392L137.983 127.892C138.112 127.938 138.239 127.991 138.363 128.05H138.388C138.023 127.827 138.413 128.105 138.503 128.157C138.868 128.366 139.23 128.576 139.59 128.787C140.885 129.557 142.153 130.377 143.365 131.27C143.708 131.52 143.865 131.64 144.068 131.8C144.345 132.02 144.62 132.242 144.89 132.47C145.44 132.93 145.973 133.409 146.488 133.907C147.003 134.406 147.48 134.906 147.92 135.407C148.135 135.657 148.348 135.907 148.555 136.157C148.665 136.29 148.775 136.425 148.883 136.56L149.06 136.785C148.953 136.645 149.06 136.785 149.11 136.852C150.845 139.205 152.24 141.79 153.253 144.532C154.548 148.032 155.37 151.692 155.99 155.367C156.68 159.211 157.135 163.093 157.35 166.992L157.688 174.66L157.718 175.335C157.775 176.937 160.275 176.945 160.205 175.335Z" fill="#222221"/>
<g opacity="0.14">
<path opacity="0.14" d="M111.73 115.375L119.253 118.583L107.773 175.335H87.8928L74.0527 117.94L83.5903 114.305L97.6954 158.858L111.73 115.375Z" fill="black"/>
</g>
<path d="M97.755 174.42L79.6875 122.75L80.2225 122.54L97.7525 172.667L114.812 123.183L115.35 123.39L97.755 174.42Z" fill="#222221"/>
<path opacity="0.54" d="M76.1432 175.95C76.0887 175.946 76.0362 175.928 75.992 175.896C75.9477 175.864 75.9135 175.82 75.8932 175.77L60.4107 139.649C60.3427 139.515 60.3045 139.367 60.298 139.217C60.2915 139.066 60.317 138.916 60.3732 138.777C60.4495 138.589 60.5675 138.422 60.7182 138.287C60.869 138.152 61.0485 138.054 61.2432 137.999L67.7882 135.964L59.5157 130.549C59.3677 130.457 59.2465 130.329 59.1635 130.176C59.0807 130.023 59.0392 129.851 59.0432 129.677C59.0575 129.496 59.1197 129.322 59.2232 129.173C59.327 129.024 59.4685 128.905 59.6332 128.829L69.6332 123.784C69.6672 123.767 69.7045 123.757 69.7425 123.755C69.7805 123.753 69.8185 123.759 69.8542 123.773C69.8897 123.786 69.9222 123.806 69.9497 123.833C69.977 123.859 69.9987 123.891 70.0132 123.926C70.0462 123.998 70.0507 124.08 70.0257 124.156C70.0005 124.231 69.9477 124.294 69.8782 124.331L59.8782 129.377C59.8092 129.405 59.7487 129.45 59.7022 129.508C59.656 129.567 59.6252 129.636 59.6132 129.709C59.6155 129.776 59.635 129.841 59.67 129.898C59.7052 129.955 59.7545 130.002 59.8132 130.034L69.1782 136.164L61.4032 138.579C61.2942 138.608 61.193 138.66 61.1067 138.732C61.0202 138.804 60.9507 138.895 60.9032 138.997C60.8782 139.056 60.8675 139.121 60.8712 139.185C60.8752 139.25 60.8937 139.313 60.9257 139.369L76.4057 175.512C76.4372 175.584 76.4402 175.666 76.4137 175.74C76.3872 175.815 76.3335 175.876 76.2632 175.912C76.227 175.935 76.1857 175.948 76.1432 175.95Z" fill="#222221"/>
<path opacity="0.54" d="M117.338 175.547C117.297 175.548 117.257 175.539 117.221 175.52C117.15 175.484 117.096 175.423 117.069 175.348C117.043 175.274 117.045 175.193 117.076 175.12L132.366 139.662C132.4 139.603 132.42 139.537 132.426 139.469C132.432 139.4 132.422 139.332 132.398 139.267C132.35 139.166 132.281 139.075 132.194 139.003C132.108 138.931 132.007 138.879 131.898 138.85L124.123 136.432L133.486 130.302C133.545 130.271 133.595 130.224 133.63 130.167C133.666 130.11 133.686 130.045 133.688 129.977C133.677 129.904 133.646 129.834 133.6 129.776C133.553 129.718 133.492 129.673 133.423 129.645L123.423 124.6C123.353 124.562 123.301 124.499 123.276 124.424C123.251 124.349 123.255 124.267 123.288 124.195C123.303 124.16 123.324 124.128 123.352 124.101C123.379 124.075 123.411 124.054 123.447 124.041C123.483 124.028 123.521 124.022 123.559 124.024C123.597 124.026 123.634 124.035 123.668 124.052L133.668 129.097C133.833 129.174 133.974 129.292 134.078 129.441C134.182 129.59 134.244 129.764 134.258 129.945C134.264 130.119 134.223 130.292 134.14 130.445C134.057 130.599 133.935 130.727 133.786 130.817L125.506 136.235L132.051 138.267C132.245 138.321 132.425 138.418 132.576 138.551C132.728 138.684 132.847 138.849 132.926 139.035C132.982 139.179 133.008 139.333 132.999 139.488C132.991 139.642 132.95 139.793 132.878 139.93L117.598 175.367C117.577 175.42 117.541 175.464 117.495 175.496C117.449 175.528 117.394 175.546 117.338 175.547Z" fill="#222221"/>
<path d="M61.3299 171.228C60.8299 171.228 60.1399 171.043 59.4324 170.288C57.9673 168.723 57.1048 165.411 57.3873 162.413C57.9231 156.613 58.8678 150.857 60.2149 145.19C61.0174 141.925 63.3049 134.328 67.2675 133.79H67.3825L67.5425 135.6C65.5824 135.8 63.3049 139.85 61.8724 145.663C60.5476 151.238 59.6176 156.899 59.0899 162.606C58.8398 165.311 59.6849 167.991 60.6474 169.021C60.8324 169.216 61.1149 169.441 61.3699 169.421L61.5299 171.228C61.4631 171.232 61.3964 171.232 61.3299 171.228Z" fill="#939394"/>
<path d="M61.4999 168.188H61.8599C62.2587 168.208 62.6337 168.384 62.9034 168.678C63.1734 168.973 63.3167 169.361 63.3025 169.76L63.2675 171.05C63.265 171.247 63.2232 171.441 63.1452 171.621C63.0669 171.802 62.9539 171.965 62.8122 172.101C62.6707 172.237 62.5034 172.344 62.3202 172.415C62.1369 172.486 61.9414 172.52 61.7449 172.515L61.3849 172.5C60.9861 172.48 60.6111 172.304 60.3414 172.01C60.0714 171.716 59.9281 171.327 59.9424 170.928L59.9774 169.64C59.9816 169.445 60.0244 169.252 60.1031 169.073C60.1821 168.894 60.2956 168.733 60.4369 168.598C60.5784 168.463 60.7451 168.357 60.9276 168.287C61.1099 168.216 61.3044 168.183 61.4999 168.188Z" fill="#383838"/>
<path d="M61.6418 169.392L61.5918 171.32C61.599 171.564 61.6795 171.8 61.8225 171.998C61.9658 172.196 62.1648 172.346 62.3943 172.43C62.6275 172.363 62.8345 172.227 62.9883 172.039C63.142 171.851 63.2348 171.621 63.2543 171.38L63.3043 169.455C63.297 169.211 63.2165 168.974 63.0735 168.776C62.9305 168.578 62.7313 168.428 62.5018 168.345C62.2688 168.411 62.0615 168.546 61.9078 168.734C61.754 168.921 61.6613 169.151 61.6418 169.392Z" fill="#3F3F3F"/>
<path d="M80.6916 169.32L80.5316 167.51C80.7816 167.485 81.0016 167.22 81.1366 167.01C81.8741 165.82 82.1616 163.032 81.3666 160.425C79.6946 154.933 77.6378 149.565 75.2116 144.362C72.6316 138.935 69.5766 135.427 67.6016 135.59H67.5866L67.4316 133.78H67.4541H67.5516C71.5516 133.53 75.3016 140.515 76.7416 143.55C79.2046 148.838 81.2931 154.292 82.9916 159.872C83.8741 162.765 83.6941 166.193 82.5616 168.018C81.9466 169 81.2041 169.27 80.6916 169.32Z" fill="#939394"/>
<path d="M61.8723 145.65L60.2148 145.19C61.0173 141.925 63.3048 134.328 67.2673 133.79H67.3873L67.5474 135.6C65.5849 135.78 63.3048 139.825 61.8723 145.65Z" fill="#383838"/>
<path d="M75.2116 144.352C72.6291 138.922 69.5641 135.41 67.6016 135.58H67.5866L67.4316 133.77H67.4541H67.5516C71.5516 133.52 75.3016 140.505 76.7416 143.54L75.2116 144.352Z" fill="#383838"/>
<path d="M80.851 170.944L80.246 171.122C79.8635 171.226 79.455 171.175 79.1103 170.979C78.7655 170.783 78.5123 170.459 78.406 170.077L77.9535 168.502C77.84 168.12 77.8813 167.709 78.0683 167.357C78.2555 167.006 78.5733 166.741 78.9535 166.622L79.556 166.445C79.9385 166.34 80.3468 166.392 80.6915 166.587C81.0365 166.783 81.2898 167.108 81.396 167.489L81.8486 169.064C81.9633 169.446 81.9231 169.857 81.7363 170.21C81.5495 170.562 81.2313 170.826 80.851 170.944Z" fill="#383838"/>
<path d="M80.1912 169.785L79.6162 167.785C79.5307 167.538 79.3717 167.322 79.1604 167.166C78.9492 167.011 78.6956 166.923 78.4336 166.915C78.2164 167.064 78.0486 167.275 77.9524 167.52C77.8561 167.765 77.8356 168.033 77.8936 168.29L78.4686 170.29C78.5544 170.538 78.7134 170.754 78.9247 170.909C79.1359 171.063 79.3892 171.15 79.6512 171.158C79.8684 171.01 80.0359 170.799 80.1322 170.555C80.2285 170.31 80.249 170.042 80.1912 169.785Z" fill="#3F3F3F"/>
<path d="M117.046 164.225C116.986 164.226 116.925 164.219 116.866 164.205C116.638 164.146 116.441 164.001 116.318 163.8C116.195 163.599 116.155 163.358 116.206 163.127L123.221 128.19C123.487 126.917 123.497 125.604 123.251 124.327C123.005 123.049 122.508 121.834 121.789 120.75C120.962 119.54 119.889 118.519 118.639 117.753C117.39 116.988 115.992 116.496 114.539 116.31C114.305 116.273 114.095 116.146 113.955 115.955C113.815 115.765 113.755 115.527 113.789 115.293C113.798 115.177 113.83 115.064 113.883 114.961C113.937 114.858 114.011 114.766 114.1 114.693C114.19 114.619 114.294 114.563 114.405 114.53C114.516 114.497 114.633 114.487 114.749 114.5C116.443 114.72 118.071 115.296 119.526 116.191C120.981 117.086 122.229 118.279 123.189 119.693C124.046 120.985 124.638 122.434 124.931 123.957C125.224 125.479 125.212 127.045 124.896 128.563L117.881 163.5C117.848 163.699 117.747 163.881 117.595 164.013C117.442 164.146 117.248 164.221 117.046 164.225Z" fill="#939394"/>
<path d="M120.976 144.653C120.916 144.652 120.855 144.645 120.796 144.633C120.568 144.573 120.372 144.428 120.249 144.227C120.126 144.026 120.085 143.785 120.136 143.555L123.221 128.19C123.487 126.917 123.497 125.604 123.251 124.327C123.005 123.049 122.508 121.834 121.789 120.75C120.962 119.54 119.889 118.519 118.639 117.753C117.39 116.988 115.992 116.496 114.539 116.31C114.305 116.273 114.095 116.146 113.955 115.955C113.815 115.765 113.755 115.527 113.789 115.293C113.798 115.177 113.83 115.064 113.883 114.961C113.937 114.858 114.011 114.766 114.1 114.693C114.19 114.619 114.294 114.563 114.405 114.53C114.516 114.497 114.633 114.487 114.749 114.5C116.443 114.72 118.071 115.296 119.526 116.191C120.981 117.086 122.229 118.279 123.189 119.693C124.046 120.985 124.638 122.434 124.931 123.957C125.224 125.479 125.212 127.045 124.896 128.563L121.811 143.928C121.778 144.127 121.677 144.308 121.524 144.44C121.372 144.573 121.178 144.648 120.976 144.653Z" fill="#383838"/>
<path d="M122.253 163.263C122.783 160.618 121.003 158.17 118.281 157.795C115.558 157.42 112.918 159.263 112.388 161.908C111.858 164.553 113.638 167 116.358 167.375C119.078 167.75 121.723 165.91 122.253 163.263Z" fill="#383838"/>
<path d="M119.784 162.925C119.848 162.613 119.846 162.292 119.779 161.981C119.712 161.671 119.581 161.377 119.394 161.12C119.207 160.863 118.969 160.647 118.695 160.487C118.42 160.327 118.115 160.226 117.799 160.19C117.139 160.101 116.469 160.263 115.923 160.645C115.377 161.026 114.995 161.599 114.851 162.25C114.788 162.561 114.789 162.882 114.856 163.193C114.924 163.503 115.055 163.797 115.242 164.054C115.428 164.311 115.667 164.526 115.941 164.686C116.216 164.846 116.521 164.947 116.836 164.982C117.496 165.071 118.166 164.909 118.712 164.528C119.257 164.147 119.64 163.575 119.784 162.925Z" fill="#CDCECF"/>
<path d="M67.8233 134.8L66.1133 134.71L66.2508 131.5C66.4808 126.5 68.1358 121.75 70.9133 118.095C74.1783 113.808 78.7658 111.595 83.5058 112.03L83.3583 113.843C79.1958 113.465 75.1458 115.428 72.2433 119.238C69.6933 122.585 68.1733 126.97 67.9608 131.59L67.8233 134.8Z" fill="#383838"/>
<path d="M89.6338 100.54C91.4588 101.451 93.3965 102.116 95.3962 102.518C97.0117 102.862 98.6742 102.926 100.311 102.705C101.711 102.493 103.076 102.099 104.374 101.533C105.058 101.253 105.718 100.919 106.349 100.533C107.026 100.103 106.401 99.0326 105.719 99.4526C104.146 100.415 102.407 101.073 100.591 101.393C97.7337 101.928 94.8413 101.27 92.1688 100.265C91.5183 100.032 90.8821 99.7611 90.2638 99.4526C89.5463 99.0926 88.9139 100.17 89.6338 100.533V100.54Z" fill="black"/>
<path d="M97.041 82.1067V90.6917C97.041 91.2117 97.5635 91.4117 97.981 91.2317C97.7085 91.3492 97.8935 91.2692 97.9635 91.2442C98.0335 91.2192 98.161 91.1692 98.2635 91.1342C98.5508 91.0379 98.8438 90.9604 99.141 90.9017C99.4518 90.8374 99.7703 90.8197 100.086 90.8492C100.004 90.8492 100.226 90.8742 100.251 90.8817C100.276 90.8892 100.489 90.9642 100.409 90.9267C100.515 90.9657 100.608 91.0332 100.679 91.1217C100.679 91.1067 100.749 91.2392 100.764 91.2717C100.721 91.1817 100.799 91.3917 100.804 91.4167C100.816 91.4942 100.821 91.5017 100.804 91.4417C100.804 91.4842 100.804 91.5292 100.804 91.5717C100.804 91.6617 100.804 91.7517 100.804 91.8417C100.763 92.1537 100.686 92.4599 100.574 92.7542C100.486 93.0004 100.379 93.2394 100.254 93.4692C100.191 93.5892 100.129 93.7192 100.056 93.8242C99.631 94.5092 100.714 95.1392 101.136 94.4542C101.661 93.6067 102.136 92.4892 102.051 91.4742C102.034 91.0962 101.906 90.7314 101.684 90.4249C101.462 90.1187 101.155 89.8837 100.801 89.7492C100.141 89.4992 99.3835 89.5767 98.7085 89.7192C98.2428 89.8187 97.788 89.9644 97.351 90.1542L98.291 90.6942V82.1067C98.291 81.3042 97.041 81.3017 97.041 82.1067Z" fill="#222221"/>
</svg>
