<svg width="110" height="44" viewBox="0 0 110 44" fill="none" xmlns="http://www.w3.org/2000/svg">
<path d="M39.2904 39.4327L41.1732 35.4181L43.0564 39.4327H39.2904ZM35.7351 43.013H37.6045L38.5597 40.9453H43.7501L44.6918 43.013H46.5497L42.1766 34.0061H40.1692L35.7351 43.013ZM48.9416 34.0062H50.7005V43.0131H48.9416V34.0062ZM55.8175 38.0092V35.4688H59.2112C60.6488 35.4688 61.3805 35.6783 61.3805 36.7324C61.3805 37.7982 60.6488 38.0092 59.2112 38.0092H55.8175ZM54.058 43.013H55.8172V39.4706H58.6046L61.2181 43.0131H63.3862L60.624 39.3463C61.9497 39.2732 63.1382 38.3555 63.1382 36.6959C63.1382 34.4898 61.6025 34.0065 59.472 34.0065H54.0578V43.0136H54.058V43.013ZM65.3572 34.0062H67.1159L68.8515 40.2003H68.8746L70.5978 34.0062H72.283L74.0306 40.1872H74.0544L75.777 34.0062H77.4993L74.8731 43.0131H73.1879L71.4777 36.6217H71.4529L69.7305 43.0131H68.0101L65.3572 34.0062ZM82.0469 39.4327L83.9305 35.4181L85.8127 39.4327H82.0469ZM78.4917 43.013H80.3624L81.3162 40.9453H86.5064L87.4476 43.013H89.3079L84.9335 34.0061H82.9261L78.4917 43.013ZM93.546 39.406L89.1488 34.0059H91.3037L94.4249 37.8213L97.5355 34.0059H99.7042L95.3052 39.406V43.0128H93.5463L93.546 39.406ZM108.189 36.7442C107.904 35.9383 107.174 35.2451 105.03 35.2451C103.84 35.2451 102.639 35.5422 102.639 36.3715C102.639 36.7567 102.862 37.1653 104.659 37.3885L106.79 37.7103C108.809 38.0208 110 38.8001 110 40.312C110 42.4433 107.967 43.2363 105.563 43.2363C101.698 43.2363 100.756 41.3279 100.545 40.6464L102.242 40.1138C102.564 40.7703 103.233 41.7254 105.613 41.7254C107.049 41.7254 108.238 41.2541 108.238 40.473C108.238 39.8909 107.57 39.507 106.281 39.346L104.125 39.049C102.044 38.7632 100.878 37.8587 100.878 36.483C100.878 33.783 104.386 33.783 105.079 33.783C108.957 33.783 109.625 35.5798 109.848 36.1983L108.189 36.7442ZM3.09337 7.37692H6.76313V27.0407C6.76313 30.0983 4.53133 32.1503 1.43682 32.1503H0V28.6961H1.04162C2.30117 28.6961 3.09337 28.1188 3.09337 26.7523V7.37692ZM3.09337 0H6.76313V3.67042H3.09337V0ZM12.8018 14.8608C12.8731 12.0906 14.4928 10.6157 16.6526 10.6157C18.8122 10.6157 20.3948 12.0906 20.5014 14.8608H12.8018ZM24.1715 17.8818V14.8608C24.1715 10.1476 20.68 7.16112 16.6529 7.16112C13.1245 7.16112 9.13202 9.46278 9.13202 16.5522C9.13202 24.0357 13.4849 25.8355 17.228 25.8355C19.673 25.8355 22.0127 24.9701 23.8104 22.8839L21.1503 20.6185C20.0692 21.7328 18.5589 22.3808 17.1557 22.3808C14.6366 22.3808 12.802 20.8688 12.802 17.8818H24.1715ZM27.0811 1.83513H30.7508V7.37692H33.4114V10.1835H30.7508V20.7968C30.7508 21.8053 31.1459 22.1647 32.0429 22.1647H33.4114V25.6188H31.5053C28.9496 25.6188 27.0811 23.9969 27.0811 21.121V10.1835H25.243V7.37692H27.0811V1.83513ZM45.6111 14.2491C48.489 14.2491 49.7818 16.0832 49.7818 18.0979C49.7818 20.1139 48.4887 21.9484 45.6111 21.9484H39.637V14.2491H45.6111ZM35.7493 25.6188H46.5448C50.3956 25.6188 53.6685 22.776 53.6685 18.3511C53.6685 15.7604 52.3019 13.0979 49.4958 12.4486V12.3777C52.4823 11.046 53.2747 8.99527 53.2747 6.87317C53.2743 2.84313 50.6811 0 45.6813 0H35.7493V25.6188ZM45.249 3.45544C48.0561 3.45544 49.387 5.14577 49.387 7.12504C49.387 9.13859 48.0561 10.796 45.249 10.796H39.637V3.45544H45.249ZM55.778 0H59.4478V20.905C59.4478 21.7325 59.9158 22.1647 60.8182 22.1647H62.0756V25.6188H60.4566C57.7922 25.6188 55.778 24.4682 55.778 21.1923V0ZM63.6221 7.37692H67.2924V18.2419C67.2924 20.7263 68.8389 22.1647 70.9285 22.1647C72.9785 22.1647 74.5237 20.7264 74.5237 18.2419V7.37692H78.1951V25.6188H74.5237V23.6748H74.4548C73.3022 25.1149 71.6464 25.8353 69.7388 25.8353C66.8624 25.8353 63.6221 23.6391 63.6221 19.5028V7.37692ZM83.8372 14.8608C83.9118 12.0906 85.5281 10.6157 87.6874 10.6157C89.8459 10.6157 91.4286 12.0906 91.5393 14.8608H83.8372ZM95.2083 17.8818V14.8608C95.2083 10.1476 91.7179 7.16112 87.6874 7.16112C84.1609 7.16112 80.1657 9.46278 80.1657 16.5522C80.1657 24.0357 84.5212 25.8355 88.2618 25.8355C90.7114 25.8355 93.0483 24.9701 94.8478 22.8839L92.1841 20.6187C91.1045 21.7329 89.5956 22.3812 88.1916 22.3812C85.6733 22.3812 83.8372 20.8692 83.8372 17.882L95.2083 17.8818Z" fill="#003876"/>
</svg>
