<svg width="27" height="32" viewBox="0 0 27 32" fill="none" xmlns="http://www.w3.org/2000/svg">
<path d="M14.6849 4.65753V0H0V32H14.6849V27.3425C11.6767 27.3425 8.79172 26.1475 6.6646 24.0203C4.53747 21.8932 3.34247 19.0082 3.34247 16C3.34247 12.9918 4.53747 10.1068 6.6646 7.97967C8.79172 5.85254 11.6767 4.65753 14.6849 4.65753Z" fill="#3C5FAC"/>
<path d="M14.6841 4.6572V27.3421C17.6923 27.3421 20.5773 26.1471 22.7044 24.02C24.8315 21.8929 26.0265 19.0079 26.0265 15.9997C26.0265 12.9915 24.8315 10.1065 22.7044 7.97933C20.5773 5.8522 17.6923 4.6572 14.6841 4.6572Z" fill="#3C5FAC"/>
</svg>
