<svg width="164" height="25" viewBox="0 0 164 25" fill="none" xmlns="http://www.w3.org/2000/svg">
<path d="M45.0558 19.2218C44.3638 19.3755 43.518 19.4524 42.6723 19.4524C40.2119 19.4524 39.6737 18.6067 39.6737 16.992V7.6887H35.0605V17.5302C35.0605 21.9128 37.5209 23.9119 42.4416 23.9119C44.8251 23.9119 47.0548 23.4505 49.7459 22.8354V7.6887H45.0558V19.2218ZM60.0487 19.6831C58.3572 19.6831 58.1266 18.9142 58.1266 17.6071V11.6099H61.9709V7.6887H58.1266V3.07548H53.5134V7.6887H51.2067V11.5331H53.5134V17.8378C53.5134 20.6057 54.0516 23.835 58.6648 23.835C60.0487 23.835 61.2021 23.5274 62.5091 23.143L62.0478 19.2986C61.3558 19.5293 60.7407 19.6831 60.0487 19.6831ZM11.533 10.9948C10.6873 10.6873 9.68776 10.3797 8.68823 10.0722C5.99719 9.30333 5.15143 8.91889 5.15143 7.6887C5.15143 6.30473 6.15096 5.61275 8.61134 5.61275C10.6104 5.61275 12.3788 6.15096 14.1472 6.76606L15.1467 2.30661C13.0708 1.53774 11.1486 0.845757 8.76512 0.845757C3.22925 0.845757 0.153774 3.99812 0.153774 7.76559C0.153774 10.6104 1.38397 12.4557 4.1519 13.609C4.92077 13.9165 5.9203 14.2241 6.91983 14.5316C9.91842 15.4543 10.8411 15.9156 10.8411 17.0689C10.8411 18.4529 9.68776 19.2218 7.30427 19.2218C5.15143 19.2218 3.15237 18.6067 1.07642 17.684L0 22.2972C2.30661 23.2199 4.53633 23.835 7.30427 23.835C12.9939 23.835 15.9156 20.6826 15.9156 16.8383C15.9156 13.7628 14.1472 11.9944 11.533 10.9948ZM72.12 6.91983C70.5823 6.91983 69.1214 7.30427 68.1219 7.61181V0H63.5087V23.835H68.1219V11.9175C68.9676 11.6099 69.8903 11.3024 71.0436 11.3024C72.812 11.3024 73.504 11.9944 73.504 13.6859V23.835H78.1172V13.1477C78.1172 8.91889 76.195 6.91983 72.12 6.91983ZM25.3727 6.84294C20.6826 6.84294 16.9151 10.1491 16.9151 15.3005C16.9151 20.4519 20.6826 23.9119 25.3727 23.9119C30.0628 23.9119 33.8303 20.5288 33.8303 15.3005C33.8303 10.0722 30.0628 6.84294 25.3727 6.84294ZM25.3727 19.2986C23.3736 19.2986 21.759 17.8378 21.759 15.2236C21.759 12.6095 23.2968 11.2255 25.3727 11.2255C27.4487 11.2255 28.9864 12.6095 28.9864 15.2236C28.9864 17.9147 27.3718 19.2986 25.3727 19.2986ZM128.939 13.9934C128.248 13.7628 127.556 13.5321 126.71 13.3015C125.095 12.8401 124.48 12.6095 124.48 11.9175C124.48 11.2255 125.095 10.7642 126.556 10.7642C128.094 10.7642 129.478 11.0717 131.015 11.5331L131.784 7.53493C130.093 7.15049 128.478 6.84294 126.633 6.84294C122.25 6.84294 119.867 9.07267 119.867 12.1481C119.867 14.301 120.943 15.6849 123.096 16.6076C123.711 16.8383 124.403 17.1458 125.249 17.3765C126.94 17.8378 127.786 18.0684 127.786 18.8373C127.786 19.6062 126.787 19.9137 125.403 19.9137C123.711 19.9137 122.173 19.6062 120.559 18.9911L119.867 22.9892C121.866 23.5274 123.711 23.9119 125.787 23.9119C130.4 23.9119 132.476 21.5284 132.476 18.5298C132.399 16.4538 131.554 14.9161 128.939 13.9934ZM111.64 6.84294C106.796 6.84294 103.336 10.226 103.336 15.6081C103.336 20.6057 106.335 23.9119 111.717 23.9119C114.1 23.9119 116.022 23.2199 118.022 22.3741L117.33 18.5298C115.792 19.2218 114.254 19.76 112.409 19.76C109.641 19.76 108.488 18.6067 108.334 16.9151H118.714C118.714 16.9151 118.867 15.0699 118.867 14.6854C118.867 10.3029 116.484 6.84294 111.64 6.84294ZM108.411 13.8397C108.718 12.4557 109.41 10.6873 111.409 10.6873C113.408 10.6873 114.023 12.6864 114.023 13.8397H108.411ZM141.549 19.6831C139.857 19.6831 139.627 18.9142 139.627 17.6071V11.6099H143.471V7.6887H139.627V3.07548H135.014V7.6887H132.63V11.6099H135.014V17.9147C135.014 20.6826 135.706 23.9119 140.319 23.9119C141.703 23.9119 142.856 23.6043 144.163 23.2199L143.625 19.3755C142.856 19.5293 142.241 19.6831 141.549 19.6831ZM144.624 0.922644C143.471 0.922644 142.625 1.84529 142.548 2.99859C142.472 4.1519 143.471 5.07454 144.548 5.07454C145.701 5.07454 146.624 4.1519 146.624 2.99859C146.624 1.84529 145.778 0.922644 144.624 0.922644ZM144.624 4.69011C143.702 4.69011 143.01 3.99812 143.01 2.99859C143.01 1.99906 143.702 1.30708 144.701 1.30708C145.624 1.30708 146.393 1.99906 146.316 2.99859C146.239 3.99812 145.547 4.69011 144.624 4.69011ZM144.855 3.07548C145.24 2.99859 145.47 2.84482 145.47 2.46038C145.47 2.07595 145.163 1.7684 144.701 1.7684H143.932V4.1519H144.394V3.15237C144.548 3.15237 144.624 3.22925 144.701 3.38303L145.24 4.1519H145.778L145.316 3.38303C145.009 3.22925 144.932 3.15237 144.855 3.07548ZM144.548 2.84482H144.317V2.15284H144.624C144.932 2.15284 145.009 2.30661 145.009 2.46038C145.009 2.76793 144.778 2.84482 144.548 2.84482ZM99.0305 7.6887L96.1087 16.5307L93.187 7.6887H89.1889L86.1903 16.5307L83.2686 7.6887H78.271L84.0375 23.835H88.2663L91.188 15.0699L94.1097 23.835H98.3385L104.105 7.6887H99.0305Z" fill="#304CB2"/>
<path d="M158.849 6.76581C157.311 6.76581 156.004 7.30402 155.005 7.84223C154.005 7.30402 152.775 6.76581 151.16 6.76581C148.008 6.76581 146.009 8.76487 146.009 12.3017C146.009 16.5305 150.084 20.6824 155.005 24.0654C159.925 20.7592 164 16.6073 164 12.3017C164 8.76487 161.924 6.76581 158.849 6.76581Z" fill="#CCCCCC"/>
<path d="M146.471 12.379C146.471 16.6846 151.084 20.7596 154.928 23.4507C156.082 22.6818 157.235 21.7592 158.311 20.8365C153.16 16.5309 148.239 12.6096 146.548 11.2256C146.548 11.5332 146.471 11.9176 146.471 12.379Z" fill="url(#paint0_linear)"/>
<path d="M163.155 14.3779C159.388 11.3024 157.158 9.68774 154.697 8.22689C154.005 7.84245 152.698 7.22736 151.238 7.22736C149.854 7.22736 148.623 7.68868 147.778 8.53444C147.239 9.07265 146.855 9.76463 146.701 10.6104C148.623 11.9944 153.929 15.7618 159.234 19.9906C161.002 18.2991 162.463 16.3769 163.155 14.3779Z" fill="url(#paint1_linear)"/>
<path d="M162.156 8.53444C161.31 7.68868 160.157 7.22736 158.773 7.22736C157.312 7.22736 156.235 7.68868 155.39 8.15C156.851 8.99576 160.003 10.7642 163.309 13.2245C163.386 12.917 163.386 12.5326 163.386 12.225C163.463 10.6873 163.001 9.38019 162.156 8.53444Z" fill="url(#paint2_linear)"/>
<defs>
<linearGradient id="paint0_linear" x1="146.505" y1="17.2847" x2="158.389" y2="17.2847" gradientUnits="userSpaceOnUse">
<stop stop-color="#3656CC"/>
<stop offset="0.35" stop-color="#304CB2"/>
<stop offset="0.72" stop-color="#283B80"/>
</linearGradient>
<linearGradient id="paint1_linear" x1="148.192" y1="7.89635" x2="161.618" y2="17.2972" gradientUnits="userSpaceOnUse">
<stop offset="0.3" stop-color="#E61C23"/>
<stop offset="0.8" stop-color="#C3161C"/>
</linearGradient>
<linearGradient id="paint2_linear" x1="156.516" y1="6.68107" x2="164.192" y2="12.056" gradientUnits="userSpaceOnUse">
<stop stop-color="#FDBC11"/>
<stop offset="0.25" stop-color="#FCB415"/>
<stop offset="0.8" stop-color="#F89E1C"/>
</linearGradient>
</defs>
</svg>
