<svg width="116" height="120" viewBox="0 0 116 120" fill="none" xmlns="http://www.w3.org/2000/svg">
<path d="M75.5227 88.4918H34.1074C32.4642 88.4887 30.8892 87.8346 29.7273 86.6727C28.5654 85.5108 27.9113 83.9358 27.9082 82.2925V43.2492C27.9116 41.6062 28.5659 40.0316 29.7278 38.8699C30.8896 37.7082 32.4645 37.0542 34.1074 37.0511H75.5227C77.1657 37.0542 78.7404 37.7082 79.9023 38.8699C81.0643 40.0316 81.7185 41.6062 81.7219 43.2492V82.2925C81.7187 83.9358 81.0647 85.5108 79.9028 86.6727C78.7409 87.8346 77.1659 88.4887 75.5227 88.4918ZM34.1074 39.6246C33.1475 39.6255 32.2272 40.0072 31.5484 40.6858C30.8695 41.3645 30.4875 42.2846 30.4863 43.2445V82.2925C30.4873 83.2527 30.8691 84.1732 31.5479 84.852C32.2268 85.5309 33.1473 85.9127 34.1074 85.9136H75.5227C76.4828 85.9127 77.4033 85.5309 78.0822 84.852C78.761 84.1732 79.1428 83.2527 79.1438 82.2925V43.2492C79.1425 42.2893 78.7606 41.3692 78.0817 40.6905C77.4028 40.0119 76.4826 39.6302 75.5227 39.6293L34.1074 39.6246Z" fill="black"/>
<path d="M80.4328 50.4574H29.1973V53.0355H80.4328V50.4574Z" fill="black"/>
<path d="M40.6572 43.8199C40.3154 43.8199 39.9875 43.6841 39.7457 43.4424C39.504 43.2006 39.3682 42.8727 39.3682 42.5309V32.7176C39.3682 32.3758 39.504 32.0479 39.7457 31.8061C39.9875 31.5643 40.3154 31.4285 40.6572 31.4285C40.9991 31.4285 41.327 31.5643 41.5687 31.8061C41.8105 32.0479 41.9463 32.3758 41.9463 32.7176V42.5309C41.9463 42.8727 41.8105 43.2006 41.5687 43.4424C41.327 43.6841 40.9991 43.8199 40.6572 43.8199Z" fill="black"/>
<path d="M54.8159 43.8199C54.474 43.8199 54.1461 43.6841 53.9044 43.4424C53.6627 43.2006 53.5269 42.8727 53.5269 42.5309V32.7176C53.5269 32.3758 53.6627 32.0479 53.9044 31.8061C54.1461 31.5643 54.474 31.4285 54.8159 31.4285C55.1578 31.4285 55.4856 31.5643 55.7274 31.8061C55.9692 32.0479 56.105 32.3758 56.105 32.7176V42.5309C56.105 42.8727 55.9692 43.2006 55.7274 43.4424C55.4856 43.6841 55.1578 43.8199 54.8159 43.8199Z" fill="black"/>
<path d="M68.9062 43.8199C68.5644 43.8199 68.2365 43.6841 67.9948 43.4424C67.753 43.2006 67.6172 42.8727 67.6172 42.5309V32.7176C67.6172 32.3758 67.753 32.0479 67.9948 31.8061C68.2365 31.5643 68.5644 31.4285 68.9062 31.4285C69.2481 31.4285 69.576 31.5643 69.8177 31.8061C70.0595 32.0479 70.1953 32.3758 70.1953 32.7176V42.5309C70.1953 42.8727 70.0595 43.2006 69.8177 43.4424C69.576 43.6841 69.2481 43.8199 68.9062 43.8199Z" fill="black"/>
<path d="M70.3125 68.5723C70.2997 68.0354 70.0808 67.524 69.7013 67.1442C69.3216 66.7643 68.8104 66.5452 68.2735 66.532H61.418C61.2286 66.532 61.0424 66.4837 60.8767 66.392C60.7111 66.3001 60.5716 66.1677 60.4711 66.007L54.3282 56.1785C54.2277 56.018 54.0882 55.8855 53.9226 55.7938C53.7569 55.7019 53.5707 55.6536 53.3813 55.6535H52.7953C52.6201 55.6536 52.4474 55.695 52.2911 55.7742C52.1348 55.8533 51.9993 55.9682 51.8955 56.1094C51.7916 56.2506 51.7225 56.4142 51.6937 56.587C51.6647 56.7598 51.6768 56.9371 51.7289 57.1043L54.2227 65.0812C54.2748 65.2486 54.287 65.4258 54.2581 65.5986C54.2291 65.7714 54.16 65.935 54.0563 66.0762C53.9525 66.2174 53.8169 66.3322 53.6607 66.4114C53.5043 66.4905 53.3316 66.5319 53.1563 66.532H47.7598C47.5864 66.532 47.4153 66.4917 47.2601 66.4143C47.105 66.3368 46.9698 66.2242 46.8657 66.0855L45.4969 64.2598C45.3928 64.1209 45.2578 64.0082 45.1027 63.9305C44.9474 63.8529 44.7763 63.8123 44.6028 63.8121C44.4299 63.8123 44.2594 63.8527 44.1047 63.93C43.95 64.0072 43.8154 64.1194 43.7113 64.2574C43.6074 64.3955 43.5367 64.5559 43.5052 64.7258C43.4736 64.8959 43.4819 65.0708 43.5293 65.2371L44.3942 68.2652C44.4516 68.4659 44.4516 68.6787 44.3942 68.8793L43.5293 71.9074C43.4819 72.0736 43.4736 72.2486 43.5051 72.4185C43.5367 72.5884 43.6073 72.7487 43.7113 72.8868C43.8154 73.0248 43.95 73.1367 44.1047 73.2139C44.2594 73.2911 44.4299 73.3313 44.6028 73.3313C44.7762 73.3313 44.9473 73.2909 45.1026 73.2135C45.2577 73.136 45.3927 73.0234 45.4969 72.8848L46.8657 71.059C46.9698 70.9201 47.1048 70.8074 47.26 70.7297C47.4152 70.652 47.5862 70.6116 47.7598 70.6113H53.161C53.3363 70.6114 53.509 70.6528 53.6653 70.7319C53.8216 70.8111 53.9571 70.926 54.061 71.0672C54.1647 71.2084 54.2338 71.372 54.2628 71.5448C54.2917 71.7176 54.2795 71.8949 54.2274 72.0621L51.7336 80.0391C51.6815 80.2064 51.6694 80.3836 51.6984 80.5565C51.7272 80.7292 51.7963 80.8928 51.9002 81.034C52.004 81.1752 52.1394 81.2901 52.2958 81.3693C52.4521 81.4484 52.6248 81.4897 52.8 81.4899H53.386C53.5755 81.4901 53.7618 81.4419 53.9275 81.3501C54.0932 81.2582 54.2327 81.1256 54.3328 80.9649L60.4688 71.1328C60.5693 70.9724 60.7089 70.84 60.8745 70.7482C61.0402 70.6563 61.2263 70.6081 61.4157 70.6078H68.2758C68.8115 70.5942 69.3215 70.3754 69.7005 69.9966C70.0796 69.6178 70.2986 69.1079 70.3125 68.5723Z" fill="black"/>
</svg>
