<svg width="116" height="120" viewBox="0 0 116 120" fill="none" xmlns="http://www.w3.org/2000/svg">
<path d="M78.9081 41.0391C78.8394 40.8192 78.6862 40.6356 78.4822 40.5286C78.2781 40.4217 78.0399 40.4003 77.82 40.469C77.6002 40.5376 77.4166 40.6909 77.3097 40.8949C77.2027 41.099 77.1813 41.3372 77.2499 41.557C77.264 41.6004 78.5038 45.675 76.5972 48.3188C75.5648 47.8676 73.2691 46.5305 72.6984 43.3887C72.678 43.2764 72.6357 43.1693 72.5739 43.0733C72.512 42.9775 72.432 42.8946 72.3381 42.8297C72.2444 42.7647 72.1387 42.7188 72.0271 42.6947C71.9157 42.6706 71.8005 42.6687 71.6882 42.6891C71.576 42.7095 71.4688 42.7518 71.3729 42.8135C71.277 42.8754 71.1942 42.9554 71.1292 43.0493C71.0642 43.1431 71.0184 43.2488 70.9942 43.3602C70.9701 43.4718 70.9682 43.587 70.9886 43.6992C71.9261 48.8321 76.4542 50.1328 76.6464 50.1856C76.7997 50.2282 76.9618 50.2278 77.1148 50.184C77.2679 50.1405 77.4059 50.0554 77.5136 49.9383C78.8027 48.5403 79.4566 46.5469 79.3886 44.1727C79.3599 43.1121 79.1984 42.0594 78.9081 41.0391Z" fill="black"/>
<path d="M81.8063 40.3219C81.5599 40.3219 81.319 40.3949 81.1141 40.5318C80.9093 40.6687 80.7497 40.8633 80.6554 41.0909C80.5611 41.3185 80.5364 41.569 80.5845 41.8107C80.6325 42.0523 80.7512 42.2742 80.9254 42.4485C81.0996 42.6226 81.3216 42.7414 81.5632 42.7894C81.8048 42.8374 82.0554 42.8127 82.283 42.7185C82.5106 42.6242 82.7051 42.4646 82.842 42.2597C82.979 42.0549 83.052 41.8139 83.052 41.5676C83.0516 41.2374 82.9204 40.9206 82.6868 40.6871C82.4532 40.4535 82.1365 40.3223 81.8063 40.3219Z" fill="black"/>
<path d="M92.9838 42.5766L91.3596 41.8992L86.133 39.7266L84.067 36.9844C83.1632 35.7952 81.9973 34.8303 80.6599 34.165C79.3226 33.4994 77.8499 33.1514 76.3561 33.1477C74.8591 33.1454 73.3951 33.5864 72.1486 34.4153C70.9021 35.244 69.9288 36.4235 69.3518 37.8047L64.6795 48.948L63.9506 50.6871L63.5604 51.6164H51.4901C49.4578 51.6135 47.4627 52.1619 45.7174 53.2031C43.6256 51.8836 42.1361 50.1797 41.2854 48.1324C40.7358 46.8105 40.4311 44.8793 40.3889 43.2187C40.6502 40.9711 41.6779 36.4945 41.6861 36.484C41.9212 35.9046 41.9201 35.2562 41.683 34.6777C41.4459 34.0991 40.9916 33.6364 40.4176 33.3887C39.8435 33.141 39.1952 33.1278 38.6116 33.3523C38.028 33.5766 37.5554 34.0206 37.2951 34.5891L37.2752 34.6336C36.4699 36.4279 35.8654 38.3057 35.4729 40.2328C34.683 44.1211 34.9022 47.5922 36.1244 50.5453C37.2709 53.3639 39.0865 55.8608 41.4143 57.8203C40.5403 59.5605 40.1448 61.5019 40.2682 63.4453C40.2752 63.5563 40.2834 63.6688 40.2928 63.7828C40.3983 65.0719 40.1111 66.6082 39.4385 68.3391C39.0424 69.1934 38.7494 69.8531 38.5385 70.3594C38.174 70.9805 37.2236 72.5566 36.8252 73.1086C35.6468 74.7328 35.0126 76.6882 35.0135 78.6949V87.8988C35.0144 89.089 35.4875 90.2301 36.329 91.0719C37.1706 91.9135 38.3116 92.387 39.5018 92.3883H46.6901C46.8064 92.3872 46.9214 92.3631 47.0283 92.3171C47.1351 92.2712 47.2317 92.2044 47.3126 92.1207C47.3934 92.0372 47.4567 91.9383 47.499 91.8299C47.5412 91.7215 47.5613 91.6057 47.5584 91.4894C47.5584 91.4426 47.351 87.1535 43.0584 86.6391V79.5703C44.3952 79.0755 45.6933 78.4821 46.942 77.7949V86.291C46.9433 87.4813 47.4166 88.6225 48.2584 89.4641C49.1 90.3059 50.2412 90.7792 51.4315 90.7805H58.6198C58.7361 90.7793 58.851 90.7549 58.9578 90.7089C59.0646 90.6628 59.1612 90.5959 59.2419 90.5121C59.3226 90.4284 59.3859 90.3294 59.428 90.2209C59.4701 90.1125 59.4901 89.9967 59.4869 89.8805C59.4869 89.8348 59.2795 85.5445 54.9869 85.0301V77.9578C56.6451 77.3496 61.2916 75.4219 64.4158 71.9074H66.6424V87.9059C66.6433 89.0965 67.1168 90.238 67.9588 91.0798C68.8008 91.9215 69.9424 92.3947 71.133 92.3953H78.3213C78.4377 92.3943 78.5527 92.3701 78.6594 92.3242C78.7663 92.2782 78.863 92.2114 78.9438 92.1278C79.0247 92.0442 79.088 91.9453 79.1303 91.8369C79.1725 91.7285 79.1926 91.6127 79.1897 91.4965C79.1735 91.256 79.1394 91.0171 79.0877 90.7816H83.5807C83.6971 90.7805 83.812 90.7561 83.9189 90.71C84.0258 90.664 84.1225 90.5972 84.2033 90.5134C84.2841 90.4296 84.3475 90.3307 84.3896 90.2222C84.4318 90.1138 84.452 89.998 84.4491 89.8816C84.4491 89.8359 84.2416 85.5457 79.9491 85.0312V79.5703C79.9578 79.52 79.9625 79.4691 79.9631 79.418L79.9491 69.4676C81.3417 67.9442 82.1132 65.9545 82.1112 63.8906V51.3961H85.3924C86.5597 51.4042 87.7153 51.1627 88.7816 50.6877C89.848 50.2127 90.8004 49.5153 91.5752 48.6422C92.6542 47.423 93.317 45.8921 93.4678 44.2711V44.2418C93.4948 43.9547 93.51 43.6664 93.51 43.3781C93.5107 43.2076 93.4611 43.0406 93.3676 42.8981C93.274 42.7556 93.1405 42.6437 92.9838 42.5766ZM66.1479 49.9301L80.3733 55.2762V57.532L65.2901 51.9832L66.1479 49.9301ZM53.8572 76.5117C53.6805 76.5675 53.5263 76.6784 53.4171 76.828C53.3079 76.9778 53.2494 77.1585 53.2502 77.3437V85.8539C53.2502 86.0843 53.3416 86.3053 53.5045 86.4683C53.6673 86.6313 53.8882 86.7231 54.1186 86.7234C56.4401 86.7234 57.2826 88.0863 57.5815 89.0484H51.4315C50.7017 89.0475 50.002 88.7572 49.486 88.2411C48.9699 87.7252 48.6797 87.0254 48.6787 86.2957V76.7496C50.528 75.5332 52.4088 73.9371 53.726 71.9074H61.9655C58.5213 75.007 53.9065 76.4953 53.8572 76.5117ZM82.5448 89.0437H78.4432C77.8291 87.9656 76.7135 86.8875 74.6932 86.6461V72.1383C75.9425 72.0068 77.1451 71.5911 78.2088 70.923L78.2229 78.9832C78.2141 79.0319 78.2093 79.0813 78.2088 79.1309V85.8504C78.2088 85.9645 78.2313 86.0775 78.275 86.183C78.3187 86.2884 78.3829 86.3842 78.4636 86.4648C78.5443 86.5454 78.6402 86.6094 78.7457 86.653C78.8512 86.6966 78.9642 86.7189 79.0784 86.7187C81.4034 86.7187 82.2424 88.0828 82.5448 89.0437ZM80.3768 63.8941C80.3743 65.6305 79.6838 67.2953 78.4563 68.5235C77.2289 69.7518 75.5648 70.4435 73.8284 70.4473C73.5981 70.4473 73.3772 70.5388 73.2143 70.7016C73.0515 70.8644 72.96 71.0853 72.96 71.3156V87.4652C72.96 87.6955 73.0515 87.9164 73.2143 88.0793C73.3772 88.2421 73.5981 88.3336 73.8284 88.3336C75.278 88.3336 76.3209 88.8527 76.9291 89.8781C77.0752 90.1243 77.193 90.3861 77.2807 90.6586H71.133C70.4034 90.658 69.7037 90.3678 69.1877 89.8521C68.6716 89.3362 68.3812 88.6368 68.3803 87.907V71.0391C68.3803 70.8087 68.2889 70.5876 68.126 70.4246C67.9632 70.2615 67.7423 70.1699 67.5119 70.1695H53.2444C53.0935 70.1695 52.9453 70.2087 52.8143 70.2833C52.6831 70.3578 52.5737 70.4653 52.4967 70.5949C49.4744 75.6855 42.0037 78.1019 41.9287 78.1254C41.7526 78.1809 41.5987 78.2913 41.4896 78.4403C41.3804 78.5892 41.3216 78.7692 41.3217 78.9539V87.4641C41.3217 87.6944 41.4131 87.9155 41.576 88.0785C41.7388 88.2415 41.9597 88.3332 42.1901 88.3336C43.6385 88.3336 44.6826 88.8527 45.2908 89.8781C45.4369 90.1243 45.5547 90.3861 45.6424 90.6586H39.5018C38.7722 90.6576 38.0726 90.3673 37.5567 89.8512C37.0409 89.3352 36.7508 88.6356 36.7502 87.9059V78.702C36.7503 77.0599 37.2701 75.4602 38.235 74.1316C38.5467 73.6992 39.019 72.8086 39.4068 72.0949C39.6998 71.6953 40.1545 70.8258 41.0604 68.9754C41.8279 66.9973 42.1537 65.2043 42.026 63.648C42.0178 63.5461 42.0108 63.4453 42.0049 63.3445C41.8869 61.4886 42.33 59.6402 43.2764 58.0394C43.3844 57.8561 43.4213 57.6394 43.3803 57.4305C43.3393 57.2217 43.2231 57.0352 43.0537 56.9062C40.1404 54.6949 38.5514 51.8672 37.7322 49.8855C35.2443 43.8668 38.2338 36.7254 38.8584 35.3543L38.8924 35.2793C38.9244 35.1974 38.9724 35.1226 39.034 35.0597C39.0954 34.9969 39.169 34.9469 39.2502 34.9131C39.3314 34.8793 39.4186 34.8622 39.5065 34.8628C39.5945 34.8634 39.6813 34.8818 39.762 34.9168C39.8427 34.9519 39.9156 35.0028 39.976 35.0666C40.0366 35.1305 40.0836 35.2058 40.1144 35.2882C40.1451 35.3706 40.159 35.4584 40.155 35.5462C40.151 35.6341 40.1293 35.7203 40.0912 35.7996C40.0842 35.8172 38.9756 40.5551 38.6779 43.2996C38.6622 43.3676 38.6547 43.4372 38.6557 43.507C38.6803 45.4348 39.026 47.2148 39.6834 48.798C40.7381 51.3457 42.6295 53.4234 45.292 54.9738C45.4325 55.0554 45.5931 55.0961 45.7554 55.0911C45.9178 55.0861 46.0755 55.0357 46.2108 54.9457C47.7756 53.9041 49.6139 53.3495 51.4936 53.3519H63.9846L80.378 59.3812L80.3768 63.8941ZM90.2721 47.4996C89.6605 48.1863 88.9091 48.7343 88.0683 49.1066C87.2275 49.4789 86.3167 49.667 85.3971 49.6582H81.2452C81.1311 49.6582 81.0182 49.6807 80.9128 49.7243C80.8075 49.7679 80.7118 49.8319 80.6311 49.9125C80.5505 49.9931 80.4866 50.0889 80.4429 50.1942C80.3993 50.2996 80.3768 50.4125 80.3768 50.5266V53.4199L66.8241 48.3258L70.9537 38.4762C71.3988 37.4108 72.1495 36.5012 73.1109 35.8621C74.0723 35.2228 75.2016 34.8826 76.3561 34.8844C77.582 34.887 78.7907 35.1723 79.8882 35.7183C80.9858 36.2641 81.9427 37.056 82.6842 38.032L84.8955 40.9617C84.9881 41.0846 85.112 41.1806 85.2541 41.2395L90.2639 43.3277C90.4654 44.0972 90.8997 44.7855 91.5073 45.2988C91.2575 46.1122 90.8364 46.8627 90.2721 47.4996Z" fill="black"/>
</svg>
