<svg width="120" height="125" viewBox="0 0 120 125" fill="none" xmlns="http://www.w3.org/2000/svg">
<path d="M83.5996 61.7472C83.597 58.1593 82.8875 54.6071 81.5121 51.2935C80.1366 47.9798 78.1219 44.9695 75.5829 42.4344C73.044 39.8993 70.0307 37.8892 66.7149 36.5187C63.3991 35.1482 59.8459 34.4442 56.2581 34.4469C52.486 34.4491 48.7551 35.2299 45.2988 36.7404C41.8423 38.251 38.7349 40.4587 36.1711 43.2255C35.2343 42.8815 34.2437 42.7068 33.2457 42.7098C32.1383 42.7071 31.0415 42.9244 30.0188 43.3491C28.9961 43.7738 28.0679 44.3974 27.2882 45.1838C27.2548 45.2169 27.2237 45.2522 27.1948 45.2894L25.2971 47.6966C23.4768 50.0048 22.2563 52.7277 21.7444 55.6222C21.2332 58.5201 21.4671 61.5004 22.4239 64.2831C23.1167 66.2851 23.9879 67.8212 25.0132 68.8489L48.5339 92.4048C49.3469 93.2202 50.4886 93.9446 51.9252 94.5573C54.0417 95.4591 56.3187 95.9229 58.6192 95.9211C62.4863 95.9168 66.2439 94.6374 69.31 92.2811L72.0158 90.2038C72.0585 90.1713 72.099 90.136 72.1371 90.0982C73.1521 89.0805 73.8906 87.8206 74.2827 86.4377C74.6749 85.0549 74.7077 83.5948 74.3782 82.1957C77.2771 79.6358 79.5985 76.4887 81.1882 72.9632C82.7781 69.4378 83.6001 65.6146 83.5996 61.7472ZM70.4652 88.3195L67.8261 90.3494C63.5103 93.6631 57.7808 94.4202 52.8716 92.326C51.7214 91.8406 50.8381 91.2849 50.2447 90.6904L26.7313 67.1345C25.9669 66.3676 25.2886 65.1421 24.7171 63.4944C23.0391 58.641 23.9685 53.3023 27.2021 49.2048L29.0585 46.8522C30.1854 45.7451 31.7044 45.1288 33.284 45.1377C34.8636 45.1466 36.3757 45.7799 37.49 46.8995L41.3727 50.7919C42.4458 51.8701 43.0481 53.3294 43.0481 54.8505C43.0481 56.3717 42.4458 57.831 41.3727 58.9092L37.0217 63.2712C36.7945 63.4987 36.667 63.807 36.667 64.1284C36.667 64.4498 36.7945 64.7581 37.0217 64.9856L52.3669 80.3466C52.4797 80.4594 52.6135 80.5488 52.761 80.6099C52.9084 80.6709 53.0664 80.7022 53.2259 80.7021C53.3856 80.7021 53.5436 80.6705 53.691 80.6093C53.8384 80.5481 53.9723 80.4585 54.085 80.3454L58.436 75.9834C58.967 75.4507 59.5978 75.028 60.2925 74.7397C60.987 74.4513 61.7317 74.3028 62.4838 74.3028C63.2358 74.3028 63.9805 74.4513 64.6752 74.7397C65.3697 75.028 66.0005 75.4507 66.5315 75.9834L70.4142 79.877C71.5289 80.9968 72.1591 82.5097 72.1691 84.0898C72.1791 85.6698 71.5681 87.1905 70.4676 88.3243L70.4652 88.3195ZM68.616 74.6366L68.252 74.2726C67.4959 73.5145 66.5975 72.913 65.6086 72.5027C64.6196 72.0922 63.5594 71.8809 62.4886 71.8809C61.4178 71.8809 60.3576 72.0922 59.3687 72.5027C58.3797 72.913 57.4814 73.5145 56.7252 74.2726L53.2247 77.7755L39.5976 64.1229L43.0933 60.6188C44.5677 59.1368 45.4192 57.1469 45.4734 55.057C45.5275 52.9673 44.7802 50.9359 43.3845 49.3796C45.0538 47.6497 47.0545 46.2738 49.2671 45.3338C51.4797 44.3938 53.8589 43.9092 56.2629 43.9086C66.1165 43.9086 74.1331 51.9106 74.1331 61.7448C74.132 64.1547 73.6427 66.5394 72.6944 68.7549C71.7462 70.9705 70.3587 72.9709 68.616 74.6354V74.6366ZM72.1347 78.1626L70.3305 76.3547C72.2995 74.4648 73.8664 72.1967 74.9373 69.6864C76.0082 67.1759 76.5609 64.4752 76.5622 61.746C76.5622 50.5723 67.4621 41.4831 56.2654 41.4831C53.5449 41.4837 50.8521 42.0302 48.3468 43.0904C45.8414 44.1506 43.5742 45.703 41.6797 47.6554L39.2106 45.1814C38.9476 44.9169 38.6671 44.6704 38.3709 44.4437C40.6965 42.0512 43.478 40.1488 46.5511 38.849C49.6241 37.5493 52.9263 36.8785 56.2629 36.876C70.0004 36.876 81.1778 48.0327 81.1778 61.7496C81.178 65.1277 80.4896 68.4703 79.1544 71.5734C77.8193 74.6764 75.8655 77.4745 73.4124 79.7969C73.055 79.2019 72.626 78.653 72.1347 78.1626Z" fill="black"/>
<path d="M64.6361 61.8225H64.5002C64.5148 59.2745 64.5233 56.5396 64.4917 56.1598C64.4201 55.3044 63.9057 54.6055 63.1813 54.3823C62.4569 54.159 61.6998 54.4393 61.1405 55.1285C60.5338 55.8735 57.7431 60.9222 56.9071 62.451C56.8054 62.6358 56.7536 62.844 56.757 63.0549C56.7603 63.2658 56.8185 63.4723 56.9259 63.6538C57.0334 63.8353 57.1863 63.9857 57.3696 64.0901C57.5528 64.1946 57.7602 64.2493 57.9712 64.2492H62.0577C62.0577 64.9299 62.0468 65.5839 62.042 66.1711C62.0405 66.3306 62.0705 66.4888 62.1302 66.6366C62.19 66.7844 62.2782 66.9191 62.39 67.0327C62.5018 67.1464 62.6349 67.2369 62.7818 67.2992C62.9286 67.3614 63.0862 67.3942 63.2456 67.3954H63.2565C63.5766 67.3954 63.8838 67.2689 64.1111 67.0434C64.3384 66.818 64.4673 66.5119 64.4699 66.1918C64.4699 65.8278 64.4796 65.124 64.4857 64.2504H64.6373C64.9591 64.2504 65.2677 64.1225 65.4953 63.895C65.7228 63.6675 65.8507 63.3588 65.8507 63.0371C65.8507 62.7153 65.7228 62.4066 65.4953 62.1791C65.2677 61.9516 64.9591 61.8237 64.6373 61.8237L64.6361 61.8225ZM62.0735 61.8225H60.029C60.7874 60.4599 61.5263 59.1531 62.0917 58.1885C62.0917 59.1847 62.0857 60.4793 62.0784 61.8225H62.0735Z" fill="black"/>
<path d="M55.1056 65.3072C54.0391 65.3205 52.907 65.329 51.9679 65.3314C52.5576 64.5391 53.3766 63.4143 54.4856 61.8236C55.1639 60.853 55.6067 59.9296 55.8009 59.0888C55.8471 58.8628 55.8751 58.6336 55.8846 58.4032C55.8881 57.4249 55.5267 56.4804 54.8706 55.7546C54.2147 55.0288 53.3116 54.5739 52.3379 54.4786C51.3642 54.3835 50.3901 54.6551 49.606 55.2403C48.822 55.8253 48.2844 56.682 48.0986 57.6425C48.0577 57.9487 48.1353 58.2591 48.3154 58.5101C48.4956 58.7612 48.7647 58.9341 49.0679 58.9935C49.3711 59.053 49.6856 58.9945 49.9471 58.83C50.2087 58.6655 50.3977 58.4075 50.4755 58.1084C50.5451 57.7458 50.7457 57.4217 51.0391 57.1976C51.3325 56.9737 51.6981 56.8655 52.0661 56.8939C52.4341 56.9222 52.7788 57.0852 53.0344 57.3515C53.29 57.6177 53.4386 57.9688 53.4518 58.3377L53.4179 58.5974C53.2856 59.1239 52.9738 59.7415 52.4897 60.4368C50.808 62.8489 49.8045 64.169 49.2658 64.8776C48.5997 65.7525 48.2951 66.1529 48.5026 66.819C48.5622 67.013 48.6679 67.1898 48.8104 67.3343C48.953 67.4788 49.1283 67.5868 49.3216 67.6489C49.4842 67.7035 49.6395 67.7557 51.7034 67.7557C52.5139 67.7557 53.6181 67.7472 55.1311 67.729C55.4529 67.725 55.76 67.5934 55.9846 67.3629C56.2093 67.1325 56.3333 66.8223 56.3293 66.5005C56.3253 66.1787 56.1936 65.8716 55.9632 65.647C55.7328 65.4223 55.4226 65.2983 55.1008 65.3023L55.1056 65.3072Z" fill="black"/>
</svg>
