<svg width="116" height="120" viewBox="0 0 116 120" fill="none" xmlns="http://www.w3.org/2000/svg">
<path d="M88.2421 77.1727C89.5458 77.1766 90.831 76.8636 91.9868 76.2606C93.1428 75.6575 94.1346 74.7825 94.8773 73.7109C94.915 73.6672 94.9502 73.6215 94.9827 73.5738C96.0174 72.0163 96.4806 70.1484 96.2939 68.288C96.1071 66.4274 95.282 64.6889 93.9585 63.368C92.6602 62.0613 91.1158 61.025 89.4145 60.319C87.7131 59.613 85.8887 59.2513 84.0468 59.2547H69.7089L59.7796 38.4012C59.468 37.7467 58.9776 37.1937 58.365 36.8061C57.7525 36.4186 57.0428 36.2122 56.3179 36.2109H52.8093C51.7908 36.2109 50.8141 36.6156 50.0938 37.3357C49.3737 38.0559 48.9691 39.0327 48.9691 40.0512V59.25H32.1198L28.6558 39.5941C28.5466 39.0034 28.2345 38.4693 27.7734 38.0842C27.3122 37.6991 26.7312 37.487 26.1304 37.4848H22.0851C21.433 37.4844 20.8055 37.733 20.3305 38.1797C19.8555 38.6264 19.5689 39.2374 19.5292 39.8883C19.5034 40.3043 19.4542 62.6742 19.7636 62.9508C20.1855 63.3258 21.3609 63.491 21.832 63.2191C22.228 62.9848 22.0816 40.5023 22.0816 40.0441H26.1327L29.5206 59.25H25.9698C25.6394 59.2458 25.3195 59.3666 25.0744 59.5883C24.8293 59.8099 24.6769 60.1161 24.648 60.4453C24.6364 60.6202 24.6609 60.7956 24.7198 60.9606C24.7787 61.1256 24.871 61.2768 24.9907 61.4047C25.1105 61.5328 25.2552 61.6348 25.4159 61.7046C25.5767 61.7743 25.7501 61.8104 25.9253 61.8106H84.0503C85.5571 61.8073 87.0495 62.1028 88.4412 62.6801C89.833 63.2575 91.0964 64.105 92.1585 65.1738C92.2979 65.3254 92.4285 65.4845 92.5499 65.6508L75.2917 65.6648C74.9614 65.6606 74.6417 65.7816 74.3966 66.0032C74.1517 66.2249 73.9997 66.531 73.971 66.8602C73.9594 67.035 73.9839 67.2104 74.0429 67.3754C74.1018 67.5404 74.194 67.6916 74.3138 67.8196C74.4336 67.9477 74.5783 68.0496 74.7389 68.1195C74.8997 68.1892 75.0732 68.2253 75.2484 68.2254L93.6948 68.2113C93.7462 68.5032 93.7748 68.7987 93.7804 69.0949C93.7805 70.1319 93.4867 71.1477 92.9331 72.0246C92.8995 72.0652 92.8687 72.1078 92.8405 72.1523C92.339 72.9108 91.6568 73.5327 90.8554 73.9622C90.0539 74.3917 89.1584 74.6155 88.2491 74.6133H69.7089L71.8687 70.0781C71.9484 69.9177 71.9947 69.7426 72.0045 69.5637C72.0143 69.3848 71.9877 69.2058 71.9261 69.0375C71.8367 68.8032 71.6805 68.6004 71.4768 68.454C71.2731 68.3078 71.031 68.2245 70.7805 68.2145C70.5299 68.2045 70.282 68.2683 70.0673 68.3979C69.8526 68.5275 69.6808 68.7173 69.573 68.9438L64.0652 80.4938C64.0593 80.5078 64.0511 80.5207 64.0464 80.5348L57.4675 94.3629C57.363 94.5802 57.1996 94.7637 56.9959 94.8927C56.7924 95.0218 56.5566 95.0912 56.3155 95.093H52.8093C52.4698 95.0926 52.1443 94.9576 51.9044 94.7174C51.6644 94.4773 51.5296 94.1516 51.5296 93.8121V69.5543C51.5343 69.2222 51.4138 68.9005 51.1921 68.6531C50.9705 68.4059 50.6638 68.2511 50.3331 68.2195C50.1584 68.2068 49.983 68.2303 49.8179 68.2884C49.6526 68.3467 49.5012 68.4384 49.3731 68.558C49.245 68.6775 49.1431 68.8221 49.0736 68.9829C49.004 69.1437 48.9685 69.317 48.9691 69.4922V74.6121H25.9253C24.9068 74.6121 23.9301 74.2075 23.2098 73.4873C22.4897 72.7671 22.0851 71.7904 22.0851 70.7719V50.352C22.0895 50.02 21.9689 49.6983 21.7473 49.451C21.5256 49.2038 21.2192 49.0489 20.8886 49.0172C20.714 49.0044 20.5387 49.0279 20.3736 49.0861C20.2084 49.1442 20.0571 49.2359 19.9291 49.3552C19.801 49.4746 19.699 49.6191 19.6294 49.7797C19.5598 49.9404 19.5241 50.1136 19.5245 50.2887V70.7719C19.5268 72.4688 20.2018 74.0957 21.4016 75.2955C22.6015 76.4954 24.2284 77.1704 25.9253 77.1727H48.9691V93.7793C48.9691 95.918 50.6788 97.4766 52.8093 97.6559C53.646 97.7262 54.4195 97.6348 55.2362 97.6559C57.2519 97.7098 59.1351 96.9375 59.9976 95.1152L67.2761 79.7332L68.4948 77.1727H88.2421ZM51.5296 40.0465C51.5296 39.7071 51.6644 39.3816 51.9044 39.1416C52.1444 38.9016 52.4699 38.7668 52.8093 38.7668H56.3179C56.5598 38.7648 56.7971 38.8327 57.0014 38.9621C57.2058 39.0916 57.3684 39.2773 57.4698 39.4969L66.8741 59.25H51.5296V40.0465Z" fill="#030402"/>
</svg>
