<svg width="116" height="120" viewBox="0 0 116 120" fill="none" xmlns="http://www.w3.org/2000/svg">
<path d="M88.9027 72.7734C88.8836 72.7044 88.8507 72.6399 88.8062 72.5839C88.7616 72.5278 88.7062 72.4813 88.6433 72.4471C88.5805 72.4128 88.5112 72.3915 88.4399 72.3846C88.3687 72.3776 88.2967 72.3849 88.2284 72.4064C88.16 72.4277 88.0967 72.4626 88.0421 72.5089C87.9875 72.5553 87.9427 72.6122 87.9105 72.6762C87.8783 72.7401 87.8593 72.8099 87.8546 72.8814C87.8499 72.9528 87.8596 73.0246 87.8832 73.0922C87.8914 73.1191 88.6543 75.6234 87.4824 77.2488C86.8621 76.983 86.318 76.5668 85.8993 76.0376C85.4807 75.5083 85.2007 74.883 85.0848 74.2183C85.0722 74.1491 85.0462 74.083 85.0081 74.0238C84.97 73.9646 84.9206 73.9135 84.8628 73.8735C84.8049 73.8334 84.7398 73.805 84.671 73.7901C84.6022 73.7751 84.5312 73.774 84.4619 73.7865C84.3927 73.799 84.3266 73.8251 84.2674 73.8631C84.2082 73.9012 84.1571 73.9507 84.117 74.0085C84.0769 74.0664 84.0486 74.1315 84.0337 74.2003C84.0187 74.2691 84.0175 74.3401 84.0301 74.4094C84.6031 77.564 87.3887 78.3644 87.507 78.3937C87.5532 78.4063 87.6009 78.4126 87.6488 78.4125C87.7224 78.4127 87.7952 78.3976 87.8626 78.3682C87.9299 78.3386 87.9904 78.2955 88.0402 78.2414C88.8359 77.3824 89.2344 76.1566 89.1933 74.6976C89.1766 74.0467 89.079 73.4003 88.9027 72.7734Z" fill="black"/>
<path d="M90.6846 72.3317C90.533 72.3314 90.3847 72.3762 90.2585 72.4602C90.1323 72.5444 90.0339 72.6639 89.9757 72.8039C89.9175 72.944 89.9021 73.0981 89.9316 73.2469C89.9611 73.3956 90.034 73.5322 90.1411 73.6396C90.2482 73.7469 90.3848 73.8199 90.5334 73.8497C90.6821 73.8793 90.8364 73.8642 90.9764 73.8062C91.1166 73.7482 91.2363 73.65 91.3206 73.5239C91.4048 73.3979 91.4498 73.2497 91.4498 73.0981C91.4498 72.895 91.3692 72.7002 91.2258 72.5565C91.0823 72.4129 90.8877 72.332 90.6846 72.3317Z" fill="black"/>
<path d="M97.5556 73.718L96.563 73.3019L93.3521 71.9637L92.0747 70.2808C91.5189 69.5499 90.8022 68.9569 89.9801 68.5477C89.158 68.1386 88.2528 67.9244 87.3345 67.9219C86.4148 67.9203 85.5151 68.191 84.749 68.6999C83.9828 69.2087 83.3843 69.9329 83.029 70.7812L80.1567 77.6344L58.381 67.4261C58.2819 67.325 58.1468 67.2672 58.0053 67.2657C57.8638 67.2642 57.7274 67.3189 57.6263 67.4179C57.5251 67.517 57.4674 67.6521 57.4659 67.7936C57.4643 67.9351 57.5191 68.0715 57.6181 68.1726L79.7079 78.7031L79.4735 79.2738H72.0497C70.8004 79.2719 69.5739 79.6093 68.5013 80.25C67.2122 79.439 66.2993 78.3914 65.7767 77.1328C65.4392 76.3207 65.2517 75.1336 65.2247 74.1129C65.3864 72.7312 63.461 71.475 62.6232 72.8836C61.3763 74.9789 61.8521 76.8012 62.6044 78.6187C63.3105 80.3502 64.4278 81.8835 65.8599 83.0859C65.3235 84.1566 65.0808 85.3502 65.1567 86.5453C65.1567 86.6144 65.1661 86.6836 65.172 86.7527C65.2364 87.5473 65.0548 88.4894 64.647 89.5535C64.4032 90.0785 64.2239 90.484 64.0939 90.7957C63.87 91.1777 63.2853 92.1457 63.0392 92.4855C62.3151 93.484 61.9254 94.6859 61.9259 95.9191V101.577C61.9265 102.309 62.2175 103.01 62.7348 103.528C63.2523 104.045 63.9539 104.336 64.6857 104.337H69.1036C69.1751 104.336 69.2458 104.321 69.3114 104.293C69.377 104.264 69.4364 104.223 69.486 104.172C69.5357 104.12 69.5746 104.059 69.6004 103.993C69.6263 103.926 69.6387 103.855 69.6368 103.784C69.6368 103.755 69.5103 101.118 66.8712 100.802V96.4547C67.6928 96.1519 68.4906 95.7884 69.2583 95.3672V100.59C69.2592 101.322 69.5503 102.023 70.0676 102.541C70.585 103.058 71.2865 103.349 72.0181 103.35H76.436C76.5076 103.349 76.5783 103.334 76.6441 103.306C76.7097 103.278 76.7692 103.237 76.8189 103.185C76.8686 103.134 76.9076 103.073 76.9336 103.006C76.9596 102.94 76.9722 102.868 76.9704 102.797C76.9704 102.769 76.8427 100.131 74.2036 99.8156V95.4668C75.2232 95.093 78.079 93.9082 79.9997 91.7473H81.3708V101.582C81.3714 102.313 81.6624 103.015 82.1798 103.532C82.6973 104.05 83.3989 104.341 84.1306 104.341H88.5485C88.6201 104.341 88.6908 104.326 88.7566 104.297C88.8222 104.269 88.8817 104.228 88.9314 104.177C88.9811 104.125 89.0201 104.064 89.0461 103.998C89.0721 103.931 89.0847 103.86 89.0829 103.788C89.0725 103.641 89.0513 103.494 89.0196 103.35H91.7818C91.8532 103.349 91.9239 103.334 91.9895 103.306C92.0552 103.278 92.1146 103.237 92.1641 103.185C92.2138 103.134 92.2527 103.073 92.2786 103.006C92.3044 102.94 92.3168 102.868 92.315 102.797C92.315 102.769 92.1884 100.131 89.5493 99.8156V96.4605C89.5545 96.4291 89.5572 96.3974 89.5575 96.3656L89.5493 90.2496C90.4052 89.3133 90.8793 88.0904 90.8782 86.8219V79.1391H92.8974C93.6148 79.1437 94.325 78.9953 94.9804 78.7035C95.6357 78.4117 96.2213 77.9832 96.6978 77.4469C97.3564 76.6976 97.7604 75.7589 97.8521 74.7656C97.8526 74.7594 97.8526 74.7531 97.8521 74.7469C97.8696 74.5711 97.8778 74.3953 97.8778 74.216C97.8798 74.1103 97.8502 74.0065 97.7928 73.9178C97.7353 73.829 97.6527 73.7594 97.5556 73.718ZM81.0614 78.2379L89.806 81.5191V82.9101L80.5317 79.5L81.0614 78.2379ZM73.504 94.5773C73.3958 94.6119 73.3015 94.6799 73.2346 94.7715C73.1676 94.863 73.1315 94.9737 73.1314 95.0871V100.318C73.1314 100.46 73.1876 100.596 73.2879 100.696C73.3881 100.796 73.5241 100.853 73.6657 100.853C75.0919 100.853 75.6075 101.691 75.7939 102.281H72.0134C71.5649 102.281 71.1348 102.103 70.8176 101.786C70.5004 101.469 70.3218 101.039 70.3212 100.59V94.7238C71.4579 93.9762 72.6146 92.9918 73.4243 91.7473H78.4892C76.3716 93.6527 73.5368 94.5703 73.504 94.5773ZM91.1384 102.281H88.6165C88.2392 101.618 87.5536 100.956 86.3114 100.807V91.8902C87.0808 91.8089 87.8214 91.5532 88.4771 91.1426L88.4853 96.0973C88.4795 96.127 88.4768 96.1573 88.4771 96.1875V100.318C88.4769 100.388 88.4905 100.458 88.5173 100.523C88.5441 100.588 88.5832 100.646 88.6328 100.696C88.6824 100.746 88.7412 100.785 88.8059 100.812C88.8707 100.839 88.9402 100.853 89.0103 100.853C90.4376 100.853 90.9532 101.691 91.1384 102.281ZM89.806 86.8219C89.8047 87.8891 89.3805 88.9124 88.6261 89.6673C87.8718 90.4223 86.849 90.8475 85.7817 90.8496C85.6401 90.8496 85.5041 90.9059 85.4039 91.0062C85.3036 91.1064 85.2474 91.2423 85.2474 91.384V101.311C85.2474 101.453 85.3036 101.589 85.4039 101.689C85.5041 101.789 85.6401 101.845 85.7817 101.845C86.6724 101.845 87.3134 102.164 87.6872 102.795C87.7766 102.946 87.8486 103.106 87.9017 103.274H84.1259C83.6774 103.273 83.2473 103.095 82.9301 102.778C82.6129 102.461 82.4343 102.031 82.4337 101.583V91.2141C82.4337 91.0725 82.3776 90.9368 82.2776 90.8366C82.1777 90.7364 82.0421 90.68 81.9005 90.6797H73.1255C73.0336 90.6797 72.9433 90.7035 72.8631 90.7486C72.7831 90.7938 72.716 90.8589 72.6685 90.9375C70.8099 94.0664 66.2173 95.5523 66.1716 95.5664C66.0635 95.6007 65.9692 95.6685 65.9023 95.7599C65.8353 95.8513 65.7991 95.9617 65.7989 96.075V101.307C65.7989 101.449 65.8551 101.584 65.9551 101.684C66.0551 101.784 66.1907 101.841 66.3321 101.841C67.2228 101.841 67.865 102.161 68.2388 102.791C68.3278 102.942 68.3993 103.103 68.4521 103.27H64.681C64.2323 103.27 63.8021 103.092 63.4847 102.774C63.1675 102.457 62.9891 102.027 62.9888 101.578V95.9238C62.9878 94.9133 63.3075 93.9286 63.9017 93.1113C64.0927 92.8453 64.3833 92.298 64.62 91.8598C64.8005 91.6137 65.0794 91.0793 65.6361 89.9414C66.1048 88.725 66.3087 87.6234 66.2302 86.6672C66.2302 86.6051 66.2208 86.543 66.2173 86.4808C66.1449 85.3399 66.4172 84.2037 66.9989 83.2195C67.0651 83.1068 67.0879 82.9737 67.0626 82.8455C67.0373 82.7171 66.9659 82.6026 66.8618 82.5234C65.0712 81.1641 64.095 79.4262 63.5911 78.2074C62.0677 74.5078 63.8255 71.4715 64.1771 74.1598C64.167 74.2016 64.1623 74.2445 64.163 74.2875C64.1641 75.4018 64.3785 76.5057 64.7946 77.5394C65.4462 79.1062 66.6064 80.3824 68.2423 81.3351C68.3285 81.3854 68.4272 81.4106 68.5271 81.4077C68.6269 81.4049 68.7239 81.3739 68.8071 81.3187C69.7689 80.6782 70.8989 80.3373 72.0544 80.3391H79.7337L89.8118 84.0445L89.806 86.8219ZM95.8892 76.7437C95.5131 77.1657 95.0513 77.5025 94.5345 77.7315C94.0177 77.9605 93.4579 78.0764 92.8927 78.0715H90.3392C90.1977 78.0715 90.0621 78.1276 89.9622 78.2277C89.8621 78.3276 89.806 78.4632 89.806 78.6047V80.3836L81.4751 77.2523L84.0134 71.1972C84.2873 70.5425 84.7487 69.9835 85.3397 69.5907C85.9308 69.1978 86.6248 68.9886 87.3345 68.9894C88.0878 68.9913 88.8304 69.1669 89.5047 69.5025C90.1791 69.838 90.767 70.3245 91.2228 70.9242L92.5786 72.723C92.6356 72.7986 92.7116 72.8576 92.7989 72.8941L95.8786 74.1832C96.0021 74.6563 96.2691 75.0796 96.6427 75.3949C96.49 75.8928 96.2331 76.3527 95.8892 76.7437Z" fill="black"/>
<path d="M51.5733 48.0609C51.7163 48.8379 51.8745 49.6113 52.0292 50.3859C52.2823 51.6492 52.5381 52.9125 52.7968 54.1758C53.0968 55.6453 53.3987 57.1145 53.7026 58.5832C53.9854 59.9496 54.2701 61.3168 54.5569 62.6848C54.6741 63.2484 54.7913 63.8133 54.9155 64.3769C54.96 64.5832 54.9858 64.7848 55.1335 64.9488C55.2975 65.1316 55.485 65.291 55.6573 65.4703C55.744 65.5641 55.8296 65.659 55.9128 65.7562L56.0405 65.9074C56.0675 65.9402 56.1577 66.0609 56.0862 65.9625C56.2224 66.1454 56.346 66.3373 56.4565 66.5367C56.5069 66.6293 56.5538 66.723 56.5983 66.8191C56.6077 66.8391 56.6159 66.8602 56.6264 66.8801C56.6628 66.9562 56.5889 66.7852 56.6194 66.8648C56.6417 66.9199 56.6639 66.975 56.6839 67.0312C56.7577 67.2348 56.8176 67.443 56.8632 67.6547C56.8908 67.7551 56.9092 67.8579 56.9182 67.9617C56.9182 67.9617 56.9042 67.8445 56.9112 67.916L56.9218 68.0051C56.9218 68.0637 56.9323 68.1223 56.9358 68.182C56.9505 68.3974 56.9505 68.6135 56.9358 68.8289L56.9218 68.9848C56.9053 69.1383 56.9335 68.9203 56.9218 69.0293C56.91 69.1383 56.8842 69.2508 56.8596 69.3598C56.8117 69.5734 56.7487 69.7833 56.671 69.9879C56.6604 70.0172 56.6487 70.0453 56.6382 70.0734C56.6276 70.1016 56.6323 70.1508 56.644 70.0594C56.6311 70.1038 56.6118 70.146 56.5866 70.1848C56.5526 70.2574 56.5116 70.3277 56.4753 70.3992C56.4389 70.4707 56.5092 70.3523 56.5257 70.3359C56.5057 70.3547 56.4905 70.3793 56.4718 70.3992C56.4307 70.4444 56.3874 70.4876 56.3417 70.5281L56.2678 70.5914C56.1975 70.6523 56.385 70.5059 56.2796 70.5809C56.2135 70.6277 56.145 70.6712 56.0745 70.7109C56.0393 70.7309 56.0042 70.7496 55.9678 70.7672L55.921 70.7906C55.8307 70.8352 55.9526 70.7719 55.962 70.773C55.9385 70.773 55.8635 70.8105 55.8448 70.8176C55.7968 70.8328 55.7487 70.8469 55.6995 70.8598C55.6503 70.8726 55.6116 70.8773 55.5671 70.8867C55.4639 70.909 55.6843 70.8773 55.5448 70.8867C55.4403 70.8786 55.3353 70.8786 55.2307 70.8867C55.2307 70.8867 55.376 70.9137 55.2553 70.8867L55.1885 70.8738C55.1346 70.8621 55.0819 70.8492 55.0303 70.834C54.9788 70.8187 54.9225 70.7965 54.8686 70.7777C54.7936 70.7519 54.9776 70.8387 54.8827 70.7777C54.8452 70.7555 54.8077 70.7285 54.7655 70.7074C54.7233 70.6863 54.8932 70.8152 54.8112 70.7426L54.7468 70.6852C54.66 70.6008 54.5786 70.5112 54.503 70.4168C54.4432 70.3441 54.585 70.534 54.5288 70.4496C54.5077 70.4203 54.4854 70.391 54.4643 70.3605C54.4221 70.3019 54.3823 70.2434 54.3471 70.1801C54.2651 70.0535 54.1889 69.9234 54.1128 69.7922C53.9534 69.5051 53.8092 69.2062 53.6745 68.9086C53.6405 68.8336 53.6077 68.7586 53.5749 68.6836C53.5643 68.659 53.5128 68.5348 53.5491 68.6238C53.5854 68.7129 53.5292 68.5758 53.5186 68.5477C53.4538 68.3914 53.3917 68.2351 53.3323 68.0789C53.1307 67.5539 52.9456 67.0242 52.7944 66.4805C52.3444 64.8762 51.8136 63.2941 51.271 61.7168C50.7132 60.0911 50.1362 58.4722 49.5401 56.8605C49.4323 56.5684 49.3241 56.2769 49.2155 55.9863C49.1077 55.7004 48.8147 55.473 48.4948 55.5773C48.2147 55.6676 47.9698 55.9898 48.0846 56.298C48.7307 58.0222 49.3558 59.7539 49.9596 61.493C50.3198 62.5312 50.669 63.573 51.0073 64.6184C51.1714 65.1278 51.3323 65.6394 51.4901 66.1535C51.5663 66.4043 51.6249 66.6574 51.6987 66.9082C51.891 67.5586 52.1171 68.1985 52.376 68.8254C52.669 69.5402 52.9819 70.2656 53.4214 70.9043C53.5887 71.1677 53.7945 71.4048 54.0319 71.6074C54.4409 71.9188 54.9456 72.0779 55.4592 72.0574C55.9499 72.0435 56.4264 71.8898 56.8327 71.6144C57.1354 71.4268 57.385 71.165 57.5581 70.8539C58.0569 69.8468 58.2286 68.709 58.0491 67.5996C57.878 66.4898 57.3132 65.5359 56.5667 64.7156C56.3768 64.507 56.178 64.3066 55.9702 64.1144L56.1214 64.3734C55.8948 63.3328 55.6714 62.2907 55.451 61.2469C55.1854 59.9711 54.9205 58.6949 54.6565 57.4184C54.3855 56.1082 54.1163 54.7972 53.8491 53.4855C53.6209 52.3629 53.3936 51.2394 53.1671 50.1152C53.0206 49.3805 52.8718 48.6457 52.7323 47.9098C52.7229 47.8559 52.7124 47.8031 52.703 47.7492C52.6468 47.448 52.2659 47.2488 51.9823 47.3402C51.8345 47.3848 51.7096 47.4844 51.6334 47.6187C51.5573 47.7528 51.5357 47.9113 51.5733 48.0609Z" fill="black"/>
<path d="M31.2046 64.1203C31.0617 68.8781 30.8968 73.6351 30.7101 78.3914C30.5496 82.5152 30.3785 86.6379 30.1687 90.7594C30.0925 92.2582 30.0152 93.757 29.9074 95.2535C29.8851 95.5699 30.1945 95.8395 30.4933 95.8395H32.8523L32.2875 95.0977C32.1468 95.8734 31.9863 96.6469 31.7695 97.4051L32.039 97.0535C31.8668 97.1285 31.6875 97.1988 31.5234 97.2879C31.3439 97.395 31.1977 97.55 31.1015 97.7355C30.8977 98.0712 30.7241 98.4241 30.5824 98.7902C30.3259 99.4512 30.1814 100.15 30.1546 100.859C30.1277 101.532 30.1875 102.306 30.6644 102.829C31.2129 103.431 32.0847 103.307 32.8183 103.304L37.6957 103.29C38.4363 103.29 39.4535 103.478 39.9375 102.776C40.1437 102.478 40.1964 102.118 40.241 101.768C40.2903 101.392 40.2993 101.012 40.2679 100.635C40.1873 99.8277 39.971 99.0401 39.6281 98.3051C39.5003 98.0203 39.3726 97.6594 39.1406 97.4449C38.8846 97.2272 38.6 97.0458 38.2945 96.9059L38.5043 97.1168C38.2183 96.4547 37.9511 95.782 37.732 95.0941L37.1671 95.8359H39.8976C40.0522 95.8332 40.1996 95.7707 40.3089 95.6613C40.4183 95.552 40.4808 95.4046 40.4835 95.25C40.6078 90.7711 40.7183 86.2918 40.8152 81.8121C40.8796 78.866 40.8984 75.9164 41.0683 72.9738C41.1468 71.6355 41.1574 70.2937 41.1749 68.9543L40.7449 69.5191L40.9945 69.4195L40.2527 68.8547C40.2348 72.4297 40.2117 76.0055 40.1835 79.582C40.1601 82.6093 40.137 85.6368 40.1144 88.6641C40.0995 90.8593 40.0866 93.0547 40.0757 95.25C40.0778 95.4047 40.1403 95.5526 40.2496 95.6619C40.3591 95.7714 40.507 95.8338 40.6617 95.8359H42.1218L41.5359 95.25C41.4492 96.1687 41.3628 97.0875 41.2769 98.0063L41.3578 97.7109C40.5304 99.0574 40.5667 100.758 40.5281 102.281C40.5128 102.92 41.0238 103.307 41.6214 103.307H56.5042C56.5652 103.307 56.6273 103.307 56.6882 103.307C57.0667 103.293 57.2507 103.01 57.4464 102.721C57.8906 102.069 58.1765 101.155 57.6363 100.494C57.2554 100.025 56.6824 99.7055 56.1609 99.4277C54.7546 98.6754 53.2171 98.1457 51.6996 97.6617C51.1136 97.4757 50.5242 97.2981 49.9312 97.1285L50.1902 97.2797C49.6171 96.5484 48.6445 95.8734 47.7046 96.2812L48.4148 96.3727C48.0175 95.9414 47.6249 95.4879 47.3859 94.9465L46.8749 95.8395H48.8413C48.9963 95.8379 49.1444 95.7757 49.254 95.6661C49.3635 95.5566 49.4258 95.4084 49.4273 95.2535C49.4015 94.5715 49.3968 93.8883 49.3874 93.2051C49.3726 91.9925 49.3613 90.7796 49.3535 89.5664C49.3409 87.9609 49.3308 86.3555 49.323 84.75C49.3136 82.8891 49.3051 81.0281 49.2972 79.1672C49.2894 77.1875 49.2823 75.2082 49.2761 73.2293C49.2691 71.2699 49.2632 69.3105 49.2585 67.3512C49.253 65.5473 49.2483 63.7441 49.2445 61.9418C49.2445 60.4332 49.2413 58.9242 49.2351 57.4148L49.2281 54.1723C49.2281 53.6684 49.2386 53.1621 49.2281 52.657V52.5902C49.2281 51.8367 48.0562 51.8355 48.0562 52.5902C48.0562 52.9418 48.0562 53.2852 48.0562 53.632C48.0562 54.5821 48.0562 55.532 48.0562 56.482C48.0562 57.8968 48.0594 59.3121 48.0656 60.7277C48.0656 62.4707 48.0694 64.2137 48.0773 65.9566C48.0828 67.8902 48.0887 69.8242 48.0949 71.7586C48.1004 73.7446 48.1069 75.7313 48.1148 77.7188C48.1218 79.6219 48.13 81.525 48.1394 83.4281C48.1472 85.1086 48.157 86.7882 48.1687 88.4672C48.1781 89.7953 48.1894 91.1235 48.2027 92.4516C48.2109 93.2719 48.2191 94.0922 48.2402 94.9125C48.2402 95.0238 48.246 95.1363 48.2507 95.2477L48.8367 94.6617H46.8749C46.3921 94.6617 46.1953 95.1504 46.3687 95.543C46.6441 96.1687 47.121 96.709 47.5804 97.207C47.7726 97.4156 48.055 97.4004 48.2906 97.2984C48.1874 97.343 48.1886 97.2984 48.2906 97.3184C48.3585 97.3289 48.2906 97.3184 48.28 97.3113C48.3196 97.318 48.3587 97.327 48.3972 97.3383C48.4183 97.3441 48.5507 97.3957 48.4828 97.3652C48.5566 97.399 48.628 97.4382 48.696 97.4824C48.8879 97.6097 49.0617 97.7623 49.2128 97.9359C49.3515 98.1156 49.5455 98.2445 49.7648 98.3027C50.1843 98.4238 50.6023 98.5488 51.0187 98.6777C51.7218 98.8969 52.4249 99.1289 53.1187 99.3809C53.3964 99.4816 53.6718 99.5871 53.9472 99.6961L54.3152 99.8461C54.4183 99.8895 54.2718 99.8273 54.3714 99.8707L54.5601 99.9527C55.1867 100.213 55.7867 100.533 56.3519 100.909L56.4796 101.002C56.5898 101.08 56.3624 100.902 56.4925 101.012C56.5499 101.061 56.6097 101.109 56.6613 101.162C56.7128 101.215 56.7386 101.244 56.7785 101.279C56.8745 101.379 56.6671 101.139 56.7644 101.263C56.7808 101.284 56.789 101.32 56.8077 101.338C56.8265 101.355 56.7398 101.147 56.7632 101.237C56.7691 101.264 56.7632 101.302 56.7538 101.161C56.7538 101.209 56.7609 101.257 56.7609 101.306C56.7609 101.337 56.7609 101.366 56.7609 101.396C56.7609 101.479 56.7808 101.298 56.7609 101.386C56.6909 101.723 56.5336 102.035 56.305 102.292L56.7199 102.121H41.857C41.7534 102.109 41.6489 102.109 41.5453 102.121C41.5019 102.131 41.5253 102.114 41.5242 102.121C41.5324 102.06 41.7738 102.316 41.6988 102.328C41.6988 102.328 41.6988 102.211 41.6988 102.197C41.6988 102.013 41.7093 101.829 41.714 101.644C41.7328 100.928 41.7433 100.22 41.9109 99.5203C41.9725 99.2558 42.0508 98.9955 42.1453 98.741L42.1957 98.6145C42.1558 98.7164 42.1816 98.6449 42.2074 98.5922C42.2332 98.5395 42.2648 98.4668 42.2964 98.4059C42.3786 98.2617 42.4297 98.1021 42.4464 97.9371C42.4945 97.4953 42.5296 97.0512 42.5718 96.6082C42.614 96.1652 42.6574 95.6895 42.7007 95.2301C42.73 94.9148 42.4078 94.6441 42.1148 94.6441H40.664L41.25 95.2301C41.2672 91.655 41.2901 88.0793 41.3191 84.5027C41.3425 81.4746 41.3656 78.4473 41.3882 75.4207C41.4031 73.2254 41.416 71.03 41.4269 68.8348C41.4269 68.4832 41.046 68.1258 40.6863 68.2699L40.4355 68.3695C40.3139 68.4071 40.207 68.4818 40.1299 68.583C40.0528 68.6843 40.0093 68.8071 40.0054 68.9344C39.989 70.2 39.9785 71.468 39.9117 72.7324C39.8718 73.4883 39.8238 74.2441 39.7945 75.0012C39.6515 79.2352 39.6093 83.475 39.5062 87.7102C39.4453 90.2164 39.38 92.7231 39.3105 95.2301L39.8964 94.6441H37.166C37.0757 94.6441 36.9867 94.665 36.9058 94.7051C36.825 94.7452 36.7544 94.8033 36.6998 94.8751C36.6451 94.947 36.6078 95.0304 36.5907 95.119C36.5736 95.2076 36.5771 95.299 36.6011 95.3859C36.8027 96.0211 37.0476 96.641 37.3043 97.2539C37.3793 97.432 37.4414 97.6676 37.5808 97.807C37.7149 97.9117 37.8612 97.9995 38.0168 98.0684C38.1269 98.1328 38.2312 98.2055 38.3378 98.277C38.4445 98.3484 38.2382 98.2371 38.3285 98.2699C38.3625 98.2816 38.3554 98.3367 38.3027 98.25C38.9203 99.2883 39.2953 100.654 39.0433 101.856C39.0293 101.925 39.0082 101.992 38.9894 102.061C39.0011 102.016 38.9238 102.118 38.9695 102.096C38.909 102.091 38.8483 102.091 38.7878 102.096C38.3894 102.102 37.991 102.096 37.5925 102.096H35.3027H33.014C32.6531 102.096 32.2921 102.105 31.9312 102.096C31.6476 102.096 31.5351 102.074 31.4332 101.856C31.3407 101.607 31.3009 101.342 31.316 101.077C31.313 100.73 31.346 100.384 31.4144 100.044C31.5648 99.349 31.8429 98.6877 32.2347 98.0941L32.025 98.3039C32.2863 98.1738 32.6836 98.0777 32.8382 97.8141C32.9812 97.5691 33.0222 97.2188 33.0879 96.9445C33.2132 96.4219 33.3222 95.8898 33.4148 95.3672C33.4816 94.998 33.2578 94.6254 32.85 94.6254H30.4933L31.0793 95.2113C31.3043 92.0684 31.4308 88.9184 31.575 85.7707C31.778 81.198 31.9582 76.6242 32.1152 72.0492C32.2089 69.3929 32.296 66.7368 32.3765 64.0805C32.3988 63.327 31.2269 63.327 31.2046 64.0805V64.1203Z" fill="black"/>
<path d="M52.7127 47.8125C52.1783 45.2344 50.9736 42.8226 49.3318 40.7812C48.7009 39.9807 47.9805 39.255 47.185 38.6179C46.8885 38.3694 46.5695 38.1488 46.2322 37.9594C45.8689 37.7707 45.4916 37.6078 45.1154 37.4508C44.233 37.0746 43.3424 36.6996 42.433 36.389C42.3588 36.3685 42.2814 36.3629 42.205 36.3724C42.1287 36.3819 42.0548 36.4063 41.9879 36.4442C41.921 36.4822 41.8622 36.5331 41.815 36.5938C41.7676 36.6545 41.7328 36.7238 41.7123 36.798C41.6748 36.9479 41.6965 37.1063 41.7729 37.2406C41.8492 37.3748 41.9745 37.4744 42.1225 37.5187C42.8607 37.7719 43.5873 38.0719 44.308 38.3719L44.4709 38.4398C44.4861 38.4457 44.5951 38.4914 44.4978 38.4515C44.4006 38.4117 44.5096 38.4515 44.5248 38.4621L44.8635 38.6086C45.0451 38.6883 45.2256 38.7691 45.4037 38.8535C45.6941 38.9932 45.9707 39.1599 46.2299 39.3515L46.3471 39.4429C46.4373 39.5097 46.2545 39.3691 46.3143 39.4172L46.3764 39.4664C46.4654 39.5355 46.5521 39.607 46.6389 39.6808C46.817 39.8308 46.9904 39.9879 47.1603 40.1496C47.5318 40.5042 47.8839 40.8785 48.215 41.2711C48.3018 41.373 48.3861 41.475 48.4705 41.5793L48.5971 41.7387C48.6135 41.7597 48.6299 41.7832 48.6475 41.8031C48.5478 41.6929 48.6346 41.7867 48.6568 41.816C48.8365 42.0504 49.0092 42.2906 49.1748 42.5367C49.5158 43.0385 49.8288 43.5588 50.1123 44.0953C50.2787 44.4078 50.4349 44.7261 50.581 45.0504C50.6162 45.1289 50.6514 45.2086 50.6853 45.2847C50.6982 45.314 50.7404 45.4148 50.6912 45.2965C50.7088 45.341 50.7275 45.3844 50.7451 45.4289C50.8178 45.6047 50.8869 45.7824 50.9525 45.9621C51.2123 46.668 51.4195 47.3924 51.5725 48.1289C51.593 48.2031 51.6278 48.2724 51.6751 48.3331C51.7223 48.3938 51.7812 48.4447 51.8481 48.4827C51.915 48.5206 51.9888 48.545 52.0651 48.5545C52.1415 48.564 52.219 48.5584 52.2932 48.5379C52.4409 48.4933 52.5659 48.3937 52.642 48.2594C52.7182 48.1253 52.7398 47.9668 52.7021 47.8172L52.7127 47.8125Z" fill="black"/>
<path d="M35.7924 36.6223C35.7502 36.6305 35.7068 36.6363 35.6646 36.6422C35.6224 36.648 35.5158 36.6609 35.715 36.6351L35.6084 36.6492L35.1537 36.7078C34.8327 36.7405 34.5147 36.7969 34.2021 36.8766C33.328 37.1244 32.5287 37.5841 31.8748 38.2148C31.766 38.3255 31.7051 38.4745 31.7051 38.6297C31.7051 38.7848 31.766 38.9339 31.8748 39.0445C31.9862 39.1513 32.1347 39.2109 32.289 39.2109C32.4434 39.2109 32.5918 39.1513 32.7033 39.0445C32.7818 38.9684 32.8615 38.8957 32.9447 38.8254C32.9798 38.7949 33.0162 38.7656 33.0525 38.7363C33.1474 38.6578 32.9728 38.7926 33.0818 38.7141C33.2404 38.599 33.4051 38.4926 33.5752 38.3953C33.6642 38.3449 33.7545 38.2969 33.847 38.2523L33.9759 38.1926C34.1002 38.1351 33.8951 38.2219 34.0123 38.1762C34.207 38.0995 34.4063 38.0346 34.6088 37.9816C34.7408 37.9469 34.8745 37.9192 35.0095 37.8984C35.0552 37.8914 35.1713 37.8773 34.9697 37.8984L35.0588 37.8867L35.2556 37.8621C35.5392 37.8258 35.824 37.7976 36.1052 37.7449C36.4076 37.691 36.6056 37.3066 36.5142 37.0242C36.4692 36.8768 36.3695 36.7522 36.2354 36.676C36.1013 36.6 35.9432 36.5782 35.7935 36.6152L35.7924 36.6223Z" fill="black"/>
<path d="M35.5929 36.6164H35.5202H35.5073L35.6632 37.7672H35.6866L35.5308 37.7883C35.5695 37.7883 35.6081 37.7766 35.648 37.7731H35.6562L35.5003 37.752L35.3597 37.6934L35.2425 37.602L35.1511 37.4848L35.0925 37.3442L35.0714 37.1895L35.0925 37.0336L35.1511 36.893L35.2425 36.7758L35.3597 36.6844L35.4991 36.6258H35.4862L35.457 36.6317H35.4347C35.3603 36.6484 35.2916 36.6844 35.2355 36.736C35.1454 36.808 35.0777 36.9042 35.0406 37.0136C35.0033 37.1228 34.9982 37.2403 35.0257 37.3524L35.0843 37.4918C35.1354 37.5788 35.208 37.651 35.2952 37.7016L35.4347 37.7613C35.5366 37.7895 35.6445 37.7895 35.7464 37.7613L35.7921 37.752H35.8062L35.9468 37.6934L36.064 37.6008C36.1011 37.5672 36.1324 37.5276 36.1566 37.4836C36.1682 37.461 36.178 37.4374 36.1859 37.4133C36.2258 37.3174 36.2395 37.2127 36.2257 37.1098C36.2257 37.084 36.2222 37.0582 36.2151 37.0324L36.1566 36.8918C36.1317 36.8483 36.1005 36.8089 36.064 36.7746C36.0134 36.7186 35.948 36.6781 35.8753 36.6574C35.9327 36.6821 35.8296 36.6352 35.8062 36.6281L35.6491 36.6071H35.6421H35.5987L35.3456 36.641C35.2713 36.6587 35.2028 36.6949 35.1464 36.7465C35.0825 36.7871 35.0305 36.8437 34.9952 36.9106L34.9355 37.05C34.9119 37.126 34.9086 37.2068 34.9261 37.2844C34.9256 37.3363 34.9395 37.3874 34.9659 37.4321C34.9879 37.5041 35.0283 37.5692 35.0831 37.6207L35.2003 37.7121C35.2903 37.7645 35.3926 37.792 35.4968 37.7918H35.5695H35.58C35.6585 37.7949 35.7364 37.7775 35.8062 37.7414C35.8774 37.7186 35.9419 37.6784 35.9937 37.6242C36.0484 37.5726 36.0888 37.5075 36.1109 37.4356C36.1469 37.3662 36.1643 37.2886 36.1612 37.2106L36.1401 37.0547C36.1131 36.9567 36.0609 36.8674 35.989 36.7957L35.8718 36.7043C35.7878 36.6519 35.6918 36.6217 35.5929 36.6164Z" fill="black"/>
<path d="M31.7914 56.0016C31.7328 53.9235 31.6739 51.8461 31.6145 49.7695C31.6135 49.6548 31.5788 49.543 31.515 49.4477C31.451 49.3526 31.3605 49.2783 31.2547 49.234C31.0578 49.1508 30.759 49.1742 30.6148 49.3512C30.275 49.7777 29.9621 50.223 29.6551 50.673C29.5098 50.8863 29.3645 51.0996 29.2145 51.3094C29.1426 51.4078 29.07 51.5062 28.9965 51.6047C28.9965 51.6047 28.9379 51.6797 28.9719 51.6363C29.0059 51.593 28.9473 51.6668 28.9461 51.668C28.8245 51.7915 28.7509 51.9544 28.7387 52.1273C28.7387 52.3394 28.8559 52.5785 28.9273 52.7754C29.0188 53.018 29.1195 53.2582 29.2238 53.4949C29.7652 54.7266 30.4566 55.8984 31.1715 57.034C31.4316 57.4523 31.6988 57.866 31.9695 58.2773C32.1086 58.5085 32.2653 58.7287 32.4383 58.9359C32.5781 59.0921 32.7192 59.2485 32.8613 59.4047C33.4769 60.0742 34.1094 60.7289 34.7586 61.3687C35.257 61.8586 35.7691 62.3335 36.2949 62.7937C36.6684 63.1234 37.0484 63.4449 37.4352 63.7582C37.6071 63.8942 37.7684 64.0431 37.918 64.2035C37.9555 64.2457 37.9918 64.2879 38.027 64.3312C38.034 64.3383 38.0832 64.4015 38.041 64.3465C37.9988 64.2914 38.0563 64.3687 38.0668 64.3828C38.1313 64.473 38.1922 64.5679 38.2473 64.664C38.3023 64.7601 38.3387 64.8504 38.3891 64.9418C38.3492 64.8703 38.375 64.9066 38.3961 64.9594L38.4348 65.059C38.4867 65.1994 38.5305 65.3426 38.566 65.4879C38.5836 65.5582 38.5988 65.6285 38.6129 65.7C38.6199 65.7375 38.6211 65.7797 38.6316 65.8172C38.6316 65.8172 38.6176 65.6812 38.6223 65.7457C38.6223 65.7738 38.6293 65.8031 38.6316 65.8312C38.6447 65.9872 38.6447 66.144 38.6316 66.3C38.6316 66.3562 38.5883 66.4558 38.6316 66.3C38.6223 66.3328 38.6211 66.3703 38.6141 66.4043C38.5985 66.4874 38.5781 66.5695 38.5531 66.6504C38.5402 66.6914 38.525 66.7312 38.5109 66.7676C38.4676 66.8918 38.552 66.6902 38.5051 66.7828C38.4582 66.8754 38.423 66.9433 38.375 67.0172C38.3504 67.057 38.3234 67.0957 38.2965 67.1344C38.2827 67.1498 38.2706 67.1668 38.2602 67.1847C38.2602 67.1847 38.3305 67.1004 38.2871 67.1472C38.2121 67.2281 38.1418 67.3101 38.0609 67.3816L37.9578 67.4742L37.884 67.534C37.8898 67.534 37.9602 67.4801 37.9051 67.5164C37.8184 67.5738 37.7363 67.6336 37.6449 67.6851C37.6039 67.7086 37.5617 67.7285 37.5195 67.7508C37.4223 67.8012 37.618 67.7168 37.5195 67.7508C37.4323 67.7836 37.3431 67.8105 37.2523 67.8316C37.2172 67.8387 37.182 67.8433 37.1469 67.8515C37.0719 67.8691 37.2746 67.8422 37.1973 67.8445C37.1809 67.8445 37.1633 67.8445 37.1457 67.8445C37.0653 67.8498 36.9847 67.8498 36.9043 67.8445C36.8656 67.8445 36.8258 67.8351 36.7871 67.834C36.725 67.834 36.8633 67.8457 36.8598 67.8445C36.8434 67.8399 36.8265 67.8371 36.8094 67.8363C36.7273 67.8187 36.6465 67.8011 36.5656 67.7777C36.4848 67.7543 36.4297 67.732 36.3617 67.7074C36.2445 67.6629 36.452 67.7508 36.3617 67.7074C36.3266 67.691 36.2914 67.6758 36.2574 67.6582C36.1234 67.5909 35.9938 67.515 35.8695 67.4308C35.8133 67.3933 35.7594 67.3547 35.7055 67.3136L35.6691 67.2867C35.6117 67.2445 35.7711 67.3687 35.7172 67.323L35.6375 67.2597C35.4664 67.1177 35.3047 66.9647 35.1535 66.8015C35.0867 66.7289 35.0281 66.6469 34.9602 66.5765C34.8148 66.4289 34.6297 66.3082 34.4727 66.1722C34.2828 66.0082 34.0977 65.8383 33.9172 65.6648C33.555 65.317 33.2108 64.9509 32.8859 64.5679C32.8074 64.4765 32.7313 64.384 32.6516 64.2902L32.5566 64.173C32.5367 64.1461 32.5156 64.1203 32.4957 64.0945C32.3598 63.9164 32.2285 63.7359 32.0996 63.5531C31.9707 63.3703 31.8652 63.2168 31.7621 63.0457C31.6038 62.8132 31.4271 62.5937 31.2336 62.3894C30.875 61.9887 30.4953 61.5984 30.159 61.1789C29.9957 60.975 29.834 60.7703 29.6738 60.5648L29.4477 60.2742L29.3785 60.1863C29.3855 60.1945 29.4254 60.2472 29.3855 60.1945L29.2496 60.0187C28.9543 59.632 28.6637 59.2441 28.3719 58.8469C27.3688 57.491 26.3926 56.1082 25.4938 54.6808C25.2734 54.3293 25.0602 53.9777 24.8703 53.6098C24.8305 53.5336 24.793 53.4574 24.7531 53.3754C24.7228 53.2948 24.6868 53.2165 24.6453 53.141C24.7273 53.2582 24.6641 53.1867 24.6453 53.1328C24.6266 53.0789 24.616 53.0566 24.602 53.0156C24.575 52.9418 24.5492 52.8668 24.5258 52.7918C24.4818 52.6495 24.4466 52.5048 24.4203 52.3582C24.4203 52.3289 24.4133 52.2973 24.4063 52.2668C24.4063 52.2668 24.4238 52.4262 24.4156 52.3312C24.4156 52.316 24.4156 52.3008 24.4156 52.2855C24.4086 52.2152 24.4039 52.1449 24.4016 52.0734C24.4016 51.9293 24.4121 51.7887 24.4203 51.6457C24.4203 51.6082 24.3969 51.7922 24.4203 51.6773C24.4203 51.6445 24.4309 51.6129 24.4367 51.5812C24.4508 51.5086 24.4684 51.4371 24.4859 51.3656C24.5609 51.0633 24.7027 50.7387 24.6488 50.4281L24.5891 50.8793C24.7789 50.5008 25.0098 50.1398 25.2242 49.7754C25.7047 48.9566 26.1954 48.143 26.6961 47.3344C27.3398 46.2914 27.9996 45.259 28.6754 44.2371C29.3609 43.2047 30.0652 42.1852 30.8129 41.1973C30.8563 41.141 30.8984 41.0801 30.9418 41.0297L31.0004 40.9523L30.957 41.0086C30.9699 40.991 30.9828 40.9746 30.9969 40.9582C31.0824 40.841 31.1691 40.7367 31.257 40.6266C31.4196 40.4227 31.586 40.2211 31.7562 40.0219C32.0493 39.6735 32.3602 39.3407 32.6879 39.0246C32.757 38.9602 32.8262 38.8969 32.8965 38.8359C33.0063 38.726 33.068 38.5771 33.068 38.4217C33.068 38.2663 33.0063 38.1173 32.8965 38.0074C32.7849 37.9009 32.6366 37.8415 32.4822 37.8415C32.3279 37.8415 32.1795 37.9009 32.068 38.0074C31.5589 38.4714 31.0885 38.9762 30.6617 39.5168C30.0863 40.2199 29.5426 40.9441 29.0211 41.6813C27.9266 43.2164 26.9012 44.7996 25.9063 46.3992C25.2031 47.5266 24.5191 48.6645 23.8543 49.8129C23.7828 49.9383 23.7102 50.0637 23.6398 50.1902C23.6234 50.2195 23.607 50.2477 23.5918 50.2781V50.2875L23.5332 50.4281C23.5053 50.5297 23.5053 50.6371 23.5332 50.7387C23.5074 50.7539 23.5555 50.3965 23.5332 50.4551C23.5034 50.5398 23.4807 50.6268 23.4652 50.7152C23.3261 51.161 23.2542 51.6252 23.252 52.0922C23.2709 52.5621 23.3712 53.0252 23.5484 53.4609C24.0008 54.5941 24.7133 55.6101 25.393 56.618C26.0727 57.6258 26.7992 58.6512 27.5387 59.6437C27.9925 60.2531 28.4543 60.8566 28.9238 61.4543C29.4078 62.0707 29.9281 62.6496 30.4473 63.2332L30.6441 63.4523C30.6699 63.4816 30.698 63.5098 30.7227 63.5402C30.6535 63.457 30.7109 63.532 30.7227 63.5566C30.8047 63.6879 30.8902 63.818 30.977 63.9469C31.1539 64.2105 31.3402 64.4672 31.5324 64.718C31.9817 65.3087 32.4724 65.8667 33.0008 66.3879C33.2648 66.6465 33.5383 66.8953 33.8211 67.1344C33.9484 67.2286 34.0686 67.3319 34.1809 67.4437C34.3535 67.6447 34.5395 67.8337 34.7375 68.0097C35.5168 68.6859 36.5035 69.1722 37.5582 68.9472C38.1695 68.7909 38.7161 68.4467 39.1213 67.9632C39.5265 67.4796 39.7695 66.8811 39.8164 66.2519C39.8973 65.114 39.3605 63.8906 38.5344 63.1254C38.2812 62.891 38 62.6812 37.7363 62.4586C37.4536 62.2195 37.1742 61.9773 36.8984 61.732C36.5328 61.4051 36.1707 61.0711 35.818 60.7301C35.4008 60.3269 34.9977 59.9098 34.5922 59.4984C34.1305 59.0191 33.6898 58.5199 33.2316 58.0371C33.1402 57.9398 33.2973 58.1543 33.2047 57.9973C33.1848 57.9644 33.1613 57.9328 33.1402 57.9C33.0875 57.8215 33.0348 57.7418 32.9832 57.6656C32.8812 57.5121 32.7816 57.3574 32.6809 57.2027C32.491 56.9098 32.3039 56.6148 32.1195 56.318C31.809 55.8176 31.5055 55.3125 31.216 54.8004C30.9887 54.3973 30.7684 53.9894 30.5633 53.5746C30.4781 53.4035 30.3954 53.2301 30.3148 53.0543C30.2809 52.9793 30.2469 52.9031 30.2141 52.8269C30.1988 52.793 30.1848 52.7578 30.1695 52.7238C30.2609 52.9277 30.1836 52.7566 30.1637 52.7086C30.0629 52.4613 29.9703 52.2094 29.893 51.9539L29.7418 52.5234C30.0652 52.1191 30.3641 51.6973 30.6547 51.2707C30.7895 51.0727 30.9242 50.8758 31.0625 50.6848C31.127 50.5934 31.1926 50.5019 31.2582 50.4129L31.3613 50.2758C31.4023 50.2219 31.407 50.216 31.3742 50.2582L31.4469 50.1668L30.4461 49.7531C30.5062 51.8297 30.5653 53.9071 30.623 55.9851C30.623 56.1405 30.6848 56.2896 30.7947 56.3995C30.9045 56.5093 31.0536 56.5711 31.209 56.5711C31.3644 56.5711 31.5134 56.5093 31.6234 56.3995C31.7332 56.2896 31.7949 56.1405 31.7949 55.9851L31.7914 56.0016Z" fill="black"/>
<path d="M35.259 25.5141C35.2462 25.4602 35.2356 25.4074 35.2251 25.3535C35.2251 25.3289 35.218 25.3055 35.2133 25.2809C35.1981 25.1989 35.2286 25.4367 35.2133 25.3114C35.1981 25.186 35.1958 25.0922 35.1969 24.9821C35.1981 24.8719 35.2051 24.7828 35.2145 24.6844C35.2251 24.5543 35.1934 24.791 35.2145 24.7067C35.2204 24.6821 35.2227 24.6563 35.2274 24.6305C35.2391 24.5657 35.2532 24.5012 35.2696 24.4371C35.2977 24.3237 35.3317 24.2119 35.3715 24.102C35.3889 24.0469 35.4096 23.9929 35.4337 23.9403C35.3715 24.0574 35.4231 23.9684 35.4337 23.9403C35.4442 23.9121 35.4653 23.8699 35.4829 23.836C35.6186 23.5633 35.7753 23.3015 35.9516 23.0531C35.995 22.991 36.0395 22.936 36.084 22.8703C36.1637 22.7602 36.0911 22.8516 36.084 22.8703C36.1008 22.8457 36.1196 22.8226 36.1403 22.8012C36.2288 22.6946 36.3226 22.5925 36.4215 22.4953C36.5071 22.411 36.5962 22.3301 36.6887 22.2539C36.7091 22.2351 36.7307 22.2175 36.7532 22.2012C36.6454 22.2645 36.7063 22.2375 36.7344 22.2176C36.7899 22.1769 36.8461 22.1379 36.9032 22.1004C37.1055 21.9662 37.3183 21.8487 37.5395 21.7489C37.5829 21.7289 37.7305 21.6856 37.5829 21.7278C37.6333 21.7137 37.6825 21.6879 37.7305 21.6692C37.8477 21.6258 37.9649 21.5848 38.088 21.552C38.3062 21.4854 38.5275 21.4299 38.7512 21.3856C38.8579 21.3633 38.9657 21.3446 39.0735 21.327L39.2423 21.3012C39.2676 21.2991 39.2925 21.2952 39.3173 21.2895C39.1661 21.3328 39.2622 21.2977 39.3102 21.2895C39.7169 21.2379 40.1305 21.2098 40.5337 21.1828C41.0188 21.1512 41.5051 21.1196 41.9915 21.1125C42.2364 21.1125 42.4825 21.1125 42.7274 21.1231C42.8446 21.1231 42.9618 21.1371 43.079 21.1489L43.2641 21.1676L43.3462 21.1782C43.2559 21.1711 43.2735 21.1676 43.3532 21.1782C43.5866 21.2138 43.8173 21.2655 44.0434 21.3328C44.1512 21.3641 44.2579 21.4005 44.3634 21.4418L44.436 21.4723C44.3059 21.4266 44.3727 21.4453 44.4055 21.4594C44.4641 21.4875 44.5227 21.5157 44.5813 21.5461C44.6803 21.5973 44.7766 21.6537 44.8696 21.7149C44.9148 21.7537 44.9639 21.7879 45.0161 21.8168C45.0032 21.8168 44.9106 21.7313 44.9915 21.7981L45.0829 21.8742C45.165 21.9454 45.2432 22.0208 45.3173 22.1004C45.3594 22.1461 45.4005 22.193 45.4403 22.2422C45.4801 22.2914 45.4661 22.3196 45.4532 22.2586C45.4239 22.2188 45.4227 22.2188 45.4532 22.2586C45.4649 22.2739 45.4755 22.2891 45.486 22.3055C45.5481 22.3927 45.6055 22.483 45.6583 22.5762C45.6747 22.6055 45.8305 22.8598 45.8118 22.8832C45.8118 22.8832 45.7649 22.766 45.7977 22.8504L45.8259 22.9219C45.8458 22.977 45.8657 23.0321 45.8833 23.0871C45.9219 23.2043 45.9559 23.3215 45.9829 23.4492C45.9946 23.502 46.0051 23.5547 46.0157 23.6074C46.0262 23.6602 46.0544 23.7246 46.0415 23.7668C46.0602 23.7117 46.0298 23.6614 46.0415 23.7328C46.0415 23.768 46.0497 23.802 46.0532 23.836C46.0587 23.8977 46.0634 23.9598 46.0673 24.0223C46.0817 24.2796 46.0775 24.5378 46.0544 24.7946C46.0544 24.8531 46.0426 24.9117 46.0356 24.9703C46.0204 25.1168 46.052 24.8766 46.0356 24.9703L46.0216 25.0594C45.9981 25.2024 45.97 25.3442 45.9372 25.486C45.8748 25.7472 45.7966 26.0043 45.7028 26.2559C45.6785 26.3239 45.6528 26.3918 45.6255 26.4598C45.6114 26.4973 45.5962 26.536 45.5798 26.577C45.588 26.5571 45.6266 26.4703 45.5798 26.577C45.5188 26.7141 45.4555 26.85 45.3876 26.9836C45.2505 27.252 45.0876 27.5016 44.9329 27.7606C44.7782 28.0196 44.8637 28.3676 44.8801 28.6606C44.8919 28.8856 44.9012 29.1106 44.9071 29.3367C44.9223 29.9438 44.9071 30.5508 44.8837 31.1567C44.8755 31.3981 44.8649 31.6383 44.8426 31.8774C44.8426 31.9219 44.8344 31.9664 44.8286 32.0098C44.811 32.1692 44.8485 31.8926 44.8286 32.0238C44.8157 32.107 44.8005 32.1914 44.7817 32.2746C44.7542 32.3853 44.721 32.4944 44.6821 32.6016C44.6634 32.6543 44.6446 32.7071 44.6235 32.7586C44.6024 32.8102 44.552 32.9051 44.6399 32.7223C44.6223 32.7598 44.6071 32.7985 44.5895 32.8395C44.5183 32.9952 44.4372 33.1463 44.3469 33.2918C44.2977 33.3727 44.2438 33.4524 44.1887 33.5262C44.1728 33.5435 44.1587 33.5623 44.1466 33.5824C44.1887 33.4863 44.2063 33.5074 44.1723 33.5473C44.1384 33.5871 44.095 33.6422 44.0551 33.6867C43.9792 33.7723 43.8986 33.8536 43.8137 33.9305L43.6966 34.0336C43.6169 34.1004 43.7059 34.0219 43.72 34.0172C43.6844 34.0381 43.6507 34.062 43.6192 34.0887C43.5208 34.1577 43.4179 34.2199 43.311 34.275C43.2594 34.3031 43.2055 34.3266 43.1528 34.3524C43.0731 34.391 43.2817 34.3102 43.113 34.3676C43.0684 34.3828 43.0251 34.3992 42.9805 34.4133C42.8343 34.4572 42.6856 34.4925 42.5352 34.5188C42.6524 34.4953 42.4755 34.5246 42.4356 34.5281C42.3536 34.534 42.2704 34.5363 42.1883 34.5363C42.0335 34.5382 41.8855 34.6004 41.7761 34.71C41.6665 34.8195 41.6043 34.9675 41.6024 35.1223L41.6458 36.7184C41.6458 36.7863 41.6458 36.8543 41.6516 36.9223C41.6669 37.1707 41.7887 37.2867 41.9411 37.4485C41.9575 37.4649 41.9727 37.4836 41.9891 37.5012C42.0454 37.561 41.9575 37.5012 41.9657 37.4684C41.9598 37.4895 42.0536 37.5996 42.0665 37.6219C42.0946 37.6711 42.1157 37.7238 42.1438 37.7731C42.1837 37.8457 42.0958 37.6348 42.1368 37.7567L42.1626 37.8305C42.2024 37.9503 42.2329 38.0728 42.254 38.1973C42.2704 38.2945 42.2926 38.2254 42.254 38.1832C42.259 38.2103 42.2614 38.2377 42.261 38.2653C42.261 38.3203 42.2692 38.3754 42.2692 38.4317C42.2727 38.5012 42.2727 38.5708 42.2692 38.6403C42.2692 38.6684 42.2692 38.6965 42.2692 38.7246C42.2692 38.7528 42.2692 38.8945 42.2692 38.7375C42.2601 38.8573 42.2357 38.9755 42.1965 39.0891C42.179 39.15 42.1602 39.2063 42.1391 39.2707C42.1298 39.2965 42.1192 39.3223 42.1098 39.3492C42.0653 39.4723 42.1567 39.2567 42.1028 39.3633C42.0305 39.5051 41.9491 39.6421 41.8591 39.7735C41.7958 39.8672 41.859 39.75 41.8755 39.7559C41.8755 39.7559 41.8239 39.8192 41.8274 39.8145C41.7934 39.8555 41.7583 39.8942 41.7219 39.9317C41.6856 39.9692 41.6153 40.0582 41.5719 40.0699C41.5778 40.0699 41.6891 39.9938 41.5919 40.0524C41.5579 40.0735 41.5239 40.0957 41.4876 40.1156C41.4512 40.1356 41.4348 40.1391 41.4102 40.1531C41.5755 40.057 41.4969 40.118 41.4372 40.1367C41.4055 40.1461 41.3727 40.1555 41.3399 40.1625L41.2954 40.1719C41.1682 40.1966 41.0555 40.2697 40.9813 40.376C40.9071 40.4822 40.877 40.6131 40.8976 40.7411C40.9182 40.869 40.9876 40.984 41.0914 41.0617C41.1951 41.1393 41.325 41.1736 41.4536 41.1572C41.5821 41.1408 41.6992 41.0752 41.7802 40.9739C41.8612 40.8728 41.8997 40.7441 41.8875 40.6151C41.8753 40.4861 41.8135 40.3669 41.715 40.2826C41.6166 40.1984 41.4892 40.1557 41.3598 40.1637C41.2895 40.1637 41.2145 40.1754 41.1442 40.1731C41.1102 40.1731 41.0762 40.1731 41.0423 40.1731L40.9778 40.166C40.9145 40.166 41.1489 40.1953 41.0282 40.1731C40.8506 40.1401 40.6759 40.0935 40.5055 40.0336L40.3883 39.9879C40.2419 39.9293 40.4844 40.0336 40.3602 39.9762C40.2583 39.9293 40.1587 39.8824 40.059 39.8309C39.8481 39.7137 39.643 39.5965 39.4438 39.4664C39.3196 39.3883 39.1977 39.3039 39.0782 39.2133L38.9001 39.082L38.8286 39.0281C38.9399 39.1195 38.8192 39.0199 38.804 39.007C38.5438 38.8008 38.293 38.5852 38.0493 38.3625C37.4929 37.8506 36.9654 37.3079 36.4696 36.7371V37.5656L37.2231 36.7008C37.3476 36.5755 37.4513 36.4312 37.5301 36.2731C37.7362 35.787 37.8844 35.2785 37.9719 34.7578C38.0793 34.1575 38.147 33.5507 38.1747 32.9414C38.1829 32.7703 38.1876 32.5981 38.1911 32.427C38.1982 32.3094 38.1915 32.1914 38.1712 32.0754C38.1325 31.9031 37.9872 31.7824 37.87 31.6617C37.7528 31.541 37.6661 31.4508 37.5653 31.3442C37.4258 31.1977 37.2958 31.0242 37.0872 30.9797C37.0087 30.9621 36.9301 30.9528 36.8528 30.9305L36.7684 30.9035C36.6817 30.8754 36.7485 30.8578 36.7825 30.9106C36.7579 30.8707 36.636 30.8285 36.595 30.8028C36.7122 30.8754 36.5856 30.791 36.5645 30.7735L36.4473 30.6821L36.4356 30.6738L36.37 30.6246C36.2739 30.5543 36.4872 30.716 36.4239 30.6668L36.3571 30.6141C36.3008 30.5684 36.2458 30.5215 36.1919 30.4746C36.0407 30.3422 35.8965 30.2039 35.7559 30.061C35.5755 29.8758 35.4044 29.6813 35.2391 29.4809C35.1958 29.4281 35.1536 29.3754 35.1114 29.3215C35.1993 29.4328 35.054 29.2442 35.0317 29.2137C34.9309 29.0778 34.8345 28.9387 34.7422 28.7965C34.6438 28.6477 34.5477 28.4953 34.461 28.3395C34.427 28.2809 34.4001 28.2223 34.3672 28.1578C34.3251 28.0793 34.4153 28.2903 34.3672 28.1578C34.3532 28.118 34.3391 28.0793 34.3262 28.0406C34.3063 27.9774 34.2887 27.9141 34.2747 27.8496C34.2688 27.825 34.2653 27.7992 34.2594 27.7746C34.2313 27.6492 34.2594 27.8836 34.2594 27.8016C34.2524 27.6783 34.2524 27.5547 34.2594 27.4313C34.2594 27.4102 34.2665 27.3856 34.2665 27.3645C34.2665 27.5356 34.2583 27.4278 34.2665 27.3727C34.2747 27.3176 34.2934 27.2555 34.3098 27.1992C34.3262 27.143 34.3462 27.0891 34.3661 27.034C34.386 26.9789 34.4258 26.9379 34.3485 27.0739C34.3626 27.0481 34.3731 27.0176 34.3872 26.9906C34.4342 26.894 34.4874 26.8003 34.5465 26.7106C34.5758 26.6649 34.6098 26.6203 34.6403 26.5746C34.6708 26.5289 34.7071 26.516 34.5969 26.6309C34.6145 26.6133 34.6286 26.5899 34.645 26.5711C34.7426 26.4518 34.8488 26.3398 34.9626 26.236C34.9989 26.2031 35.0364 26.1727 35.0739 26.141C35.1618 26.0672 34.938 26.243 35.0024 26.1961C35.2485 26.0145 35.3962 25.6793 35.2122 25.3946C35.0551 25.1496 34.6755 24.9903 34.4106 25.1836C33.6372 25.7508 33.036 26.6906 33.0794 27.675C33.1192 28.5586 33.6407 29.3156 34.1633 29.993C34.546 30.5047 34.9833 30.9731 35.4676 31.3899C35.593 31.4942 35.7231 31.5926 35.8544 31.6899C35.8344 31.6746 35.7372 31.5961 35.8122 31.6641C35.8796 31.7219 35.9505 31.7755 36.0243 31.8246C36.1447 31.9 36.2728 31.9624 36.4063 32.011C36.5319 32.0594 36.663 32.0924 36.7965 32.1094L36.5387 31.9594C36.7544 32.1938 36.9727 32.4215 37.1938 32.6426L37.0215 32.2289C37.0212 32.7688 36.9914 33.3083 36.9325 33.8449C36.9266 33.9012 36.9196 33.9621 36.9126 34.0137C36.9055 34.0653 36.9055 34.0688 36.9126 33.9809L36.902 34.0594C36.8891 34.1485 36.8751 34.2363 36.861 34.3231C36.8282 34.5153 36.7895 34.7074 36.7438 34.8973C36.6913 35.1264 36.6264 35.3526 36.5493 35.5746C36.527 35.6379 36.5036 35.7 36.479 35.7621C36.4426 35.8547 36.5493 35.6074 36.4977 35.7176C36.4895 35.7352 36.4801 35.7528 36.4731 35.7703C36.4661 35.7879 36.4485 35.8067 36.4485 35.8184C36.5153 35.7305 36.5212 35.7199 36.4637 35.7867L36.3887 35.8735L36.2387 36.0469C36.0372 36.2813 35.8368 36.5074 35.6352 36.7383C35.5297 36.8504 35.471 36.9986 35.471 37.1526C35.471 37.3065 35.5297 37.4547 35.6352 37.5668C36.3185 38.3622 37.069 39.0973 37.8782 39.7641C38.5485 40.3055 39.254 40.7918 40.0555 41.1129C40.6005 41.3309 41.2731 41.4645 41.838 41.2383C42.5973 40.936 43.1212 40.1555 43.3286 39.3856C43.5817 38.4375 43.454 37.1813 42.6559 36.5133L42.8282 36.927L42.7731 35.107L42.1872 35.693C43.0542 35.6911 43.8927 35.3827 44.5544 34.8223C44.9826 34.4517 45.3286 33.996 45.5704 33.484C45.7467 33.1392 45.8745 32.7716 45.9501 32.3918C46.0673 31.7203 46.0673 31.0266 46.0848 30.3469C46.1012 29.5848 46.0778 28.8225 46.0145 28.0629L45.9372 28.3594C46.8606 26.9649 47.4161 25.2492 47.1899 23.5699C47.1021 22.8344 46.8216 22.135 46.3766 21.5426C45.8929 20.9298 45.2365 20.4763 44.4923 20.2407C43.1411 19.7871 41.6493 19.9254 40.2548 20.0227C38.8825 20.1188 37.4422 20.3133 36.2786 21.1078C35.5702 21.6058 34.9902 22.2648 34.5864 23.0309C34.2208 23.7012 33.977 24.4688 34.0415 25.2399C34.0578 25.437 34.0875 25.6328 34.1305 25.8258C34.151 25.9 34.1858 25.9694 34.2332 26.0301C34.2804 26.0908 34.3392 26.1416 34.4062 26.1796C34.4731 26.2176 34.5469 26.2419 34.6232 26.2514C34.6996 26.2609 34.7771 26.2553 34.8512 26.2348C34.9988 26.19 35.1235 26.0903 35.1994 25.9561C35.2753 25.8219 35.2967 25.6636 35.259 25.5141Z" fill="black"/>
</svg>
