<svg width="116" height="120" viewBox="0 0 116 120" fill="none" xmlns="http://www.w3.org/2000/svg">
<path d="M51.6326 89.5066C47.0131 89.5066 43.0779 89.4527 41.6893 89.2887C36.6771 88.7027 33.1592 83.2547 33.0174 83.0238C32.3025 81.9141 30.1041 78.0469 30.676 73.9336C28.8748 72.2074 24.5213 67.3324 24.5166 60.5742C24.5166 53.9367 26.026 51.3094 27.2963 50.2734C28.0205 49.6875 28.8713 49.4531 29.6916 49.6207C29.9411 49.6683 30.1783 49.7665 30.3885 49.9091C30.5987 50.0518 30.7775 50.2361 30.9139 50.4504C31.685 51.6586 31.1963 53.7387 30.6303 56.1469C30.2506 57.7605 29.858 59.4281 29.9811 60.477C30.2635 62.8734 31.3287 66.2531 33.4193 68.373C33.6713 68.125 33.9361 67.8902 34.2127 67.6699C38.524 64.2387 48.335 59.1012 53.7994 56.3449C55.5291 55.4712 56.893 54.0125 57.649 52.2281L62.6541 40.4086C63.0636 39.4174 63.6923 38.532 64.493 37.8185C65.2936 37.1051 66.2455 36.5823 67.2771 36.2895C67.6859 36.1743 68.1052 36.1004 68.5287 36.0691C71.1772 35.8793 73.4096 36.6914 74.4467 37.5809C75.2494 38.2687 78.0643 41.7469 78.7826 42.6434L86.3225 45.6527L86.3904 46.1215C86.408 46.2469 86.8111 49.2199 84.5811 51.607C82.6662 53.6555 79.4764 54.593 75.0947 54.3949L75.1486 61.9547C75.1873 67.3535 71.6928 72.7781 70.7377 74.1574C71.9564 78.7336 73.3943 83.6672 73.8619 84.6059C74.9588 85.2352 75.3783 86.6121 75.1299 87.6012C74.8592 88.6805 74.2709 88.9512 73.6908 89.1363C73.6357 89.1551 73.5736 89.1727 73.5174 89.1949C73.1248 89.3344 72.6971 89.3215 72.3607 89.3121C72.2682 89.3121 72.1791 89.3062 72.0971 89.3121C69.3197 89.3496 59.4807 89.5066 51.6326 89.5066ZM29.1584 51.2039C28.8541 51.2179 28.564 51.3371 28.3381 51.5414C27.6818 52.0758 26.1572 54.0258 26.1619 60.5648C26.1666 67.1039 30.7135 71.7586 32.1092 73.0254L32.449 73.3336L32.3635 73.7848C31.6604 77.4773 33.7439 81.116 34.3979 82.1426C35.5006 83.8758 38.4842 87.259 41.8826 87.6586C45.6197 88.0992 69.3771 87.7078 72.0736 87.6586C72.1908 87.6586 72.308 87.6586 72.417 87.6645C72.6011 87.6797 72.7865 87.6727 72.9689 87.6434C73.0475 87.6152 73.1236 87.5906 73.1963 87.5672C73.2768 87.5441 73.3552 87.5143 73.4307 87.4781C73.4846 87.3915 73.5208 87.2952 73.5373 87.1945C73.6111 86.9039 73.4787 86.2148 72.976 85.9863C72.5576 85.7953 72.2811 85.6699 70.5818 79.7449C69.7908 76.9887 69.0584 74.2277 69.0525 74.1996L68.9518 73.8187L69.1861 73.5023C69.2295 73.4437 73.5467 67.5258 73.5068 61.9594L73.4412 52.6301L74.3295 52.698C78.6361 53.0273 81.676 52.2867 83.3635 50.4973C84.6268 49.159 84.7932 47.5676 84.7908 46.8012L77.7725 44.0004L77.6365 43.8316C76.29 42.1523 73.9428 39.3059 73.3744 38.8195C72.8307 38.3508 71.1408 37.5187 68.6412 37.698C68.3271 37.7222 68.0162 37.7775 67.7131 37.8633C66.9194 38.0903 66.1875 38.4942 65.5723 39.0446C64.9572 39.5951 64.4747 40.2778 64.1611 41.0414L59.1596 52.8633C58.2522 55.0051 56.615 56.756 54.5389 57.8051C50.1842 60 39.5881 65.4844 35.2346 68.9496C34.8188 69.2796 34.4364 69.6498 34.0932 70.0547L33.5682 70.6746L32.9436 70.1566C30.1006 67.8 28.6932 63.5707 28.3521 60.6644C28.1951 59.3297 28.6205 57.518 29.033 55.7672C29.4139 54.1582 29.9295 51.9539 29.5311 51.3281C29.5128 51.2984 29.4878 51.2733 29.458 51.255C29.4284 51.2367 29.3948 51.2256 29.36 51.2227C29.2936 51.2094 29.226 51.2031 29.1584 51.2039Z" fill="black"/>
<path d="M83.401 45.9211C83.401 45.9211 82.5116 48.3141 84.0772 49.3125C85.6428 50.3109 85.3194 46.234 85.3194 46.234L83.401 45.9211Z" fill="black"/>
<path d="M84.5238 50.2898C84.2067 50.2823 83.8985 50.1829 83.6367 50.0039C81.9598 48.9351 82.2164 46.7554 82.6324 45.6351L82.8668 45.0023L86.0847 45.5285L86.1328 46.1719C86.2289 47.3718 86.2324 49.4789 85.1859 50.1082C84.9857 50.2275 84.7569 50.2903 84.5238 50.2898ZM84.0117 46.8515C83.9262 47.3824 83.9191 48.109 84.3844 48.5191C84.4805 48.1816 84.5355 47.5746 84.5285 46.9359L84.0117 46.8515Z" fill="black"/>
<path d="M71.6386 42.8273C71.57 42.6075 71.4167 42.4239 71.2127 42.3169C71.0086 42.21 70.7704 42.1886 70.5505 42.2572C70.3307 42.3259 70.1471 42.4792 70.0401 42.6832C69.9332 42.8872 69.9118 43.1255 69.9804 43.3453C69.9945 43.3887 71.2343 47.4633 69.3289 50.107C68.3195 49.6753 67.4341 48.9981 66.753 48.1371C66.0719 47.2761 65.6167 46.2586 65.4289 45.177C65.4085 45.0647 65.3662 44.9576 65.3044 44.8616C65.2425 44.7657 65.1625 44.6829 65.0686 44.618C64.9749 44.5529 64.8692 44.5071 64.7576 44.483C64.6462 44.4588 64.531 44.457 64.4187 44.4773C64.3064 44.4977 64.1993 44.54 64.1033 44.6018C64.0075 44.6637 63.9246 44.7437 63.8597 44.8376C63.7947 44.9313 63.7489 45.037 63.7247 45.1485C63.7006 45.26 63.6987 45.3752 63.7191 45.4875C64.6566 50.6203 69.1847 51.9211 69.3769 51.9738C69.5302 52.0165 69.6923 52.016 69.8453 51.9723C69.9984 51.9287 70.1364 51.8436 70.2441 51.7266C71.539 50.3285 72.1871 48.3352 72.1191 45.9609C72.0904 44.9004 71.9289 43.8477 71.6386 42.8273Z" fill="black"/>
<path d="M74.5367 42.1102C74.2905 42.1102 74.0498 42.1832 73.845 42.3198C73.6403 42.4566 73.4805 42.651 73.3862 42.8783C73.2918 43.1058 73.2669 43.3561 73.3147 43.5976C73.3625 43.8392 73.4808 44.0611 73.6547 44.2355C73.8285 44.4099 74.0502 44.5288 74.2916 44.5772C74.533 44.6257 74.7833 44.6015 75.011 44.5077C75.2387 44.414 75.4335 44.2549 75.5708 44.0504C75.708 43.8461 75.7817 43.6056 75.7824 43.3594C75.7827 43.1956 75.7508 43.0333 75.6883 42.8817C75.6259 42.7303 75.5341 42.5926 75.4185 42.4766C75.3028 42.3606 75.1653 42.2685 75.0141 42.2057C74.8628 42.1427 74.7006 42.1103 74.5367 42.1102Z" fill="black"/>
<path d="M72.1239 88.036H67.7516L62.8298 74.9871V69.6094C62.8298 69.0234 62.7653 68.4961 62.184 68.4129C62.0173 68.3878 61.847 68.399 61.6849 68.4456C61.5229 68.4923 61.3728 68.5734 61.2449 68.6835C61.1171 68.7935 61.0145 68.9299 60.9442 69.0832C60.8739 69.2365 60.8376 69.4033 60.8376 69.5719V75.2098C60.8378 75.354 60.8644 75.497 60.9161 75.6317L65.7055 88.0406H61.5852C61.3043 86.2358 60.388 84.5905 59.0017 83.4014C57.6153 82.2122 55.8497 81.5571 54.0231 81.5543H52.6989L52.1751 78.45C51.9046 76.8388 51.1554 75.3463 50.0251 74.1667C48.8949 72.9871 47.4358 72.175 45.8376 71.8359L43.6567 71.3731C43.3779 71.3101 43.0859 71.349 42.8333 71.4826C42.5808 71.6163 42.3844 71.8361 42.2798 72.102C42.0278 72.7887 42.4462 73.1567 43.1352 73.3067L45.3512 73.7754C47.6798 74.2688 49.8208 76.4871 50.2157 78.8332L50.5567 81.5485H43.1376C42.852 81.5442 42.5744 81.6426 42.3551 81.8255C42.1357 82.0085 41.9892 82.264 41.9423 82.5457C41.838 83.2699 42.3969 83.3063 43.1012 83.3063H54.0231C56.5485 83.3063 59.2532 85.6641 59.7887 88.0301H43.0157" fill="black"/>
</svg>
