<svg width="360" height="240" viewBox="0 0 360 240" fill="none" xmlns="http://www.w3.org/2000/svg">
<g opacity="0.56">
<g opacity="0.76">
<path opacity="0.76" d="M104.101 62.8049L103.982 63.0137L165.997 98.2001L166.116 97.9913L104.101 62.8049Z" fill="#C1C1C1"/>
</g>
<g opacity="0.76">
<path opacity="0.76" d="M103.015 54.5349L102.896 54.7437L159.131 86.6505L159.25 86.4417L103.015 54.5349Z" fill="#C1C1C1"/>
</g>
<path opacity="0.56" d="M190.203 71.0135H189.319V46.8503L190.179 47.1815L190.203 71.0135ZM189.559 70.7735H189.963L189.948 47.3447L189.569 47.1983L189.559 70.7735Z" fill="#939393"/>
<path opacity="0.39" d="M189.762 81.4536C188.892 81.4469 188.05 81.143 187.377 80.5925C186.703 80.0419 186.238 79.2777 186.058 78.4265C185.878 77.5754 185.995 76.6884 186.388 75.9125C186.781 75.1363 187.428 74.5181 188.221 74.16V71.28C188.221 71.0803 188.301 70.889 188.442 70.7479C188.583 70.6068 188.775 70.5271 188.974 70.5264H190.578C190.777 70.5271 190.969 70.6068 191.11 70.7479C191.251 70.889 191.331 71.0803 191.331 71.28V74.16C192.126 74.5193 192.774 75.1399 193.167 75.9187C193.56 76.6977 193.674 77.5877 193.491 78.4406C193.307 79.2933 192.837 80.0575 192.159 80.6059C191.48 81.1541 190.634 81.4533 189.762 81.4536ZM188.974 70.7472C188.838 70.7472 188.708 70.8014 188.611 70.8977C188.515 70.9939 188.461 71.1247 188.461 71.2608V74.3064L188.386 74.3376C187.624 74.6548 186.995 75.2261 186.606 75.954C186.217 76.6821 186.092 77.5224 186.252 78.3321C186.412 79.1419 186.848 79.8715 187.484 80.3971C188.121 80.9225 188.919 81.2114 189.745 81.215C190.57 81.2186 191.372 80.9366 192.013 80.4165C192.654 79.8967 193.096 79.1709 193.263 78.3624C193.43 77.5541 193.312 76.7128 192.929 75.9813C192.546 75.25 191.922 74.6733 191.163 74.3496L191.091 74.3184V71.2608C191.091 71.1247 191.037 70.9939 190.941 70.8977C190.845 70.8014 190.714 70.7472 190.578 70.7472H188.974Z" fill="#939393"/>
<path opacity="0.56" d="M190.968 72.3575H188.582C188.486 72.357 188.394 72.3186 188.327 72.2507C188.259 72.1828 188.22 72.0911 188.22 71.9951V70.8695C188.22 70.7737 188.259 70.6818 188.327 70.6139C188.394 70.5462 188.486 70.5078 188.582 70.5071H190.968C191.064 70.5078 191.155 70.5462 191.223 70.6139C191.291 70.6818 191.329 70.7737 191.33 70.8695V71.9999C191.328 72.0949 191.289 72.1856 191.222 72.2524C191.154 72.3193 191.063 72.357 190.968 72.3575ZM188.582 70.7471C188.55 70.7471 188.519 70.76 188.495 70.7831C188.473 70.8059 188.46 70.8371 188.46 70.8695V71.9999C188.46 72.0325 188.473 72.0635 188.495 72.0865C188.519 72.1095 188.55 72.1223 188.582 72.1223H190.968C191 72.1223 191.031 72.1095 191.054 72.0865C191.077 72.0635 191.09 72.0325 191.09 71.9999V70.8743C191.09 70.8419 191.077 70.8107 191.054 70.7879C191.031 70.7648 191 70.7519 190.968 70.7519L188.582 70.7471Z" fill="#939393"/>
<path opacity="0.56" d="M214.046 64.5337H213.163V53.2129L214.022 53.2681L214.046 64.5337ZM213.403 64.2937H213.806L213.792 53.4937L213.413 53.4697L213.403 64.2937Z" fill="#939393"/>
<path opacity="0.39" d="M213.599 74.9736C212.729 74.9683 211.886 74.665 211.211 74.1142C210.537 73.5634 210.071 72.7982 209.891 71.946C209.712 71.0938 209.83 70.206 210.225 69.4298C210.62 68.6537 211.269 68.0362 212.063 67.68V64.8C212.064 64.6003 212.144 64.409 212.285 64.2679C212.426 64.1268 212.617 64.0471 212.817 64.0464H214.42C214.62 64.0471 214.811 64.1268 214.953 64.2679C215.094 64.409 215.173 64.6003 215.174 64.8V67.68C215.972 68.0376 216.622 68.6585 217.017 69.4385C217.412 70.2185 217.526 71.1103 217.342 71.9647C217.157 72.8194 216.685 73.5845 216.004 74.1322C215.322 74.6801 214.474 74.977 213.599 74.9736ZM212.812 64.2696C212.676 64.2696 212.545 64.3238 212.449 64.4201C212.353 64.5163 212.299 64.6471 212.299 64.7832V67.8288L212.224 67.86C211.464 68.1809 210.839 68.7545 210.454 69.4836C210.069 70.213 209.948 71.053 210.111 71.8613C210.275 72.6696 210.713 73.3966 211.351 73.9186C211.99 74.4408 212.789 74.7262 213.614 74.7262C214.439 74.7262 215.238 74.4408 215.876 73.9186C216.515 73.3966 216.953 72.6696 217.116 71.8613C217.28 71.053 217.159 70.213 216.774 69.4836C216.389 68.7545 215.763 68.1809 215.003 67.86L214.929 67.8288V64.7832C214.929 64.6471 214.875 64.5163 214.779 64.4201C214.682 64.3238 214.552 64.2696 214.415 64.2696H212.812Z" fill="#939393"/>
<path opacity="0.56" d="M214.812 65.8799H212.427C212.331 65.8792 212.24 65.8413 212.172 65.7739C212.104 65.7067 212.066 65.6155 212.064 65.5199V64.3919C212.065 64.2959 212.103 64.2043 212.171 64.1363C212.239 64.0687 212.331 64.0303 212.427 64.0295H214.812C214.908 64.0303 215 64.0687 215.068 64.1363C215.136 64.2043 215.174 64.2959 215.175 64.3919V65.5199C215.173 65.6155 215.135 65.7067 215.067 65.7739C214.999 65.8413 214.908 65.8792 214.812 65.8799ZM212.427 64.2695C212.394 64.2695 212.363 64.2825 212.34 64.3053C212.317 64.3283 212.304 64.3595 212.304 64.3919V65.5199C212.304 65.5523 212.317 65.5835 212.34 65.6066C212.363 65.6294 212.394 65.6423 212.427 65.6423H214.812C214.845 65.6423 214.876 65.6294 214.899 65.6066C214.922 65.5835 214.935 65.5523 214.935 65.5199V64.3919C214.935 64.3595 214.922 64.3283 214.899 64.3053C214.876 64.2825 214.845 64.2695 214.812 64.2695H212.427Z" fill="#939393"/>
<path opacity="0.56" d="M202.652 77.2344H201.73V51.2112L202.628 51.4512L202.652 77.2344ZM201.97 76.9944H202.412L202.398 51.6384L201.98 51.5256L201.97 76.9944Z" fill="#939393"/>
<path opacity="0.39" d="M202.191 88.296C201.265 88.2963 200.366 87.978 199.647 87.3946C198.928 86.8111 198.431 85.998 198.241 85.0915C198.05 84.1853 198.177 83.2409 198.601 82.4172C199.024 81.5935 199.718 80.9405 200.566 80.568V77.5056C200.566 77.2954 200.649 77.094 200.798 76.9455C200.946 76.7969 201.148 76.7136 201.358 76.7136H203.055C203.265 76.7136 203.466 76.7969 203.615 76.9455C203.763 77.094 203.847 77.2954 203.847 77.5056V80.58C204.687 80.9597 205.373 81.6159 205.789 82.4393C206.205 83.263 206.326 84.204 206.133 85.1062C205.939 86.0083 205.442 86.8169 204.725 87.3972C204.008 87.9775 203.113 88.2948 202.191 88.296ZM201.36 76.9536C201.214 76.9536 201.074 77.0117 200.97 77.1151C200.866 77.2188 200.808 77.3592 200.808 77.5056V80.7264L200.734 80.7576C199.926 81.0946 199.26 81.7006 198.849 82.4729C198.437 83.245 198.305 84.1359 198.475 84.9941C198.645 85.8526 199.107 86.6256 199.782 87.1824C200.457 87.7392 201.304 88.0455 202.179 88.0488C203.054 88.0524 203.903 87.7534 204.583 87.2021C205.263 86.6508 205.731 85.8814 205.908 85.0243C206.085 84.1675 205.96 83.2755 205.555 82.5C205.149 81.7246 204.488 81.1131 203.684 80.7696L203.609 80.7384V77.5056C203.609 77.3592 203.551 77.2188 203.447 77.1151C203.344 77.0117 203.204 76.9536 203.057 76.9536H201.36Z" fill="#939393"/>
<path opacity="0.56" d="M203.484 78.66H200.928C200.832 78.6593 200.74 78.6209 200.672 78.553C200.605 78.4853 200.566 78.3934 200.565 78.2976V77.076C200.566 76.98 200.605 76.8881 200.672 76.8204C200.74 76.7525 200.832 76.7141 200.928 76.7136H203.484C203.58 76.7141 203.672 76.7525 203.739 76.8204C203.807 76.8881 203.846 76.98 203.846 77.076V78.2976C203.846 78.3934 203.807 78.4853 203.739 78.553C203.672 78.6209 203.58 78.6593 203.484 78.66ZM200.928 76.9536C200.895 76.9536 200.864 76.9663 200.841 76.9894C200.818 77.0124 200.805 77.0434 200.805 77.076V78.2976C200.805 78.33 200.818 78.3612 200.841 78.384C200.864 78.4071 200.895 78.42 200.928 78.42H203.484C203.516 78.42 203.547 78.4071 203.57 78.384C203.594 78.3612 203.606 78.33 203.606 78.2976V77.076C203.606 77.0434 203.594 77.0124 203.57 76.9894C203.547 76.9663 203.516 76.9536 203.484 76.9536H200.928Z" fill="#939393"/>
<path opacity="0.56" d="M286.117 105.132V89.1719C286.117 88.2119 286.357 86.8607 285.654 86.1023C284.778 85.1711 283.441 85.2671 282.27 85.2671H258.867C257.742 85.2671 256.467 85.1591 255.562 85.9871C254.727 86.7407 254.967 88.0127 254.967 89.0279V101.829C254.967 102.912 254.854 104.061 254.967 105.139C255.248 107.82 260.384 107.04 262.196 107.04H275.689C278.346 107.04 281.146 107.299 283.796 107.018C284.907 106.901 285.97 106.322 286.117 105.144C286.174 104.685 285.454 104.688 285.397 105.144C285.27 106.183 283.957 106.301 283.131 106.32C282.733 106.32 282.332 106.32 281.931 106.32H264.63C262.318 106.32 259.978 106.428 257.67 106.32C255.361 106.212 255.69 104.738 255.69 103.135V91.1663C255.69 89.9663 255.488 88.5551 255.69 87.3623C255.93 85.9991 257.319 85.9871 258.428 85.9871H262.388C269.348 85.9871 276.33 85.7711 283.268 85.9871C284.151 86.0135 285.114 86.2127 285.39 87.1991C285.476 87.5039 285.39 87.9479 285.39 88.2599V105.132C285.39 105.228 285.428 105.321 285.495 105.389C285.565 105.457 285.656 105.495 285.754 105.495C285.85 105.495 285.942 105.457 286.011 105.389C286.078 105.321 286.117 105.228 286.117 105.132Z" fill="#E8E8E8"/>
<path opacity="0.56" d="M258.48 104.532V87.8639L258.12 88.2239H283.097L282.737 87.8639V104.532L283.097 104.172H258.108C258.012 104.172 257.921 104.21 257.854 104.277C257.786 104.345 257.748 104.436 257.748 104.532C257.748 104.627 257.786 104.719 257.854 104.786C257.921 104.854 258.012 104.892 258.108 104.892H283.085C283.181 104.89 283.272 104.852 283.339 104.785C283.406 104.718 283.445 104.627 283.445 104.532V87.8639C283.445 87.7686 283.406 87.6779 283.339 87.6107C283.272 87.5433 283.181 87.5051 283.085 87.5039H258.108C258.012 87.5051 257.923 87.5433 257.856 87.6107C257.789 87.6779 257.75 87.7686 257.748 87.8639V104.532C257.748 104.629 257.786 104.722 257.856 104.791C257.923 104.859 258.017 104.898 258.115 104.898C258.211 104.898 258.305 104.859 258.372 104.791C258.442 104.722 258.48 104.629 258.48 104.532Z" fill="#E8E8E8"/>
<g opacity="0.39">
<path opacity="0.39" d="M263.04 101.025V91.879L262.68 92.239H278.4L278.04 91.879V101.025L278.4 100.665H262.687C262.591 100.665 262.5 100.703 262.433 100.771C262.366 100.838 262.327 100.93 262.327 101.025C262.327 101.121 262.366 101.212 262.433 101.28C262.5 101.348 262.591 101.385 262.687 101.385H278.4C278.496 101.384 278.585 101.346 278.654 101.279C278.722 101.211 278.76 101.12 278.76 101.025V91.879C278.76 91.784 278.722 91.693 278.654 91.6258C278.585 91.5586 278.496 91.5202 278.4 91.519H262.687C262.591 91.5198 262.5 91.5579 262.433 91.6251C262.366 91.6926 262.327 91.7838 262.327 91.879V101.025C262.339 101.111 262.382 101.19 262.447 101.246C262.514 101.303 262.596 101.335 262.685 101.335C262.771 101.335 262.855 101.303 262.92 101.246C262.985 101.19 263.028 101.111 263.04 101.025Z" fill="#E8E8E8"/>
<path opacity="0.39" d="M262.841 101.232V91.6798L262.481 92.0398H278.607L278.247 91.6798V101.232L278.607 100.872H262.481C262.385 100.872 262.294 100.91 262.227 100.977C262.159 101.045 262.121 101.136 262.121 101.232C262.121 101.327 262.159 101.419 262.227 101.486C262.294 101.554 262.385 101.592 262.481 101.592H278.607C278.703 101.591 278.791 101.552 278.859 101.485C278.926 101.418 278.964 101.327 278.967 101.232V91.6798C278.964 91.5848 278.926 91.4938 278.859 91.4266C278.791 91.3594 278.703 91.321 278.607 91.3198H262.481C262.385 91.321 262.296 91.3594 262.227 91.4266C262.159 91.4938 262.123 91.5848 262.121 91.6798V101.232C262.121 101.327 262.159 101.419 262.227 101.486C262.294 101.554 262.385 101.592 262.481 101.592C262.577 101.592 262.668 101.554 262.735 101.486C262.803 101.419 262.841 101.327 262.841 101.232Z" fill="#E8E8E8"/>
<path opacity="0.39" d="M262.532 92.0829V100.819C262.535 100.914 262.571 101.005 262.638 101.072C262.707 101.139 262.796 101.178 262.892 101.179H278.195C278.291 101.178 278.379 101.139 278.447 101.072C278.516 101.005 278.552 100.914 278.555 100.819V92.0829C278.552 91.9876 278.516 91.8969 278.447 91.8297C278.379 91.7625 278.291 91.7241 278.195 91.7229H262.892C262.796 91.7229 262.705 91.7608 262.638 91.8283C262.571 91.8957 262.532 91.9874 262.532 92.0829C262.532 92.1784 262.571 92.2699 262.638 92.3373C262.705 92.405 262.796 92.4429 262.892 92.4429H278.195L277.835 92.0829V100.819L278.195 100.459H262.892L263.252 100.819V92.0829C263.252 91.9874 263.214 91.8957 263.147 91.8283C263.079 91.7608 262.988 91.7229 262.892 91.7229C262.796 91.7229 262.705 91.7608 262.638 91.8283C262.571 91.8957 262.532 91.9874 262.532 92.0829Z" fill="#E8E8E8"/>
</g>
<path opacity="0.56" d="M289.149 61.5143C285.309 61.6079 282.636 64.8143 281.633 68.2775C280.488 72.2207 281.193 77.0111 284.066 80.0735C286.538 82.7135 290.385 83.1935 293.28 80.9399C296.488 78.4343 297.6 73.9079 297.038 70.0223C296.448 65.9423 293.661 61.6223 289.149 61.5143C288.686 61.5143 288.686 62.2343 289.149 62.2343C292.721 62.3207 295.149 65.4311 296.018 68.6399C297 72.2135 296.402 76.4783 293.928 79.3367C291.648 81.9767 287.928 82.4999 285.225 80.1887C282.417 77.7887 281.462 73.7087 281.966 70.1663C282.497 66.4319 284.981 62.3351 289.149 62.2343C289.61 62.2247 289.613 61.5047 289.149 61.5143Z" fill="#E8E8E8"/>
<path opacity="0.56" d="M289.15 79.5886C285.341 79.4734 283.447 75.3094 283.447 71.9709C283.447 68.7237 285.343 64.3533 289.15 64.3533C292.956 64.3533 294.854 68.7261 294.85 71.9709C294.85 75.307 292.961 79.4734 289.15 79.5886C288.686 79.603 288.684 80.323 289.15 80.3086C296.165 80.095 297.158 69.6717 293.194 65.4933C291.211 63.4029 288.134 63.0261 285.833 64.8333C283.279 66.8349 282.389 70.4421 282.845 73.5406C283.325 76.819 285.55 80.2006 289.15 80.3086C289.613 80.323 289.613 79.603 289.15 79.5886Z" fill="#E8E8E8"/>
<path opacity="0.76" d="M291.663 71.9713C291.61 73.3969 290.88 75.3937 289.15 75.3937C287.419 75.3937 286.649 73.3969 286.637 71.9713C286.625 70.5457 287.463 68.5513 289.15 68.5513C290.883 68.5513 291.61 70.5505 291.663 71.9713C291.679 72.4345 292.399 72.4369 292.383 71.9713C292.315 70.1377 291.298 67.8313 289.15 67.8313C287.043 67.8313 285.922 70.1377 285.917 71.9713C285.912 73.8049 287.052 76.1137 289.15 76.1137C291.31 76.1137 292.315 73.8049 292.383 71.9713C292.399 71.5201 291.679 71.5201 291.663 71.9713Z" fill="#E8E8E8"/>
<path opacity="0.56" d="M226.581 86.9015H246.112C246.962 86.9015 248.047 87.0503 248.817 86.6159C249.95 85.9727 249.892 84.8231 249.892 83.7143V67.1135C249.892 66.0719 250.039 64.9535 249.141 64.1903C248.354 63.5279 247.264 63.6767 246.309 63.6767H229.24C228.367 63.6767 227.469 63.6191 226.6 63.6767C225.1 63.7727 224.44 64.8431 224.419 66.2183C224.375 69.7151 224.419 73.2143 224.419 76.7135V82.4351C224.419 83.3015 224.303 84.2591 224.447 85.1207C224.632 86.2127 225.542 86.8007 226.586 86.9015C227.049 86.9423 227.044 86.2223 226.586 86.1815C224.841 86.0303 225.146 84.2735 225.146 83.0615V67.4615C225.146 66.2327 224.867 64.5815 226.586 64.4063C227.263 64.3715 227.942 64.3715 228.619 64.4063H239.404C242.092 64.4063 244.9 64.1663 247.579 64.4063C249.081 64.5407 249.175 65.5607 249.175 66.7031V82.1927C249.175 83.0399 249.266 83.9447 249.175 84.7847C249.002 86.3399 247.617 86.1911 246.496 86.1911H226.576C226.492 86.2055 226.416 86.2492 226.361 86.3147C226.306 86.3802 226.277 86.463 226.277 86.5482C226.278 86.6337 226.309 86.716 226.364 86.7806C226.42 86.8454 226.497 86.8881 226.581 86.9015Z" fill="#E8E8E8"/>
<path opacity="0.56" d="M227.28 66.4536H246.893L246.533 66.0936V84.5736L246.893 84.2136H227.28L227.64 84.5736V66.0936C227.64 65.9981 227.602 65.9064 227.535 65.839C227.467 65.7716 227.375 65.7336 227.28 65.7336C227.184 65.7336 227.093 65.7716 227.025 65.839C226.958 65.9064 226.92 65.9981 226.92 66.0936V84.5736C226.921 84.6687 226.96 84.7594 227.027 84.8268C227.094 84.894 227.185 84.9322 227.28 84.9336H246.893C246.989 84.9322 247.077 84.894 247.145 84.8268C247.214 84.7594 247.25 84.6687 247.253 84.5736V66.0936C247.25 65.9984 247.214 65.9076 247.145 65.8404C247.077 65.7732 246.989 65.7348 246.893 65.7336H227.28C227.184 65.7336 227.093 65.7716 227.025 65.839C226.958 65.9064 226.92 65.9981 226.92 66.0936C226.92 66.1889 226.958 66.2806 227.025 66.348C227.093 66.4157 227.184 66.4536 227.28 66.4536Z" fill="#E8E8E8"/>
<g opacity="0.39">
<path opacity="0.39" d="M231.414 69.8399H242.177L241.817 69.4799V81.1007L242.177 80.7407H231.414L231.774 81.1007V69.4799C231.774 69.3844 231.736 69.2929 231.668 69.2252C231.601 69.1578 231.509 69.1199 231.414 69.1199C231.318 69.1199 231.227 69.1578 231.159 69.2252C231.092 69.2929 231.054 69.3844 231.054 69.4799V81.1007C231.055 81.1957 231.093 81.2867 231.161 81.3539C231.228 81.4211 231.318 81.4595 231.414 81.4607H242.177C242.273 81.4595 242.365 81.4211 242.432 81.3539C242.499 81.2867 242.537 81.1957 242.537 81.1007V69.4799C242.537 69.3848 242.499 69.2939 242.432 69.2267C242.365 69.1595 242.273 69.1211 242.177 69.1199H231.414C231.318 69.1199 231.227 69.1578 231.159 69.2252C231.092 69.2929 231.054 69.3844 231.054 69.4799C231.054 69.5754 231.092 69.6668 231.159 69.7345C231.227 69.802 231.318 69.8399 231.414 69.8399Z" fill="#E8E8E8"/>
<path opacity="0.39" d="M231.445 81.3072V69.2736L231.085 69.6336H242.506L242.146 69.2736V81.3072L242.506 80.9472H231.085C230.989 80.9472 230.897 80.9851 230.83 81.0525C230.763 81.12 230.725 81.2116 230.725 81.3072C230.725 81.4024 230.763 81.4941 230.83 81.5616C230.897 81.6292 230.989 81.6672 231.085 81.6672H242.506C242.602 81.6657 242.693 81.6276 242.76 81.5604C242.828 81.4929 242.866 81.4022 242.866 81.3072V69.2736C242.866 69.1783 242.828 69.0876 242.76 69.0204C242.693 68.9532 242.602 68.9148 242.506 68.9136H231.085C230.989 68.9148 230.899 68.9532 230.831 69.0204C230.764 69.0876 230.726 69.1783 230.725 69.2736V81.3072C230.725 81.4024 230.763 81.4941 230.83 81.5616C230.897 81.6292 230.989 81.6672 231.085 81.6672C231.18 81.6672 231.272 81.6292 231.339 81.5616C231.407 81.4941 231.445 81.4024 231.445 81.3072Z" fill="#E8E8E8"/>
<path opacity="0.39" d="M231.382 69.684V80.8944C231.383 80.9894 231.421 81.0801 231.489 81.1476C231.556 81.2148 231.647 81.2529 231.742 81.2544H241.848C241.944 81.2529 242.035 81.2148 242.102 81.1476C242.17 81.0801 242.208 80.9894 242.208 80.8944V69.684C242.208 69.5887 242.17 69.498 242.102 69.4308C242.035 69.3633 241.944 69.3252 241.848 69.324H231.742C231.646 69.324 231.555 69.3619 231.487 69.4293C231.42 69.4968 231.382 69.5885 231.382 69.684C231.382 69.7793 231.42 69.8709 231.487 69.9384C231.555 70.0061 231.646 70.044 231.742 70.044H241.848L241.488 69.684V80.8944L241.848 80.5344H231.742L232.102 80.8944V69.684C232.102 69.5885 232.064 69.4968 231.996 69.4293C231.929 69.3619 231.837 69.324 231.742 69.324C231.646 69.324 231.555 69.3619 231.487 69.4293C231.42 69.4968 231.382 69.5885 231.382 69.684Z" fill="#E8E8E8"/>
</g>
<path opacity="0.56" d="M276.999 79.8169V63.1201C276.999 62.2273 277.042 61.3249 276.228 60.7201C275.554 60.2233 274.608 60.3552 273.828 60.3552H259.524C258.617 60.3552 257.698 60.3001 257.091 61.1257C256.611 61.7881 256.726 62.7025 256.726 63.4801V78.1393C256.726 78.8017 256.623 79.5625 256.769 80.2177C257.047 81.4465 258.139 81.6841 259.2 81.6841H274.433C275.727 81.6841 276.857 81.3313 277.011 79.8193C277.056 79.3585 276.336 79.3633 276.291 79.8193C276.144 81.2593 274.529 80.9641 273.545 80.9641H260.345C259.663 80.9641 258.341 81.1849 257.787 80.6281C257.232 80.0713 257.448 78.9361 257.448 78.2857V64.7017C257.448 63.9337 257.35 63.0889 257.448 62.3232C257.616 61.0344 258.485 61.0729 259.411 61.0729H272.561C273.367 61.0729 274.241 60.9817 275.035 61.0729C276.303 61.2193 276.293 62.0857 276.293 62.9929V79.8097C276.31 79.8913 276.353 79.9649 276.415 80.0182C276.48 80.0715 276.559 80.101 276.643 80.1017C276.725 80.1027 276.807 80.0746 276.871 80.0228C276.936 79.9709 276.982 79.8982 276.999 79.8169Z" fill="#E8E8E8"/>
<path opacity="0.56" d="M259.68 79.2312V63.3912L259.32 63.7512H274.253L273.893 63.3912V79.2312L274.253 78.8712H259.32C259.224 78.8712 259.133 78.9092 259.066 78.9766C258.998 79.0443 258.96 79.1357 258.96 79.2312C258.96 79.3268 258.998 79.4182 259.066 79.4859C259.133 79.5533 259.224 79.5912 259.32 79.5912H274.253C274.349 79.59 274.438 79.5516 274.505 79.4844C274.574 79.4172 274.61 79.3263 274.613 79.2312V63.3912C274.61 63.2962 274.574 63.2053 274.505 63.1381C274.438 63.0709 274.349 63.0324 274.253 63.0312H259.32C259.224 63.0324 259.135 63.0709 259.068 63.1381C258.998 63.2053 258.962 63.2962 258.96 63.3912V79.2312C258.96 79.3268 258.998 79.4182 259.066 79.4859C259.133 79.5533 259.224 79.5912 259.32 79.5912C259.416 79.5912 259.507 79.5533 259.574 79.4859C259.642 79.4182 259.68 79.3268 259.68 79.2312Z" fill="#E8E8E8"/>
<path opacity="0.56" d="M250.208 104.254C250.208 100.246 250.335 96.2159 250.208 92.2079C250.153 90.4703 248.717 90.5135 247.383 90.5135H236.641C235.954 90.5135 235.241 90.5135 234.795 91.1423C234.449 91.6367 234.533 92.2679 234.533 92.8415V103.469C234.533 104.064 234.466 104.669 234.886 105.149C235.366 105.703 236.033 105.67 236.693 105.67H244.913C246.286 105.67 249.898 106.351 250.193 104.352C250.261 103.898 249.567 103.704 249.5 104.16C249.351 105.166 248.221 104.95 247.599 104.95H237.841C237.344 104.95 236.588 105.096 236.11 104.95C235.205 104.674 235.249 104.172 235.249 103.471V93.9431C235.249 93.3983 235.088 92.5727 235.249 92.0471C235.657 90.7007 238.268 91.2335 239.283 91.2335H246.243C247.299 91.2335 249.322 90.7847 249.473 92.2895C249.697 94.4903 249.473 96.8255 249.473 99.0359V104.254C249.473 104.351 249.512 104.444 249.581 104.513C249.651 104.582 249.742 104.621 249.841 104.621C249.939 104.621 250.033 104.582 250.1 104.513C250.169 104.444 250.208 104.351 250.208 104.254Z" fill="#E8E8E8"/>
<path opacity="0.56" d="M236.966 103.843V92.7577L236.606 93.1177H248.021L247.661 92.7577V103.843L248.021 103.483H236.606C236.511 103.483 236.419 103.521 236.352 103.589C236.284 103.656 236.246 103.748 236.246 103.843C236.246 103.939 236.284 104.031 236.352 104.098C236.419 104.165 236.511 104.203 236.606 104.203H248.021C248.117 104.202 248.208 104.164 248.275 104.097C248.342 104.029 248.381 103.938 248.381 103.843V92.7577C248.381 92.6627 248.342 92.5717 248.275 92.5045C248.208 92.4373 248.117 92.3989 248.021 92.3977H236.606C236.511 92.3989 236.42 92.4373 236.353 92.5045C236.286 92.5717 236.248 92.6627 236.246 92.7577V103.843C236.246 103.939 236.284 104.031 236.352 104.098C236.419 104.165 236.511 104.203 236.606 104.203C236.702 104.203 236.793 104.165 236.861 104.098C236.928 104.031 236.966 103.939 236.966 103.843Z" fill="#E8E8E8"/>
<path opacity="0.56" d="M186.067 214.051C158.328 214.051 132.252 213.23 112.627 211.742C98.7072 210.686 82.1064 208.841 82.1064 206.049C82.1064 203.258 98.7048 201.413 112.627 200.357C132.242 198.866 158.318 198.048 186.067 198.048C213.816 198.048 239.88 198.866 259.507 200.357C273.427 201.413 290.028 203.258 290.028 206.049C290.028 208.841 273.43 210.686 259.507 211.742C239.88 213.23 213.804 214.051 186.067 214.051ZM186.067 198.288C158.335 198.288 132.264 199.106 112.656 200.597C93.3984 202.058 82.356 204.045 82.356 206.049C82.356 208.053 93.396 210.041 112.656 211.502C132.264 212.993 158.335 213.811 186.067 213.811C213.799 213.811 239.868 212.993 259.476 211.502C278.734 210.041 289.776 208.053 289.776 206.049C289.776 204.045 278.736 202.058 259.476 200.597C239.868 199.106 213.797 198.288 186.067 198.288Z" fill="#E2E2E2"/>
<path opacity="0.64" d="M186.068 209.328C170.468 209.328 155.801 209.023 144.766 208.471C127.335 207.595 127.335 206.589 127.335 206.049C127.335 205.509 127.335 204.504 144.766 203.628C155.806 203.076 170.468 202.769 186.068 202.769C201.668 202.769 216.334 203.076 227.367 203.628C244.798 204.504 244.798 205.509 244.798 206.049C244.798 206.589 244.798 207.595 227.367 208.471C216.332 209.023 201.663 209.328 186.068 209.328ZM186.068 203.009C170.468 203.009 155.809 203.313 144.788 203.868C127.585 204.732 127.585 205.723 127.585 206.049C127.585 206.376 127.585 207.367 144.788 208.231C155.828 208.783 170.482 209.088 186.068 209.088C201.653 209.088 216.325 208.783 227.348 208.231C244.56 207.36 244.56 206.376 244.56 206.049C244.56 205.723 244.56 204.732 227.357 203.868C216.325 203.313 201.663 203.009 186.068 203.009ZM186.068 208.872C155.182 208.872 129.058 207.641 127.832 206.126L127.769 206.049L127.832 205.975C129.058 204.458 155.192 203.227 186.068 203.227C216.944 203.227 243.075 204.458 244.304 205.975L244.364 206.049L244.304 206.126C243.075 207.641 216.961 208.872 186.068 208.872ZM128.105 206.049C129.985 207.312 153.286 208.632 186.068 208.632C218.849 208.632 242.148 207.312 244.03 206.049C242.148 204.787 218.847 203.467 186.068 203.467C153.289 203.467 129.985 204.787 128.105 206.049Z" fill="#CECECE"/>
<path opacity="0.76" d="M170.143 99.5855H89.6155C88.5643 99.5855 87.3715 99.4295 86.3275 99.5855C86.2774 99.5891 86.2267 99.5891 86.1763 99.5855L87.6163 101.026V52.1711L86.1763 53.6111H166.704C167.755 53.6111 168.948 53.7695 169.992 53.6111C170.042 53.6075 170.093 53.6075 170.143 53.6111L168.703 52.1711V101.026C168.703 102.878 171.583 102.883 171.583 101.026V52.1711C171.577 51.7909 171.424 51.4278 171.155 51.159C170.886 50.8902 170.523 50.7366 170.143 50.7311H96.4987C93.1195 50.7311 89.7019 50.5775 86.3275 50.7311H86.1763C85.7962 50.7366 85.4333 50.8902 85.1642 51.159C84.8954 51.4278 84.7421 51.7909 84.7363 52.1711V101.026C84.7414 101.406 84.8947 101.769 85.1638 102.038C85.4326 102.307 85.7959 102.46 86.1763 102.466H159.823C163.2 102.466 166.617 102.619 169.992 102.466H170.143C171.996 102.466 172 99.5855 170.143 99.5855Z" fill="#C1C1C1"/>
</g>
<path d="M210.878 167.28C211.31 167.126 211.702 166.88 212.03 166.56L213.093 165.543L214.214 164.47L202.956 156.07C202.656 155.841 202.306 155.686 201.935 155.618C201.564 155.549 201.182 155.569 200.82 155.676L195.84 157.227C195.42 157.376 195.052 157.642 194.778 157.994C194.505 158.345 194.338 158.768 194.297 159.211C194.297 159.24 194.297 159.271 194.297 159.3C194.253 159.714 194.302 160.132 194.438 160.524C194.455 160.649 194.497 160.77 194.56 160.879C194.624 160.987 194.709 161.083 194.809 161.159C194.91 161.235 195.024 161.291 195.146 161.323C195.268 161.355 195.396 161.362 195.521 161.345H195.535C195.569 161.156 195.659 160.982 195.793 160.844C195.927 160.707 196.099 160.612 196.287 160.574C196.476 160.536 196.671 160.554 196.848 160.628C197.025 160.702 197.177 160.827 197.282 160.987H197.28C197.518 160.958 197.737 160.84 197.893 160.657C198.049 160.474 198.131 160.239 198.122 159.999L201.06 159.312L207.391 166.395C207.658 166.691 207.978 166.935 208.334 167.115C208.365 167.131 208.399 167.143 208.433 167.158C209.2 167.519 210.079 167.563 210.878 167.28Z" fill="#6B6B6B"/>
<path d="M210.974 167.626C212.359 167.054 213.403 165.756 214.469 164.734C214.507 164.694 214.535 164.647 214.552 164.595C214.569 164.543 214.575 164.488 214.568 164.434C214.561 164.38 214.542 164.328 214.512 164.282C214.483 164.237 214.443 164.198 214.397 164.17L204.96 157.135C203.686 156.175 202.435 154.898 200.7 155.342C199.79 155.582 198.895 155.902 197.998 156.18C197.158 156.439 196.222 156.622 195.425 157.003C194.057 157.661 193.505 159.554 194.162 160.91C194.762 162.137 196.265 161.815 196.687 160.67L196.085 160.829C197.016 161.77 198.324 161.294 198.485 159.998L198.221 160.346L200.141 159.895C200.381 159.838 200.842 159.818 201.062 159.679C200.88 159.794 200.822 159.382 200.928 159.706C201.05 160.082 201.718 160.586 201.977 160.879L203.657 162.754C205.531 164.849 207.682 168.554 210.97 167.63C211.057 167.601 211.13 167.54 211.174 167.459C211.218 167.377 211.229 167.282 211.204 167.193C211.18 167.105 211.122 167.028 211.043 166.98C210.964 166.933 210.87 166.917 210.78 166.937C208.166 167.671 206.46 164.813 204.955 163.128L201.317 159.048C201.272 159.002 201.216 158.97 201.154 158.953C201.093 158.937 201.028 158.937 200.966 158.954L198.029 159.641C197.954 159.664 197.888 159.71 197.841 159.772C197.793 159.835 197.767 159.91 197.765 159.989C197.523 160.715 197.135 160.822 196.601 160.31C196.556 160.267 196.5 160.236 196.44 160.22C196.379 160.204 196.316 160.205 196.255 160.22C196.195 160.236 196.139 160.267 196.094 160.311C196.049 160.355 196.016 160.409 195.998 160.469C195.588 161.582 194.657 160.368 194.628 159.701C194.607 159.258 194.706 158.817 194.916 158.426C195.211 157.906 195.708 157.668 196.236 157.466C197.021 157.178 197.846 156.97 198.636 156.722C200.134 156.259 201.562 155.522 202.992 156.552C205.714 158.518 208.378 160.572 211.07 162.578L214.018 164.779L213.946 164.213C213.005 165.113 211.98 166.418 210.77 166.92C210.362 167.105 210.547 167.803 210.974 167.626Z" fill="#1D1D1B"/>
<path d="M201.067 159.307L202.416 158.813L201.763 160.047L201.067 159.307Z" fill="#494949"/>
<path d="M201.163 159.653L202.512 159.161L202.104 158.64L201.451 159.874L202.018 159.802L201.322 159.062C201.005 158.724 200.496 159.233 200.813 159.571L201.509 160.311C201.548 160.349 201.596 160.377 201.647 160.395C201.7 160.412 201.755 160.417 201.809 160.41C201.863 160.403 201.915 160.383 201.961 160.353C202.006 160.323 202.045 160.283 202.073 160.236L202.728 159.005C202.863 158.75 202.632 158.362 202.32 158.477L200.971 158.969C200.539 159.12 200.727 159.814 201.163 159.653Z" fill="#1D1D1B"/>
<path d="M220.464 179.535C218.998 179.067 217.426 179.04 215.945 179.458C214.463 179.876 213.137 180.721 212.132 181.887C212.016 182.026 211.892 182.165 211.793 182.307C208.659 186.336 208.38 191.907 210.881 196.351L213.668 201.31H213.557H209.175C208.707 201.309 208.243 201.401 207.811 201.58C207.378 201.759 206.985 202.021 206.654 202.352C206.323 202.683 206.06 203.075 205.881 203.508C205.701 203.94 205.609 204.403 205.608 204.871V205.38C205.608 205.616 205.702 205.843 205.869 206.01C206.036 206.177 206.263 206.271 206.499 206.271H212.528L212.513 206.321H223.553C228.375 206.321 232.282 202.646 232.282 198.115V195.067C232.294 187.858 227.345 181.733 220.464 179.535Z" fill="#6B6B6B"/>
<path d="M220.56 179.186C213.84 177.213 208.954 183.53 208.843 189.725C208.764 194.17 211.267 197.774 213.358 201.485L213.667 200.945C212.206 200.87 210.701 200.892 209.239 200.945C208.193 200.947 207.19 201.359 206.444 202.092C205.698 202.825 205.269 203.821 205.248 204.866C205.178 206.594 206.374 206.626 207.722 206.628H212.522L212.177 206.172L212.162 206.222C212.148 206.276 212.146 206.331 212.157 206.386C212.167 206.44 212.19 206.491 212.224 206.535C212.257 206.579 212.3 206.615 212.349 206.639C212.398 206.664 212.453 206.678 212.508 206.678H219.216C221.671 206.678 224.405 206.971 226.757 206.131C228.461 205.545 229.943 204.446 230.998 202.985C232.054 201.525 232.632 199.773 232.654 197.971C232.694 194.556 232.579 191.285 231.067 188.131C228.989 183.811 225.067 180.667 220.56 179.177C220.121 179.033 219.931 179.726 220.37 179.873C224.4 181.202 227.914 183.897 229.994 187.629C231.73 190.737 231.934 193.98 231.934 197.443C231.934 201.283 229.774 204.562 225.946 205.622C223.867 206.198 221.467 205.946 219.331 205.946H212.513L212.861 206.4L212.875 206.352C212.889 206.298 212.89 206.243 212.88 206.188C212.869 206.134 212.845 206.083 212.812 206.039C212.779 205.995 212.735 205.96 212.686 205.935C212.637 205.91 212.582 205.897 212.527 205.896H207.12C206.4 205.896 206.03 205.68 205.975 204.857C205.718 200.962 211.207 201.538 213.674 201.665C213.737 201.664 213.799 201.646 213.853 201.614C213.907 201.582 213.953 201.536 213.984 201.482C214.015 201.427 214.032 201.365 214.033 201.302C214.033 201.239 214.017 201.177 213.986 201.122C212.306 198.154 210.175 195.122 209.693 191.697C208.822 185.508 213.269 177.777 220.378 179.877C220.814 180.012 221.004 179.318 220.56 179.186Z" fill="#1D1D1B"/>
<path d="M245.788 178.202C246.83 179.162 247.835 180.18 248.86 181.169C249.954 182.269 250.902 183.507 251.675 184.853C252.462 186.217 253.065 187.678 253.473 189.199C253.674 189.966 253.83 190.744 253.938 191.53C254.037 192.302 254.09 193.159 254.114 193.846C254.138 195.768 253.526 197.644 252.374 199.183C251.303 200.614 249.914 201.775 248.315 202.574C246.796 203.348 245.152 203.848 243.46 204.053L242.834 204.125L242.207 204.151L241.578 204.175H241.048C240.328 204.175 239.63 204.175 238.919 204.175C238.267 204.155 237.649 203.882 237.194 203.413C236.74 202.945 236.486 202.319 236.486 201.666C236.486 201.014 236.74 200.387 237.194 199.919C237.649 199.45 238.267 199.177 238.919 199.157C239.639 199.157 240.338 199.142 241.048 199.157H241.578L242.015 199.14H242.45L242.879 199.09C244.012 198.977 245.118 198.685 246.158 198.226C248.193 197.314 249.69 195.665 249.808 193.86C249.849 193.126 249.868 192.566 249.854 191.923C249.827 191.297 249.767 190.673 249.674 190.054C249.482 188.797 249.138 187.569 248.651 186.396C248.157 185.199 247.521 184.064 246.762 183.014C245.934 181.858 245.082 180.72 244.269 179.549C244.127 179.344 244.065 179.094 244.096 178.846C244.127 178.599 244.25 178.372 244.437 178.208C244.626 178.045 244.869 177.957 245.118 177.962C245.368 177.967 245.606 178.063 245.788 178.234V178.202Z" fill="#6B6B6B"/>
<path d="M245.532 178.457C247.692 180.47 249.878 182.462 251.364 185.035C252.768 187.507 253.574 190.272 253.721 193.111C254.081 199.154 248.736 203.153 243.149 203.729C241.735 203.875 240.029 204.009 238.661 203.769C236.981 203.474 236.167 201.408 237.444 200.136C238.404 199.176 240.084 199.51 241.313 199.497C244.584 199.466 248.873 198.331 249.986 194.81C250.769 192.331 250.056 189.017 249.156 186.665C248.654 185.362 247.999 184.125 247.2 182.981C246.753 182.335 246.281 181.709 245.822 181.075C245.654 180.835 245.486 180.614 245.321 180.382C245.155 180.149 244.989 179.918 244.826 179.686C244.301 179.182 244.56 178.791 245.606 178.514C245.995 178.769 246.355 178.145 245.969 177.893C245.22 177.401 244.207 177.514 243.835 178.43C243.384 179.532 244.627 180.648 245.198 181.438C247.425 184.507 249.218 187.541 249.468 191.424C249.559 192.864 249.612 194.407 248.784 195.648C247.728 197.227 245.861 198.108 244.058 198.506C243.242 198.679 242.412 198.77 241.579 198.778C240.475 198.797 239.249 198.59 238.176 198.897C237.715 199.036 237.296 199.288 236.957 199.629C236.618 199.97 236.369 200.39 236.233 200.851C236.097 201.312 236.077 201.8 236.177 202.271C236.277 202.741 236.492 203.18 236.803 203.546C238.097 205.015 240.547 204.578 242.304 204.506C247.32 204.302 252.849 201.401 254.184 196.231C254.985 193.135 254.169 189.456 252.943 186.581C251.441 183.062 248.784 180.521 246.043 177.941C245.705 177.631 245.193 178.14 245.532 178.457Z" fill="#1D1D1B"/>
<path d="M242.791 185.698C242.1 184.584 241.312 183.534 240.434 182.561L234.415 175.872L226.905 161.88L226.185 153.422L226.812 148.32C226.911 147.519 226.728 146.709 226.296 146.028C226.158 143.304 225.525 140.627 224.429 138.13C224.351 137.957 224.226 137.811 224.068 137.707C223.91 137.604 223.725 137.548 223.536 137.545C223.348 137.543 223.162 137.595 223.002 137.695C222.841 137.794 222.713 137.938 222.631 138.108L220.034 143.503L219.434 143.359C219.236 143.313 219.036 143.279 218.834 143.258C217.767 143.135 216.688 143.36 215.76 143.902L214.56 144.622L210.158 147.228L202.937 146.126C202.63 146.08 202.318 146.097 202.019 146.175C201.719 146.254 201.439 146.393 201.195 146.584C200.951 146.774 200.749 147.013 200.601 147.285C200.452 147.557 200.361 147.856 200.333 148.164C200.184 149.758 200.612 151.352 201.539 152.658C202.465 153.963 203.829 154.894 205.382 155.28L212.532 157.051L210.96 163.322C210.152 164.223 209.533 165.277 209.138 166.421L202.721 161.633C202.294 161.305 201.796 161.084 201.268 160.986C200.739 160.889 200.195 160.918 199.68 161.071L192.59 163.265C191.371 163.642 190.569 164.782 190.394 166.087C190.394 166.13 190.382 166.171 190.38 166.217C190.321 166.805 190.39 167.398 190.581 167.957C190.634 168.314 190.825 168.637 191.113 168.855C191.402 169.073 191.764 169.169 192.122 169.123H192.144C192.43 169.086 192.698 168.96 192.909 168.762C193.12 168.564 193.264 168.305 193.32 168.022C193.462 168.232 193.66 168.398 193.891 168.503C194.123 168.607 194.378 168.646 194.63 168.614H194.652C194.991 168.57 195.301 168.401 195.523 168.141C195.744 167.881 195.862 167.547 195.852 167.206L200.033 166.229L209.04 176.309C209.418 176.732 209.874 177.081 210.381 177.336L211.68 182.678L213.146 193.591C213.679 197.561 216.197 200.969 219.768 203.004C219.421 203.563 219.237 204.207 219.235 204.864V205.387C219.235 205.623 219.329 205.85 219.496 206.017C219.663 206.184 219.889 206.278 220.125 206.278H226.152V206.311H237.192C242.013 206.311 245.92 202.637 245.92 198.106V195.067C245.916 191.688 244.819 188.401 242.791 185.698Z" fill="white"/>
<path d="M243.101 185.52C241.8 183.468 240.158 181.721 238.541 179.923C237.283 178.526 235.757 177.168 234.674 175.627C234.787 175.788 234.612 175.483 234.59 175.44C234.437 175.169 234.295 174.893 234.149 174.619L232.812 172.13L229.231 165.456L227.791 162.777C227.657 162.537 227.532 162.266 227.386 162.021C227.352 161.966 227.179 161.592 227.239 161.781C227.299 161.971 227.227 161.46 227.22 161.373L227.093 159.888L226.774 156.149C226.642 154.598 226.555 153.307 226.745 151.771C226.877 150.686 227.03 149.611 227.143 148.512C227.214 148.009 227.197 147.497 227.093 147C226.975 146.501 226.721 146.069 226.613 145.56C226.505 145.051 226.512 144.482 226.438 143.952C226.188 141.95 225.643 139.996 224.822 138.153C224.302 137.045 223.001 136.812 222.302 137.913C221.261 139.565 220.558 141.54 219.708 143.301L220.116 143.136C218.345 142.711 216.838 142.843 215.244 143.769C214.346 144.29 213.456 144.825 212.563 145.356L210.816 146.4C210.583 146.507 210.362 146.637 210.156 146.789C209.916 147 210.106 146.853 210.18 146.856C209.095 146.832 207.941 146.515 206.868 146.352C204.814 146.037 201.132 144.741 200.122 147.437C199.483 149.141 200.222 151.411 201.223 152.827C202.217 154.213 203.669 155.204 205.322 155.623C207.682 156.257 210.067 156.797 212.436 157.385L212.196 156.941L211.13 161.205C210.979 161.81 210.91 162.554 210.65 163.125C210.497 163.466 210.132 163.776 209.911 164.102C209.451 164.793 209.078 165.538 208.8 166.32L209.328 166.104L205.188 163.015C203.748 161.947 202.214 160.375 200.285 160.586C198.458 160.776 196.57 161.657 194.827 162.194C193.085 162.732 191.136 163.049 190.339 164.961C189.833 166.176 189.768 168.295 190.946 169.152C192.01 169.927 193.315 169.272 193.675 168.11L193.075 168.269C194.201 169.584 196.09 168.869 196.222 167.196L195.958 167.544L197.818 167.109C198.49 166.951 199.459 166.905 200.074 166.581C199.98 166.629 199.798 166.32 199.877 166.581C199.918 166.711 200.148 166.884 200.239 166.985L201.538 168.425L208.382 176.085C208.628 176.375 208.89 176.651 209.167 176.911C209.407 177.127 209.959 177.353 210.065 177.497C210.17 177.641 210.206 178.089 210.257 178.296C210.612 179.777 211.049 181.26 211.33 182.757C211.877 185.652 212.122 188.635 212.513 191.556C212.741 193.25 212.914 194.93 213.557 196.536C214.721 199.435 216.917 201.737 219.586 203.304L219.456 202.824C219.005 203.652 218.453 205.296 219.154 206.169C219.66 206.803 220.594 206.649 221.314 206.649H226.164L225.816 206.193V206.227C225.802 206.281 225.801 206.336 225.812 206.391C225.823 206.445 225.846 206.496 225.879 206.54C225.913 206.584 225.956 206.619 226.005 206.644C226.054 206.669 226.109 206.682 226.164 206.683H236.546C239.493 206.683 242.306 205.812 244.279 203.503C246.11 201.357 246.302 198.943 246.302 196.255C246.302 192.326 245.465 188.755 243.125 185.522C242.856 185.153 242.232 185.51 242.503 185.887C244.543 188.693 245.623 192.081 245.582 195.549C245.582 198.153 245.654 200.618 243.933 202.79C240.926 206.58 236.052 205.963 231.756 205.963H226.164L226.51 206.417V206.385C226.524 206.332 226.526 206.276 226.515 206.222C226.504 206.168 226.482 206.117 226.448 206.073C226.415 206.029 226.372 205.993 226.323 205.968C226.273 205.944 226.219 205.93 226.164 205.929H220.704C219.144 205.929 219.538 204.182 220.075 203.196C220.121 203.113 220.134 203.016 220.11 202.924C220.087 202.833 220.029 202.754 219.948 202.704C217.471 201.264 215.422 199.149 214.301 196.483C213.749 195.17 213.53 193.812 213.341 192.417L212.122 183.338C212.023 182.666 211.889 182 211.721 181.341L211.2 179.117C211.068 178.572 211.025 177.787 210.758 177.285C210.492 176.784 209.731 176.481 209.304 176.037C209.11 175.836 208.93 175.62 208.745 175.413L205.978 172.32L200.294 165.962C200.25 165.917 200.194 165.884 200.132 165.868C200.07 165.851 200.005 165.852 199.944 165.869L195.763 166.848C195.688 166.87 195.622 166.915 195.574 166.977C195.527 167.039 195.5 167.115 195.499 167.193C195.408 168.353 194.237 168.523 193.579 167.757C193.534 167.714 193.479 167.683 193.418 167.667C193.358 167.652 193.294 167.652 193.234 167.668C193.173 167.683 193.118 167.715 193.073 167.758C193.028 167.802 192.995 167.856 192.977 167.916C192.598 169.142 191.371 168.895 190.934 167.853C190.695 167.215 190.649 166.519 190.802 165.854C190.896 165.348 191.119 164.875 191.45 164.481C191.781 164.087 192.209 163.785 192.691 163.605C193.246 163.397 193.831 163.253 194.395 163.077C196.164 162.53 197.928 161.892 199.721 161.431C201.794 160.898 203.376 162.559 204.91 163.704L208.961 166.723C209.162 166.874 209.417 166.704 209.489 166.509C209.887 165.425 210.468 164.683 211.082 163.728C211.186 163.589 211.273 163.438 211.342 163.279C211.582 162.665 211.68 161.93 211.838 161.289L212.88 157.14C212.904 157.049 212.893 156.953 212.848 156.87C212.804 156.787 212.729 156.725 212.64 156.696L206.738 155.237C205.697 154.977 204.662 154.757 203.729 154.2C202.804 153.639 202.038 152.852 201.502 151.913C200.967 150.974 200.679 149.915 200.666 148.833C200.666 147.487 201.386 146.378 202.855 146.469C203.141 146.486 203.436 146.556 203.719 146.599L207.499 147.175C208.284 147.295 209.256 147.619 210.053 147.566C210.701 147.521 211.382 146.913 211.932 146.589L214.745 144.924C215.256 144.621 215.762 144.276 216.302 144.021C217.502 143.457 218.702 143.541 219.95 143.837C220.027 143.857 220.108 143.852 220.181 143.822C220.254 143.792 220.316 143.739 220.356 143.671C221.143 142.037 221.81 140.249 222.756 138.701C223.01 138.281 223.111 137.357 224.134 138.3C224.575 138.708 224.83 140.078 225.002 140.64C225.271 141.525 225.487 142.426 225.648 143.337C225.763 144 225.85 144.669 225.905 145.341C225.96 146.013 226.068 146.129 226.308 146.815C226.656 147.811 226.392 148.937 226.267 149.954C226.142 150.972 225.962 152.054 225.881 153.105C225.768 154.514 226.061 156.012 226.181 157.425L226.471 160.821C226.47 161.246 226.519 161.669 226.618 162.081C227.026 163.298 227.921 164.508 228.538 165.636L231.914 171.929C232.634 173.261 233.261 174.713 234.089 175.98C234.96 177.312 236.294 178.473 237.357 179.657C239.162 181.661 241.058 183.602 242.508 185.897C242.726 186.271 243.36 185.909 243.101 185.52Z" fill="#1D1D1B"/>
<path d="M218.834 143.246C218.817 143.193 218.791 143.143 218.757 143.098L216.532 140.271C216.436 140.148 216.307 140.057 216.16 140.008C216.012 139.959 215.854 139.953 215.704 139.993C215.554 140.032 215.418 140.115 215.314 140.23C215.21 140.346 215.142 140.489 215.119 140.643L214.541 144.435C214.529 144.494 214.529 144.555 214.541 144.615L215.741 143.895C216.674 143.347 217.76 143.12 218.834 143.246Z" fill="#6B6B6B"/>
<path d="M219.144 143.064C218.743 142.286 218.03 141.595 217.492 140.904C216.955 140.213 216.424 139.279 215.443 139.704C214.627 140.054 214.67 141.202 214.557 141.941C214.428 142.793 214.147 143.743 214.19 144.61C214.191 144.672 214.209 144.734 214.242 144.788C214.274 144.842 214.319 144.886 214.374 144.918C214.428 144.949 214.49 144.965 214.553 144.966C214.616 144.966 214.677 144.95 214.732 144.919C216.048 144.139 217.224 143.467 218.834 143.602C219.295 143.64 219.292 142.92 218.834 142.882C217.104 142.738 215.796 143.453 214.368 144.298L214.91 144.61C214.879 143.971 215.08 143.261 215.176 142.63C215.265 142.051 215.244 141.276 215.467 140.734C215.911 139.646 216.94 141.362 217.236 141.737C217.656 142.272 218.21 142.819 218.522 143.417C218.736 143.839 219.36 143.477 219.144 143.064Z" fill="#1D1D1B"/>
<path opacity="0.4" d="M221.676 143.601L222.876 141.201C222.926 141.099 223.005 141.013 223.103 140.954C223.2 140.895 223.313 140.865 223.427 140.868C223.541 140.871 223.652 140.906 223.746 140.97C223.841 141.033 223.915 141.123 223.961 141.228C224.486 142.449 225.161 144.453 224.846 146.114L222.96 145.2" fill="black"/>
<path d="M202.619 148.666L204.273 146.506C204.242 146.417 204.213 146.338 204.184 146.251L202.984 146.066C202.678 146.02 202.365 146.036 202.066 146.114C201.766 146.193 201.485 146.332 201.241 146.522C200.997 146.713 200.795 146.952 200.646 147.224C200.498 147.496 200.406 147.795 200.378 148.104C200.322 148.709 200.349 149.32 200.457 149.918L201.837 149.292C202.145 149.151 202.414 148.936 202.619 148.666Z" fill="black"/>
<path d="M214.661 149.194C214.544 149.26 214.41 149.291 214.276 149.281C214.141 149.272 214.013 149.223 213.906 149.141C213.8 149.059 213.72 148.946 213.677 148.819C213.634 148.691 213.63 148.554 213.665 148.424C213.7 148.294 213.773 148.177 213.874 148.089C213.976 148 214.101 147.943 214.234 147.926C214.368 147.908 214.503 147.931 214.624 147.99C214.745 148.05 214.845 148.143 214.913 148.26C215.003 148.417 215.028 148.604 214.98 148.779C214.933 148.954 214.818 149.103 214.661 149.194Z" fill="black"/>
<g opacity="0.57">
<path opacity="0.57" d="M217.315 148.862C217.129 148.728 216.98 148.549 216.883 148.342C216.761 148.135 216.643 147.931 216.513 147.758C216.384 147.586 216.247 147.391 216.098 147.204C215.936 147.041 215.82 146.838 215.76 146.616C215.731 146.414 215.906 146.203 216.295 146.194C216.563 146.218 216.823 146.301 217.056 146.437C217.289 146.574 217.489 146.759 217.642 146.981C217.795 147.203 217.898 147.455 217.942 147.721C217.987 147.987 217.973 148.259 217.901 148.519C217.754 148.874 217.493 148.961 217.315 148.862Z" fill="black"/>
</g>
<g opacity="0.49">
<path opacity="0.49" d="M207.361 154.601C207.186 154.6 207.013 154.574 206.847 154.521L201.43 152.841C201.399 152.835 201.371 152.821 201.345 152.803C201.32 152.784 201.299 152.76 201.283 152.733C201.268 152.706 201.258 152.676 201.254 152.644C201.251 152.613 201.254 152.582 201.263 152.552C201.272 152.522 201.288 152.494 201.308 152.47C201.329 152.447 201.354 152.427 201.382 152.414C201.41 152.4 201.441 152.392 201.473 152.391C201.504 152.39 201.535 152.396 201.565 152.407L206.981 154.087C207.308 154.186 207.661 154.153 207.963 153.994C208.266 153.836 208.494 153.565 208.599 153.24L208.69 152.954C208.69 152.916 208.699 152.879 208.716 152.845C208.733 152.811 208.757 152.782 208.788 152.759C208.819 152.737 208.854 152.722 208.892 152.716C208.929 152.71 208.967 152.713 209.003 152.724C209.039 152.736 209.072 152.756 209.099 152.782C209.126 152.809 209.146 152.842 209.158 152.878C209.17 152.914 209.173 152.952 209.167 152.99C209.161 153.027 209.147 153.063 209.125 153.093L209.033 153.379C208.919 153.733 208.695 154.042 208.395 154.261C208.095 154.481 207.733 154.599 207.361 154.601Z" fill="black"/>
</g>
<path d="M205.557 148.395C205.55 148.447 205.527 148.495 205.491 148.534C205.456 148.574 205.409 148.601 205.358 148.614C205.307 148.627 205.253 148.624 205.204 148.606C205.154 148.588 205.111 148.556 205.079 148.514C205.048 148.471 205.03 148.42 205.028 148.368C205.025 148.315 205.038 148.263 205.066 148.218C205.093 148.173 205.133 148.137 205.181 148.114C205.229 148.092 205.282 148.084 205.334 148.092C205.404 148.103 205.466 148.141 205.508 148.197C205.55 148.254 205.568 148.325 205.557 148.395Z" fill="black"/>
<path d="M203.933 149.65C203.922 149.683 203.902 149.713 203.875 149.735C203.848 149.757 203.814 149.77 203.78 149.773C203.745 149.776 203.71 149.769 203.679 149.752C203.648 149.736 203.623 149.71 203.607 149.679C203.59 149.648 203.583 149.613 203.587 149.578C203.59 149.543 203.604 149.51 203.627 149.483C203.649 149.456 203.679 149.436 203.712 149.426C203.746 149.416 203.782 149.416 203.815 149.426C203.86 149.441 203.898 149.472 203.92 149.514C203.942 149.556 203.947 149.604 203.933 149.65Z" fill="black"/>
<path d="M214.208 150.012H214.181C214.125 150.002 214.074 149.973 214.037 149.929C214.001 149.885 213.981 149.829 213.982 149.772C214.071 148.992 213.221 148.855 213.125 148.841C213.094 148.839 213.064 148.831 213.036 148.817C213.008 148.803 212.983 148.783 212.963 148.759C212.943 148.735 212.928 148.707 212.919 148.677C212.91 148.647 212.908 148.615 212.912 148.584C212.916 148.553 212.926 148.523 212.942 148.496C212.958 148.469 212.98 148.446 213.005 148.428C213.031 148.41 213.059 148.397 213.09 148.39C213.121 148.384 213.152 148.383 213.183 148.39C213.663 148.452 214.549 148.831 214.436 149.83C214.423 149.881 214.394 149.926 214.353 149.959C214.312 149.992 214.26 150.011 214.208 150.012Z" fill="black"/>
<path opacity="0.57" d="M224.374 206.28L224.364 206.314H226.14L226.15 206.282L224.374 206.28Z" fill="#54132A"/>
<g opacity="0.71">
<path opacity="0.4" d="M200.04 166.224L201.958 165.521L201.029 167.275L200.04 166.224Z" fill="black"/>
<path opacity="0.28" d="M218.368 189.057C217.783 185.021 215.913 180.897 214 177.566C213.415 177.771 212.795 177.856 212.176 177.814C211.557 177.773 210.953 177.607 210.4 177.326L211.68 182.678L213.146 193.591C213.41 195.509 214.131 197.336 215.246 198.919C216.23 200.054 217.082 200.952 217.668 201.545C217.948 201.785 218.241 202.005 218.541 202.219C218.731 201.417 219.556 197.251 218.368 189.057Z" fill="black"/>
<path opacity="0.4" d="M215.64 176.558C215.172 177.008 214.613 177.351 214.001 177.566C212.865 177.965 211.619 177.902 210.53 177.391L210.729 178.229C211.331 178.635 212.065 178.797 212.781 178.682L214.238 178.442C214.682 178.37 215.102 178.191 215.462 177.92C215.821 177.65 216.11 177.296 216.302 176.889L217.152 175.111L215.64 176.558Z" fill="black"/>
<path opacity="0.4" d="M209.114 166.368L211.807 168.636C212.036 168.832 212.328 168.94 212.63 168.94C212.932 168.94 213.224 168.832 213.453 168.636L215.599 166.771C216.395 166.08 217.378 165.643 218.424 165.514C219.47 165.386 220.53 165.573 221.469 166.051L223.946 167.309L221.306 165.033C220.55 164.382 219.582 164.028 218.583 164.038C217.585 164.049 216.625 164.423 215.882 165.091L213.36 167.378C213.16 167.561 212.912 167.681 212.645 167.724C212.378 167.766 212.104 167.73 211.857 167.618L209.114 166.368Z" fill="black"/>
<path opacity="0.34" d="M225.491 163.713L225.856 166.593C226.218 169.436 227.452 172.096 229.389 174.207C231.326 176.318 233.87 177.777 236.671 178.382L234.415 175.877L226.905 161.885L226.185 153.427L226.197 153.331L226.099 153.117L225.439 161.323C225.374 162.12 225.392 162.921 225.491 163.713Z" fill="black"/>
<path opacity="0.28" d="M212.531 157.044L216.134 157.378L211.151 162.48L212.531 157.044Z" fill="black"/>
<path opacity="0.57" d="M222.8 201.302H227.182H227.295L224.506 196.344C222.006 191.894 222.284 186.329 225.418 182.299C225.529 182.158 225.641 182.018 225.759 181.879C227.044 180.378 228.854 179.425 230.818 179.213C229.548 179.065 228.26 179.231 227.069 179.696C225.877 180.16 224.818 180.91 223.983 181.879C223.868 182.018 223.743 182.158 223.645 182.299C220.51 186.329 220.232 191.899 222.733 196.344L225.217 200.762H223.153C222.506 200.761 221.871 200.936 221.316 201.269C220.762 201.601 220.308 202.078 220.004 202.649C220.338 202.228 220.763 201.887 221.247 201.654C221.731 201.421 222.262 201.301 222.8 201.302Z" fill="black"/>
</g>
<path d="M137.828 195.36C134.594 194.458 131.413 193.379 128.297 192.129C125.813 191.138 123.497 190.099 121.366 189.045C118.569 189.541 115.799 190.182 113.069 190.965C107.842 192.475 104.669 193.385 104.643 194.649C104.595 196.569 111.689 198.302 115.39 198.919C118.489 199.439 121.64 199.586 124.774 199.358C128.216 200.186 131.674 201.038 135.116 201.859C136.026 199.689 136.93 197.523 137.828 195.36Z" fill="#161616"/>
<path d="M135.329 202.264L135.032 202.195L129.812 200.932L124.745 199.706C121.601 199.931 118.441 199.781 115.332 199.26C114.195 199.07 104.216 197.34 104.292 194.628C104.331 193.101 107.199 192.273 112.913 190.624L112.978 190.605C115.721 189.822 118.502 189.181 121.311 188.685L121.426 188.666L121.532 188.716C123.795 189.832 126.118 190.876 128.436 191.791C131.541 193.034 134.71 194.109 137.931 195.009L138.32 195.117L138.166 195.492C137.271 197.673 136.347 199.867 135.454 201.988L135.329 202.264ZM124.8 198.981H124.856L129.977 200.22L134.9 201.42C135.704 199.5 136.532 197.544 137.338 195.585C134.226 194.701 131.163 193.656 128.16 192.453C125.861 191.536 123.555 190.512 121.308 189.41C118.564 189.9 115.846 190.53 113.165 191.296L113.103 191.316C108.591 192.619 105.027 193.648 105 194.644C104.967 195.976 110.398 197.709 115.448 198.549C118.518 199.064 121.64 199.21 124.745 198.984L124.8 198.981Z" fill="#161616"/>
<path d="M146.332 192.055C143.098 191.152 139.916 190.074 136.8 188.825C134.316 187.834 132 186.794 129.868 185.741C127.072 186.236 124.304 186.876 121.574 187.661C116.345 189.17 113.174 190.08 113.148 191.345C113.1 193.265 120.194 194.998 123.895 195.614C126.994 196.134 130.145 196.281 133.279 196.054C136.721 196.882 140.176 197.734 143.618 198.554C144.53 196.406 145.44 194.246 146.332 192.055Z" fill="#161616"/>
<path d="M143.835 198.96L143.537 198.888L138.37 197.64L133.251 196.401C130.108 196.628 126.949 196.482 123.84 195.965C122.703 195.775 112.723 194.045 112.8 191.333C112.839 189.806 115.707 188.978 121.421 187.327L121.486 187.31C124.228 186.526 127.009 185.885 129.819 185.39L129.934 185.369L130.039 185.421C132.303 186.535 134.626 187.569 136.947 188.493C140.049 189.739 143.218 190.813 146.439 191.712L146.827 191.822L146.676 192.197C145.743 194.484 144.78 196.757 143.962 198.693L143.835 198.96ZM133.311 195.677H133.366L138.54 196.927L143.41 198.105C144.154 196.346 145.008 194.321 145.848 192.271C142.737 191.387 139.673 190.34 136.671 189.137C134.369 188.22 132.065 187.195 129.819 186.093C127.075 186.59 124.359 187.227 121.68 188.001L121.615 188.021C117.103 189.324 113.542 190.353 113.515 191.349C113.482 192.681 118.911 194.414 123.963 195.254C127.033 195.77 130.155 195.915 133.26 195.689L133.311 195.677Z" fill="#161616"/>
<path d="M141.399 162C139.45 163.68 135.78 167.323 134.239 173.102C133.795 174.766 133.56 176.478 133.541 178.2C133.982 181.215 135.345 184.02 137.444 186.229C139.542 188.439 142.274 189.944 145.263 190.538C144.72 193.44 144.173 196.32 143.621 199.231C158.931 208.987 174.101 211.294 181.188 204.96C181.625 204.571 185.604 200.918 185.863 195.66C186.156 189.814 181.675 185.203 176.35 179.717C173.661 176.988 170.714 174.525 167.551 172.363C165.561 170.993 163.501 169.725 161.381 168.564C154.044 164.64 146.446 162.866 141.399 162Z" fill="white"/>
<path d="M170.159 208.87C162.578 208.87 153.043 205.666 143.423 199.534L143.217 199.404L143.263 199.164C143.539 197.71 143.81 196.263 144.083 194.813C144.333 193.479 144.584 192.143 144.837 190.807C141.851 190.139 139.137 188.581 137.056 186.338C134.974 184.095 133.622 181.273 133.178 178.246V178.188C133.2 176.436 133.441 174.693 133.898 173.002C135.338 167.595 138.647 163.882 141.17 161.722L141.299 161.611L141.465 161.64C149.068 162.96 155.829 165.185 161.558 168.252C163.652 169.396 165.687 170.646 167.654 171.999L167.759 172.071C170.945 174.244 173.911 176.723 176.615 179.472C181.941 184.961 186.53 189.687 186.23 195.682C185.963 201.06 181.895 204.823 181.43 205.236C178.682 207.679 174.787 208.87 170.159 208.87ZM144.021 199.059C151.42 203.743 158.855 206.755 165.539 207.773C172.223 208.791 177.539 207.727 180.947 204.694C181.387 204.3 185.251 200.727 185.507 195.641C185.791 189.96 181.305 185.338 176.111 179.986L176.095 179.969C173.424 177.254 170.495 174.806 167.349 172.659L167.246 172.589C165.301 171.25 163.287 170.012 161.215 168.881C155.596 165.874 148.975 163.685 141.508 162.375C139.082 164.487 135.962 168.051 134.591 173.187C134.157 174.812 133.927 176.484 133.905 178.167C134.342 181.101 135.675 183.828 137.721 185.976C139.767 188.124 142.427 189.587 145.336 190.167L145.687 190.236L145.619 190.587C145.344 192.039 145.071 193.49 144.799 194.938C144.539 196.312 144.28 197.686 144.021 199.059Z" fill="#161616"/>
<path d="M128.427 164.571C126.726 167.716 125.417 171.059 124.531 174.523C123.507 178.565 123.639 180.523 123.751 181.438C124.003 183.604 124.729 185.688 125.878 187.541C128.427 191.568 132.291 193.095 133.654 193.541C133.102 196.447 132.567 199.337 132.015 202.243C137.055 204.305 149.662 209.093 160.894 209.683C163.395 209.813 166.512 209.765 169.579 207.979C170.019 207.739 175.263 204.569 175.896 199.325C176.544 193.872 171.641 189.375 164.743 182.751C162.014 180.065 159.071 177.605 155.943 175.397C153.952 174.028 151.893 172.761 149.775 171.6C141.658 167.218 132.907 165.36 128.427 164.571Z" fill="white"/>
<path d="M162.406 210.089C161.882 210.089 161.371 210.069 160.877 210.046C150.18 209.489 138.118 205.13 131.878 202.584L131.606 202.471L131.662 202.183C131.935 200.734 132.208 199.286 132.48 197.839C132.731 196.49 132.986 195.14 133.243 193.788C130.601 192.886 128.272 191.248 126.529 189.067C124.786 186.887 123.702 184.254 123.403 181.478C123.324 180.826 123.079 178.838 124.19 174.434C125.083 170.942 126.399 167.572 128.11 164.4L128.232 164.16L128.489 164.208C136.762 165.674 143.981 168.048 149.945 171.274C152.077 172.442 154.148 173.717 156.151 175.094C159.292 177.315 162.248 179.787 164.99 182.484L165.66 183.125C172.186 189.384 176.902 193.906 176.254 199.361C175.572 204.993 169.812 208.241 169.754 208.286C167.254 209.76 164.705 210.089 162.406 210.089ZM132.422 202.027C138.694 204.571 150.478 208.783 160.913 209.326C163.474 209.46 166.483 209.366 169.399 207.669C169.459 207.636 174.9 204.549 175.538 199.284C176.146 194.186 171.538 189.768 165.161 183.653L164.494 183.012C160.094 178.617 155.082 174.88 149.614 171.917C143.779 168.766 136.721 166.43 128.63 164.971C127.004 168.024 125.748 171.259 124.889 174.61C123.809 178.879 124.042 180.773 124.118 181.394C124.362 183.508 125.07 185.541 126.192 187.349C128.515 191.021 131.952 192.595 133.778 193.207L134.076 193.308L134.016 193.615C133.74 195.072 133.469 196.522 133.195 197.974C132.938 199.322 132.68 200.674 132.422 202.027Z" fill="#161616"/>
<path d="M151.253 196.649C151.561 196.632 151.561 196.147 151.253 196.169C145.274 196.331 139.314 195.424 133.654 193.49C133.361 193.394 133.232 193.865 133.525 193.97C139.23 195.902 145.231 196.814 151.253 196.666V196.649Z" fill="#161616"/>
<path d="M152.826 194.945C152.842 194.917 152.852 194.887 152.856 194.855C152.86 194.823 152.858 194.791 152.849 194.76C152.841 194.73 152.827 194.701 152.807 194.676C152.787 194.65 152.763 194.63 152.735 194.614C152.708 194.598 152.677 194.588 152.645 194.584C152.614 194.58 152.582 194.582 152.551 194.591C152.52 194.599 152.491 194.614 152.466 194.633C152.441 194.653 152.42 194.677 152.404 194.705C152.038 195.325 151.479 195.809 150.813 196.083C150.52 196.215 150.765 196.62 151.053 196.505C151.799 196.195 152.422 195.648 152.824 194.947L152.826 194.945Z" fill="#161616"/>
<path opacity="0.12" d="M127.616 167.28C126.332 169.676 125.335 172.215 124.645 174.845C123.8 178.075 123.281 180.072 123.704 182.686C124.481 187.555 127.909 190.639 129.109 191.729C130.442 192.934 131.946 193.936 133.573 194.7C133.037 197.539 132.485 200.364 131.95 203.206C135.246 204.598 138.63 205.77 142.081 206.714C145.993 207.77 145.035 207.194 150.721 208.598C153.561 209.275 156.45 209.725 159.361 209.945C160.741 210.043 161.729 210.074 162.737 209.539C165.106 208.289 165.617 205.106 165.709 204.54C166.796 197.77 158.269 191.1 156.795 189.946C151.179 185.561 148.256 186.082 142.606 182.916C138.363 180.562 132.68 176.16 127.616 167.28Z" fill="#3D3D3D"/>
<path opacity="0.11" d="M169.2 186.72C173.551 191.119 176.018 194.189 175.953 198.067C175.862 204.019 169.92 208.128 170.16 208.337C170.582 208.711 180.436 202.704 180.16 195.514C179.92 189.343 174.316 185.009 164.217 177.689C156.057 171.763 148.91 168.516 148.682 168.905C148.394 169.375 158.085 175.481 169.2 186.72Z" fill="#3D3D3D"/>
<path opacity="0.12" d="M124.481 183.516C125.489 187.087 127.647 189.343 128.539 190.27C130.19 191.956 132.168 193.287 134.352 194.182C133.671 196.877 133.006 199.589 132.322 202.282C136.723 203.808 141.137 205.351 145.553 206.878C146.407 203.416 148.021 200.189 150.279 197.429C150.78 196.843 151.267 196.291 151.771 195.804C148.783 195.303 138.571 193.191 131.371 184.044C128.692 180.608 126.761 176.649 125.705 172.421C125.067 173.71 123.022 178.224 124.481 183.516Z" fill="#3D3D3D"/>
<path d="M166.677 136.519C168.074 142.519 167.616 148.279 167.371 151.973C169.92 154.853 172.485 157.721 175.034 160.594C177.411 160.467 179.792 160.735 182.081 161.388C184.353 162.039 186.105 163.159 186.024 163.483C185.976 163.678 185.304 163.613 183.005 163.937C182.503 164.002 182.081 164.066 182.064 164.246C182.03 164.539 183.134 164.945 183.264 164.993C185.731 165.886 187.224 164.539 188.198 165.473C188.798 166.042 189.043 167.258 188.781 168.134C188.018 170.748 182.371 171.691 178.068 169.872C176.448 169.164 174.998 168.119 173.815 166.805C163.149 162.389 160.135 157.517 159.497 153.72C159.057 151.121 160.032 150.878 159.821 145.56C159.561 138.857 157.872 136.404 158.669 130.934C158.863 129.586 156.614 123.624 157.977 123.43C159.895 123.154 165.655 132.168 166.677 136.519Z" fill="white"/>
<path d="M182.891 171.185C181.19 171.189 179.504 170.858 177.931 170.21C176.288 169.495 174.815 168.44 173.611 167.114C164.906 163.498 160.041 159.014 159.148 153.787C158.978 152.788 158.995 151.766 159.199 150.773C159.481 149.055 159.571 147.312 159.467 145.574C159.366 143.334 159.104 141.103 158.683 138.9C158.234 136.334 157.847 134.117 158.318 130.882C158.383 130.442 158.102 129.247 157.838 128.093C157.276 125.707 156.945 124.092 157.413 123.406C157.472 123.316 157.55 123.239 157.641 123.181C157.732 123.124 157.834 123.087 157.941 123.072C159.362 122.868 161.704 126.098 162.981 128.042C164.963 131.074 166.557 134.366 167.044 136.442C168.398 142.248 168.023 147.847 167.764 151.562L167.745 151.862L171.477 156.058L175.199 160.226C177.558 160.12 179.918 160.395 182.188 161.042C183.71 161.477 186.599 162.706 186.383 163.57C186.292 163.93 185.978 163.963 185.133 164.05C184.653 164.098 184.003 164.162 183.064 164.29C182.975 164.302 182.824 164.318 182.695 164.342C182.92 164.459 183.152 164.561 183.391 164.647C184.591 165.082 185.515 164.957 186.333 164.846C187.151 164.736 187.864 164.64 188.459 165.216C189.136 165.857 189.443 167.215 189.139 168.24C188.899 169.099 188.179 169.829 187.077 170.35C185.759 170.929 184.331 171.214 182.891 171.185ZM158.088 123.782H158.03C158.018 123.782 158.011 123.782 157.996 123.809C157.67 124.289 158.186 126.475 158.527 127.925C158.839 129.257 159.11 130.409 159.026 130.982C158.572 134.102 158.949 136.262 159.386 138.775C159.815 141.01 160.081 143.273 160.183 145.546C160.286 147.329 160.194 149.119 159.907 150.883C159.756 151.843 159.667 152.491 159.854 153.665C160.703 158.64 165.448 162.96 173.954 166.478L174.028 166.51L174.081 166.567C175.227 167.845 176.635 168.862 178.209 169.548C180.933 170.698 184.528 170.765 186.76 169.704C187.665 169.274 188.246 168.698 188.44 168.041C188.68 167.275 188.44 166.2 187.96 165.742C187.627 165.42 187.204 165.458 186.427 165.564C185.572 165.679 184.507 165.823 183.151 165.324C181.795 164.825 181.679 164.491 181.711 164.198C181.754 163.718 182.342 163.654 182.963 163.574C183.911 163.44 184.6 163.37 185.056 163.322L185.421 163.286C184.369 162.582 183.209 162.056 181.987 161.729C179.736 161.087 177.395 160.823 175.058 160.946H174.885L174.77 160.817L170.93 156.497L167.09 152.177L166.991 152.064L167.03 151.464C167.27 147.802 167.642 142.265 166.31 136.565C165.244 132 159.659 123.782 158.088 123.782Z" fill="#161616"/>
<path opacity="0.12" d="M156.593 146.858C157.097 149.618 158.086 154.702 162.29 159.473C165.413 162.98 169.493 165.497 174.029 166.714C175.43 168.295 177.205 169.5 179.191 170.22C181.918 171.18 186.708 171.763 188.297 169.344C188.964 168.305 189.257 166.778 188.623 166.162C187.877 165.442 186.223 166.291 184.889 166.601C182.714 167.119 179.417 166.68 174.466 162.542C168.185 159.166 165.847 155.448 164.921 152.558C163.524 148.19 165.401 145.966 164.921 138.84C164.546 133.207 160.457 123.461 158.46 123.43C156.024 123.382 154.661 136.356 156.593 146.858Z" fill="#3D3D3D"/>
<path d="M155.28 120.72C157.116 121.702 158.544 123.168 159.741 124.306C160.776 125.274 161.562 126.478 162.033 127.814C163.85 133.07 164.052 137.314 163.881 140.311C163.574 145.733 161.918 148.411 161.301 155.261C160.971 159.092 161.069 162.947 161.592 166.757C157.532 170.153 152.601 172.343 147.36 173.078C136.06 174.619 127.766 168.547 126 167.218C126.012 159.268 125.458 151.328 124.344 143.458C123.175 135.298 121.958 131.426 124.051 126.492C125.952 121.994 130.334 117.108 136.113 115.891C141.77 114.72 147.163 116.376 155.28 120.72Z" fill="white"/>
<path d="M143.703 173.686C134.975 173.686 128.413 169.495 125.79 167.503L125.648 167.395V167.218C125.661 159.289 125.11 151.37 123.997 143.52C123.793 142.104 123.587 140.791 123.402 139.634C122.502 133.961 121.962 130.536 123.728 126.362C125.495 122.189 129.767 116.875 136.047 115.55C141.455 114.418 146.713 115.73 155.451 120.394C157.119 121.286 158.478 122.587 159.57 123.634L159.99 124.037C161.064 125.043 161.882 126.293 162.375 127.68C163.817 131.729 164.451 136.021 164.243 140.314C164.087 143.035 163.595 145.087 163.071 147.274C162.386 149.903 161.914 152.584 161.66 155.29C161.332 159.093 161.43 162.92 161.951 166.702L161.977 166.898L161.823 167.028C157.714 170.477 152.717 172.698 147.404 173.438C146.178 173.605 144.941 173.688 143.703 173.686ZM126.368 167.04C129.387 169.298 137.168 174.106 147.308 172.723C152.421 172.01 157.234 169.89 161.211 166.598C160.305 160.087 160.699 153.461 162.371 147.103C162.887 144.96 163.371 142.939 163.523 140.282C163.763 136.258 163.136 132.101 161.694 127.925C161.24 126.645 160.486 125.493 159.495 124.565C159.356 124.433 159.217 124.296 159.071 124.159C157.957 123.091 156.692 121.879 155.111 121.039C146.543 116.465 141.416 115.171 136.196 116.266C130.196 117.53 126.083 122.652 124.393 126.653C122.703 130.654 123.234 133.985 124.112 139.531C124.297 140.69 124.506 142.008 124.71 143.426C125.819 151.249 126.373 159.139 126.368 167.04Z" fill="#1D1D1B"/>
<path opacity="0.14" d="M140.124 120.331C138.307 118.447 136.284 117.329 135.96 116.177C134.715 116.375 133.503 116.747 132.36 117.281C126.987 119.813 124.86 125.302 124.227 126.941C121.548 133.841 124.063 138.37 125.46 150.941C126.06 156.434 126.288 161.961 126.142 167.484C129.993 170.45 134.548 172.364 139.361 173.041C144.175 173.717 149.081 173.131 153.6 171.341C150.646 168.646 141.12 159.245 139.251 144.034C138.13 134.878 141.516 126.533 143.009 122.539C141.937 121.96 140.963 121.215 140.124 120.331Z" fill="#3D3D3D"/>
<path opacity="0.21" d="M123.12 131.501C122.211 136.373 123.526 139.634 124.5 143.921C125.556 148.565 125.652 152.395 125.88 160.058C125.962 163.109 125.928 165.643 125.88 167.364C132.249 171.766 139.954 173.81 147.668 173.143C143.949 170.103 140.226 167.067 136.498 164.035C132.22 152.438 127.943 140.853 123.67 129.278C123.437 130.006 123.253 130.749 123.12 131.501Z" fill="#3D3D3D"/>
<path d="M165.768 179.916C165.661 179.432 165.372 179.008 164.96 178.733C164.548 178.458 164.046 178.353 163.558 178.44L161.012 166.704C161.342 166.622 161.644 166.454 161.888 166.217C162.132 165.98 162.309 165.682 162.4 165.354C162.491 165.026 162.493 164.68 162.407 164.351C162.32 164.022 162.148 163.722 161.907 163.482C161.666 163.241 161.366 163.069 161.037 162.983C160.708 162.896 160.362 162.899 160.034 162.991C159.706 163.082 159.409 163.259 159.172 163.503C158.935 163.748 158.767 164.05 158.686 164.381C158.475 164.114 158.196 163.908 157.88 163.784C157.563 163.66 157.219 163.623 156.883 163.676C156.547 163.729 156.231 163.87 155.967 164.085C155.703 164.3 155.502 164.581 155.383 164.9C155.263 165.218 155.231 165.563 155.289 165.898C155.346 166.233 155.492 166.547 155.711 166.808C155.93 167.068 156.214 167.266 156.534 167.38C156.855 167.495 157.2 167.522 157.534 167.46L160.08 179.193C159.75 179.275 159.447 179.443 159.203 179.679C158.959 179.916 158.782 180.214 158.69 180.542C158.599 180.869 158.596 181.215 158.683 181.544C158.769 181.874 158.941 182.174 159.181 182.414C159.422 182.655 159.722 182.828 160.051 182.914C160.38 183.001 160.726 182.999 161.054 182.907C161.382 182.816 161.68 182.64 161.917 182.396C162.154 182.152 162.322 181.849 162.404 181.519C162.677 181.848 163.051 182.076 163.469 182.168C163.886 182.26 164.322 182.21 164.708 182.025C165.093 181.841 165.407 181.534 165.598 181.152C165.789 180.77 165.847 180.335 165.764 179.916H165.768Z" fill="white"/>
<path d="M166.116 179.82C165.749 178.637 164.803 177.967 163.557 178.08L163.903 178.344L161.357 166.61L161.105 167.052C162.727 166.483 163.469 164.412 162.065 163.164C160.742 161.981 158.87 162.725 158.34 164.285L158.94 164.126C157.793 162.926 155.781 163.078 155.1 164.702C154.38 166.382 155.846 167.974 157.536 167.822L157.19 167.558L159.734 179.28L159.986 178.838C158.364 179.405 157.622 181.478 159.026 182.726C160.346 183.91 162.221 183.166 162.751 181.606L162.149 181.764C163.74 183.41 166.437 182.23 166.125 179.906C166.065 179.453 165.343 179.448 165.405 179.906C165.624 181.524 163.884 182.525 162.657 181.255C162.612 181.212 162.557 181.181 162.496 181.165C162.436 181.149 162.372 181.149 162.312 181.165C162.251 181.181 162.196 181.212 162.151 181.256C162.106 181.299 162.073 181.354 162.055 181.414C161.731 182.374 160.598 182.947 159.696 182.34C158.556 181.57 158.976 179.954 160.176 179.532C160.265 179.502 160.339 179.44 160.383 179.357C160.428 179.275 160.44 179.178 160.416 179.088L157.869 167.354C157.848 167.278 157.803 167.211 157.74 167.164C157.677 167.116 157.6 167.09 157.521 167.09C156.444 167.186 155.361 166.334 155.681 165.17C156.024 163.896 157.586 163.771 158.419 164.633C158.464 164.676 158.52 164.707 158.58 164.723C158.641 164.739 158.704 164.738 158.765 164.723C158.825 164.707 158.881 164.675 158.925 164.632C158.971 164.589 159.003 164.534 159.021 164.474C159.345 163.514 160.478 162.941 161.381 163.548C162.523 164.318 162.101 165.931 160.901 166.356C160.81 166.383 160.734 166.444 160.687 166.526C160.64 166.609 160.626 166.706 160.649 166.798L163.2 178.536C163.221 178.612 163.267 178.679 163.33 178.726C163.392 178.774 163.469 178.8 163.548 178.8C164.462 178.716 165.134 179.124 165.41 180C165.559 180.451 166.253 180.264 166.116 179.82Z" fill="#1D1D1B"/>
<path opacity="0.25" d="M156.552 165.377C156.9 165.303 157.261 165.327 157.596 165.447C157.93 165.566 158.225 165.776 158.448 166.054C158.548 165.652 158.777 165.294 159.099 165.034C159.421 164.773 159.819 164.625 160.233 164.611C160.647 164.598 161.054 164.719 161.392 164.957C161.731 165.195 161.983 165.537 162.11 165.931C162.26 165.718 162.364 165.476 162.416 165.22C162.468 164.964 162.466 164.7 162.41 164.446C162.314 164.028 162.08 163.656 161.747 163.386C161.415 163.117 161.001 162.966 160.573 162.959C160.145 162.952 159.727 163.087 159.385 163.345C159.043 163.603 158.797 163.967 158.686 164.381C158.413 164.052 158.038 163.824 157.62 163.732C157.203 163.64 156.767 163.69 156.381 163.874C155.996 164.058 155.682 164.366 155.491 164.748C155.3 165.13 155.242 165.565 155.326 165.984C155.34 166.049 155.366 166.106 155.386 166.166C155.66 165.765 156.077 165.483 156.552 165.377Z" fill="#EFD7AC"/>
<path opacity="0.28" d="M165.768 179.916C165.734 179.763 165.68 179.616 165.607 179.477C165.49 179.795 165.291 180.075 165.03 180.29C164.769 180.505 164.455 180.647 164.121 180.701C163.787 180.755 163.444 180.719 163.129 180.596C162.814 180.474 162.537 180.27 162.326 180.005C162.231 180.385 162.022 180.726 161.726 180.983C161.43 181.239 161.063 181.399 160.673 181.439C160.284 181.48 159.891 181.4 159.549 181.21C159.207 181.02 158.931 180.729 158.76 180.377C158.654 180.624 158.601 180.89 158.605 181.158C158.608 181.427 158.668 181.692 158.78 181.935C158.892 182.179 159.055 182.397 159.256 182.574C159.458 182.752 159.694 182.885 159.95 182.965C160.207 183.045 160.477 183.071 160.744 183.04C161.01 183.01 161.268 182.924 161.499 182.787C161.73 182.651 161.93 182.468 162.087 182.25C162.243 182.031 162.351 181.782 162.405 181.519C162.678 181.848 163.053 182.076 163.47 182.168C163.888 182.26 164.324 182.21 164.71 182.026C165.095 181.842 165.408 181.534 165.6 181.152C165.791 180.77 165.849 180.335 165.765 179.916H165.768Z" fill="#EFD7AC"/>
<path d="M131.333 134.457C132.304 141.672 132.776 148.946 132.744 156.225C136.744 159.894 140.738 163.569 144.725 167.249C148.044 167.092 151.368 167.409 154.596 168.192C157.762 168.969 160.212 170.268 160.116 170.659C160.052 170.885 159.094 170.82 155.895 171.194C155.175 171.276 154.613 171.341 154.58 171.552C154.532 171.893 156.072 172.38 156.26 172.428C159.732 173.484 161.794 171.91 163.174 173.014C164.002 173.678 164.343 175.106 163.988 176.146C162.898 179.246 154.992 180.041 148.971 178.19C146.795 177.513 144.749 176.476 142.916 175.123C138.677 173.954 127.865 170.323 123.564 160.886C122.232 157.963 121.884 155.172 121.193 149.606C120.545 144.377 119.864 138.744 121.779 132.326C122.914 128.527 125.578 122.162 127.779 122.455C128.492 122.541 129.807 123.449 131.333 134.457Z" fill="white"/>
<path d="M155.728 179.52C153.402 179.525 151.088 179.192 148.857 178.531C146.664 177.847 144.6 176.805 142.747 175.447C137.179 173.902 127.305 169.985 123.227 161.03C121.886 158.086 121.547 155.316 120.847 149.798L120.827 149.642C120.194 144.538 119.476 138.749 121.425 132.206C121.456 132.101 124.617 121.646 127.809 122.081C128.959 122.234 130.223 123.833 131.687 134.402C132.649 141.582 133.122 148.819 133.103 156.062L138.933 161.426C140.906 163.244 142.88 165.061 144.856 166.877C148.159 166.74 151.464 167.063 154.677 167.837C157.317 168.482 159.974 169.658 160.391 170.35C160.429 170.407 160.455 170.471 160.467 170.538C160.479 170.605 160.477 170.674 160.461 170.741C160.351 171.127 160.048 171.154 158.767 171.264C158.109 171.322 157.204 171.398 155.935 171.547C155.695 171.574 155.421 171.605 155.215 171.643C155.583 171.817 155.964 171.961 156.355 172.075C158.09 172.603 159.475 172.45 160.579 172.315C161.683 172.181 162.619 172.087 163.401 172.714C164.327 173.458 164.743 175.042 164.327 176.246C163.55 178.454 159.851 179.52 155.728 179.52ZM127.61 122.794C125.992 122.794 123.518 127.723 122.114 132.418C120.208 138.816 120.914 144.523 121.543 149.558L121.562 149.712C122.246 155.158 122.587 157.891 123.883 160.738C127.855 169.459 137.563 173.275 143.003 174.775L143.066 174.794L143.119 174.833C144.921 176.159 146.932 177.175 149.068 177.84C155.181 179.719 162.669 178.781 163.639 176.018C163.955 175.097 163.639 173.844 162.94 173.285C162.393 172.846 161.661 172.927 160.648 173.045C159.475 173.174 158.008 173.338 156.146 172.771C155.397 172.567 154.132 172.126 154.226 171.499C154.3 171.019 154.886 170.945 155.855 170.834C157.137 170.686 158.047 170.594 158.711 170.549C159.016 170.522 159.287 170.498 159.494 170.477C158.81 170.011 157.005 169.152 154.511 168.538C151.315 167.768 148.027 167.455 144.743 167.606H144.595L144.479 167.52C142.468 165.672 140.457 163.821 138.446 161.966L132.499 156.497L132.381 156.389V156.23C132.409 148.967 131.938 141.71 130.972 134.51C129.657 125.021 128.471 122.906 127.711 122.806C127.677 122.799 127.644 122.795 127.61 122.794Z" fill="#161616"/>
<path d="M164.223 176.016C164.434 175.788 164.093 175.447 163.882 175.658C163.248 176.378 161.82 176.568 160.928 176.796C159.891 177.065 158.84 177.271 157.779 177.413C157.469 177.461 157.599 177.931 157.908 177.893C159.17 177.725 160.418 177.467 161.643 177.12C162.471 176.88 163.606 176.681 164.223 176.016Z" fill="#161616"/>
<path d="M163.947 174.538C164.223 174.377 163.964 173.954 163.707 174.118C161.768 175.331 159.546 176.018 157.261 176.112C156.953 176.129 156.953 176.616 157.261 176.592C159.629 176.486 161.932 175.776 163.949 174.53L163.947 174.538Z" fill="#161616"/>
<path d="M163.087 173.402C163.363 173.256 163.119 172.834 162.847 172.98C160.667 174.093 158.252 174.669 155.803 174.66C155.74 174.66 155.679 174.685 155.634 174.73C155.589 174.775 155.563 174.836 155.563 174.9C155.563 174.964 155.589 175.025 155.634 175.07C155.679 175.115 155.74 175.14 155.803 175.14C158.337 175.14 160.835 174.539 163.092 173.388L163.087 173.402Z" fill="#161616"/>
<path opacity="0.15" d="M127.322 122.542C126.602 122.59 126.122 123.262 125.911 123.595C121.332 130.366 120.72 138.629 120.72 138.629C120.298 144.343 120.96 148.776 121.418 151.73C121.742 153.823 122.342 157.67 123.35 160.349C126.792 169.522 138.252 173.58 142.862 174.943C145.658 176.845 148.841 178.104 152.182 178.629C155.882 179.198 162.766 179.246 163.87 176.34C164.21 175.447 163.92 174.473 163.61 173.791C161.715 174.516 159.732 174.989 157.714 175.2C151.56 175.848 146.82 173.868 143.995 172.651C141.17 171.434 133.606 168.17 128.604 159.907C123.523 151.507 124.222 143.057 124.644 138.103C125.095 132.929 126.435 127.872 128.604 123.154C128.362 122.914 127.874 122.508 127.322 122.542Z" fill="#3D3D3D"/>
<path opacity="0.09" d="M121.398 152.086C121.95 155.724 122.389 158.532 124.038 161.664C126.409 166.195 129.834 168.646 131.862 170.107C135.103 172.423 138.775 174.067 142.662 174.943C130.258 167.232 125.583 159.456 123.668 153.583C122.564 150.19 121.525 144.799 121.028 144.881C120.634 144.943 120.894 148.889 121.398 152.086Z" fill="#3D3D3D"/>
<path d="M147.697 89.0183C145.035 90.8183 143.07 94.3919 142.388 97.5407C141.788 100.301 142.583 100.802 141.771 104.57C141.228 107.139 140.268 109.601 138.929 111.859C138.056 113.329 137.021 114.698 135.846 115.939C139.83 121.068 141.731 122.398 145.568 123.986C146.437 124.349 151.04 123.84 152.425 122.546C152.117 121.766 152.137 121.766 151.926 120.581C151.686 119.299 152.062 116.539 152.093 115.63C152.614 115.798 154.619 117.091 157.535 116.666C159.591 116.366 161.773 114.406 163.253 111.866C166.133 106.961 166.095 103.38 166.061 101.815C165.998 98.7496 165.931 95.6848 165.863 92.6207C159.711 87.3599 152.178 86.0471 147.697 89.0183Z" fill="white"/>
<path d="M146.562 124.454C146.183 124.473 145.804 124.428 145.441 124.32C141.534 122.7 139.561 121.294 135.574 116.16L135.385 115.92L135.596 115.697C136.753 114.475 137.772 113.129 138.634 111.684C139.947 109.457 140.892 107.032 141.433 104.503C141.742 103.188 141.868 101.836 141.807 100.486C141.748 99.4754 141.829 98.4617 142.047 97.4736C142.825 93.8736 144.968 90.4464 147.505 88.728C152.264 85.572 159.913 87.0648 166.105 92.3568L166.227 92.4624L166.429 101.822C166.46 103.234 166.542 106.987 163.573 112.061C161.958 114.823 159.666 116.726 157.594 117.029C155.821 117.272 154.016 116.969 152.42 116.16C152.406 116.333 152.389 116.527 152.37 116.731C152.266 117.883 152.11 119.623 152.278 120.509L152.338 120.84C152.402 121.378 152.544 121.903 152.761 122.4L152.85 122.64L152.672 122.806C151.537 123.862 148.381 124.454 146.562 124.454ZM136.321 115.954C140.108 120.799 141.932 122.086 145.707 123.65C146.398 123.936 150.507 123.518 151.998 122.429C151.815 121.957 151.692 121.464 151.63 120.962L151.573 120.636C151.388 119.657 151.542 117.926 151.654 116.666C151.695 116.225 151.729 115.846 151.736 115.608L151.755 115.128L152.209 115.274C152.317 115.31 152.449 115.373 152.634 115.457C154.127 116.228 155.821 116.521 157.486 116.297C159.346 116.026 161.439 114.257 162.946 111.679C165.812 106.778 165.735 103.176 165.704 101.818L165.51 92.7864C159.675 87.8664 152.29 86.4024 147.901 89.3112C145.179 91.152 143.341 94.8072 142.743 97.6128C142.533 98.5437 142.452 99.4992 142.503 100.452C142.57 101.859 142.442 103.268 142.124 104.64C141.569 107.245 140.596 109.744 139.244 112.039C138.409 113.443 137.429 114.755 136.321 115.954Z" fill="#161616"/>
<path d="M160.539 100.632C160.486 100.328 160.011 100.433 160.059 100.757C160.423 103.305 160.954 105.825 161.65 108.303C161.777 108.209 161.89 108.132 162.022 108.039C161.091 107.513 160.145 106.99 159.197 106.469C158.931 106.313 158.672 106.709 158.938 106.875C159.869 107.4 160.817 107.924 161.765 108.444C161.936 108.54 162.202 108.396 162.137 108.178C161.441 105.701 160.91 103.18 160.548 100.632H160.539Z" fill="#161616"/>
<path d="M164.212 101.606C164.096 101.95 164.651 102.103 164.804 101.738C165.016 101.107 165.073 100.075 164.173 99.9601C163.484 99.8833 163.254 100.63 163.254 101.16C163.254 101.69 163.427 102.403 164.039 102.442C164.9 102.499 164.977 101.506 164.881 100.894C164.823 100.529 164.269 100.682 164.327 101.045C164.365 101.241 164.365 101.442 164.327 101.638C164.269 101.83 164.087 101.964 163.943 101.791C163.835 101.607 163.788 101.392 163.811 101.179C163.811 101.006 163.811 100.548 164.077 100.548C164.538 100.548 164.288 101.39 164.212 101.602V101.606Z" fill="#161616"/>
<path d="M163.809 101.434C163.569 101.7 163.98 102.103 164.229 101.854C164.397 101.659 164.489 101.412 164.489 101.155C164.489 100.899 164.397 100.651 164.229 100.457C164.197 100.427 164.159 100.404 164.117 100.39C164.075 100.377 164.03 100.372 163.987 100.378C163.943 100.384 163.901 100.399 163.864 100.422C163.826 100.446 163.795 100.477 163.771 100.515C163.628 100.727 163.558 100.98 163.572 101.236C163.586 101.491 163.683 101.735 163.848 101.931C163.88 101.961 163.919 101.983 163.96 101.997C164.002 102.011 164.047 102.015 164.091 102.01C164.134 102.004 164.176 101.989 164.214 101.965C164.251 101.942 164.283 101.91 164.306 101.873C164.546 101.53 164.765 101.088 164.546 100.687C164.459 100.537 164.317 100.425 164.149 100.375C163.982 100.325 163.802 100.341 163.646 100.419C163.301 100.63 163.301 101.28 163.435 101.607C163.466 101.695 163.517 101.775 163.582 101.842C163.648 101.908 163.727 101.96 163.815 101.992C163.902 102.025 163.996 102.038 164.089 102.031C164.182 102.023 164.273 101.996 164.354 101.95C164.659 101.739 164.373 101.23 164.066 101.453C163.97 101.511 163.932 101.261 163.932 101.213C163.932 101.117 163.951 101.021 163.951 100.947C163.951 100.872 163.97 100.908 163.932 100.908C164.258 100.927 163.857 101.482 163.8 101.578L164.258 101.52C164.184 101.414 164.145 101.287 164.148 101.157C164.152 101.027 164.197 100.902 164.277 100.8L163.819 100.858C163.884 100.943 163.918 101.047 163.918 101.154C163.918 101.261 163.884 101.365 163.819 101.451L163.809 101.434Z" fill="#161616"/>
<path d="M155.59 101.477C155.298 101.746 155.734 102.183 156.025 101.911C156.546 101.431 156.692 100.563 156.025 100.145C155.422 99.7706 154.779 100.188 154.654 100.831C154.551 101.371 154.57 102.329 155.216 102.535C155.862 102.742 156.296 102.036 156.462 101.496C156.472 101.457 156.475 101.415 156.47 101.375C156.465 101.334 156.452 101.295 156.432 101.259C156.412 101.223 156.384 101.192 156.352 101.167C156.32 101.142 156.283 101.123 156.243 101.112C156.204 101.101 156.162 101.098 156.121 101.103C156.081 101.108 156.042 101.122 156.006 101.142C155.97 101.162 155.939 101.189 155.914 101.222C155.888 101.254 155.87 101.291 155.859 101.331C155.797 101.477 155.672 101.955 155.444 101.955C155.216 101.955 155.235 101.371 155.235 101.235C155.235 100.995 155.298 100.486 155.672 100.673C156.046 100.86 155.797 101.297 155.59 101.484V101.477Z" fill="#161616"/>
<path d="M155.144 101.71C155.132 101.75 155.129 101.791 155.134 101.832C155.138 101.873 155.151 101.913 155.171 101.949C155.191 101.985 155.218 102.017 155.251 102.042C155.283 102.068 155.32 102.087 155.36 102.098C155.399 102.11 155.441 102.113 155.482 102.109C155.523 102.104 155.563 102.091 155.599 102.071C155.635 102.051 155.667 102.024 155.692 101.992C155.718 101.959 155.737 101.922 155.749 101.882C155.86 101.496 155.875 101.088 155.792 100.694C155.78 100.645 155.757 100.599 155.724 100.561C155.691 100.522 155.649 100.492 155.602 100.473C155.555 100.454 155.504 100.446 155.454 100.451C155.403 100.456 155.354 100.473 155.312 100.5C155.185 100.588 155.081 100.706 155.009 100.844C154.937 100.981 154.899 101.134 154.899 101.288C154.899 101.444 154.937 101.596 155.009 101.733C155.081 101.871 155.185 101.989 155.312 102.077C155.506 102.206 155.701 102.077 155.792 101.882C155.921 101.602 156.032 101.299 156.159 101.018C156.245 100.867 156.094 100.673 155.943 100.63C155.863 100.608 155.777 100.619 155.705 100.659C155.632 100.699 155.578 100.766 155.554 100.846C155.425 101.126 155.314 101.429 155.187 101.71C155.338 101.645 155.511 101.58 155.667 101.515C155.632 101.489 155.603 101.455 155.583 101.415C155.563 101.376 155.553 101.333 155.553 101.288C155.553 101.245 155.563 101.201 155.583 101.162C155.603 101.122 155.632 101.088 155.667 101.062C155.516 100.997 155.343 100.932 155.187 100.867C155.248 101.147 155.233 101.438 155.144 101.71Z" fill="#161616"/>
<path d="M165.019 98.4002C165.163 98.6762 165.585 98.4338 165.439 98.1602C165.285 97.8653 165.056 97.6157 164.776 97.4357C164.497 97.2557 164.175 97.1513 163.843 97.1333C163.51 97.115 163.179 97.1837 162.881 97.332C162.583 97.4805 162.329 97.704 162.144 97.9802C161.966 98.2418 162.384 98.4842 162.566 98.2202C162.71 98.0191 162.902 97.8583 163.126 97.7532C163.349 97.6481 163.596 97.6025 163.842 97.6202C164.089 97.638 164.326 97.7189 164.532 97.8552C164.738 97.9913 164.906 98.1782 165.019 98.3978V98.4002Z" fill="#161616"/>
<path d="M156.494 98.3519C156.658 98.6111 157.08 98.3687 156.917 98.1119C156.722 97.7687 156.432 97.4884 156.083 97.3048C155.734 97.1209 155.339 97.0415 154.945 97.0756C154.552 97.1099 154.177 97.2561 153.864 97.4973C153.552 97.7385 153.315 98.0641 153.182 98.4359C153.07 98.7287 153.54 98.8583 153.662 98.5655C153.767 98.2849 153.95 98.0401 154.19 97.8604C154.429 97.6804 154.715 97.5731 155.014 97.5508C155.313 97.5287 155.612 97.5925 155.875 97.7349C156.139 97.8772 156.356 98.0922 156.502 98.3543L156.494 98.3519Z" fill="#161616"/>
<path d="M171.749 93.8135C172.743 93.7607 172.743 92.2199 171.749 92.2703C162.838 92.7671 150.572 93.7103 141.694 94.6511C140.717 94.7543 140.7 96.2975 141.694 96.1943C150.574 95.2679 162.838 94.3271 171.749 93.8135Z" fill="#161616"/>
<path d="M141.204 95.3977C140.919 90.3985 143.338 85.6849 147.495 83.2129C152.799 80.0761 159.519 81.4393 163.371 85.3729C166.22 88.2745 166.81 91.8217 166.954 93.2017C158.372 93.9265 149.789 94.6801 141.204 95.3977Z" fill="#606060"/>
<path opacity="0.11" d="M142.081 104.618C141.374 106.959 140.421 109.219 139.239 111.36C138.308 113.033 137.238 114.624 136.04 116.117C136.592 117.415 138.15 118.663 139.839 120.53C141.202 122.04 143.226 122.77 144.296 123.434C142.664 122.438 141.788 121.702 141.447 119.947C140.166 113.227 144.224 107.741 145.213 106.474C144.801 106.52 144.384 106.446 144.013 106.262C143.038 105.782 142.827 104.688 142.813 104.558C142.561 104.57 142.34 104.602 142.081 104.618Z" fill="#3D3D3D"/>
<path opacity="0.12" d="M162.001 108.108C162.579 107.715 163.172 107.316 163.767 106.908C162.711 104.849 161.636 102.775 160.58 100.714C161.041 103.183 161.521 105.636 162.001 108.108Z" fill="#3D3D3D"/>
<path opacity="0.69" d="M142.917 88.0633C141.083 91.1017 141.103 94.2673 141.237 95.8969C145.202 95.5465 149.157 95.1769 153.127 94.8241C156.487 89.2489 157.535 83.9881 155.627 82.2481C153.271 80.1193 146.049 82.8961 142.917 88.0633Z" fill="#444444"/>
<path d="M152.784 94.8528C152.784 94.8528 148.867 97.692 148.623 101.551H147.029C147.029 101.551 147.723 99.0384 146.007 99.12C144.291 99.2016 142.407 101.28 142.779 104.35C143.151 107.419 145.212 106.469 145.212 106.469L142.534 108.389L140.134 107.734C140.605 106.19 140.921 104.603 141.075 102.996C141.238 100.706 141.579 96.7968 142.059 96.036L152.784 94.8528Z" fill="#050505"/>
<path d="M161.354 110.256C160.025 111.811 157.716 111.492 156.242 110.256C155.889 109.959 155.378 110.465 155.733 110.765C157.497 112.243 160.262 112.639 161.863 110.765C162.163 110.415 161.657 109.901 161.354 110.256Z" fill="#161616"/>
<path opacity="0.28" d="M149.04 111.698C149.04 111.698 150.708 114.607 152.57 115.85L151.85 119.796L149.04 111.698Z" fill="#161616"/>
</svg>
