<svg width="360" height="240" viewBox="0 0 360 240" fill="none" xmlns="http://www.w3.org/2000/svg">
<path d="M137.486 219.6H274.32C274.404 219.593 274.483 219.554 274.543 219.491C274.601 219.428 274.632 219.346 274.632 219.26C274.632 219.175 274.601 219.093 274.543 219.03C274.483 218.967 274.404 218.928 274.32 218.921H137.486C137.401 218.928 137.321 218.967 137.264 219.03C137.206 219.093 137.174 219.175 137.174 219.26C137.174 219.346 137.206 219.428 137.264 219.491C137.321 219.554 137.401 219.593 137.486 219.6Z" fill="#E8E8E8"/>
<path d="M275.704 202.634C276.859 209.604 278.021 216.574 279.189 223.543C279.259 223.975 279.91 223.783 279.847 223.363C278.693 216.394 277.531 209.424 276.362 202.454C276.292 202.025 275.642 202.214 275.704 202.634Z" fill="#E8E8E8"/>
<path d="M276.113 202.8C285.242 202.235 294.405 202.476 303.494 203.52C303.924 203.566 303.924 202.887 303.494 202.841C294.405 201.799 285.242 201.558 276.113 202.121C275.683 202.145 275.659 202.824 276.113 202.8Z" fill="#E8E8E8"/>
<path d="M279.463 224.064C286.198 226.167 293.364 226.487 300.259 224.993C300.689 224.901 300.499 224.246 300.077 224.338C293.292 225.808 286.243 225.488 279.622 223.409C279.214 223.272 279.031 223.93 279.463 224.064Z" fill="#E8E8E8"/>
<path d="M303.29 203.335C302.733 210.414 301.72 217.451 300.259 224.4C300.167 224.83 300.823 225.01 300.914 224.58C302.395 217.571 303.415 210.473 303.969 203.33C303.991 202.879 303.314 202.879 303.29 203.33V203.335Z" fill="#E8E8E8"/>
<path d="M277.313 212.025C280.509 216.888 284.236 221.381 288.422 225.422C288.739 225.717 289.214 225.242 288.902 224.942C284.745 220.947 281.047 216.498 277.879 211.68C277.651 211.317 277.063 211.656 277.313 212.018V212.025Z" fill="#E8E8E8"/>
<path d="M280.14 202.726C285.612 210.681 291.991 217.972 299.15 224.45C299.467 224.743 299.963 224.268 299.63 223.97C292.526 217.518 286.185 210.27 280.735 202.37C280.495 202.01 279.898 202.349 280.145 202.711L280.14 202.726Z" fill="#E8E8E8"/>
<path d="M290.505 203.018C293.736 207.154 297.204 211.099 300.893 214.831C300.955 214.895 301.041 214.93 301.133 214.93C301.221 214.93 301.308 214.895 301.373 214.831C301.435 214.767 301.471 214.681 301.471 214.591C301.471 214.501 301.435 214.415 301.373 214.351C297.689 210.614 294.221 206.67 290.985 202.538C290.714 202.2 290.239 202.675 290.505 203.018Z" fill="#E8E8E8"/>
<path d="M283.535 201.888C282.067 200.226 280.874 198.339 280.005 196.298C279.595 195.33 279.261 194.331 279.009 193.31C278.896 192.813 278.784 192.338 278.714 191.841C278.671 191.601 278.512 191.138 278.601 190.934C278.556 190.641 278.76 190.55 279.213 190.641C279.693 190.346 280.027 190.437 280.209 190.958C280.413 191.229 280.977 191.092 280.819 190.687C280.168 189.022 279.64 187.313 279.235 185.572C279.055 184.756 278.896 183.964 278.755 183.151C278.666 182.63 278.62 182.133 278.551 181.612C278.529 181.341 278.508 181.068 278.484 180.796C278.392 180.367 278.596 180.05 279.096 179.824C279.144 179.871 279.206 179.902 279.271 179.915C279.338 179.927 279.405 179.92 279.468 179.895C279.53 179.87 279.583 179.827 279.621 179.772C279.66 179.717 279.681 179.652 279.684 179.584C279.367 176.416 279.072 173.248 279.343 170.08C279.463 168.424 279.789 166.79 280.317 165.216C280.468 164.745 280.648 164.284 280.86 163.836C280.927 163.658 281.018 163.49 281.131 163.336H282.535C283.214 163.608 283.735 165.17 283.936 165.736C285.045 168.856 285.499 172.185 285.995 175.444C286.54 179.019 287.083 182.594 287.625 186.17C287.671 186.532 288.17 186.441 288.283 186.17C288.487 185.944 288.688 185.69 288.892 185.469C288.736 185.42 288.575 185.383 288.412 185.356C289.749 187.8 290.02 190.584 290.2 193.32C290.383 196.24 290.44 199.183 290.44 202.101C290.44 202.191 290.476 202.277 290.539 202.341C290.603 202.404 290.69 202.44 290.779 202.44C290.867 202.44 290.954 202.404 291.019 202.341C291.081 202.277 291.117 202.191 291.117 202.101C291.141 198.888 291.074 195.698 290.824 192.484C290.642 189.904 290.282 187.3 289.012 184.994C288.991 184.954 288.959 184.918 288.921 184.89C288.885 184.862 288.842 184.842 288.796 184.832C288.753 184.821 288.705 184.82 288.659 184.829C288.614 184.837 288.571 184.855 288.532 184.881C288.098 185.125 287.769 185.519 287.606 185.99H288.261C287.606 181.67 286.994 177.321 286.293 172.999C285.998 170.944 285.568 168.911 285.004 166.912C284.572 165.441 284.097 163.744 282.875 162.748C280.207 160.576 279.187 166.528 278.94 168.067C278.306 171.89 278.666 175.783 279.028 179.608C279.232 179.517 279.415 179.45 279.619 179.368C279.523 179.262 279.408 179.178 279.276 179.122C279.144 179.066 279.002 179.039 278.86 179.043C278.719 179.047 278.577 179.083 278.45 179.147C278.323 179.211 278.212 179.302 278.124 179.414C277.49 180.16 277.898 181.632 278.011 182.469C278.39 185.366 279.115 188.207 280.171 190.932L280.783 190.66C280.24 189.914 279.129 188.851 278.248 189.823C277.502 190.66 278.09 192.424 278.294 193.353C279.096 196.728 280.73 199.847 283.046 202.428C283.339 202.72 283.814 202.224 283.526 201.907L283.535 201.888Z" fill="#E8E8E8"/>
<path d="M287.563 180.72C287.496 179.496 287.609 172.56 289.939 173.16C289.99 173.173 290.04 173.175 290.091 173.165C290.141 173.155 290.189 173.135 290.23 173.104C290.271 173.074 290.304 173.035 290.328 172.989C290.352 172.944 290.367 172.894 290.369 172.843C290.868 168.862 292.498 165.377 294.103 161.779C294.466 160.987 294.823 160.171 295.191 159.379C295.671 158.338 296.367 156.461 297.747 157.908C299.014 159.199 299.172 161.326 299.187 163.023C299.23 166.778 299.05 170.558 298.947 174.338C298.858 178.366 298.767 182.417 298.675 186.444C298.675 186.806 299.287 186.924 299.333 186.535C299.535 186.581 299.739 186.648 299.943 186.694C299.981 186.895 299.995 187.099 299.988 187.303C299.988 187.577 299.967 187.848 299.967 188.119C299.943 188.798 299.921 189.454 299.875 190.133C299.808 191.558 299.763 192.984 299.693 194.388C299.58 197.126 299.491 199.886 298.925 202.579C298.834 203.009 299.491 203.189 299.58 202.759C300.418 198.778 300.372 194.635 300.54 190.586C300.586 189.545 300.653 188.482 300.677 187.44C300.677 186.919 300.677 186.353 300.315 185.969C299.818 185.402 298.822 185.585 298.685 186.353C298.911 186.377 299.139 186.422 299.343 186.444C299.501 179.004 299.727 171.564 299.839 164.11C299.885 161.868 299.861 157.954 297.396 156.845C296.489 156.437 295.697 156.869 295.2 157.683C294.317 159.123 293.729 160.896 293.04 162.456C291.502 165.852 290.122 169.133 289.647 172.867C289.783 172.754 289.927 172.648 290.076 172.55C288.696 172.188 287.947 173.568 287.587 174.677C286.956 176.633 286.702 178.691 286.839 180.742C286.908 181.171 287.587 181.171 287.559 180.72H287.563Z" fill="#E8E8E8"/>
<path d="M302.249 218.928H315.057C315.141 218.921 315.223 218.882 315.281 218.819C315.338 218.756 315.369 218.674 315.369 218.588C315.369 218.503 315.338 218.421 315.281 218.358C315.223 218.295 315.141 218.256 315.057 218.249H302.249C302.165 218.256 302.083 218.295 302.025 218.358C301.968 218.421 301.937 218.503 301.937 218.588C301.937 218.674 301.968 218.756 302.025 218.819C302.083 218.882 302.165 218.921 302.249 218.928Z" fill="#E8E8E8"/>
<path d="M72.3115 129.905V224.4C72.3187 224.485 72.3576 224.564 72.4205 224.622C72.4834 224.68 72.5657 224.712 72.6511 224.712C72.7366 224.712 72.8189 224.68 72.8818 224.622C72.9446 224.564 72.9835 224.485 72.9907 224.4V129.905C72.9835 129.82 72.9446 129.74 72.8818 129.682C72.8189 129.625 72.7366 129.593 72.6511 129.593C72.5657 129.593 72.4834 129.625 72.4205 129.682C72.3576 129.74 72.3187 129.82 72.3115 129.905Z" fill="#E8E8E8"/>
<path d="M72.8567 224.563H115.874C115.959 224.556 116.039 224.517 116.097 224.454C116.154 224.391 116.187 224.309 116.187 224.224C116.187 224.138 116.154 224.056 116.097 223.993C116.039 223.93 115.959 223.891 115.874 223.884H72.8567C72.8096 223.88 72.7623 223.886 72.7177 223.901C72.6731 223.916 72.632 223.941 72.5975 223.973C72.5627 224.005 72.5351 224.043 72.5161 224.087C72.4971 224.13 72.4873 224.176 72.4873 224.224C72.4873 224.271 72.4971 224.317 72.5161 224.361C72.5351 224.404 72.5627 224.442 72.5975 224.474C72.632 224.506 72.6731 224.531 72.7177 224.546C72.7623 224.561 72.8096 224.567 72.8567 224.563Z" fill="#E8E8E8"/>
<path d="M116.011 224.222V128.366C116.004 128.281 115.965 128.202 115.902 128.144C115.839 128.086 115.757 128.054 115.672 128.054C115.586 128.054 115.504 128.086 115.441 128.144C115.378 128.202 115.339 128.281 115.332 128.366V131.376C115.339 131.461 115.378 131.54 115.441 131.598C115.504 131.656 115.586 131.688 115.672 131.688C115.757 131.688 115.839 131.656 115.902 131.598C115.965 131.54 116.004 131.461 116.011 131.376V128.366H115.332V224.222C115.339 224.307 115.378 224.387 115.441 224.445C115.504 224.503 115.586 224.534 115.672 224.534C115.757 224.534 115.839 224.503 115.902 224.445C115.965 224.387 116.004 224.307 116.011 224.222Z" fill="#E8E8E8"/>
<path d="M115.68 127.709H73.6921C73.6069 127.716 73.5277 127.755 73.4699 127.818C73.412 127.881 73.3799 127.963 73.3799 128.048C73.3799 128.134 73.412 128.216 73.4699 128.279C73.5277 128.342 73.6069 128.381 73.6921 128.388H115.68C115.765 128.381 115.845 128.342 115.902 128.279C115.96 128.216 115.992 128.134 115.992 128.048C115.992 127.963 115.96 127.881 115.902 127.818C115.845 127.755 115.765 127.716 115.68 127.709Z" fill="#E8E8E8"/>
<path d="M77.5392 146.107V134.95C77.5392 134.86 77.5034 134.774 77.44 134.71C77.3764 134.647 77.2905 134.611 77.2007 134.611C77.111 134.611 77.0248 134.647 76.9614 134.71C76.8978 134.774 76.8623 134.86 76.8623 134.95V146.107C76.8623 146.197 76.8978 146.283 76.9614 146.347C77.0248 146.41 77.111 146.446 77.2007 146.446C77.2905 146.446 77.3764 146.41 77.44 146.347C77.5034 146.283 77.5392 146.197 77.5392 146.107Z" fill="#E8E8E8"/>
<path d="M77.2009 135.132H109.68C109.765 135.125 109.845 135.086 109.902 135.023C109.96 134.96 109.992 134.878 109.992 134.793C109.992 134.707 109.96 134.625 109.902 134.562C109.845 134.499 109.765 134.46 109.68 134.453H77.2009C77.1157 134.46 77.0363 134.499 76.9784 134.562C76.9206 134.625 76.8887 134.707 76.8887 134.793C76.8887 134.878 76.9206 134.96 76.9784 135.023C77.0363 135.086 77.1157 135.125 77.2009 135.132Z" fill="#E8E8E8"/>
<path d="M109.651 135.29V144.636C109.659 144.721 109.697 144.8 109.76 144.858C109.823 144.916 109.906 144.948 109.991 144.948C110.076 144.948 110.159 144.916 110.222 144.858C110.284 144.8 110.323 144.721 110.331 144.636V135.29C110.323 135.205 110.284 135.126 110.222 135.068C110.159 135.01 110.076 134.978 109.991 134.978C109.906 134.978 109.823 135.01 109.76 135.068C109.697 135.126 109.659 135.205 109.651 135.29Z" fill="#E8E8E8"/>
<path d="M77.5388 146.445H109.68C109.765 146.438 109.844 146.399 109.902 146.336C109.96 146.273 109.992 146.191 109.992 146.106C109.992 146.02 109.96 145.938 109.902 145.875C109.844 145.812 109.765 145.773 109.68 145.766H77.5388C77.4536 145.773 77.3742 145.812 77.3163 145.875C77.2587 145.938 77.2266 146.02 77.2266 146.106C77.2266 146.191 77.2587 146.273 77.3163 146.336C77.3742 146.399 77.4536 146.438 77.5388 146.445Z" fill="#E8E8E8"/>
<path d="M91.7521 142.644C91.3781 142.489 91.0676 142.213 90.8703 141.86C90.673 141.506 90.6005 141.097 90.6649 140.697C90.8689 139.701 92.0449 138.979 92.9737 139.497C93.8113 139.977 93.8329 141.216 93.3577 141.986C92.8825 142.757 91.7521 143.004 91.2313 142.166C91.0057 141.804 90.4153 142.145 90.6433 142.507C90.8017 142.749 91.0131 142.951 91.2617 143.099C91.5101 143.246 91.7893 143.335 92.0773 143.358C92.3653 143.381 92.6549 143.338 92.9237 143.232C93.1928 143.126 93.434 142.96 93.6289 142.747C94.5121 141.821 94.6489 139.941 93.6073 139.082C92.5657 138.223 90.8905 138.741 90.2473 139.874C89.5465 141.096 90.1585 142.634 91.4017 143.222C91.7881 143.426 92.1481 142.838 91.7425 142.634L91.7521 142.644Z" fill="#E8E8E8"/>
<path d="M77.314 169.416V158.258C77.3068 158.173 77.2679 158.094 77.205 158.036C77.1421 157.978 77.0598 157.946 76.9744 157.946C76.8889 157.946 76.8066 157.978 76.7435 158.036C76.6806 158.094 76.6417 158.173 76.6348 158.258V169.416C76.6417 169.501 76.6806 169.58 76.7435 169.638C76.8066 169.696 76.8889 169.728 76.9744 169.728C77.0598 169.728 77.1421 169.696 77.205 169.638C77.2679 169.58 77.3068 169.501 77.314 169.416Z" fill="#E8E8E8"/>
<path d="M76.9753 158.441H109.44C109.525 158.434 109.605 158.395 109.662 158.332C109.72 158.269 109.752 158.187 109.752 158.101C109.752 158.016 109.72 157.934 109.662 157.871C109.605 157.808 109.525 157.769 109.44 157.762H76.9753C76.8901 157.769 76.8107 157.808 76.7529 157.871C76.695 157.934 76.6631 158.016 76.6631 158.101C76.6631 158.187 76.695 158.269 76.7529 158.332C76.8107 158.395 76.8901 158.434 76.9753 158.441Z" fill="#E8E8E8"/>
<path d="M109.426 158.599V167.945C109.433 168.03 109.472 168.11 109.535 168.167C109.598 168.225 109.68 168.257 109.765 168.257C109.851 168.257 109.933 168.225 109.996 168.167C110.059 168.11 110.098 168.03 110.105 167.945V158.599C110.098 158.514 110.059 158.435 109.996 158.377C109.933 158.319 109.851 158.287 109.765 158.287C109.68 158.287 109.598 158.319 109.535 158.377C109.472 158.435 109.433 158.514 109.426 158.599Z" fill="#E8E8E8"/>
<path d="M77.3132 169.754H109.44C109.525 169.747 109.604 169.708 109.662 169.645C109.72 169.583 109.752 169.5 109.752 169.415C109.752 169.329 109.72 169.247 109.662 169.184C109.604 169.121 109.525 169.082 109.44 169.075H77.3132C77.228 169.082 77.1486 169.121 77.091 169.184C77.0331 169.247 77.001 169.329 77.001 169.415C77.001 169.5 77.0331 169.583 77.091 169.645C77.1486 169.708 77.228 169.747 77.3132 169.754Z" fill="#E8E8E8"/>
<path d="M91.5235 165.953C91.1501 165.798 90.84 165.521 90.6432 165.168C90.4462 164.815 90.3742 164.405 90.4387 164.006C90.6427 163.01 91.8187 162.286 92.7475 162.806C93.5827 163.286 93.6067 164.527 93.1315 165.295C92.6563 166.063 91.5235 166.315 91.0051 165.478C90.7771 165.115 90.1891 165.454 90.4147 165.816C90.5734 166.058 90.785 166.26 91.0339 166.408C91.2826 166.555 91.5617 166.644 91.8499 166.667C92.1382 166.69 92.4278 166.647 92.6971 166.541C92.9662 166.435 93.2076 166.269 93.4027 166.056C94.2859 165.127 94.4203 163.25 93.3811 162.391C92.3419 161.532 90.6643 162.05 90.0211 163.183C89.3203 164.405 89.9299 165.943 91.1755 166.531C91.5595 166.735 91.9219 166.147 91.5139 165.943L91.5235 165.953Z" fill="#E8E8E8"/>
<path d="M77.7437 194.172V183.014C77.7365 182.929 77.6976 182.85 77.6347 182.792C77.5718 182.734 77.4895 182.702 77.4041 182.702C77.3186 182.702 77.2363 182.734 77.1734 182.792C77.1103 182.85 77.0714 182.929 77.0645 183.014V194.172C77.0714 194.257 77.1103 194.336 77.1734 194.394C77.2363 194.452 77.3186 194.484 77.4041 194.484C77.4895 194.484 77.5718 194.452 77.6347 194.394C77.6976 194.336 77.7365 194.257 77.7437 194.172Z" fill="#E8E8E8"/>
<path d="M77.405 183.197H109.877C109.962 183.19 110.041 183.151 110.099 183.088C110.157 183.025 110.189 182.943 110.189 182.857C110.189 182.772 110.157 182.689 110.099 182.627C110.041 182.564 109.962 182.525 109.877 182.518H77.405C77.3198 182.525 77.2404 182.564 77.1825 182.627C77.1247 182.689 77.0928 182.772 77.0928 182.857C77.0928 182.943 77.1247 183.025 77.1825 183.088C77.2404 183.151 77.3198 183.19 77.405 183.197Z" fill="#E8E8E8"/>
<path d="M109.855 183.36V192.706C109.862 192.791 109.901 192.87 109.964 192.928C110.027 192.986 110.109 193.018 110.194 193.018C110.28 193.018 110.362 192.986 110.425 192.928C110.488 192.87 110.527 192.791 110.534 192.706V183.36C110.538 183.313 110.532 183.266 110.517 183.221C110.501 183.176 110.477 183.136 110.445 183.101C110.413 183.066 110.374 183.038 110.331 183.02C110.288 183.001 110.241 182.991 110.194 182.991C110.147 182.991 110.101 183.001 110.057 183.02C110.014 183.038 109.975 183.066 109.943 183.101C109.911 183.136 109.887 183.176 109.872 183.221C109.856 183.266 109.851 183.313 109.855 183.36Z" fill="#E8E8E8"/>
<path d="M77.7214 194.51H109.855C109.94 194.503 110.019 194.464 110.077 194.401C110.135 194.339 110.167 194.256 110.167 194.171C110.167 194.085 110.135 194.003 110.077 193.94C110.019 193.877 109.94 193.838 109.855 193.831H77.7214C77.6362 193.838 77.557 193.877 77.4992 193.94C77.4413 194.003 77.4092 194.085 77.4092 194.171C77.4092 194.256 77.4413 194.339 77.4992 194.401C77.557 194.464 77.6362 194.503 77.7214 194.51Z" fill="#E8E8E8"/>
<path d="M91.9562 190.709C91.582 190.554 91.2712 190.278 91.0737 189.925C90.8764 189.571 90.8042 189.162 90.869 188.762C91.073 187.766 92.249 187.044 93.1777 187.562C94.0153 188.042 94.0369 189.281 93.5617 190.051C93.0866 190.821 91.9562 191.069 91.4354 190.231C91.1954 189.869 90.6194 190.209 90.8474 190.572C91.0058 190.814 91.2172 191.016 91.4658 191.163C91.7145 191.311 91.9934 191.4 92.2814 191.423C92.5694 191.446 92.859 191.403 93.1278 191.297C93.3969 191.191 93.6381 191.025 93.833 190.812C94.7161 189.885 94.8529 188.006 93.8114 187.147C92.7698 186.288 91.0946 186.806 90.4514 187.939C89.7506 189.161 90.3626 190.699 91.6058 191.299C91.9898 191.481 92.3257 190.915 91.9465 190.711L91.9562 190.709Z" fill="#E8E8E8"/>
<path d="M73.0369 130.493C72.9649 129.707 72.9957 128.916 73.1281 128.138C73.0182 128.212 72.9124 128.293 72.8113 128.378C73.5121 128.378 74.1913 128.378 74.8921 128.357C74.9773 128.35 75.0565 128.311 75.1144 128.248C75.1722 128.185 75.2044 128.103 75.2044 128.017C75.2044 127.932 75.1722 127.849 75.1144 127.786C75.0565 127.724 74.9773 127.685 74.8921 127.677C74.1913 127.677 73.5121 127.677 72.8113 127.699C72.7398 127.7 72.6707 127.724 72.6136 127.767C72.5567 127.81 72.5149 127.871 72.4945 127.939C72.3541 128.776 72.3162 129.627 72.3817 130.474C72.4033 130.903 73.0825 130.903 73.0369 130.474V130.493Z" fill="#E8E8E8"/>
<path d="M77.5629 127.92V125.062C77.5557 124.976 77.5168 124.897 77.454 124.839C77.3911 124.781 77.3088 124.749 77.2234 124.749C77.1379 124.749 77.0556 124.781 76.9927 124.839C76.9296 124.897 76.8907 124.976 76.8838 125.062V127.92C76.8907 128.005 76.9296 128.084 76.9927 128.142C77.0556 128.2 77.1379 128.232 77.2234 128.232C77.3088 128.232 77.3911 128.2 77.454 128.142C77.5168 128.084 77.5557 128.005 77.5629 127.92Z" fill="#E8E8E8"/>
<path d="M77.3376 125.265H101.302C101.387 125.258 101.466 125.219 101.524 125.156C101.582 125.093 101.614 125.011 101.614 124.926C101.614 124.84 101.582 124.758 101.524 124.695C101.466 124.632 101.387 124.593 101.302 124.586H77.3376C77.2524 124.593 77.1732 124.632 77.1154 124.695C77.0576 124.758 77.0254 124.84 77.0254 124.926C77.0254 125.011 77.0576 125.093 77.1154 125.156C77.1732 125.219 77.2524 125.258 77.3376 125.265Z" fill="#E8E8E8"/>
<path d="M100.961 125.174V128.026C100.968 128.111 101.007 128.19 101.07 128.248C101.133 128.306 101.215 128.338 101.3 128.338C101.386 128.338 101.468 128.306 101.531 128.248C101.594 128.19 101.633 128.111 101.64 128.026V125.174C101.633 125.089 101.594 125.01 101.531 124.952C101.468 124.894 101.386 124.862 101.3 124.862C101.215 124.862 101.133 124.894 101.07 124.952C101.007 125.01 100.968 125.089 100.961 125.174Z" fill="#E8E8E8"/>
<path d="M82.0796 125.062V122.074C82.0724 121.989 82.0335 121.909 81.9706 121.851C81.9078 121.794 81.8254 121.761 81.74 121.761C81.6546 121.761 81.5722 121.794 81.5093 121.851C81.4465 121.909 81.4076 121.989 81.4004 122.074V125.062C81.4076 125.147 81.4465 125.226 81.5093 125.284C81.5722 125.342 81.6546 125.374 81.74 125.374C81.8254 125.374 81.9078 125.342 81.9706 125.284C82.0335 125.226 82.0724 125.147 82.0796 125.062Z" fill="#E8E8E8"/>
<path d="M82.1326 122.16H104.016C104.101 122.153 104.18 122.114 104.238 122.051C104.296 121.988 104.328 121.906 104.328 121.821C104.328 121.735 104.296 121.653 104.238 121.59C104.18 121.527 104.101 121.488 104.016 121.481H82.1326C82.0474 121.488 81.9682 121.527 81.9103 121.59C81.8525 121.653 81.8203 121.735 81.8203 121.821C81.8203 121.906 81.8525 121.988 81.9103 122.051C81.9682 122.114 82.0474 122.153 82.1326 122.16Z" fill="#E8E8E8"/>
<path d="M100.623 125.242H103.767C103.852 125.234 103.931 125.196 103.989 125.133C104.047 125.07 104.079 124.988 104.079 124.902C104.079 124.817 104.047 124.734 103.989 124.671C103.931 124.609 103.852 124.57 103.767 124.562H100.623C100.538 124.57 100.458 124.609 100.401 124.671C100.343 124.734 100.311 124.817 100.311 124.902C100.311 124.988 100.343 125.07 100.401 125.133C100.458 125.196 100.538 125.234 100.623 125.242Z" fill="#E8E8E8"/>
<path d="M103.68 122.006V124.56C103.687 124.645 103.726 124.724 103.789 124.782C103.852 124.84 103.934 124.872 104.019 124.872C104.105 124.872 104.187 124.84 104.25 124.782C104.313 124.724 104.352 124.645 104.359 124.56V122.006C104.352 121.921 104.313 121.842 104.25 121.784C104.187 121.726 104.105 121.694 104.019 121.694C103.934 121.694 103.852 121.726 103.789 121.784C103.726 121.842 103.687 121.921 103.68 122.006Z" fill="#E8E8E8"/>
<path d="M76.6797 119.381V121.939C76.6869 122.024 76.7258 122.104 76.7887 122.161C76.8515 122.219 76.9339 122.251 77.0193 122.251C77.1047 122.251 77.1871 122.219 77.2499 122.161C77.3128 122.104 77.3517 122.024 77.3589 121.939V119.381C77.3517 119.296 77.3128 119.216 77.2499 119.159C77.1871 119.101 77.1047 119.069 77.0193 119.069C76.9339 119.069 76.8515 119.101 76.7887 119.159C76.7258 119.216 76.6869 119.296 76.6797 119.381Z" fill="#E8E8E8"/>
<path d="M77.28 119.539H97.4208C97.5058 119.532 97.5852 119.493 97.6431 119.43C97.7009 119.367 97.7331 119.285 97.7331 119.2C97.7331 119.114 97.7009 119.032 97.6431 118.969C97.5852 118.906 97.5058 118.867 97.4208 118.86H77.28C77.1948 118.867 77.1154 118.906 77.0575 118.969C76.9997 119.032 76.9678 119.114 76.9678 119.2C76.9678 119.285 76.9997 119.367 77.0575 119.43C77.1154 119.493 77.1948 119.532 77.28 119.539Z" fill="#E8E8E8"/>
<path d="M97.3174 119.201V121.102C97.3246 121.187 97.3635 121.266 97.4263 121.324C97.4892 121.382 97.5715 121.414 97.657 121.414C97.7424 121.414 97.8248 121.382 97.8876 121.324C97.9505 121.266 97.9894 121.187 97.9966 121.102V119.201C97.9894 119.115 97.9505 119.036 97.8876 118.978C97.8248 118.921 97.7424 118.888 97.657 118.888C97.5715 118.888 97.4892 118.921 97.4263 118.978C97.3635 119.036 97.3246 119.115 97.3174 119.201Z" fill="#E8E8E8"/>
<path d="M77.1794 122.278H82.133C82.2182 122.27 82.2974 122.232 82.3553 122.169C82.4131 122.106 82.4453 122.023 82.4453 121.938C82.4453 121.853 82.4131 121.77 82.3553 121.707C82.2974 121.644 82.2182 121.606 82.133 121.598H77.1794C77.0942 121.606 77.0148 121.644 76.957 121.707C76.8994 121.77 76.8672 121.853 76.8672 121.938C76.8672 122.023 76.8994 122.106 76.957 122.169C77.0148 122.232 77.0942 122.27 77.1794 122.278Z" fill="#E8E8E8"/>
<path d="M76.862 221.892H106.08C106.165 221.885 106.244 221.846 106.302 221.783C106.36 221.72 106.392 221.638 106.392 221.552C106.392 221.467 106.36 221.385 106.302 221.322C106.244 221.259 106.165 221.22 106.08 221.213H76.862C76.7768 221.22 76.6976 221.259 76.6398 221.322C76.582 221.385 76.5498 221.467 76.5498 221.552C76.5498 221.638 76.582 221.72 76.6398 221.783C76.6976 221.846 76.7768 221.885 76.862 221.892Z" fill="#E8E8E8"/>
<path d="M190.392 164.414V153.031C190.385 152.946 190.346 152.867 190.283 152.809C190.22 152.751 190.138 152.719 190.053 152.719C189.967 152.719 189.885 152.751 189.822 152.809C189.759 152.867 189.72 152.946 189.713 153.031V164.414C189.72 164.5 189.759 164.579 189.822 164.637C189.885 164.695 189.967 164.727 190.053 164.727C190.138 164.727 190.22 164.695 190.283 164.637C190.346 164.579 190.385 164.5 190.392 164.414Z" fill="#E8E8E8"/>
<path d="M179.575 164.753H201.074C201.159 164.746 201.239 164.707 201.296 164.644C201.354 164.581 201.386 164.499 201.386 164.413C201.386 164.328 201.354 164.246 201.296 164.183C201.239 164.12 201.159 164.081 201.074 164.074H179.575C179.49 164.081 179.41 164.12 179.352 164.183C179.295 164.246 179.263 164.328 179.263 164.413C179.263 164.499 179.295 164.581 179.352 164.644C179.41 164.707 179.49 164.746 179.575 164.753Z" fill="#E8E8E8"/>
<path d="M194.76 164.414V171.451C194.767 171.536 194.806 171.615 194.869 171.673C194.932 171.731 195.014 171.763 195.099 171.763C195.185 171.763 195.267 171.731 195.33 171.673C195.393 171.615 195.432 171.536 195.439 171.451V164.414C195.432 164.329 195.393 164.25 195.33 164.192C195.267 164.134 195.185 164.102 195.099 164.102C195.014 164.102 194.932 164.134 194.869 164.192C194.806 164.25 194.767 164.329 194.76 164.414Z" fill="#E8E8E8"/>
<path d="M187.337 172.697H206.664C206.749 172.69 206.828 172.651 206.886 172.588C206.944 172.525 206.976 172.443 206.976 172.357C206.976 172.272 206.944 172.189 206.886 172.127C206.828 172.064 206.749 172.025 206.664 172.018H187.337C187.251 172.025 187.172 172.064 187.114 172.127C187.056 172.189 187.024 172.272 187.024 172.357C187.024 172.443 187.056 172.525 187.114 172.588C187.172 172.651 187.251 172.69 187.337 172.697Z" fill="#E8E8E8"/>
<path d="M94.2168 58.8481V41.1529C94.2168 41.0631 94.1811 40.9769 94.1177 40.9136C94.0543 40.85 93.9682 40.8145 93.8784 40.8145C93.7887 40.8145 93.7025 40.85 93.6392 40.9136C93.5758 40.9769 93.54 41.0631 93.54 41.1529V58.8481C93.54 58.9378 93.5758 59.0237 93.6392 59.0873C93.7025 59.1507 93.7887 59.1865 93.8784 59.1865C93.9682 59.1865 94.0543 59.1507 94.1177 59.0873C94.1811 59.0237 94.2168 58.9378 94.2168 58.8481Z" fill="#E8E8E8"/>
<path d="M93.8784 41.8296H122.03C122.12 41.8296 122.206 41.7939 122.27 41.7305C122.333 41.6669 122.369 41.581 122.369 41.4912C122.369 41.4015 122.333 41.3153 122.27 41.2519C122.206 41.1883 122.12 41.1528 122.03 41.1528H93.8784C93.7887 41.1528 93.7025 41.1883 93.6392 41.2519C93.5758 41.3153 93.54 41.4015 93.54 41.4912C93.54 41.581 93.5758 41.6669 93.6392 41.7305C93.7025 41.7939 93.7887 41.8296 93.8784 41.8296Z" fill="#E8E8E8"/>
<path d="M121.68 41.6496V57.4896C121.687 57.5748 121.726 57.6543 121.789 57.7119C121.852 57.7697 121.934 57.8019 122.019 57.8019C122.105 57.8019 122.187 57.7697 122.25 57.7119C122.313 57.6543 122.352 57.5748 122.359 57.4896V41.6496C122.352 41.5644 122.313 41.4852 122.25 41.4274C122.187 41.3696 122.105 41.3374 122.019 41.3374C121.934 41.3374 121.852 41.3696 121.789 41.4274C121.726 41.4852 121.687 41.5644 121.68 41.6496Z" fill="#E8E8E8"/>
<path d="M93.7204 59.1863H121.68C121.766 59.1791 121.845 59.1402 121.903 59.0773C121.96 59.0144 121.993 58.9321 121.993 58.8467C121.993 58.7612 121.96 58.6789 121.903 58.616C121.845 58.5532 121.766 58.5143 121.68 58.5071H93.7204C93.6352 58.5143 93.556 58.5532 93.4982 58.616C93.4404 58.6789 93.4082 58.7612 93.4082 58.8467C93.4082 58.9321 93.4404 59.0144 93.4982 59.0773C93.556 59.1402 93.6352 59.1791 93.7204 59.1863Z" fill="#E8E8E8"/>
<path d="M95.7339 57.331V43.0078C95.7267 42.9228 95.6878 42.8434 95.6249 42.7856C95.562 42.7277 95.4797 42.6956 95.3943 42.6956C95.3088 42.6956 95.2265 42.7277 95.1634 42.7856C95.1005 42.8434 95.0616 42.9228 95.0547 43.0078V57.331C95.0616 57.4162 95.1005 57.4957 95.1634 57.5535C95.2265 57.6113 95.3088 57.6432 95.3943 57.6432C95.4797 57.6432 95.562 57.6113 95.6249 57.5535C95.6878 57.4957 95.7267 57.4162 95.7339 57.331Z" fill="#E8E8E8"/>
<path d="M95.3953 43.3462H120C120.085 43.339 120.164 43.3001 120.222 43.2372C120.28 43.1743 120.312 43.092 120.312 43.0066C120.312 42.9211 120.28 42.8388 120.222 42.7759C120.164 42.7131 120.085 42.6742 120 42.667H95.3953C95.3101 42.6742 95.2306 42.7131 95.1728 42.7759C95.1149 42.8388 95.083 42.9211 95.083 43.0066C95.083 43.092 95.1149 43.1743 95.1728 43.2372C95.2306 43.3001 95.3101 43.339 95.3953 43.3462Z" fill="#E8E8E8"/>
<path d="M119.834 43.5049V55.9728C119.841 56.0578 119.88 56.1372 119.943 56.1951C120.006 56.2529 120.088 56.2851 120.174 56.2851C120.259 56.2851 120.341 56.2529 120.404 56.1951C120.467 56.1372 120.506 56.0578 120.513 55.9728V43.5049C120.506 43.4197 120.467 43.3402 120.404 43.2824C120.341 43.2245 120.259 43.1926 120.174 43.1926C120.088 43.1926 120.006 43.2245 119.943 43.2824C119.88 43.3402 119.841 43.4197 119.834 43.5049Z" fill="#E8E8E8"/>
<path d="M95.9162 57.8401H119.856C119.941 57.8329 120.021 57.794 120.079 57.7311C120.136 57.6682 120.168 57.5859 120.168 57.5004C120.168 57.415 120.136 57.3327 120.079 57.2698C120.021 57.2069 119.941 57.168 119.856 57.1608H95.9162C95.8694 57.157 95.8219 57.1627 95.7775 57.1781C95.7329 57.1932 95.6918 57.2177 95.657 57.2496C95.6225 57.2815 95.5946 57.3202 95.5757 57.3634C95.5567 57.4066 95.5469 57.4534 95.5469 57.5004C95.5469 57.5477 95.5567 57.5943 95.5757 57.6375C95.5946 57.6807 95.6225 57.7193 95.657 57.7513C95.6918 57.7832 95.7329 57.8077 95.7775 57.823C95.8219 57.8381 95.8694 57.8441 95.9162 57.8401Z" fill="#E8E8E8"/>
<path d="M96.2544 57.1728C100.803 53.2577 105.262 49.2377 109.63 45.1128C109.946 44.8176 109.471 44.3424 109.15 44.6328C104.782 48.7728 100.322 52.7784 95.7744 56.6928C95.436 56.964 95.9328 57.4392 96.2544 57.1728Z" fill="#E8E8E8"/>
<path d="M103.699 57.1965C107.321 52.966 111.19 48.9532 115.286 45.1797C115.603 44.8845 115.128 44.4093 114.806 44.6997C110.71 48.4732 106.841 52.486 103.219 56.7165C102.926 57.0549 103.401 57.5301 103.699 57.1965Z" fill="#E8E8E8"/>
<path d="M105.646 41.4456C105.704 41.0162 105.859 40.6061 106.099 40.2456C106.325 39.9072 106.819 39.3192 107.275 39.3408C107.954 39.3648 107.818 40.7808 107.995 41.2416C108.154 41.6496 108.809 41.4696 108.65 41.0616C108.334 40.2456 108.605 38.64 107.27 38.6616C106.025 38.6856 105.166 40.2 104.986 41.2656C104.916 41.6952 105.574 41.8752 105.641 41.4456H105.646Z" fill="#E8E8E8"/>
<path d="M273.487 117.072V113.362C273.48 113.276 273.441 113.197 273.379 113.139C273.314 113.081 273.232 113.049 273.148 113.049C273.062 113.049 272.98 113.081 272.916 113.139C272.853 113.197 272.815 113.276 272.808 113.362V117.072C272.815 117.157 272.853 117.236 272.916 117.294C272.98 117.352 273.062 117.384 273.148 117.384C273.232 117.384 273.314 117.352 273.379 117.294C273.441 117.236 273.48 117.157 273.487 117.072Z" fill="#E8E8E8"/>
<path d="M273.149 113.702H320.693C320.777 113.695 320.858 113.656 320.916 113.593C320.974 113.531 321.005 113.448 321.005 113.363C321.005 113.277 320.974 113.195 320.916 113.132C320.858 113.069 320.777 113.03 320.693 113.023H273.149C273.065 113.03 272.983 113.069 272.926 113.132C272.868 113.195 272.837 113.277 272.837 113.363C272.837 113.448 272.868 113.531 272.926 113.593C272.983 113.656 273.065 113.695 273.149 113.702Z" fill="#E8E8E8"/>
<path d="M273.149 117.254H320.693C320.777 117.247 320.858 117.208 320.916 117.145C320.974 117.082 321.005 117 321.005 116.915C321.005 116.829 320.974 116.747 320.916 116.684C320.858 116.621 320.777 116.582 320.693 116.575H273.149C273.065 116.582 272.983 116.621 272.926 116.684C272.868 116.747 272.837 116.829 272.837 116.915C272.837 117 272.868 117.082 272.926 117.145C272.983 117.208 273.065 117.247 273.149 117.254Z" fill="#E8E8E8"/>
<path d="M320.196 113.362V116.914C320.196 117.003 320.232 117.089 320.295 117.153C320.359 117.216 320.446 117.252 320.535 117.252C320.623 117.252 320.71 117.216 320.775 117.153C320.837 117.089 320.873 117.003 320.873 116.914V113.362C320.873 113.272 320.837 113.186 320.775 113.122C320.71 113.059 320.623 113.023 320.535 113.023C320.446 113.023 320.359 113.059 320.295 113.122C320.232 113.186 320.196 113.272 320.196 113.362Z" fill="#E8E8E8"/>
<path d="M275.592 113.023V91.8408C275.585 91.7556 275.547 91.6764 275.484 91.6186C275.42 91.5607 275.338 91.5286 275.252 91.5286C275.168 91.5286 275.086 91.5607 275.021 91.6186C274.959 91.6764 274.92 91.7556 274.913 91.8408V113.023C274.92 113.108 274.959 113.188 275.021 113.245C275.086 113.303 275.168 113.335 275.252 113.335C275.338 113.335 275.42 113.303 275.484 113.245C275.547 113.188 275.585 113.108 275.592 113.023Z" fill="#E8E8E8"/>
<path d="M275.095 91.548H280.277C280.361 91.5408 280.443 91.5019 280.5 91.439C280.558 91.3762 280.589 91.2938 280.589 91.2084C280.589 91.123 280.558 91.0407 280.5 90.9778C280.443 90.915 280.361 90.8761 280.277 90.8689H275.095C275.009 90.8761 274.93 90.915 274.872 90.9778C274.814 91.0407 274.783 91.123 274.783 91.2084C274.783 91.2938 274.814 91.3762 274.872 91.439C274.93 91.5019 275.009 91.5408 275.095 91.548Z" fill="#E8E8E8"/>
<path d="M280.097 89.4192V113.023C280.097 113.113 280.133 113.199 280.195 113.262C280.26 113.326 280.346 113.362 280.435 113.362C280.524 113.362 280.61 113.326 280.675 113.262C280.738 113.199 280.774 113.113 280.774 113.023V89.4192C280.774 89.3294 280.738 89.2433 280.675 89.1799C280.61 89.1163 280.524 89.0808 280.435 89.0808C280.346 89.0808 280.26 89.1163 280.195 89.1799C280.133 89.2433 280.097 89.3294 280.097 89.4192Z" fill="#E8E8E8"/>
<path d="M280.593 89.4431H285.933C286.017 89.4359 286.099 89.397 286.157 89.3342C286.214 89.2713 286.245 89.189 286.245 89.1035C286.245 89.0181 286.214 88.9358 286.157 88.8729C286.099 88.8098 286.017 88.7709 285.933 88.7639H280.593C280.509 88.7709 280.428 88.8098 280.37 88.8729C280.312 88.9358 280.281 89.0181 280.281 89.1035C280.281 89.189 280.312 89.2713 280.37 89.3342C280.428 89.397 280.509 89.4359 280.593 89.4431Z" fill="#E8E8E8"/>
<path d="M285.754 89.1025V112.706C285.761 112.792 285.8 112.871 285.862 112.929C285.927 112.987 286.008 113.019 286.092 113.019C286.179 113.019 286.26 112.987 286.325 112.929C286.388 112.871 286.426 112.792 286.433 112.706V89.1025C286.426 89.0173 286.388 88.9381 286.325 88.8803C286.26 88.8224 286.179 88.7903 286.092 88.7903C286.008 88.7903 285.927 88.8224 285.862 88.8803C285.8 88.9381 285.761 89.0173 285.754 89.1025Z" fill="#E8E8E8"/>
<path d="M286.433 90.8687V84.3887C286.426 84.3037 286.388 84.2243 286.325 84.1664C286.26 84.1086 286.179 84.0764 286.092 84.0764C286.008 84.0764 285.927 84.1086 285.862 84.1664C285.8 84.2243 285.761 84.3037 285.754 84.3887V90.8687C285.761 90.9539 285.8 91.0333 285.862 91.0912C285.927 91.149 286.008 91.1809 286.092 91.1809C286.179 91.1809 286.26 91.149 286.325 91.0912C286.388 91.0333 286.426 90.9539 286.433 90.8687Z" fill="#E8E8E8"/>
<path d="M286.25 84.42H293.04C293.124 84.4128 293.206 84.3739 293.263 84.311C293.321 84.2481 293.352 84.1658 293.352 84.0803C293.352 83.9949 293.321 83.9126 293.263 83.8497C293.206 83.7868 293.124 83.7479 293.04 83.7407H286.25C286.166 83.7479 286.085 83.7868 286.027 83.8497C285.97 83.9126 285.938 83.9949 285.938 84.0803C285.938 84.1658 285.97 84.2481 286.027 84.311C286.085 84.3739 286.166 84.4128 286.25 84.42Z" fill="#E8E8E8"/>
<path d="M292.7 84.4199V112.886C292.707 112.972 292.745 113.051 292.808 113.109C292.873 113.166 292.954 113.199 293.04 113.199C293.124 113.199 293.206 113.166 293.271 113.109C293.333 113.051 293.372 112.972 293.379 112.886V84.4199C293.384 84.3729 293.376 84.3256 293.362 84.2809C293.348 84.2363 293.321 84.1955 293.29 84.1607C293.259 84.1259 293.22 84.0983 293.177 84.0793C293.134 84.0604 293.086 84.0505 293.04 84.0505C292.992 84.0505 292.945 84.0604 292.901 84.0793C292.858 84.0983 292.82 84.1259 292.789 84.1607C292.757 84.1955 292.733 84.2363 292.717 84.2809C292.702 84.3256 292.695 84.3729 292.7 84.4199Z" fill="#E8E8E8"/>
<path d="M292.7 84.4199V99.6263C292.707 99.7115 292.745 99.7907 292.808 99.8486C292.873 99.9064 292.954 99.9386 293.04 99.9386C293.124 99.9386 293.206 99.9064 293.271 99.8486C293.333 99.7907 293.372 99.7115 293.379 99.6263V84.4199C293.384 84.3729 293.376 84.3256 293.362 84.2809C293.348 84.2363 293.321 84.1955 293.29 84.1607C293.259 84.1259 293.22 84.0983 293.177 84.0793C293.134 84.0604 293.086 84.0505 293.04 84.0505C292.992 84.0505 292.945 84.0604 292.901 84.0793C292.858 84.0983 292.82 84.1259 292.789 84.1607C292.757 84.1955 292.733 84.2363 292.717 84.2809C292.702 84.3256 292.695 84.3729 292.7 84.4199Z" fill="#E8E8E8"/>
<path d="M295.483 112.865C295.507 111.981 295.507 111.098 295.529 110.225L295.19 110.563C299.484 109.994 303.804 109.662 308.133 109.567C310.26 109.522 312.386 109.545 314.515 109.634C315.353 109.658 316.845 109.476 317.616 109.838C318.497 110.246 318.271 112.373 318.249 113.198C318.257 113.283 318.295 113.363 318.357 113.421C318.422 113.478 318.504 113.511 318.59 113.511C318.674 113.511 318.756 113.478 318.821 113.421C318.883 113.363 318.921 113.283 318.929 113.198C318.929 111.998 319.2 109.531 317.661 109.169C316.665 108.943 315.533 109.01 314.515 108.967C313.202 108.921 311.875 108.876 310.555 108.876C305.419 108.856 300.285 109.189 295.195 109.872C295.106 109.873 295.02 109.909 294.957 109.972C294.893 110.035 294.857 110.121 294.854 110.21C294.833 111.093 294.833 111.977 294.809 112.85C294.811 112.936 294.847 113.017 294.909 113.078C294.969 113.139 295.051 113.174 295.137 113.177C295.224 113.18 295.308 113.151 295.373 113.094C295.437 113.038 295.478 112.96 295.488 112.874L295.483 112.865Z" fill="#E8E8E8"/>
<path d="M299.693 109.786C299.693 109.222 299.602 108.61 299.693 108.043C299.806 107.206 300.19 107.206 300.982 107.162C302.182 107.093 303.358 107.026 304.558 106.98C307.003 106.846 309.468 106.709 311.914 106.596C314.244 106.459 316.596 106.255 318.951 106.234C319.697 106.234 320.535 106.255 321.056 106.867C321.756 107.705 321.168 108.655 320.218 108.926C319.268 109.198 318.204 108.994 317.23 109.222C316.8 109.31 316.99 109.968 317.412 109.877C318.792 109.56 322.956 109.944 322.097 107.206C321.802 106.246 320.852 105.737 319.923 105.622C318.204 105.382 316.323 105.713 314.607 105.804C311.031 105.984 307.479 106.188 303.903 106.37L301.231 106.505C300.735 106.529 300.01 106.438 299.535 106.687C298.606 107.167 299.038 109.039 299.038 109.831C299.014 110.239 299.693 110.239 299.693 109.786Z" fill="#E8E8E8"/>
<path d="M81.5999 74.0783V83.7864C81.6068 83.8716 81.6457 83.9508 81.7088 84.0086C81.7717 84.0665 81.854 84.0986 81.9394 84.0986C82.0249 84.0986 82.1072 84.0665 82.1701 84.0086C82.2329 83.9508 82.2718 83.8716 82.279 83.7864V74.0783C82.2828 74.0313 82.2771 73.984 82.2617 73.9394C82.2464 73.8947 82.2221 73.8539 82.1902 73.8191C82.1583 73.7843 82.1194 73.7567 82.0762 73.7378C82.0333 73.7188 81.9865 73.709 81.9394 73.709C81.8922 73.709 81.8456 73.7188 81.8024 73.7378C81.7592 73.7567 81.7203 73.7843 81.6884 73.8191C81.6565 73.8539 81.6323 73.8947 81.6169 73.9394C81.6018 73.984 81.5958 74.0313 81.5999 74.0783Z" fill="#E8E8E8"/>
<path d="M76.4997 84.5088H91.6606C91.7456 84.5016 91.825 84.4627 91.8828 84.3998C91.9407 84.3369 91.9728 84.2546 91.9728 84.1692C91.9728 84.0837 91.9407 84.0014 91.8828 83.9385C91.825 83.8757 91.7456 83.8368 91.6606 83.8296H76.4997C76.4145 83.8368 76.3351 83.8757 76.2773 83.9385C76.2194 84.0014 76.1875 84.0837 76.1875 84.1692C76.1875 84.2546 76.2194 84.3369 76.2773 84.3998C76.3351 84.4627 76.4145 84.5016 76.4997 84.5088Z" fill="#E8E8E8"/>
<path d="M86.6592 84.5544V90.3936C86.6661 90.4786 86.705 90.558 86.7681 90.6159C86.831 90.6737 86.9134 90.7059 86.9988 90.7059C87.0842 90.7059 87.1666 90.6737 87.2295 90.6159C87.2923 90.558 87.3312 90.4786 87.3384 90.3936V84.5544C87.3312 84.4692 87.2923 84.3898 87.2295 84.3319C87.1666 84.2743 87.0842 84.2422 86.9988 84.2422C86.9134 84.2422 86.831 84.2743 86.7681 84.3319C86.705 84.3898 86.6661 84.4692 86.6592 84.5544Z" fill="#E8E8E8"/>
<path d="M185.095 206.124C184.047 208.539 183.72 211.207 184.155 213.804C187.855 215.441 191.759 216.571 195.761 217.164C196.769 217.325 209.247 219.084 210.461 215.674C210.761 214.824 210.279 213.953 209.796 213.106C207.113 208.404 200.326 208.128 199.407 208.104C199.155 203.22 196.013 199.596 192.802 199.344C188.261 199.015 185.417 205.414 185.095 206.124Z" fill="#0E0E0E"/>
<path d="M191.059 127.229C195.302 133.32 198.639 139.994 200.967 147.043C205.714 161.47 204.934 173.58 204.408 180.437C203.762 188.879 202.027 197.202 199.246 205.2C198.308 205.795 194.155 208.272 188.904 207.149C186.576 206.639 184.423 205.524 182.664 203.916C185.25 198.252 186.922 192.214 187.618 186.026C188.559 177.677 187.411 171.146 185.899 162.746C182.458 143.786 177.711 136.586 181.819 131.28C183.787 128.719 187.159 127.572 191.059 127.229Z" fill="white"/>
<path d="M191.645 207.686C190.707 207.686 189.771 207.587 188.854 207.391C186.484 206.873 184.293 205.738 182.503 204.101L182.374 203.983L182.446 203.822C185.025 198.181 186.691 192.165 187.38 186C188.34 177.576 187.14 171.05 185.662 162.79C184.481 156.283 183.144 151.15 182.062 147.026C179.993 139.08 178.853 134.705 181.62 131.134C183.435 128.77 186.6 127.373 191.03 126.982H191.17L191.249 127.094C195.506 133.205 198.853 139.901 201.187 146.974C206.074 161.82 205.104 174.41 204.638 180.461C203.992 188.925 202.254 197.27 199.466 205.289L199.438 205.368L199.368 205.414C197.053 206.87 194.38 207.657 191.645 207.686ZM182.957 203.861C184.66 205.38 186.727 206.434 188.957 206.921C193.702 207.936 197.549 205.987 199.051 205.049C201.807 197.093 203.527 188.815 204.168 180.42C204.631 174.398 205.594 161.873 200.738 147.118C198.433 140.134 195.134 133.52 190.942 127.478C186.725 127.874 183.718 129.204 182.007 131.434C179.383 134.82 180.502 139.114 182.535 146.911C183.612 151.044 184.951 156.187 186.135 162.71C187.632 171.012 188.813 177.566 187.858 186.06C187.169 192.214 185.515 198.221 182.957 203.861Z" fill="#0E0E0E"/>
<path opacity="0.16" d="M192.686 137.709C194.44 146.275 195.537 154.962 195.967 163.694C196.669 178.292 195.513 192.92 192.525 207.226C190.405 207.499 188.25 207.14 186.333 206.194C185.08 205.555 183.965 204.674 183.055 203.602C185.294 198.514 186.751 193.117 187.375 187.594C188.018 181.651 187.49 176.882 186.503 167.983C185.93 162.778 185.265 158.51 184.783 155.599C187.411 149.659 190.048 143.671 192.686 137.709Z" fill="#6E6C6C"/>
<path opacity="0.22" d="M187.663 149.131C190.951 157.715 192.302 166.919 191.62 176.085C190.939 185.251 188.241 194.154 183.72 202.157C188.215 189.175 188.443 181.217 187.757 176.285C187.572 175.025 186.797 170.023 185.899 162.663C185.532 159.612 185.256 157.111 185.095 155.506C185.966 153.375 186.816 151.241 187.663 149.131Z" fill="#6E6C6C"/>
<path d="M151.92 196.193C150.017 197.134 149.443 198.67 146.83 203.647C145.087 206.95 143.619 209.587 142.656 211.284C146.798 214.285 151.488 216.443 156.461 217.637C160.131 218.508 167.77 219.725 168.641 217.637C169.601 215.321 161.76 209.976 158.458 207.821C161.852 204.518 162.012 199.726 159.718 197.261C157.757 195.185 154.224 195.046 151.92 196.193Z" fill="#0E0E0E"/>
<path d="M185.165 126.746C192.732 133.421 183.881 155.666 176.609 173.465C172.155 184.363 167.055 194.984 161.335 205.274C158.208 205.716 155.021 205.144 152.243 203.642C149.465 202.139 147.242 199.786 145.9 196.927C148.593 192.249 150.961 187.39 152.985 182.386C153.945 180.024 158.1 169.474 160.44 154.567C161.62 146.988 162.165 139.324 162.069 131.654C163.423 130.279 170.969 122.87 179.889 124.567C181.243 124.819 183.468 125.256 185.165 126.746Z" fill="white"/>
<path d="M159.288 205.661C156.435 205.666 153.639 204.857 151.229 203.331C148.819 201.804 146.894 199.622 145.68 197.04L145.627 196.927L145.689 196.819C148.378 192.151 150.741 187.303 152.762 182.309C153.938 179.429 157.946 168.905 160.202 154.541C161.378 146.975 161.922 139.325 161.829 131.669V131.568L161.899 131.498C163.958 129.406 171.336 122.707 179.937 124.344C181.197 124.584 183.537 125.016 185.325 126.578C193.195 133.517 183.739 156.665 176.834 173.568C172.379 184.473 167.273 195.1 161.544 205.392L161.486 205.495L161.369 205.512C160.68 205.611 159.984 205.661 159.288 205.661ZM146.16 196.937C147.486 199.701 149.653 201.974 152.35 203.432C155.046 204.89 158.135 205.458 161.174 205.054C166.87 194.807 171.947 184.228 176.378 173.374C180.365 163.615 184.116 154.174 186.218 145.874C188.702 136.034 188.306 129.835 185.018 126.926C183.338 125.453 181.075 125.03 179.858 124.802C171.585 123.23 164.431 129.626 162.321 131.762C162.41 139.412 161.864 147.056 160.689 154.615C158.489 168.636 154.733 178.779 153.221 182.489C151.201 187.461 148.842 192.289 146.16 196.937Z" fill="#0E0E0E"/>
<path d="M187.618 135.919C187.597 136.723 187.573 137.525 187.573 138.319H188.261C188.146 137.062 188.216 135.795 188.468 134.558C188.228 134.534 188.009 134.489 187.803 134.465C187.94 137.172 187.323 140.016 186.843 142.675C186.356 145.359 185.729 148.015 184.964 150.633C185.204 150.703 185.398 150.749 185.629 150.818C186.891 146.047 187.945 141.254 188.816 136.392C188.885 135.955 188.221 135.773 188.151 136.21C187.279 141.048 186.217 145.856 184.964 150.633C184.945 150.72 184.96 150.81 185.006 150.885C185.051 150.961 185.124 151.016 185.209 151.039C185.294 151.063 185.385 151.053 185.463 151.012C185.541 150.971 185.6 150.902 185.629 150.818C186.427 148.055 187.077 145.251 187.577 142.418C188.036 139.85 188.633 137.076 188.497 134.46C188.473 134.093 187.899 133.98 187.829 134.369C187.555 135.665 187.475 136.995 187.589 138.314C187.635 138.749 188.278 138.773 188.278 138.314C188.3 137.51 188.324 136.709 188.324 135.914C188.324 135.48 187.635 135.48 187.604 135.914L187.618 135.919Z" fill="white"/>
<path d="M184.706 149.198C184.728 150.965 184.773 152.731 184.797 154.498C184.805 154.584 184.844 154.664 184.908 154.723C184.972 154.782 185.055 154.814 185.142 154.814C185.229 154.814 185.312 154.782 185.376 154.723C185.44 154.664 185.479 154.584 185.486 154.498C185.462 152.731 185.417 150.965 185.393 149.198C185.371 148.74 184.673 148.74 184.706 149.198Z" fill="white"/>
<path opacity="0.19" d="M175.164 133.879C175.255 139.977 174.741 146.069 173.628 152.066C172.188 159.794 169.982 165.782 166.771 174.794C164.155 182.179 162.895 184.394 160.234 192.568C158.606 197.546 157.459 201.72 156.725 204.518C154.375 204.205 152.144 203.296 150.245 201.878C148.453 200.544 147.002 198.803 146.014 196.8C149.414 190.852 152.292 184.621 154.615 178.176C159.866 163.567 161.095 150.859 161.815 143.04C162.113 139.783 162.274 137.076 162.341 135.309C166.61 134.82 170.899 134.361 175.164 133.879Z" fill="#6E6C6C"/>
<path opacity="0.24" d="M172.8 134.544C171.393 140.793 169.561 146.938 167.318 152.938C165.988 156.516 163.958 161.338 159.878 170.937C158.388 174.492 157.629 176.258 157.262 177.06C155.04 182.112 151.44 189.197 145.68 197.546C156.269 178.653 161.925 157.395 162.124 135.737C162.091 135.713 162.091 135.713 172.8 134.544Z" fill="#6E6C6C"/>
<path d="M184.946 76.0585C186.708 70.1305 191.611 71.4481 191.611 71.4481C195.244 72.0553 208.684 82.4353 216.312 90.1225C219.415 83.1937 225.432 73.4473 229.337 68.5225C232.968 62.7073 241.817 61.0561 242.693 60.9793C244.968 60.7801 246.026 60.5449 246.204 60.8497C246.381 61.1545 246.938 63.1801 243.636 63.5761C239.491 64.0729 242.244 67.3873 250.651 64.2337C252.756 63.4441 256.087 63.4537 255.739 65.9137C255.381 68.4505 251.705 73.2121 239.431 72.1297C237.396 71.9497 234.744 71.3017 233.784 72.8689C230.904 78.2209 225.537 99.4585 219.624 101.971C215.743 103.615 189.511 85.0969 189.511 85.0969C189.511 85.0969 183.374 81.3601 184.946 76.0585Z" fill="white"/>
<path d="M219.053 102.305C213.533 102.305 190.395 86.0184 189.368 85.2936C189.32 85.2648 183.111 81.396 184.716 75.9912C186.524 69.9096 191.621 71.2032 191.676 71.2176C195.389 71.8344 208.769 82.2432 216.238 89.6976C219.476 82.584 225.471 73.0032 229.136 68.3808C233.021 62.1576 242.576 60.7344 242.674 60.7248C243.291 60.672 243.819 60.6144 244.263 60.5664C245.676 60.4152 246.207 60.3576 246.423 60.7128C246.545 60.9696 246.608 61.2504 246.608 61.5348C246.608 61.819 246.545 62.0998 246.423 62.3568C246.032 63.144 245.112 63.6288 243.687 63.7968C242.643 63.9216 242.091 64.236 242.007 64.4904C242.007 64.524 241.961 64.6248 242.117 64.776C242.808 65.4432 245.717 65.82 250.592 63.9912C252.156 63.4056 254.297 63.2592 255.363 64.1136C255.891 64.536 256.112 65.1672 256.001 65.94C255.91 66.588 255.365 68.8392 252.195 70.5816C249.171 72.2424 244.877 72.8424 239.434 72.3624C239.096 72.3312 238.75 72.2904 238.385 72.2472C236.59 72.0312 234.735 71.808 234.012 72.9888C233.148 74.5944 232.042 77.7 230.758 81.2976C227.724 89.8056 223.947 100.397 219.737 102.178C219.52 102.266 219.287 102.309 219.053 102.305ZM184.947 76.0584L185.187 76.128C183.684 81.168 189.581 84.8568 189.641 84.8928C196.92 90.0312 216.454 103.058 219.536 101.75C223.551 100.046 227.456 89.1216 230.292 81.1464C231.581 77.5296 232.692 74.4072 233.583 72.7584C234.471 71.304 236.573 71.5584 238.428 71.7792C238.788 71.8224 239.132 71.8632 239.46 71.892C251.34 72.9408 255.154 68.4192 255.512 65.892C255.598 65.2872 255.442 64.8216 255.048 64.5072C254.131 63.7728 252.147 63.9336 250.745 64.4592C245.631 66.3792 242.585 65.9184 241.769 65.1408C241.656 65.0484 241.572 64.9246 241.529 64.7849C241.486 64.645 241.486 64.4957 241.529 64.356C241.7 63.8496 242.458 63.4776 243.608 63.3408C244.844 63.192 245.662 62.784 245.969 62.16C246.06 61.974 246.111 61.7705 246.116 61.5634C246.12 61.3563 246.082 61.1503 246 60.96C245.883 60.8808 245.122 60.96 244.32 61.0488C243.874 61.0968 243.343 61.1544 242.724 61.2072C242.633 61.2072 233.393 62.5896 229.594 68.5704V68.5848L229.534 68.6664C225.833 73.3248 219.728 83.0976 216.538 90.2184L216.396 90.5376L216.156 90.2976C208.095 82.1712 195.005 72.2592 191.585 71.6904C191.372 71.6352 186.862 70.5072 185.192 76.1328L184.947 76.0584Z" fill="#0E0E0E"/>
<g opacity="0.31">
<path opacity="0.31" d="M243.636 63.5687C243.348 63.6014 243.065 63.6575 242.786 63.7367C242.623 63.2567 243.266 62.7767 244.721 62.6951C245.172 62.6757 245.621 62.6008 246.055 62.4719C245.712 62.9591 245.006 63.4031 243.636 63.5687Z" fill="#404040"/>
<path opacity="0.31" d="M184.946 76.0583C185.032 75.7703 185.126 75.5039 185.227 75.2495C186.148 78.4991 189.331 80.7383 189.331 80.7383C189.331 80.7383 214.334 100.898 218.311 99.4918C224.378 97.363 231.084 76.5095 234.297 71.3519C235.353 69.8471 237.952 70.7207 239.978 70.9727C245.897 71.6927 250.003 71.2439 252.669 70.0127C250.089 71.5511 245.613 72.3431 239.431 72.1295C237.389 72.0599 234.744 71.3015 233.784 72.8687C230.904 78.2207 225.537 99.4582 219.624 101.971C215.743 103.615 189.511 85.0967 189.511 85.0967C189.511 85.0967 183.374 81.3599 184.946 76.0583Z" fill="#404040"/>
</g>
<path d="M175.298 51.36C174.567 51.1664 173.794 51.1971 173.081 51.4488C172.855 51.54 171.202 52.152 170.976 53.7576C170.772 55.0704 171.655 56.2464 172.605 56.7456C172.938 56.911 173.299 57.0104 173.669 57.0384C173.884 57.7954 174.045 58.567 174.149 59.3472C174.374 61.0273 174.127 61.0897 174.329 62.0401C174.849 64.2577 176.661 65.6401 176.729 65.6833C177.497 66.2497 177.77 66.1633 178.063 66.6433C178.562 67.4137 178.358 68.4097 178.063 69.9025C177.94 70.5229 177.78 71.1353 177.583 71.7361C178.224 72.5235 179.094 73.093 180.072 73.3657C181.055 73.6287 182.094 73.597 183.06 73.2745C183.444 71.7121 183.83 70.1281 184.214 68.5681C185.396 68.3305 186.534 67.9102 187.586 67.3225C188.399 66.8871 189.145 66.3385 189.804 65.6929C190.37 65.1289 191.162 64.1329 192.021 61.5529C192.853 59.1406 193.303 56.6134 193.356 54.0624C193.401 52.2744 193.197 51.3912 193.469 49.332C193.605 48.264 193.809 47.2059 194.081 46.164C194.294 45.7364 194.342 45.2448 194.215 44.784C193.764 43.3128 191.184 42.9048 189.655 42.6576C188.659 42.5069 187.652 42.4457 186.645 42.4752C184.965 42.4752 184.135 42.4752 183.319 42.7008C181.497 43.2 180.276 44.4 179.52 45.12C178.615 46.0032 178.8 46.116 177.71 47.1576C176.69 48.1176 176.148 48.3792 175.718 49.1952C175.389 49.8668 175.244 50.6141 175.298 51.36Z" fill="white"/>
<path d="M174.891 57.0816C174.915 57.905 174.885 58.7294 174.799 59.5488C174.692 60.6017 174.504 61.6449 174.235 62.6688C173.723 63.2904 173.063 63.7733 172.315 64.0728C170.28 64.8408 168.425 63.8472 168.13 63.6648C168.005 62.3129 167.809 60.9686 167.542 59.6376C166.795 55.9032 165.821 53.844 165.483 52.5528C164.825 50.1096 165.279 46.2624 170.415 40.152C168.943 40.1088 168.605 39.8808 168.538 39.6552C168.355 38.9544 171.139 37.5744 173.357 36.804C176.321 35.7624 178.697 35.6736 178.675 35.3328C178.654 34.992 176.035 34.9704 176.004 34.6536C175.983 34.2912 178.968 33.432 182.206 33.6576C185.219 33.9391 188.091 35.0692 190.488 36.9168C191.688 37.8456 193.791 39.5184 194.719 42.3264C195.012 43.2072 195.715 45.336 194.628 46.6704C194.391 46.9629 194.089 47.1955 193.745 47.3496C193.824 46.6404 193.69 45.9235 193.361 45.2904C192.773 44.2728 191.777 43.8648 190.805 43.524C189.447 43.0493 188.008 42.8496 186.571 42.936C185.283 42.9816 182.971 43.0728 180.756 44.52C180.622 44.6112 180.78 44.4984 178.2 46.8744C176.434 48.504 175.642 49.2048 175.642 50.2344C175.642 50.7792 175.882 51.1944 175.642 51.4128C175.303 51.7512 174.603 51.1392 173.674 51.2088C172.519 51.2976 171.118 52.4088 171.003 53.8776C170.89 55.5072 172.519 56.5176 172.683 56.64C173.352 57.0213 174.126 57.1761 174.891 57.0816Z" fill="#161616"/>
<path opacity="0.12" d="M182.4 43.572C181.663 44.8167 181.027 46.1184 180.499 47.4648C179.592 49.728 178.144 53.304 178.324 57.852C178.528 62.5128 180.362 66.0888 181.608 68.0808L180.05 73.44C178.716 73.1688 178.195 72.672 177.969 72.2184C177.607 71.5176 177.945 70.8384 178.058 69.3672C178.128 68.4691 178.099 67.5658 177.969 66.6744C176.866 65.7219 175.879 64.6433 175.027 63.4608C174.71 63.0096 174.415 62.58 174.165 62.172C174.027 62.6002 173.787 62.9883 173.464 63.3024C172.764 64.0224 171.881 64.164 171.305 64.2624C170.214 64.4256 169.1 64.2768 168.091 63.8328C168 62.7912 167.865 61.6608 167.661 60.4608C167.349 58.7285 166.917 57.0197 166.37 55.3464C166.516 55.8696 166.814 56.3381 167.226 56.6921C167.639 57.0461 168.146 57.2703 168.686 57.3355C169.225 57.4011 169.772 57.3053 170.257 57.06C170.742 56.815 171.143 56.4315 171.41 55.9584C171.002 55.3433 170.829 54.6012 170.925 53.869C171.021 53.1367 171.378 52.4638 171.931 51.9744C172.402 51.6024 172.975 51.3807 173.574 51.3377C174.173 51.295 174.771 51.4332 175.291 51.7344C175.301 51.1231 175.382 50.5152 175.531 49.9224C176.724 45.7008 181.44 43.92 182.4 43.572Z" fill="#606060"/>
<path d="M193.176 47.148C193.258 50.478 193.114 53.8097 192.746 57.12C192.36 60.1536 191.479 63.252 189.328 65.52C188.266 66.6298 186.916 67.4225 185.43 67.8103C183.943 68.1979 182.378 68.1653 180.909 67.716C178.082 66.9 175.908 64.7064 174.64 62.1024C174.46 61.7184 173.872 62.0592 174.052 62.4432C176.678 67.8288 183.652 70.9752 188.808 66.9C191.296 64.932 192.564 61.9008 193.152 58.8456C193.872 55.02 193.922 51.0384 193.855 47.1672C193.86 47.1207 193.855 47.0734 193.841 47.0285C193.828 46.9836 193.804 46.9421 193.774 46.9066C193.743 46.8711 193.705 46.8425 193.662 46.8224C193.62 46.8022 193.574 46.7909 193.527 46.7895C193.48 46.788 193.433 46.7962 193.39 46.8137C193.346 46.831 193.306 46.8574 193.274 46.8908C193.24 46.9241 193.215 46.9642 193.198 47.0081C193.181 47.0518 193.174 47.0988 193.176 47.1456V47.148Z" fill="#0E0E0E"/>
<path d="M187.79 48.2111C187.994 49.8911 188.27 51.5375 188.604 53.1911C188.786 53.9831 189.237 55.0679 189.124 55.8839C189.012 56.8775 187.857 57.4895 186.964 57.8039C186.556 57.9623 186.724 58.6175 187.144 58.4591C188.277 58.0535 190.024 57.1031 189.883 55.6775C189.77 54.5687 189.34 53.4359 189.136 52.3511C188.865 50.9687 188.64 49.5887 188.481 48.1871C188.436 47.7791 187.761 47.7791 187.802 48.2087L187.79 48.2111Z" fill="#0E0E0E"/>
<path d="M184.735 49.9776C184.661 50.718 184.486 51.445 184.214 52.1376C184.056 52.5432 184.711 52.7256 184.869 52.3176C185.152 51.5604 185.335 50.7698 185.414 49.9656C185.457 49.5336 184.78 49.5336 184.735 49.9656V49.9776Z" fill="#0E0E0E"/>
<path d="M184.577 49.7735C184.269 50.606 184.116 51.4876 184.123 52.3751C184.131 52.4603 184.169 52.5397 184.232 52.5976C184.295 52.6552 184.377 52.6873 184.463 52.6873C184.548 52.6873 184.631 52.6552 184.694 52.5976C184.756 52.5397 184.795 52.4603 184.802 52.3751C184.799 51.5488 184.944 50.7282 185.232 49.9535C185.39 49.5239 184.735 49.3655 184.577 49.7735Z" fill="#0E0E0E"/>
<path d="M182.585 47.8945C183.048 47.4553 183.662 47.2088 184.3 47.2047C184.939 47.2009 185.555 47.4397 186.024 47.8729C186.341 48.1657 186.816 47.6905 186.504 47.3929C185.904 46.8344 185.114 46.5257 184.294 46.5298C183.474 46.5339 182.687 46.8502 182.093 47.4145C181.798 47.7097 182.273 48.1849 182.59 47.8945H182.585Z" fill="#0E0E0E"/>
<path d="M189.917 47.8031C190.687 47.2151 191.837 47.5631 192.271 48.3935C192.473 48.7775 193.063 48.4367 192.859 48.0527C192.226 46.7855 190.529 46.4928 189.442 47.3327C189.079 47.5727 189.578 48.0527 189.922 47.8127L189.917 47.8031Z" fill="#0E0E0E"/>
<path d="M184.32 61.9513C184.584 61.6066 184.922 61.3244 185.308 61.1249C185.694 60.9257 186.12 60.8139 186.554 60.7978C186.989 60.782 187.421 60.8619 187.821 61.0323C188.221 61.2025 188.578 61.459 188.868 61.7833C189.158 62.112 189.71 61.7137 189.42 61.3873C187.845 59.6785 185.296 59.7073 183.804 61.5385C183.513 61.8625 184.058 62.2896 184.32 61.9513Z" fill="#0E0E0E"/>
<path d="M175.615 51.5615C174.031 49.5024 170.998 51.6047 170.592 53.5967C170.071 56.1311 172.651 58.1903 174.982 56.9687C175.366 56.7647 175.027 56.1767 174.641 56.3807C172.697 57.3983 170.751 55.4759 171.339 53.4623C171.747 52.0367 173.964 50.52 175.14 52.0367C175.411 52.3751 175.887 51.8999 175.62 51.5567L175.615 51.5615Z" fill="#0E0E0E"/>
<path d="M191.388 50.5417C191.317 51.2871 191.141 52.0189 190.867 52.7161C190.709 53.1217 191.364 53.3041 191.522 52.8961C191.805 52.1379 191.988 51.3466 192.067 50.5417C192.113 50.1121 191.434 50.1121 191.388 50.5417Z" fill="#0E0E0E"/>
<path d="M191.229 50.3159C190.922 51.1485 190.768 52.03 190.776 52.9176C190.783 53.0025 190.822 53.082 190.884 53.1398C190.948 53.1976 191.03 53.2298 191.115 53.2298C191.2 53.2298 191.283 53.1976 191.346 53.1398C191.409 53.082 191.448 53.0025 191.455 52.9176C191.451 52.091 191.596 51.2707 191.884 50.4959C192.021 50.0903 191.363 49.9079 191.229 50.3159Z" fill="#0E0E0E"/>
<path d="M184.531 68.1599C183.962 69.3596 183.558 70.6314 183.331 71.9399C183.264 72.3695 183.919 72.5495 183.989 72.1199C184.192 70.8652 184.573 69.646 185.119 68.4983C185.299 68.1143 184.711 67.7783 184.531 68.1599Z" fill="#0E0E0E"/>
<path d="M178.012 67.1519C178.024 68.079 177.933 69.0047 177.741 69.9119C177.628 70.4327 177.311 71.0207 177.424 71.5655C177.607 72.4487 178.67 73.1711 179.438 73.4855C180.863 74.0975 183.784 74.0303 183.998 72.0143C184.041 71.5847 183.364 71.5847 183.319 72.0143C183.228 72.9215 181.802 73.1687 181.101 73.1471C180.224 73.1308 179.381 72.8013 178.725 72.2183C177.842 71.4047 178.363 70.4543 178.543 69.4583C178.672 68.6884 178.733 67.9084 178.725 67.1279C178.68 66.6983 178.005 66.6983 178.022 67.1495L178.012 67.1519Z" fill="#0E0E0E"/>
<path d="M179.76 67.9679C181.094 68.7683 182.533 69.3774 184.037 69.7775C184.124 69.8017 184.217 69.7902 184.296 69.7458C184.375 69.7012 184.433 69.6273 184.457 69.5399C184.481 69.4528 184.47 69.3594 184.425 69.2807C184.38 69.202 184.306 69.1442 184.219 69.1199C182.77 68.7388 181.383 68.152 180.101 67.3775C179.738 67.1519 179.4 67.7399 179.76 67.9679Z" fill="#0E0E0E"/>
<path d="M182.676 68.94C183.189 69.1167 183.72 69.2381 184.26 69.3024C184.689 69.3696 184.869 68.7144 184.44 68.6448C183.902 68.5706 183.372 68.4504 182.856 68.2848C182.426 68.148 182.246 68.8032 182.676 68.94Z" fill="#0E0E0E"/>
<path d="M184.191 55.1064C186.091 55.1064 187.632 53.5653 187.632 51.6648C187.632 49.764 186.091 48.2231 184.191 48.2231C182.29 48.2231 180.749 49.764 180.749 51.6648C180.749 53.5653 182.29 55.1064 184.191 55.1064Z" fill="#0E0E0E"/>
<path d="M192.41 55.1136C193.957 55.1136 195.211 53.7435 195.211 52.0536C195.211 50.3636 193.957 48.9937 192.41 48.9937C190.863 48.9937 189.609 50.3636 189.609 52.0536C189.609 53.7435 190.863 55.1136 192.41 55.1136Z" fill="#0E0E0E"/>
<path d="M190.526 52.3199C190.452 52.2479 188.673 50.5823 186.821 51.9671L186.389 51.3911C188.268 49.9871 190.243 51.0455 191.028 51.8015L190.526 52.3199L190.766 52.0607L190.526 52.3199Z" fill="#0E0E0E"/>
<path d="M181.8 51.8544C181.766 51.8352 178.538 49.8144 172.68 51.0672L172.531 50.364C178.716 49.0416 182.064 51.1608 182.203 51.2496L181.81 51.8544L182.006 51.552L181.8 51.8544Z" fill="#0E0E0E"/>
<path d="M163.274 107.913C163.007 102.372 163.077 96.4679 162.988 92.5199L156.479 90.0167C156.479 88.0151 158.339 81.3047 160.499 78.0167C165.763 70.0151 177.359 70.7543 177.359 70.7543C180.357 72.9023 180.914 73.7879 183.611 71.2703C185.46 70.8018 187.387 70.7308 189.266 71.0615C191.45 71.4455 194.33 71.9927 195.935 72.4727C195.935 72.4727 202.569 75.3743 207.52 79.0871L201.242 94.9007L198.122 93.4007L197.575 115.788C197.575 115.788 197.606 131.366 198.443 133.147C177.887 141.048 159.964 135.209 159.964 135.209C160.015 132.996 159.77 126.926 161.884 119.693C162.997 115.87 163.467 111.89 163.274 107.913Z" fill="#474747"/>
<path d="M175.882 137.503C166.414 137.503 160.001 135.473 159.893 135.437L159.723 135.382V135.204C159.723 134.942 159.723 134.626 159.723 134.261C159.737 131.59 159.771 126.031 161.643 119.621C162.75 115.825 163.216 111.871 163.023 107.921C162.847 104.258 162.819 100.481 162.783 97.1208C162.771 95.5056 162.759 93.9792 162.73 92.6736L156.24 90.1824V90.0168C156.24 88.0056 158.079 81.264 160.301 77.8848C165.581 69.8592 177.259 70.5072 177.377 70.5144H177.447L177.502 70.5552C177.79 70.7616 178.056 70.956 178.303 71.1384C180.61 72.8184 181.159 73.2312 183.449 71.0904L183.495 71.0496L183.555 71.0352C185.437 70.5531 187.401 70.4794 189.315 70.8192C191.475 71.1984 194.388 71.7528 196.013 72.2376H196.039C196.107 72.2664 202.759 75.1944 207.672 78.8808L207.819 78.9912L201.379 95.2152L198.358 93.7632L197.82 115.778C197.82 121.142 198.022 131.659 198.667 133.03L198.778 133.27L198.538 133.363C191.304 136.122 183.624 137.525 175.882 137.503ZM160.21 135.034C162.079 135.59 179.047 140.261 198.142 133.006C197.376 130.39 197.34 116.405 197.34 115.788L197.895 93.0216L201.12 94.5744L207.235 79.1688C202.486 75.6456 196.195 72.8448 195.857 72.6888C194.254 72.2088 191.371 71.664 189.231 71.2872C187.405 70.9652 185.533 71.0307 183.735 71.4792C181.188 73.8408 180.319 73.2048 178.023 71.52L177.283 70.98C176.323 70.9392 165.619 70.6608 160.704 78.1392C158.623 81.3048 156.821 87.7392 156.727 89.844L163.224 92.3448V92.5056C163.255 93.8496 163.267 95.4384 163.279 97.1208C163.306 100.459 163.335 104.239 163.519 107.894C163.715 111.897 163.242 115.904 162.12 119.75C160.267 126.094 160.236 131.604 160.222 134.254C160.215 134.551 160.215 134.808 160.21 135.034Z" fill="#0E0E0E"/>
<path opacity="0.16" d="M201.223 94.7353L207.501 78.9217C205.419 77.3989 203.232 76.0249 200.956 74.8105C197.681 73.0335 194.144 71.787 190.478 71.1169C190.053 71.0377 189.638 70.9633 189.247 70.8961C187.368 70.5653 185.44 70.6364 183.59 71.1049C180.895 73.6225 180.338 72.7345 177.338 70.5889C177.338 70.5889 165.338 71.6353 160.502 77.6305C165.372 76.0681 175.696 72.4993 187.92 77.1169L187.953 77.1313C191.193 78.5674 193.751 81.2024 195.091 84.4834C196.431 87.7647 196.448 91.437 195.139 94.7305C193.867 97.9295 192.926 101.25 192.331 104.64L191.188 111.142C189.883 118.516 189.446 126.017 189.885 133.493C189.928 134.235 189.979 134.933 190.036 135.523C192.889 134.874 195.691 134.021 198.422 132.97C197.584 131.191 197.553 115.613 197.553 115.613L198.1 93.2233L201.223 94.7353Z" fill="black"/>
<path d="M227.909 219.948L229.349 219.082L186.836 120.485L185.396 121.354L227.909 219.948Z" fill="black"/>
<path d="M191.354 129.866L189.18 131.347L184.538 120.816L186.712 119.335L191.354 129.866Z" fill="black"/>
<path d="M168.442 89.8155C168.248 92.5995 166.685 93.5139 163.882 99.7107C162.846 102.013 161.932 104.368 161.146 106.767C163.642 110.847 166.232 113.345 168.183 114.874C169.224 115.697 170.823 116.777 173.988 118.937C175.872 120.212 177.447 121.268 178.522 121.978C179.763 121.179 181.1 120.54 182.501 120.077C183.221 119.861 186.406 118.824 186.876 119.66C187.308 120.36 185.626 122.074 184.855 122.796C186.024 123.077 186.792 122.897 187.291 122.698C188.043 122.367 188.388 121.865 188.995 121.93C189.54 121.995 189.929 122.492 190.176 122.904C190.469 123 190.734 123.165 190.95 123.384C191.165 123.604 191.325 123.872 191.415 124.167C191.489 124.439 191.503 124.723 191.457 125.001C191.41 125.279 191.304 125.544 191.146 125.777C191.412 125.936 191.628 126.167 191.768 126.443C191.908 126.72 191.966 127.031 191.935 127.34C191.905 127.545 191.831 127.742 191.718 127.917C191.605 128.091 191.455 128.24 191.28 128.352C190.433 130.808 188.983 131.568 188.547 131.768C185.304 133.248 181.445 129.915 180.701 129.286C180.54 129.149 180.389 129.008 180.243 128.868C178.507 127.186 176.258 126.133 173.854 125.876C171.255 125.603 168.711 124.948 166.304 123.932C163.184 122.604 156.437 119.067 152.655 111.26C150.324 106.176 153.711 94.2627 155.201 89.9379C156.574 85.9923 158.264 79.1379 162.048 78.8739C166.112 78.5907 168.828 84.6027 168.442 89.8155Z" fill="white"/>
<path d="M186.756 132.386C184.942 132.386 182.846 131.414 180.588 129.506L180.547 129.475C180.386 129.336 180.23 129.192 180.079 129.046C178.382 127.405 176.186 126.375 173.839 126.12C171.217 125.844 168.65 125.182 166.222 124.157C162.66 122.645 156.142 118.97 152.45 111.367C149.698 105.367 154.769 90.4872 154.987 89.8632C155.165 89.352 155.347 88.7928 155.539 88.2024C156.826 84.2688 158.59 78.8832 162.043 78.6408C163.342 78.5496 164.594 79.0704 165.67 80.1504C167.719 82.2072 168.962 86.1912 168.691 89.8368C168.574 91.4952 167.971 92.5344 166.985 94.2576C165.927 96.0578 164.965 97.9133 164.105 99.816C163.085 102.075 162.186 104.386 161.41 106.74C163.406 109.982 165.73 112.656 168.334 114.689C169.368 115.51 170.957 116.59 174.125 118.742C175.805 119.88 177.358 120.924 178.529 121.697C179.748 120.925 181.058 120.306 182.429 119.854L182.573 119.81C185.323 118.966 186.715 118.884 187.087 119.546C187.524 120.252 186.461 121.567 185.357 122.666C185.978 122.776 186.616 122.716 187.205 122.491C187.436 122.383 187.657 122.256 187.867 122.112C188.22 121.872 188.554 121.658 189.022 121.706C189.49 121.754 189.946 122.098 190.337 122.719C190.648 122.836 190.928 123.022 191.156 123.264C191.383 123.507 191.551 123.798 191.647 124.116C191.726 124.382 191.75 124.661 191.719 124.937C191.687 125.213 191.601 125.48 191.465 125.722C191.717 125.914 191.916 126.169 192.042 126.46C192.168 126.752 192.217 127.071 192.185 127.387C192.152 127.613 192.074 127.831 191.955 128.026C191.837 128.222 191.681 128.392 191.496 128.527C190.69 130.798 189.377 131.678 188.662 132.002C188.062 132.268 187.412 132.399 186.756 132.386ZM162.331 79.1064C162.242 79.1064 162.156 79.1064 162.067 79.1064C158.947 79.3272 157.231 84.5352 155.988 88.3392C155.794 88.932 155.609 89.4936 155.431 90.0192C153.478 95.6808 150.742 106.507 152.875 111.161C156.49 118.618 162.9 122.227 166.399 123.713C168.785 124.717 171.306 125.364 173.88 125.633C176.337 125.898 178.636 126.974 180.413 128.69C180.559 128.831 180.707 128.968 180.859 129.101L180.898 129.132C183.799 131.585 186.48 132.441 188.448 131.532C189.103 131.234 190.31 130.416 191.057 128.256L191.088 128.167L191.172 128.122C191.312 128.026 191.43 127.903 191.52 127.76C191.61 127.616 191.67 127.456 191.695 127.289C191.72 127.027 191.669 126.763 191.549 126.528C191.429 126.294 191.245 126.098 191.018 125.964L190.822 125.846L190.932 125.645L190.958 125.602C191.095 125.402 191.185 125.174 191.224 124.935C191.263 124.697 191.25 124.452 191.184 124.219C191.106 123.971 190.972 123.744 190.794 123.555C190.615 123.365 190.395 123.219 190.152 123.127H190.042L189.97 123.007C189.65 122.479 189.312 122.189 188.964 122.148C188.671 122.117 188.443 122.268 188.126 122.477C187.892 122.637 187.645 122.777 187.387 122.897C186.558 123.209 185.651 123.248 184.798 123.01L184.366 122.906L184.69 122.602C186.31 121.078 186.85 120.062 186.67 119.767C186.559 119.573 185.964 119.244 182.71 120.247L182.568 120.29C181.188 120.747 179.871 121.376 178.649 122.162L178.517 122.246L178.387 122.16C177.204 121.378 175.594 120.298 173.851 119.119C170.674 116.959 169.078 115.874 168.031 115.039C165.365 112.951 162.977 110.203 160.939 106.879L160.882 106.786L160.915 106.68C161.703 104.273 162.619 101.909 163.661 99.6C164.527 97.6884 165.495 95.8241 166.56 94.0152C167.549 92.2944 168.094 91.3464 168.204 89.7984C168.463 86.2824 167.278 82.452 165.324 80.4864C164.4 79.5672 163.404 79.104 162.331 79.104V79.1064Z" fill="#161616"/>
<path d="M190.268 122.472C190.157 122.083 189.528 122.232 189.651 122.635C190.167 124.344 187.251 125.136 186.113 125.071C185.707 125.028 185.695 125.674 186.087 125.69C187.656 125.76 190.887 124.632 190.268 122.472Z" fill="#161616"/>
<path d="M191.609 125.76C191.779 125.414 191.242 125.059 191.059 125.443C190.222 127.063 188.009 127.651 186.281 127.762C185.878 127.783 185.851 128.402 186.254 128.383C188.21 128.28 190.675 127.622 191.609 125.76Z" fill="#161616"/>
<path d="M191.64 128.546C191.88 128.201 191.324 127.884 191.091 128.23C190.597 128.903 189.93 129.431 189.16 129.757C188.391 130.083 187.548 130.194 186.72 130.08C186.3 130.013 186.288 130.656 186.694 130.699C187.638 130.82 188.598 130.683 189.471 130.302C190.344 129.922 191.098 129.313 191.652 128.539L191.64 128.546Z" fill="#161616"/>
<path opacity="0.18" d="M159.614 80.0976C158.016 81.0576 158.054 82.2336 156.974 85.1375C155.453 89.1599 154.716 89.8607 154.094 93.5375C153.374 97.6439 151.62 100.932 151.997 104.021C150.91 112.498 155.568 115.925 157.054 117.537C159.761 120.492 163.115 122.781 166.853 124.224C170.251 125.467 173.923 125.837 175.176 125.973C175.656 126.033 176.122 126.172 176.556 126.386C177.363 126.763 178.083 127.304 178.67 127.973C180.298 129.773 182.411 131.065 184.754 131.693C185.148 131.774 188.755 132.686 189.924 131.145C190.207 130.773 190.114 130.536 190.613 129.602C191.378 128.148 192.199 127.461 192.096 127.325C191.993 127.188 190.963 128.205 189.559 128.765C187.128 129.725 184.646 128.827 184.01 128.587C181.91 127.789 180.172 126.254 179.122 124.267C174.968 123.951 170.93 122.747 167.28 120.739L167.206 120.701C162.975 118.413 159.637 114.77 157.729 110.355C155.82 105.941 155.452 101.014 156.684 96.3647C156.998 95.1911 157.306 94.1903 157.529 93.3767C159.763 85.1831 162.859 80.2752 161.465 78.84C160.699 78.0576 160.699 79.44 159.614 80.0976Z" fill="#6D6C6C"/>
<path opacity="0.18" d="M151.951 109.493C152.244 110.295 156.694 121.548 168.487 124.985C172.514 126.156 175.838 125.847 178.214 127.229C175.349 125.273 168.598 124.829 162.211 120.211C158.899 117.781 156.144 114.672 154.13 111.091C152.585 106.565 152.844 101.839 152.59 99.293C152.477 101.871 151.39 106.258 151.951 109.493Z" fill="#6D6C6C"/>
<path d="M167.779 72.4993C167.779 72.4993 160.503 73.5313 154.404 87.2977L166.98 95.2177C166.98 95.2177 178.575 75.2353 167.779 72.4993Z" fill="#474747"/>
<path d="M167.062 95.556L154.102 87.396L154.186 87.2064C160.27 73.476 167.446 72.312 167.748 72.2688H167.794L167.839 72.2808C169.867 72.7944 171.271 73.944 172.008 75.6936C174.747 82.2 167.498 94.8216 167.189 95.3568L167.062 95.556ZM154.706 87.204L166.894 94.884C167.854 93.1656 174.019 81.7008 171.562 75.864C170.892 74.2752 169.618 73.224 167.77 72.744C167.162 72.864 160.409 74.4696 154.706 87.204Z" fill="#0E0E0E"/>
<path d="M253.212 63.7223C253.195 63.7535 253.176 63.7799 253.157 63.8087L253.085 63.9095C253.085 63.9095 253.02 63.9935 253.085 63.9287L253.027 63.9983C252.79 64.2796 252.526 64.5355 252.235 64.7615C251.148 65.6111 249.802 66.0671 248.458 66.3047C248.076 66.3743 248.237 66.9527 248.616 66.8831C250.411 66.5663 252.351 65.8199 253.515 64.3439C253.599 64.2443 253.675 64.1375 253.74 64.0247C253.774 63.9568 253.779 63.8791 253.757 63.8071C253.735 63.7348 253.687 63.6736 253.623 63.6355C253.558 63.5973 253.479 63.5851 253.407 63.6011C253.332 63.6175 253.267 63.6607 253.224 63.7223H253.212Z" fill="#0E0E0E"/>
<path d="M246.461 68.4767C247.275 68.4856 248.086 68.4246 248.888 68.2943C250.481 68.0968 252.02 67.5818 253.412 66.7799C254.271 66.267 255.008 65.5734 255.572 64.7471C255.785 64.4231 255.267 64.1231 255.053 64.4423C253.4 66.9167 250.056 67.7159 247.258 67.8599C246.994 67.8743 246.73 67.8839 246.466 67.8767C246.387 67.8767 246.31 67.9082 246.255 67.9646C246.197 68.0207 246.166 68.097 246.166 68.1767C246.166 68.2562 246.197 68.3325 246.255 68.3889C246.31 68.4451 246.387 68.4767 246.466 68.4767H246.461Z" fill="#0E0E0E"/>
<path d="M250.407 69.5783C251.067 69.3926 251.715 69.1665 252.348 68.9015C253.479 68.4359 254.624 67.8767 255.519 67.0247C255.8 66.7583 255.375 66.3359 255.094 66.5999C254.249 67.4039 253.148 67.9343 252.077 68.3687C251.48 68.6138 250.87 68.8247 250.248 68.9999C250.174 69.023 250.112 69.0741 250.073 69.1422C250.037 69.2106 250.028 69.2908 250.047 69.3659C250.068 69.441 250.116 69.5054 250.184 69.545C250.251 69.5846 250.33 69.5966 250.407 69.5783Z" fill="#0E0E0E"/>
</svg>
