<svg width="168" height="31" viewBox="0 0 168 31" fill="none" xmlns="http://www.w3.org/2000/svg">
<path d="M166.742 28.472C166.039 28.472 165.484 29.0295 165.484 29.7278C165.484 30.4264 166.039 30.9828 166.742 30.9828C167.443 30.9828 168 30.4264 168 29.7278C168.001 29.5625 167.969 29.3986 167.906 29.2458C167.843 29.0929 167.75 28.9541 167.633 28.8372C167.516 28.7204 167.377 28.628 167.224 28.5653C167.071 28.5025 166.907 28.4708 166.742 28.4718V28.472ZM166.742 30.7907C166.166 30.7907 165.675 30.3204 165.675 29.7278C165.675 29.1344 166.166 28.6666 166.742 28.6666C167.316 28.6666 167.806 29.1344 167.806 29.7278C167.806 30.3202 167.316 30.7907 166.742 30.7907Z" fill="#0033A0"/>
<path d="M167.357 29.3951C167.357 29.0994 167.118 29.0321 166.868 29.0321H166.272V30.4057H166.464V29.7713H166.697L167.107 30.4057H167.338L166.925 29.7713C167.169 29.7642 167.357 29.6667 167.357 29.3953V29.3951ZM166.697 29.5803H166.464V29.2263H166.83C166.98 29.2263 167.165 29.2512 167.165 29.3917C167.165 29.6106 166.864 29.5805 166.697 29.5805V29.5803ZM158.684 31C158.937 30.3124 159.153 29.6119 159.332 28.9015C159.689 27.4176 159.87 25.8966 159.869 24.3703C159.869 23.4775 159.807 22.5943 159.688 21.725C159.6 22.9916 159.379 24.1016 159.379 24.1016C159.431 24.2689 159.523 24.5436 159.566 24.7131L159.566 24.7139C159.432 25.9988 159.188 27.2698 158.836 28.5129C158.67 27.8994 158.447 27.3088 158.432 27.2706L158.431 27.2686C157.983 28.4629 157.313 29.8691 156.705 31H158.684Z" fill="#0033A0"/>
<path d="M154.536 31H155.68C158.936 26.1902 159.1 21.9274 159.1 21.1107C159.1 19.5678 158.841 18.1502 158.407 17.0277C158.407 17.0277 157.732 15.2832 156.68 13.7308C156.794 14.0777 157.015 14.781 157.137 15.4091C157.145 15.451 157.152 15.488 157.157 15.5222C157.365 15.8678 158.3 17.516 158.425 19.3286L158.425 19.334C158.425 19.334 157.764 18.4089 157.275 17.8242C157.257 18.8204 157.128 19.8175 156.919 20.7804C156.919 20.7804 157.898 21.9138 158.336 22.6447C158.336 22.6447 158.038 24.239 157.399 25.7667C156.75 24.8221 155.92 23.9046 155.92 23.9046C155.435 25.1045 154.82 26.3118 154.138 27.4284C154.138 27.4284 155.378 28.8795 155.65 29.2932C155.286 29.9063 154.931 30.4401 154.536 31Z" fill="#0033A0"/>
<path d="M150.46 31C152.621 28.5832 154.462 25.7403 155.568 22.6961C156.528 20.0552 157.05 16.8299 156.201 13.9611C156.143 13.7679 156.078 13.577 156.005 13.389C155.733 12.6873 155.381 12.0754 154.998 11.5947C153.963 10.4378 152.793 9.41022 151.512 8.53428C151.698 8.77213 151.868 9.02165 152.022 9.28131C152.022 9.28131 153.583 10.4395 154.489 11.6162C153.327 10.7879 152.668 10.4526 152.583 10.4102C152.58 10.4087 152.576 10.4072 152.573 10.4055C153.015 11.4942 153.148 12.3958 153.148 12.3973C153.148 12.3973 154.528 13.1172 155.77 14.1928C155.942 14.9881 156.013 15.8029 156.001 16.6187C154.749 15.5174 153.3 14.6572 153.3 14.6572C153.274 15.5899 153.145 16.5345 152.94 17.4527C152.94 17.4527 154.308 18.319 155.641 19.5334C155.641 19.5334 155.258 21.2544 154.641 22.6077C153.362 21.417 152.114 20.4902 152.016 20.4178C152.016 20.4178 151.381 22.0737 150.352 23.7356C151.633 24.8496 152.837 26.0046 152.837 26.0046C152.101 27.1518 151.269 28.244 150.372 29.2652L150.372 29.2661L148.081 26.9851C147.149 28.1361 146.135 29.2175 145.046 30.2206C145.097 30.2786 145.559 30.7905 145.748 31H150.46Z" fill="#0033A0"/>
<path d="M151.048 8.78902C150.9 8.58643 150.732 8.37972 150.54 8.196C150.371 8.03508 150.207 7.88986 150.034 7.7594C148.127 6.32215 144.62 5.60372 144.62 5.60372C144.829 5.71607 145.035 5.83703 145.234 5.9663C145.251 5.9706 146.666 6.32515 147.92 6.93873C147.92 6.93873 146.779 6.6795 146.047 6.57858C146.354 6.84975 146.636 7.14806 146.889 7.4699C146.889 7.4699 149.217 7.89453 150.239 8.45485C150.239 8.45485 150.728 8.95817 151.128 9.84107C149.532 9.19347 147.726 8.85575 147.726 8.85575C147.966 9.39308 148.137 9.96854 148.243 10.5674C148.243 10.5674 150.229 11.0533 151.721 11.77C151.85 12.4788 151.898 13.2114 151.87 13.9526C150.107 13.0686 148.358 12.5135 148.358 12.5135C148.322 13.2778 148.2 14.0696 147.993 14.8785C147.993 14.8785 150.4 15.9532 151.482 16.6059C151.243 17.5613 150.907 18.4971 150.504 19.3981C148.857 18.3279 147.114 17.3762 147.114 17.3762C146.676 18.4279 145.599 20.1504 145.599 20.1504L145.6 20.1511C145.627 20.1698 147.42 21.4005 148.795 22.4928C148.112 23.5282 147.341 24.5225 146.503 25.468C146.214 25.1914 143.571 22.8451 143.571 22.8451C142.773 23.77 141.885 24.6711 140.912 25.5336C140.912 25.5336 140.912 25.534 140.913 25.5342L143.46 28.4178C143.461 28.4178 143.461 28.4178 143.461 28.4182L143.461 28.4186C141.808 29.7792 140.161 30.8105 140.161 30.8105L138.035 27.7921C138.035 27.7921 136.539 28.9305 134.014 30.1253V31H142.305C151.561 23.9975 154.845 13.9844 151.048 8.78902Z" fill="#0033A0"/>
<path d="M146.353 7.73866C144.055 4.64475 140.457 5.08676 139.384 5.23684C138.205 5.40206 137.314 5.65998 137.314 5.65998C137.577 5.68465 137.936 5.73175 138.195 5.78314C138.385 5.73829 140.04 5.36113 141.242 5.51868L141.246 5.51887C140.362 5.61475 139.156 5.9792 139.031 6.0177C139.029 6.01808 139.029 6.01882 139.028 6.01938L139.031 6.02088C139.075 6.03359 139.422 6.139 139.868 6.40047C139.998 6.36552 141.635 5.93136 143.196 5.90071V5.90108C143.196 5.90108 143.773 6.15694 144.329 6.5384C142.312 6.53074 140.642 6.91799 140.597 6.92864C140.853 7.1556 141.082 7.41226 141.279 7.69324C143.49 7.36206 145.398 7.5056 145.398 7.5056C145.398 7.5056 145.657 7.82202 145.774 7.99209C145.921 8.20628 146.072 8.47242 146.188 8.70623C143.932 8.44233 141.773 8.6311 141.772 8.6311C141.921 9.01536 142.022 9.42635 142.077 9.85846C142.326 9.85659 144.237 9.86014 146.672 10.2984C146.749 10.8565 146.757 11.4544 146.696 12.0853C146.282 11.9777 144.284 11.4785 142.103 11.2621C142.059 11.8071 141.955 12.3745 141.796 12.9563C142.04 13.0139 144.734 13.656 146.243 14.2674C146.214 14.3629 146.183 14.4581 146.152 14.553C145.936 15.2009 145.666 15.8515 145.346 16.5001C144.131 15.9018 141.151 14.7369 141.151 14.7369C140.853 15.4034 140.489 16.0781 140.063 16.7514C140.063 16.7514 142.618 18.2094 143.848 19.0167C143.262 19.851 142.622 20.6457 141.931 21.3955C141.039 20.595 138.807 18.8655 138.638 18.735C137.918 19.5921 137.012 20.4935 136.74 20.76L139.419 23.8315C139.394 23.8538 139.368 23.8764 139.342 23.8992C138.762 24.3797 138.138 24.832 137.61 25.1946C137.152 25.5058 136.774 25.7469 136.643 25.831C136.612 25.7837 134.858 22.9834 134.595 22.5378C134.403 22.6789 134.21 22.8168 134.014 22.9514V28.7081C134.329 28.5561 134.645 28.3988 134.96 28.2315C136.47 27.4878 137.935 26.5442 139.299 25.454C140.251 24.6985 141.152 23.8805 141.996 23.0054C143.071 21.9024 144.005 20.7468 144.784 19.5759C147.739 15.2151 148.53 10.6685 146.353 7.73866Z" fill="#0033A0"/>
<path d="M140.39 7.50525C139.296 6.24892 137.474 5.81868 135.357 6.12126C135.299 6.12986 135.239 6.13809 135.185 6.14706C135.021 6.17517 134.858 6.20739 134.695 6.24368C134.368 6.31956 134.145 6.39432 134.014 6.44497V7.07856C134.221 6.91453 134.435 6.75855 134.654 6.61094C135.076 6.52067 135.486 6.46329 135.881 6.43731C135.27 6.78625 134.564 7.25966 134.014 7.69663V8.18443L134.033 8.19565C134.033 8.19565 135.584 6.96735 136.817 6.43806C137.104 6.45792 137.389 6.49978 137.67 6.56328C135.828 7.3447 134.468 8.31395 134.374 8.38198C134.508 8.46345 134.636 8.55399 134.758 8.65298C134.782 8.63803 136.568 7.52094 138.533 6.85147C138.8 6.97333 139.057 7.12509 139.28 7.29685C137.14 7.89829 135.083 8.97221 135.083 8.97221C135.199 9.10746 135.302 9.25375 135.389 9.40899L135.426 9.39441C137.616 8.45693 139.944 7.97623 139.944 7.97623C140.13 8.23269 140.281 8.51355 140.391 8.81091C140.391 8.81091 138.302 9.04977 135.614 9.91174C135.733 10.2829 135.766 10.5621 135.766 10.5646C135.766 10.5646 138.299 9.9979 140.635 9.93511C140.668 10.3104 140.656 10.7317 140.602 11.1638C139.219 11.0909 135.923 11.2664 135.794 11.2765C135.794 11.2765 135.782 11.7512 135.658 12.1979C135.658 12.1979 138.066 12.2753 140.257 12.6838C140.084 13.2155 139.869 13.7326 139.615 14.2306C138.155 13.7921 135.94 13.2597 135.357 13.1258C135.198 13.5138 135.006 13.8871 134.782 14.2414C134.782 14.2414 137.489 15.4226 138.528 16.0005H138.53L138.529 16.0016C138.079 16.6767 137.185 17.6217 137.185 17.6217C136.94 17.4389 136.695 17.2574 136.449 17.077C135.731 16.5748 134.666 15.8291 134.019 15.3785L134.014 15.3748V17.6133L135.417 19.2531C134.967 19.616 134.499 19.9555 134.014 20.2702V21.6058L134.065 21.5721C134.724 21.1232 135.356 20.6356 135.957 20.1121C140.801 15.8975 142.786 10.2532 140.39 7.50543" fill="#0033A0"/>
<path d="M134.013 13.9201C135.251 12.1584 135.43 10.1366 134.343 9.14955C134.241 9.05685 134.13 8.97742 134.013 8.90883V13.9201ZM140.769 4.44906C151.746 4.44906 160.676 13.4133 160.676 24.4317C160.676 26.6664 160.299 28.8899 159.567 31H164.454V0.558781H134.013V5.63605L134.037 5.62746C136.195 4.84591 138.473 4.44706 140.769 4.44888V4.44906ZM121.276 10.2646C120.533 9.60297 119.584 9.08956 118.429 8.72492C117.274 8.36047 115.887 8.17806 114.266 8.17806H106.06V23.3729H114.266C117.183 23.3729 119.442 22.7415 121.043 21.4785C122.643 20.216 123.444 18.315 123.444 15.7757C123.444 14.6412 123.268 13.6043 122.917 12.6657C122.565 11.7267 122.018 10.9266 121.276 10.2646ZM118.531 17.68C118.361 18.1934 118.088 18.6051 117.71 18.9155C117.332 19.2269 116.842 19.4495 116.241 19.5843C115.64 19.7196 114.914 19.7869 114.063 19.7869H110.477V11.7639H114.063C114.941 11.7639 115.68 11.8386 116.282 11.9867C116.882 12.1358 117.369 12.3717 117.74 12.6959C118.111 13.02 118.378 13.4353 118.541 13.9418C118.703 14.4487 118.783 15.0596 118.783 15.7757C118.783 16.5318 118.699 17.1665 118.53 17.6801L118.531 17.68ZM88.6166 17.1329H96.9231V14.1547H88.6166V11.6428H98.483L98.4022 8.17768H84.1995V23.3729H98.8072L98.8883 19.9489H88.6164L88.6166 17.1329ZM61.7723 8.17787L61.6511 11.7639H67.4655V23.3727H71.9025V11.7637H77.7169L77.616 8.17787H61.7723ZM50.427 23.3729H54.9247V8.17787H50.427V23.3729ZM37.9467 15.7347L37.9874 17.3557L37.9467 17.3961L36.7916 16.221L28.5666 8.17787H24.9197V23.3729H28.9311V15.3908L28.8909 13.7495L28.9513 13.7293L30.1063 14.884L39.061 23.3729H41.9584V8.17806H37.9467V15.7347ZM12.7029 16.7481C12.7029 17.896 12.3786 18.7505 11.7305 19.311C11.0823 19.8717 10.0418 20.1517 8.6104 20.1517C7.16511 20.1517 6.10484 19.8717 5.42958 19.311C4.75394 18.7503 4.4164 17.896 4.4164 16.7481V8.17806H0V16.7077C0 19.0576 0.739369 20.8101 2.21848 21.9652C3.69741 23.1198 5.82786 23.6971 8.6104 23.6971C11.406 23.6971 13.52 23.1232 14.9518 21.9752C16.3833 20.8271 17.0995 19.0709 17.0995 16.7077V8.17806H12.7029V16.7481Z" fill="#0033A0"/>
</svg>
